<svg width="344" height="736" viewBox="0 0 344 736" fill="none" xmlns="http://www.w3.org/2000/svg">
<path d="M68.2876 375.019C65.5262 375.019 63.2876 377.258 63.2876 380.019V730.32C63.2876 733.081 65.5262 735.32 68.2876 735.32H275.759C278.52 735.32 280.759 733.081 280.759 730.32V380.019C280.759 377.258 278.52 375.019 275.759 375.019H68.2876ZM171.537 413.589C166.488 413.589 162.376 409.391 162.376 404.203C162.376 399.015 166.471 394.816 171.537 394.816C176.604 394.816 180.699 399.015 180.699 404.203C180.699 409.391 176.604 413.589 171.537 413.589Z" fill="#FBEDD0"/>
<path d="M174.921 395.319C174.244 395.076 173.324 394.833 172.231 394.764C170.462 394.66 169.056 395.094 168.206 395.423C168.328 356.541 168.449 317.641 168.57 278.759H174.522C174.66 317.624 174.782 356.471 174.921 395.337V395.319Z" fill="#744A22"/>
<path d="M266.167 214.985C264.696 214.232 261.726 219.269 254.648 227.259C249.443 233.136 249.703 231.92 235.243 245.975C226.68 254.312 221.648 259.538 220.783 258.785C219.587 257.757 229.318 247.973 228.453 234.786C228.193 230.921 226.853 224.495 223.695 223.699C222.138 223.308 220.149 224.292 209.855 237.218C206.02 242.038 204.089 244.441 201.047 248.638C192.7 260.102 189.11 266.5 187.884 265.878C187.135 265.501 188.331 262.983 188.317 258.829C188.288 252.054 185.03 247.032 181.627 241.792C179.508 238.521 175.918 233.773 170.296 229.228V228.996C170.296 228.996 170.209 229.069 170.166 229.112C170.166 229.112 170.137 229.098 170.123 229.083V229.155C164.645 233.889 161.213 238.738 159.195 242.081C155.951 247.437 152.852 252.561 153.025 259.335C153.126 263.475 154.394 265.965 153.659 266.37C152.463 267.036 148.7 260.754 140.05 249.565C136.893 245.483 134.903 243.124 130.938 238.434C120.299 225.855 118.295 224.929 116.752 225.378C113.624 226.275 112.471 232.745 112.327 236.61C111.836 249.811 121.813 259.277 120.659 260.348C119.823 261.13 114.648 256.064 105.868 248.001C91.062 234.41 91.3502 235.626 85.9872 229.923C78.6924 222.164 75.5929 217.214 74.1512 218.024C72.5654 218.907 74.1944 226.043 75.9965 230.921C83.1039 250.288 102.148 259.74 110.063 263.678C125.129 271.161 138.623 272.695 148.181 273.68C157.335 274.635 165.063 274.461 170.627 274.099V274.157C176.25 274.36 184.194 274.302 193.593 273.028C203.137 271.725 216.617 269.757 231.509 261.781C239.337 257.598 258.151 247.524 264.711 227.94C266.369 223.004 267.796 215.81 266.181 214.985H266.167Z" fill="url(#paint0_linear_350_991)"/>
<path d="M171.435 172.068C192.513 172.198 205.834 149.806 210.375 136.779C216.084 120.393 212.408 105.745 211.326 101.489C207.376 85.9871 198.51 76.5207 194.718 72.8586C185.91 64.362 176.697 60.8157 171.709 59.3103C166.736 60.8012 157.48 64.333 148.643 72.8586C144.894 76.4628 136.071 85.9581 132.035 101.489C130.91 105.832 127.306 120.422 132.986 136.779C133.534 138.371 145.716 171.909 171.435 172.068Z" fill="url(#paint1_linear_350_991)"/>
<path d="M211.241 86.2623C198.583 70.8757 189.53 64.9266 190.914 62.3936C192.24 59.9618 201.741 63.3489 203.701 64.0582C220.612 70.0941 232.189 82.1804 239.757 91.9074C247.845 102.3 267.726 126.893 261.426 136.46C257.879 141.845 246.274 142.12 239.714 137.01C232.708 131.539 236.24 123.665 229.363 109.306C226.451 103.241 220.915 98.0446 211.241 86.2912V86.2623Z" fill="url(#paint2_linear_350_991)"/>
<path d="M132.539 86.2623C145.197 70.8757 154.25 64.9266 152.866 62.3936C151.54 59.9618 142.039 63.3489 140.079 64.0582C123.168 70.0941 111.591 82.1804 104.023 91.9074C95.9348 102.3 76.0543 126.893 82.3544 136.46C85.9009 141.845 97.5063 142.12 104.066 137.01C111.072 131.539 107.54 123.665 114.417 109.306C117.329 103.241 122.865 98.0446 132.539 86.2912V86.2623Z" fill="url(#paint3_linear_350_991)"/>
<path d="M239.467 97.3353C228.942 80.2552 220.754 73.0324 222.455 70.7164C224.084 68.5018 233.066 73.2495 234.897 74.2193C250.856 82.6725 260.746 96.3221 266.974 107.077C273.62 118.541 290.112 145.811 282.601 154.365C278.377 159.171 266.858 157.767 261.034 151.731C254.82 145.29 259.347 137.995 254.402 122.782C252.312 116.355 247.511 110.391 239.467 97.3353Z" fill="url(#paint4_linear_350_991)"/>
<path d="M103 97.3353C113.524 80.2552 121.713 73.0324 120.012 70.7164C118.383 68.5018 109.401 73.2495 107.57 74.2193C91.6111 82.6725 81.7213 96.3221 75.4933 107.077C68.8472 118.541 52.3545 145.811 59.8656 154.365C64.0897 159.171 75.6086 157.767 81.433 151.731C87.6465 145.29 83.1197 137.995 88.0646 122.782C90.155 116.355 94.9557 110.391 103 97.3353Z" fill="url(#paint5_linear_350_991)"/>
<path d="M177.981 65.7517L177.909 65.6214C177.909 65.6214 178.024 65.6214 178.067 65.6214C178.096 65.578 178.125 65.5346 178.154 65.5056L178.211 65.6214C191.691 66.982 200.889 72.1929 205.747 75.5221C208.659 77.5196 233.456 94.9905 229.967 116.152C228.843 122.97 225.138 128.007 222.254 131.105C220.236 132.668 212.537 138.313 203.541 136.258C196.001 134.535 191.763 128.369 188.836 123.983C175.559 104.095 177.029 76.1445 177.981 65.7806V65.7517Z" fill="url(#paint6_linear_350_991)"/>
<path d="M161.618 65.7517L161.69 65.6214C161.69 65.6214 161.574 65.6214 161.531 65.6214C161.502 65.578 161.473 65.5346 161.445 65.5056L161.387 65.6214C147.907 66.982 138.709 72.1929 133.851 75.5221C130.939 77.5196 106.142 94.9905 109.631 116.152C110.756 122.97 114.461 128.007 117.344 131.105C119.362 132.668 127.061 138.313 136.057 136.258C143.597 134.535 147.835 128.369 150.762 123.983C164.039 104.095 162.569 76.1445 161.618 65.7806V65.7517Z" fill="url(#paint7_linear_350_991)"/>
<path d="M91.5248 187.961C113.871 180.246 129.585 160.112 131.286 137.271C133.146 112.36 117.532 95.1784 115.01 92.4717L90.4868 187.237H90.5301L115.716 92.6743C112.227 93.6152 90.4724 99.8248 79.9194 122.174C70.2458 142.67 73.8932 168.493 89.2758 187.281" fill="url(#paint8_linear_350_991)"/>
<path d="M256.594 187.961C234.248 180.246 218.534 160.112 216.833 137.271C214.973 112.36 230.587 95.1784 233.11 92.4717L257.632 187.237H257.589L232.403 92.6743C235.892 93.6152 257.647 99.8248 268.2 122.174C277.873 142.67 274.226 168.493 258.843 187.281" fill="url(#paint9_linear_350_991)"/>
<path d="M272.784 116.312C277.757 123.288 284.461 134.839 286.451 150.081C293.645 205.316 231.984 256.86 221.821 250.014C215.319 245.643 225.064 214.146 233.022 196.414C241.485 177.554 249.458 170.838 261.236 145.492C266.83 133.45 270.535 123.129 272.784 116.297V116.312Z" fill="url(#paint10_linear_350_991)"/>
<path d="M70.6056 116.311C65.6318 123.751 58.9281 136.084 56.9386 152.339C49.7447 211.265 111.405 266.254 121.568 258.959C128.07 254.298 118.325 220.688 110.367 201.784C101.904 181.664 93.9318 174.499 82.1534 147.461C76.5597 134.622 72.8546 123.606 70.6056 116.311Z" fill="url(#paint11_linear_350_991)"/>
<path d="M167.861 203.073C169.721 202.682 197.401 196.212 206.801 167.784C212.149 151.601 208.819 136.663 207.752 132.494C204.148 118.382 196.652 110.015 191.144 103.864C182.523 94.2379 173.671 89.0559 168.049 86.3347H168.164C162.542 89.0559 153.69 94.2379 145.069 103.864C139.562 110.001 132.065 118.382 128.461 132.494C127.394 136.663 124.064 151.601 129.412 167.784C138.812 196.212 166.492 202.667 168.352 203.073" fill="url(#paint12_linear_350_991)"/>
<path d="M117.07 122.159C118.815 123.144 147.187 139.876 149.378 174.876C150.834 197.949 140.368 220.182 122.059 233.05L117.07 122.145V122.159Z" fill="url(#paint13_linear_350_991)"/>
<path d="M117.633 121.986C115.975 123.144 89.1887 142.569 90.0537 177.626C90.616 200.742 102.971 221.861 122.333 232.891L117.647 121.971L117.633 121.986Z" fill="url(#paint14_linear_350_991)"/>
<path d="M224.171 117.571C222.398 118.497 193.522 134.231 190.235 169.144C188.058 192.144 197.818 214.739 215.723 228.244L224.171 117.571Z" fill="url(#paint15_linear_350_991)"/>
<path d="M223.611 117.397C225.225 118.613 251.392 138.95 249.445 173.978C248.162 197.051 235.159 217.735 215.465 228.084L223.611 117.397Z" fill="url(#paint16_linear_350_991)"/>
<path d="M169.922 273.549C171.94 273.115 201.999 266.095 212.206 235.235C218.016 217.663 214.397 201.451 213.244 196.921C209.337 181.592 201.192 172.502 195.209 165.829C185.838 155.378 176.236 149.748 170.124 146.795H170.253C164.141 149.748 154.539 155.378 145.168 165.829C139.185 172.502 131.04 181.592 127.133 196.921C125.98 201.451 122.361 217.663 128.171 235.235C138.378 266.095 168.437 273.115 170.455 273.549" fill="url(#paint17_linear_350_991)"/>
<path d="M92.9511 177.453C87.8764 184.357 79.2408 198.426 80.7834 215.304C84.4885 255.934 148.672 276.749 153.357 270.061C153.876 269.323 153.616 268.353 145.947 254.385C136.374 236.972 131.588 228.259 128.113 222.802C116.421 204.477 103.778 189.177 92.9511 177.453Z" fill="url(#paint18_linear_350_991)"/>
<path d="M244.399 175.976C249.474 182.881 258.11 196.95 256.567 213.827C252.862 254.458 188.679 275.272 183.993 268.585C183.474 267.847 183.734 266.877 191.403 252.909C200.976 235.496 205.762 226.782 209.237 221.325C220.929 203 233.572 187.701 244.399 175.976Z" fill="url(#paint19_linear_350_991)"/>
<path d="M249.444 250.26C242.755 251.462 242.928 253.908 231.193 259.727C215.363 267.586 201.581 269.844 195.036 270.858C189.168 271.77 181.196 272.58 171.637 272.291C162.007 272.522 153.963 271.654 148.066 270.684C141.55 269.627 127.825 267.282 112.068 259.307C100.39 253.401 100.578 250.955 93.9172 249.71C78.5346 246.815 62.3447 256.904 63.0511 260.74C63.1809 261.42 63.9594 262.564 74.0222 263.751C89.1453 265.531 103.951 264.851 111.65 264.199C109.689 264.677 107.397 265.502 105.205 266.863C103.634 267.847 100.895 269.656 100.996 271.596C101.082 273.101 102.985 275.794 116.479 278.341C117.777 278.587 125.346 279.788 134.169 278.399C138.623 277.69 140.843 277.342 143.28 276.242C145.947 275.041 146.999 273.955 148.859 274.23C151.122 274.549 151.512 276.401 154.626 278.978C157.235 281.135 159.614 282.032 163.521 283.508C165.525 284.276 168.177 285.101 171.349 285.694V285.738C171.349 285.738 171.436 285.723 171.479 285.709C171.508 285.709 171.537 285.709 171.58 285.723V285.694C174.766 285.13 177.419 284.305 179.437 283.566C183.344 282.119 185.751 281.236 188.375 279.094C191.518 276.532 191.907 274.693 194.185 274.389C196.059 274.143 197.097 275.214 199.764 276.445C202.215 277.574 204.435 277.936 208.89 278.674C217.742 280.136 225.34 278.978 226.637 278.732C240.189 276.286 242.106 273.608 242.207 272.102C242.337 270.163 239.598 268.325 238.026 267.34C235.82 265.951 233.543 265.126 231.582 264.634C239.295 265.343 254.13 266.124 269.296 264.445C279.388 263.331 280.195 262.187 280.325 261.507C281.046 257.671 264.884 247.481 249.444 250.26Z" fill="url(#paint20_linear_350_991)"/>
<path d="M261.813 217.591C260.43 216.882 257.633 221.629 250.958 229.156C246.056 234.685 246.301 233.542 232.692 246.786C224.619 254.632 219.89 259.567 219.068 258.858C217.944 257.888 227.113 248.668 226.291 236.263C226.046 232.63 224.791 226.565 221.807 225.827C220.337 225.465 218.463 226.377 208.775 238.55C205.156 243.095 203.354 245.353 200.471 249.305C192.614 260.103 189.226 266.124 188.072 265.545C187.366 265.184 188.505 262.81 188.476 258.902C188.447 252.518 185.376 247.799 182.176 242.849C180.172 239.766 176.799 235.308 171.493 231.023V230.806C171.493 230.806 171.407 230.879 171.363 230.908C171.363 230.908 171.335 230.893 171.32 230.879V230.937C166.159 235.395 162.93 239.969 161.027 243.11C157.97 248.161 155.058 252.981 155.202 259.35C155.289 263.258 156.485 265.589 155.793 265.965C154.669 266.588 151.122 260.667 142.977 250.13C139.993 246.28 138.133 244.065 134.399 239.65C124.379 227.795 122.491 226.941 121.035 227.347C118.094 228.186 117.013 234.295 116.868 237.928C116.407 250.361 125.807 259.278 124.711 260.277C123.918 261.015 119.045 256.238 110.785 248.653C96.8292 235.858 97.1176 236.987 92.0717 231.617C85.2094 224.307 82.2828 219.646 80.9276 220.413C79.4283 221.238 80.9709 227.969 82.6576 232.558C89.3614 250.796 107.296 259.698 114.749 263.403C128.95 270.452 141.651 271.885 150.647 272.826C159.268 273.724 166.548 273.564 171.796 273.217V273.275C177.087 273.477 184.569 273.42 193.421 272.204C202.417 270.973 215.104 269.121 229.131 261.623C236.498 257.671 254.216 248.19 260.401 229.75C261.958 225.103 263.313 218.329 261.785 217.547L261.813 217.591Z" fill="url(#paint21_linear_350_991)"/>
<defs>
<linearGradient id="paint0_linear_350_991" x1="170.195" y1="222.323" x2="170.282" y2="267.282" gradientUnits="userSpaceOnUse">
<stop offset="0.01" stop-color="#4A874E"/>
<stop offset="0.25" stop-color="#5B9462"/>
<stop offset="0.62" stop-color="#6AA275"/>
<stop offset="1" stop-color="#6DA479"/>
</linearGradient>
<linearGradient id="paint1_linear_350_991" x1="171.594" y1="73.0323" x2="171.768" y2="158.563" gradientUnits="userSpaceOnUse">
<stop offset="0.01" stop-color="#6977B9"/>
<stop offset="0.25" stop-color="#958FC4"/>
<stop offset="0.62" stop-color="#BDA7CF"/>
<stop offset="1" stop-color="#F3C2C7"/>
</linearGradient>
<linearGradient id="paint2_linear_350_991" x1="214.308" y1="75.0729" x2="246.587" y2="124.11" gradientUnits="userSpaceOnUse">
<stop offset="0.01" stop-color="#6977B9"/>
<stop offset="0.25" stop-color="#958FC4"/>
<stop offset="0.62" stop-color="#BDA7CF"/>
<stop offset="1" stop-color="#F3C2C7"/>
</linearGradient>
<linearGradient id="paint3_linear_350_991" x1="129.469" y1="75.078" x2="97.1902" y2="124.115" gradientUnits="userSpaceOnUse">
<stop offset="0.01" stop-color="#6977B9"/>
<stop offset="0.25" stop-color="#958FC4"/>
<stop offset="0.62" stop-color="#BDA7CF"/>
<stop offset="1" stop-color="#F3C2C7"/>
</linearGradient>
<linearGradient id="paint4_linear_350_991" x1="243.993" y1="86.653" x2="269.36" y2="140.073" gradientUnits="userSpaceOnUse">
<stop offset="0.01" stop-color="#6977B9"/>
<stop offset="0.25" stop-color="#958FC4"/>
<stop offset="0.62" stop-color="#BDA7CF"/>
<stop offset="1" stop-color="#F3C2C7"/>
</linearGradient>
<linearGradient id="paint5_linear_350_991" x1="98.459" y1="86.653" x2="73.093" y2="140.073" gradientUnits="userSpaceOnUse">
<stop offset="0.01" stop-color="#6977B9"/>
<stop offset="0.25" stop-color="#958FC4"/>
<stop offset="0.62" stop-color="#BDA7CF"/>
<stop offset="1" stop-color="#F3C2C7"/>
</linearGradient>
<linearGradient id="paint6_linear_350_991" x1="190.203" y1="79.864" x2="212.772" y2="119.773" gradientUnits="userSpaceOnUse">
<stop offset="0.01" stop-color="#6977B9"/>
<stop offset="0.25" stop-color="#958FC4"/>
<stop offset="0.62" stop-color="#BDA7CF"/>
<stop offset="1" stop-color="#F3C2C7"/>
</linearGradient>
<linearGradient id="paint7_linear_350_991" x1="149.382" y1="79.9664" x2="126.827" y2="119.877" gradientUnits="userSpaceOnUse">
<stop offset="0.01" stop-color="#6977B9"/>
<stop offset="0.25" stop-color="#958FC4"/>
<stop offset="0.62" stop-color="#BDA7CF"/>
<stop offset="1" stop-color="#F3C2C7"/>
</linearGradient>
<linearGradient id="paint8_linear_350_991" x1="111.516" y1="107.08" x2="94.7213" y2="170.485" gradientUnits="userSpaceOnUse">
<stop offset="0.01" stop-color="#6977B9"/>
<stop offset="0.25" stop-color="#958FC4"/>
<stop offset="0.62" stop-color="#BDA7CF"/>
<stop offset="1" stop-color="#F3C2C7"/>
</linearGradient>
<linearGradient id="paint9_linear_350_991" x1="236.612" y1="107.026" x2="253.398" y2="170.418" gradientUnits="userSpaceOnUse">
<stop offset="0.01" stop-color="#6977B9"/>
<stop offset="0.25" stop-color="#958FC4"/>
<stop offset="0.62" stop-color="#BDA7CF"/>
<stop offset="1" stop-color="#F3C2C7"/>
</linearGradient>
<linearGradient id="paint10_linear_350_991" x1="253.509" y1="132.625" x2="253.305" y2="234.598" gradientUnits="userSpaceOnUse">
<stop offset="0.01" stop-color="#6977B9"/>
<stop offset="0.25" stop-color="#958FC4"/>
<stop offset="0.62" stop-color="#BDA7CF"/>
<stop offset="1" stop-color="#F3C2C7"/>
</linearGradient>
<linearGradient id="paint11_linear_350_991" x1="89.8663" y1="133.724" x2="90.0843" y2="242.501" gradientUnits="userSpaceOnUse">
<stop offset="0.01" stop-color="#6977B9"/>
<stop offset="0.25" stop-color="#958FC4"/>
<stop offset="0.62" stop-color="#BDA7CF"/>
<stop offset="1" stop-color="#F3C2C7"/>
</linearGradient>
<linearGradient id="paint12_linear_350_991" x1="168.02" y1="100.549" x2="168.194" y2="189.09" gradientUnits="userSpaceOnUse">
<stop offset="0.01" stop-color="#6977B9"/>
<stop offset="0.25" stop-color="#958FC4"/>
<stop offset="0.62" stop-color="#BDA7CF"/>
<stop offset="1" stop-color="#F3C2C7"/>
</linearGradient>
<linearGradient id="paint13_linear_350_991" x1="132.754" y1="144.247" x2="136.475" y2="218.1" gradientUnits="userSpaceOnUse">
<stop offset="0.01" stop-color="#6977B9"/>
<stop offset="0.25" stop-color="#958FC4"/>
<stop offset="0.62" stop-color="#BDA7CF"/>
<stop offset="1" stop-color="#F3C2C7"/>
</linearGradient>
<linearGradient id="paint14_linear_350_991" x1="103.661" y1="145.383" x2="106.793" y2="219.278" gradientUnits="userSpaceOnUse">
<stop offset="0.01" stop-color="#6977B9"/>
<stop offset="0.25" stop-color="#958FC4"/>
<stop offset="0.62" stop-color="#BDA7CF"/>
<stop offset="1" stop-color="#F3C2C7"/>
</linearGradient>
<linearGradient id="paint15_linear_350_991" x1="207.906" y1="139.148" x2="201.743" y2="212.822" gradientUnits="userSpaceOnUse">
<stop offset="0.01" stop-color="#6977B9"/>
<stop offset="0.25" stop-color="#958FC4"/>
<stop offset="0.62" stop-color="#BDA7CF"/>
<stop offset="1" stop-color="#F3C2C7"/>
</linearGradient>
<linearGradient id="paint16_linear_350_991" x1="236.871" y1="141.242" x2="231.295" y2="214.977" gradientUnits="userSpaceOnUse">
<stop offset="0.01" stop-color="#6977B9"/>
<stop offset="0.25" stop-color="#958FC4"/>
<stop offset="0.62" stop-color="#BDA7CF"/>
<stop offset="1" stop-color="#F3C2C7"/>
</linearGradient>
<linearGradient id="paint17_linear_350_991" x1="170.08" y1="162.225" x2="170.269" y2="258.38" gradientUnits="userSpaceOnUse">
<stop offset="0.01" stop-color="#6977B9"/>
<stop offset="0.25" stop-color="#958FC4"/>
<stop offset="0.62" stop-color="#BDA7CF"/>
<stop offset="1" stop-color="#F3C2C7"/>
</linearGradient>
<linearGradient id="paint18_linear_350_991" x1="116.955" y1="188.83" x2="117.1" y2="260.103" gradientUnits="userSpaceOnUse">
<stop offset="0.01" stop-color="#6977B9"/>
<stop offset="0.25" stop-color="#958FC4"/>
<stop offset="0.62" stop-color="#BDA7CF"/>
<stop offset="1" stop-color="#F3C2C7"/>
</linearGradient>
<linearGradient id="paint19_linear_350_991" x1="220.395" y1="187.368" x2="220.25" y2="258.641" gradientUnits="userSpaceOnUse">
<stop offset="0.01" stop-color="#6977B9"/>
<stop offset="0.25" stop-color="#958FC4"/>
<stop offset="0.62" stop-color="#BDA7CF"/>
<stop offset="1" stop-color="#F3C2C7"/>
</linearGradient>
<linearGradient id="paint20_linear_350_991" x1="171.666" y1="249.044" x2="171.739" y2="285.767" gradientUnits="userSpaceOnUse">
<stop offset="0.01" stop-color="#4A874E"/>
<stop offset="0.25" stop-color="#5B9462"/>
<stop offset="0.62" stop-color="#6AA275"/>
<stop offset="1" stop-color="#6DA479"/>
</linearGradient>
<linearGradient id="paint21_linear_350_991" x1="171.421" y1="224.495" x2="171.508" y2="266.848" gradientUnits="userSpaceOnUse">
<stop offset="0.01" stop-color="#4A874E"/>
<stop offset="0.25" stop-color="#5B9462"/>
<stop offset="0.62" stop-color="#6AA275"/>
<stop offset="1" stop-color="#6DA479"/>
</linearGradient>
</defs>
</svg>
