<svg width="344" height="736" viewBox="0 0 344 736" fill="none" xmlns="http://www.w3.org/2000/svg">
<path d="M68.2874 375.019C65.5259 375.019 63.2874 377.258 63.2874 380.019V730.32C63.2874 733.081 65.5259 735.32 68.2874 735.32H275.759C278.52 735.32 280.759 733.081 280.759 730.32V380.019C280.759 377.258 278.52 375.019 275.759 375.019H68.2874ZM171.537 413.589C166.488 413.589 162.376 409.391 162.376 404.203C162.376 399.015 166.471 394.816 171.537 394.816C176.604 394.816 180.698 399.015 180.698 404.203C180.698 409.391 176.604 413.589 171.537 413.589Z" fill="#FBEDD0"/>
<path d="M174.92 395.319C174.244 395.077 173.324 394.834 172.231 394.764C170.461 394.66 169.056 395.094 168.206 395.424C168.327 356.541 168.448 317.641 168.57 278.759H174.521C174.66 317.624 174.781 356.472 174.92 395.337V395.319Z" fill="#744A22"/>
<path d="M266.089 211.036C264.612 210.283 261.63 215.32 254.521 223.309C249.294 229.186 249.554 227.97 235.033 242.024C226.432 250.361 221.379 255.586 220.511 254.833C219.309 253.806 229.082 244.021 228.213 230.836C227.953 226.971 226.606 220.545 223.435 219.749C221.872 219.358 219.874 220.342 209.536 233.267C205.685 238.087 203.745 240.49 200.69 244.687C192.307 256.15 188.702 262.548 187.471 261.925C186.718 261.549 187.92 259.031 187.905 254.877C187.876 248.103 184.604 243.081 181.187 237.841C179.059 234.57 175.454 229.823 169.807 225.278V225.046C169.807 225.046 169.72 225.119 169.677 225.162C169.677 225.162 169.648 225.148 169.633 225.133V225.206C164.132 229.938 160.686 234.787 158.659 238.131C155.401 243.486 152.288 248.61 152.462 255.383C152.563 259.523 153.837 262.012 153.099 262.417C151.897 263.083 148.118 256.802 139.431 245.613C136.261 241.532 134.263 239.173 130.281 234.483C119.596 221.906 117.583 220.979 116.034 221.428C112.892 222.325 111.734 228.795 111.589 232.659C111.097 245.86 121.116 255.325 119.958 256.396C119.118 257.178 113.92 252.112 105.103 244.05C90.2336 230.459 90.5232 231.675 85.1372 225.973C77.8111 218.215 74.6982 213.265 73.2504 214.075C71.6578 214.958 73.2938 222.094 75.1036 226.971C82.2415 246.337 101.368 255.789 109.316 259.725C124.446 267.208 137.998 268.743 147.597 269.727C156.791 270.682 164.551 270.508 170.14 270.146V270.204C175.787 270.407 183.764 270.349 193.204 269.075C202.789 267.773 216.326 265.804 231.283 257.829C239.144 253.646 258.039 243.573 264.627 223.99C266.292 219.054 267.725 211.861 266.103 211.036H266.089Z" fill="url(#paint0_linear_350_987)"/>
<path d="M170.953 168.107C192.121 168.237 205.499 145.846 210.059 132.82C215.793 116.436 212.101 101.788 211.015 97.5328C207.048 82.0314 198.144 72.5656 194.336 68.9037C185.49 60.4077 176.238 56.8616 171.228 55.3563C166.233 56.8471 156.938 60.3787 148.063 68.9037C144.298 72.5077 135.438 82.0025 131.384 97.5328C130.254 101.875 126.635 116.464 132.339 132.82C132.889 134.412 145.124 167.948 170.953 168.107Z" fill="url(#paint1_linear_350_987)"/>
<path d="M210.912 82.3067C198.2 66.9212 189.107 60.9725 190.497 58.4396C191.829 56.008 201.37 59.3948 203.339 60.104C220.323 66.1396 231.949 78.2251 239.55 87.9515C247.672 98.3436 267.638 122.935 261.311 132.502C257.749 137.886 246.094 138.161 239.507 133.052C232.47 127.581 236.017 119.707 229.111 105.349C226.186 99.2844 220.627 94.0884 210.912 82.3357V82.3067Z" fill="url(#paint2_linear_350_987)"/>
<path d="M131.875 82.3067C144.587 66.9212 153.679 60.9725 152.289 58.4396C150.957 56.008 141.416 59.3948 139.447 60.104C122.464 66.1396 110.837 78.2251 103.236 87.9515C95.1137 98.3436 75.148 122.935 81.475 132.502C85.0367 137.886 96.6919 138.161 103.28 133.052C110.316 127.581 106.769 119.707 113.675 105.349C116.6 99.2844 122.159 94.0884 131.875 82.3357V82.3067Z" fill="url(#paint3_linear_350_987)"/>
<path d="M239.26 93.3789C228.691 76.2999 220.467 69.0775 222.176 66.7617C223.812 64.5472 232.832 69.2946 234.671 70.2643C250.698 78.717 260.63 92.3657 266.885 103.12C273.56 114.583 290.123 141.851 282.58 150.405C278.338 155.211 266.769 153.807 260.92 147.771C254.68 141.33 259.226 134.036 254.26 118.824C252.161 112.397 247.339 106.434 239.26 93.3789Z" fill="url(#paint4_linear_350_987)"/>
<path d="M102.208 93.3789C112.778 76.2999 121.002 69.0775 119.293 66.7617C117.657 64.5472 108.637 69.2946 106.798 70.2643C90.7705 78.717 80.8383 92.3657 74.5836 103.12C67.909 114.583 51.3457 141.851 58.889 150.405C63.1311 155.211 74.6994 153.807 80.5487 147.771C86.7889 141.33 82.2427 134.036 87.2088 118.824C89.3082 112.397 94.1295 106.434 102.208 93.3789Z" fill="url(#paint5_linear_350_987)"/>
<path d="M177.51 61.7974L177.438 61.6672C177.438 61.6672 177.554 61.6672 177.597 61.6672C177.626 61.6238 177.655 61.5803 177.684 61.5514L177.742 61.6672C191.279 63.0277 200.517 68.2383 205.396 71.5672C208.32 73.5646 233.223 91.0344 229.72 112.195C228.59 119.012 224.869 124.049 221.974 127.146C219.947 128.71 212.215 134.354 203.181 132.299C195.608 130.577 191.352 124.411 188.413 120.025C175.078 100.138 176.555 72.1896 177.51 61.8264V61.7974Z" fill="url(#paint6_linear_350_987)"/>
<path d="M161.077 61.7974L161.149 61.6672C161.149 61.6672 161.034 61.6672 160.99 61.6672C160.961 61.6238 160.932 61.5803 160.903 61.5514L160.845 61.6672C147.308 63.0277 138.071 68.2383 133.192 71.5672C130.267 73.5646 105.364 91.0344 108.868 112.195C109.997 119.012 113.718 124.049 116.614 127.146C118.641 128.71 126.372 134.354 135.407 132.299C142.979 130.577 147.236 124.411 150.175 120.025C163.509 100.138 162.033 72.1896 161.077 61.8264V61.7974Z" fill="url(#paint7_linear_350_987)"/>
<path d="M90.6976 183.999C113.139 176.284 128.921 156.151 130.629 133.312C132.497 108.402 116.817 91.222 114.283 88.5154L89.6551 183.275H89.6986L114.992 88.718C111.489 89.6588 89.6406 95.868 79.0424 118.215C69.3274 138.71 72.9904 164.531 88.4389 183.318" fill="url(#paint8_linear_350_987)"/>
<path d="M256.476 183.999C234.034 176.284 218.252 156.151 216.544 133.312C214.676 108.402 230.356 91.222 232.89 88.5154L257.518 183.275H257.475L232.181 88.718C235.684 89.6588 257.532 95.868 268.131 118.215C277.846 138.71 274.183 164.531 258.734 183.318" fill="url(#paint9_linear_350_987)"/>
<path d="M272.735 112.354C277.73 119.33 284.463 130.88 286.461 146.121C293.685 201.353 231.761 252.894 221.554 246.048C215.024 241.677 224.811 210.182 232.803 192.452C241.302 173.592 249.309 166.877 261.138 141.533C266.755 129.491 270.476 119.171 272.735 112.339V112.354Z" fill="url(#paint10_linear_350_987)"/>
<path d="M69.6896 112.354C64.6946 119.793 57.9621 132.125 55.9641 148.379C48.7393 207.301 110.664 262.287 120.871 254.992C127.401 250.332 117.613 216.724 109.621 197.821C101.122 177.702 93.1158 170.538 81.2869 143.501C75.6692 130.663 71.9483 119.648 69.6896 112.354Z" fill="url(#paint11_linear_350_987)"/>
<path d="M167.361 199.11C169.229 198.719 197.028 192.249 206.468 163.823C211.839 147.641 208.495 132.704 207.423 128.536C203.804 114.424 196.275 106.058 190.744 99.9067C182.086 90.2817 173.196 85.1001 167.55 82.379H167.665C162.019 85.1001 153.129 90.2817 144.471 99.9067C138.94 106.044 131.411 114.424 127.792 128.536C126.72 132.704 123.376 147.641 128.747 163.823C138.187 192.249 165.986 198.704 167.854 199.11" fill="url(#paint12_linear_350_987)"/>
<path d="M116.34 118.201C118.092 119.185 146.585 135.917 148.786 170.915C150.248 193.986 139.737 216.217 121.349 229.085L116.34 118.187V118.201Z" fill="url(#paint13_linear_350_987)"/>
<path d="M116.905 118.042C115.24 119.2 88.3391 138.623 89.2078 173.679C89.7725 196.793 102.181 217.91 121.625 228.939L116.92 118.027L116.905 118.042Z" fill="url(#paint14_linear_350_987)"/>
<path d="M223.901 113.613C222.12 114.54 193.12 130.273 189.819 165.183C187.633 188.182 197.434 210.775 215.417 224.279L223.901 113.613Z" fill="url(#paint15_linear_350_987)"/>
<path d="M223.352 113.454C224.974 114.67 251.252 135.005 249.297 170.032C248.009 193.103 234.949 213.786 215.172 224.134L223.352 113.454Z" fill="url(#paint16_linear_350_987)"/>
<path d="M169.417 269.582C171.444 269.148 201.632 262.128 211.883 231.27C217.718 213.699 214.083 197.489 212.925 192.958C209.002 177.631 200.821 168.541 194.813 161.869C185.402 151.419 175.759 145.788 169.62 142.836H169.75C163.612 145.788 153.969 151.419 144.558 161.869C138.549 168.541 130.369 177.631 126.445 192.958C125.287 197.489 121.653 213.699 127.488 231.27C137.739 262.128 167.926 269.148 169.953 269.582" fill="url(#paint17_linear_350_987)"/>
<path d="M92.1314 173.491C87.035 180.395 78.3624 194.464 79.9116 211.34C83.6326 251.968 148.091 272.781 152.796 266.094C153.317 265.356 153.057 264.386 145.354 250.419C135.741 233.007 130.934 224.294 127.444 218.837C115.702 200.514 103.005 185.215 92.1314 173.491Z" fill="url(#paint18_linear_350_987)"/>
<path d="M244.228 172.029C249.324 178.933 257.997 193.002 256.448 209.878C252.727 250.506 188.269 271.319 183.563 264.632C183.042 263.894 183.303 262.924 191.005 248.957C200.619 231.545 205.426 222.832 208.915 217.375C220.657 199.052 233.355 183.753 244.228 172.029Z" fill="url(#paint19_linear_350_987)"/>
<path d="M261.717 213.641C260.327 212.932 257.518 217.679 250.814 225.205C245.892 230.734 246.138 229.591 232.47 242.834C224.362 250.679 219.613 255.615 218.788 254.906C217.659 253.936 226.867 244.716 226.042 232.312C225.796 228.679 224.536 222.615 221.539 221.876C220.062 221.515 218.18 222.426 208.45 234.599C204.816 239.144 203.006 241.402 200.111 245.353C192.22 256.15 188.818 262.171 187.659 261.592C186.95 261.231 188.094 258.857 188.065 254.949C188.036 248.566 184.952 243.848 181.738 238.898C179.725 235.815 176.337 231.357 171.009 227.073V226.855C171.009 226.855 170.922 226.928 170.879 226.957C170.879 226.957 170.85 226.942 170.835 226.928V226.986C165.652 231.444 162.409 236.017 160.498 239.158C157.428 244.209 154.504 249.029 154.648 255.398C154.735 259.306 155.937 261.636 155.242 262.012C154.113 262.635 150.551 256.715 142.371 246.178C139.374 242.328 137.506 240.113 133.756 235.699C123.693 223.845 121.797 222.991 120.334 223.396C117.381 224.236 116.295 230.344 116.15 233.977C115.687 246.409 125.127 255.325 124.026 256.324C123.23 257.062 118.336 252.286 110.04 244.702C96.0252 231.907 96.3147 233.036 91.2473 227.666C84.3555 220.357 81.4164 215.696 80.0554 216.463C78.5497 217.288 80.0989 224.019 81.7929 228.607C88.5253 246.844 106.537 255.745 114.022 259.45C128.283 266.499 141.039 267.932 150.073 268.873C158.731 269.77 166.043 269.611 171.313 269.264V269.321C176.627 269.524 184.141 269.466 193.031 268.25C202.065 267.02 214.806 265.167 228.894 257.67C236.292 253.719 254.086 244.238 260.298 225.799C261.861 221.153 263.222 214.379 261.688 213.598L261.717 213.641Z" fill="url(#paint20_linear_350_987)"/>
<path d="M266.089 211.036C264.612 210.283 261.63 215.32 254.521 223.309C249.294 229.186 249.554 227.97 235.033 242.024C226.432 250.361 221.379 255.586 220.511 254.833C219.309 253.806 229.082 244.021 228.213 230.836C227.953 226.971 226.606 220.545 223.435 219.749C221.872 219.358 219.874 220.342 209.536 233.267C205.685 238.087 203.745 240.49 200.69 244.687C192.307 256.15 188.702 262.548 187.471 261.925C186.718 261.549 187.92 259.031 187.905 254.877C187.876 248.103 184.604 243.081 181.187 237.841C179.059 234.57 175.454 229.823 169.807 225.278V225.046C169.807 225.046 169.72 225.119 169.677 225.162C169.677 225.162 169.648 225.148 169.633 225.133V225.206C164.132 229.938 160.686 234.787 158.659 238.131C155.401 243.486 152.288 248.61 152.462 255.383C152.563 259.523 153.837 262.012 153.099 262.417C151.897 263.083 148.118 256.802 139.431 245.613C136.261 241.532 134.263 239.173 130.281 234.483C119.596 221.906 117.583 220.979 116.034 221.428C112.892 222.325 111.734 228.795 111.589 232.659C111.097 245.86 121.116 255.325 119.958 256.396C119.118 257.178 113.92 252.112 105.103 244.05C90.2336 230.459 90.5232 231.675 85.1372 225.973C77.8111 218.215 74.6982 213.265 73.2504 214.075C71.6578 214.958 73.2938 222.094 75.1036 226.971C82.2415 246.337 101.368 255.789 109.316 259.725C124.446 267.208 137.998 268.743 147.597 269.727C156.791 270.682 164.551 270.508 170.14 270.146V270.204C175.787 270.407 183.764 270.349 193.204 269.075C202.789 267.773 216.326 265.804 231.283 257.829C239.144 253.646 258.039 243.573 264.627 223.99C266.292 219.054 267.725 211.861 266.103 211.036H266.089Z" fill="url(#paint21_linear_350_987)"/>
<path d="M251.047 244.34C250.265 244.716 247.803 246.033 245.487 247.365C242.041 249.348 240.796 250.274 237.611 252.141C237.611 252.141 234.903 253.719 230.951 255.774C206.149 268.598 189.267 269.611 189.267 269.611C185.039 269.872 178.828 269.843 171.212 268.366V268.337C171.212 268.337 171.183 268.337 171.169 268.337C171.169 268.337 171.14 268.337 171.126 268.337C163.524 269.828 157.299 269.843 153.071 269.582C153.071 269.582 136.189 268.569 111.387 255.745C107.42 253.704 104.727 252.112 104.727 252.112C101.542 250.245 100.297 249.319 96.8511 247.336C94.5346 246.004 92.0732 244.673 91.2914 244.311C82.0107 239.925 60.6116 252.474 62.0449 257.525C62.349 258.611 63.7534 259.436 73.1209 260.464C88.3523 262.143 103.251 261.361 110.997 260.652C109.013 261.144 106.725 261.983 104.525 263.358C102.947 264.343 100.196 266.181 100.326 268.12C100.427 269.625 102.353 272.303 115.963 274.749C117.266 274.981 124.896 276.139 133.786 274.691C138.259 273.953 140.504 273.591 142.951 272.462C145.629 271.232 146.671 270.161 148.554 270.407C150.841 270.711 151.232 272.564 154.388 275.111C157.024 277.253 159.441 278.136 163.365 279.583C165.363 280.322 167.969 281.118 171.097 281.682V281.754V281.726C171.126 281.726 171.155 281.726 171.183 281.711C171.212 281.711 171.241 281.711 171.27 281.726V281.697C174.383 281.132 177.004 280.336 179.002 279.598C182.925 278.151 185.343 277.268 187.978 275.125C191.135 272.564 191.526 270.725 193.813 270.422C195.695 270.175 196.738 271.247 199.416 272.477C201.878 273.606 204.107 273.968 208.581 274.706C217.471 276.168 225.101 275.01 226.404 274.764C240.014 272.318 241.94 269.64 242.041 268.135C242.171 266.195 239.42 264.357 237.842 263.373C235.627 261.983 233.339 261.158 231.37 260.666C239.116 261.375 254.015 262.157 269.246 260.478C278.614 259.45 280.003 258.625 280.322 257.54C281.755 252.489 260.356 239.94 251.076 244.325L251.047 244.34Z" fill="url(#paint22_linear_350_987)"/>
<defs>
<linearGradient id="paint0_linear_350_987" x1="169.691" y1="218.359" x2="169.793" y2="263.329" gradientUnits="userSpaceOnUse">
<stop offset="0.01" stop-color="#4A874E"/>
<stop offset="0.25" stop-color="#5B9462"/>
<stop offset="0.62" stop-color="#6AA275"/>
<stop offset="1" stop-color="#6DA479"/>
</linearGradient>
<linearGradient id="paint1_linear_350_987" x1="171.112" y1="69.0774" x2="171.286" y2="154.603" gradientUnits="userSpaceOnUse">
<stop offset="0.01" stop-color="#E16584"/>
<stop offset="0.25" stop-color="#EF8798"/>
<stop offset="0.62" stop-color="#F0939E"/>
<stop offset="1" stop-color="#F6BAB0"/>
</linearGradient>
<linearGradient id="paint2_linear_350_987" x1="213.991" y1="71.1166" x2="246.214" y2="120.293" gradientUnits="userSpaceOnUse">
<stop offset="0.01" stop-color="#E16584"/>
<stop offset="0.25" stop-color="#EF8798"/>
<stop offset="0.62" stop-color="#F0939E"/>
<stop offset="1" stop-color="#F6BAB0"/>
</linearGradient>
<linearGradient id="paint3_linear_350_987" x1="128.789" y1="71.1177" x2="96.5683" y2="120.28" gradientUnits="userSpaceOnUse">
<stop offset="0.01" stop-color="#E16584"/>
<stop offset="0.25" stop-color="#EF8798"/>
<stop offset="0.62" stop-color="#F0939E"/>
<stop offset="1" stop-color="#F6BAB0"/>
</linearGradient>
<linearGradient id="paint4_linear_350_987" x1="243.821" y1="82.6973" x2="269.116" y2="136.199" gradientUnits="userSpaceOnUse">
<stop offset="0.01" stop-color="#E16584"/>
<stop offset="0.25" stop-color="#EF8798"/>
<stop offset="0.62" stop-color="#F0939E"/>
<stop offset="1" stop-color="#F6BAB0"/>
</linearGradient>
<linearGradient id="paint5_linear_350_987" x1="97.6478" y1="82.6973" x2="72.3674" y2="136.199" gradientUnits="userSpaceOnUse">
<stop offset="0.01" stop-color="#E16584"/>
<stop offset="0.25" stop-color="#EF8798"/>
<stop offset="0.62" stop-color="#F0939E"/>
<stop offset="1" stop-color="#F6BAB0"/>
</linearGradient>
<linearGradient id="paint6_linear_350_987" x1="189.792" y1="76.0186" x2="212.309" y2="116.009" gradientUnits="userSpaceOnUse">
<stop offset="0.01" stop-color="#E16584"/>
<stop offset="0.25" stop-color="#EF8798"/>
<stop offset="0.62" stop-color="#F0939E"/>
<stop offset="1" stop-color="#F6BAB0"/>
</linearGradient>
<linearGradient id="paint7_linear_350_987" x1="148.791" y1="75.8979" x2="126.288" y2="115.889" gradientUnits="userSpaceOnUse">
<stop offset="0.01" stop-color="#E16584"/>
<stop offset="0.25" stop-color="#EF8798"/>
<stop offset="0.62" stop-color="#F0939E"/>
<stop offset="1" stop-color="#F6BAB0"/>
</linearGradient>
<linearGradient id="paint8_linear_350_987" x1="110.761" y1="103.038" x2="94.0392" y2="166.462" gradientUnits="userSpaceOnUse">
<stop offset="0.01" stop-color="#E16584"/>
<stop offset="0.25" stop-color="#EF8798"/>
<stop offset="0.62" stop-color="#F0939E"/>
<stop offset="1" stop-color="#F6BAB0"/>
</linearGradient>
<linearGradient id="paint9_linear_350_987" x1="236.395" y1="103.165" x2="253.125" y2="166.601" gradientUnits="userSpaceOnUse">
<stop offset="0.01" stop-color="#E16584"/>
<stop offset="0.25" stop-color="#EF8798"/>
<stop offset="0.62" stop-color="#F0939E"/>
<stop offset="1" stop-color="#F6BAB0"/>
</linearGradient>
<linearGradient id="paint10_linear_350_987" x1="253.377" y1="128.68" x2="253.175" y2="230.633" gradientUnits="userSpaceOnUse">
<stop offset="0.01" stop-color="#E16584"/>
<stop offset="0.25" stop-color="#EF8798"/>
<stop offset="0.62" stop-color="#F0939E"/>
<stop offset="1" stop-color="#F6BAB0"/>
</linearGradient>
<linearGradient id="paint11_linear_350_987" x1="89.0328" y1="129.765" x2="89.2499" y2="238.536" gradientUnits="userSpaceOnUse">
<stop offset="0.01" stop-color="#E16584"/>
<stop offset="0.25" stop-color="#EF8798"/>
<stop offset="0.62" stop-color="#F0939E"/>
<stop offset="1" stop-color="#F6BAB0"/>
</linearGradient>
<linearGradient id="paint12_linear_350_987" x1="167.506" y1="96.5922" x2="167.694" y2="185.143" gradientUnits="userSpaceOnUse">
<stop offset="0.01" stop-color="#E16584"/>
<stop offset="0.25" stop-color="#EF8798"/>
<stop offset="0.62" stop-color="#F0939E"/>
<stop offset="1" stop-color="#F6BAB0"/>
</linearGradient>
<linearGradient id="paint13_linear_350_987" x1="132.092" y1="140.348" x2="135.797" y2="214.213" gradientUnits="userSpaceOnUse">
<stop offset="0.01" stop-color="#E16584"/>
<stop offset="0.25" stop-color="#EF8798"/>
<stop offset="0.62" stop-color="#F0939E"/>
<stop offset="1" stop-color="#F6BAB0"/>
</linearGradient>
<linearGradient id="paint14_linear_350_987" x1="102.886" y1="141.455" x2="106.005" y2="215.346" gradientUnits="userSpaceOnUse">
<stop offset="0.01" stop-color="#E16584"/>
<stop offset="0.25" stop-color="#EF8798"/>
<stop offset="0.62" stop-color="#F0939E"/>
<stop offset="1" stop-color="#F6BAB0"/>
</linearGradient>
<linearGradient id="paint15_linear_350_987" x1="207.566" y1="135.11" x2="201.429" y2="208.783" gradientUnits="userSpaceOnUse">
<stop offset="0.01" stop-color="#E16584"/>
<stop offset="0.25" stop-color="#EF8798"/>
<stop offset="0.62" stop-color="#F0939E"/>
<stop offset="1" stop-color="#F6BAB0"/>
</linearGradient>
<linearGradient id="paint16_linear_350_987" x1="236.66" y1="137.251" x2="231.109" y2="210.986" gradientUnits="userSpaceOnUse">
<stop offset="0.01" stop-color="#E16584"/>
<stop offset="0.25" stop-color="#EF8798"/>
<stop offset="0.62" stop-color="#F0939E"/>
<stop offset="1" stop-color="#F6BAB0"/>
</linearGradient>
<linearGradient id="paint17_linear_350_987" x1="169.577" y1="158.265" x2="169.779" y2="254.414" gradientUnits="userSpaceOnUse">
<stop offset="0.01" stop-color="#E16584"/>
<stop offset="0.25" stop-color="#EF8798"/>
<stop offset="0.62" stop-color="#F0939E"/>
<stop offset="1" stop-color="#F6BAB0"/>
</linearGradient>
<linearGradient id="paint18_linear_350_987" x1="116.238" y1="184.882" x2="116.368" y2="256.151" gradientUnits="userSpaceOnUse">
<stop offset="0.01" stop-color="#E16584"/>
<stop offset="0.25" stop-color="#EF8798"/>
<stop offset="0.62" stop-color="#F0939E"/>
<stop offset="1" stop-color="#F6BAB0"/>
</linearGradient>
<linearGradient id="paint19_linear_350_987" x1="220.121" y1="183.406" x2="219.977" y2="254.674" gradientUnits="userSpaceOnUse">
<stop offset="0.01" stop-color="#E16584"/>
<stop offset="0.25" stop-color="#EF8798"/>
<stop offset="0.62" stop-color="#F0939E"/>
<stop offset="1" stop-color="#F6BAB0"/>
</linearGradient>
<linearGradient id="paint20_linear_350_987" x1="170.937" y1="220.545" x2="171.023" y2="262.881" gradientUnits="userSpaceOnUse">
<stop offset="0.01" stop-color="#4A874E"/>
<stop offset="0.25" stop-color="#5B9462"/>
<stop offset="0.62" stop-color="#6AA275"/>
<stop offset="1" stop-color="#6DA479"/>
</linearGradient>
<linearGradient id="paint21_linear_350_987" x1="169.691" y1="218.359" x2="169.793" y2="263.329" gradientUnits="userSpaceOnUse">
<stop offset="0.01" stop-color="#4A874E"/>
<stop offset="0.25" stop-color="#5B9462"/>
<stop offset="0.62" stop-color="#6AA275"/>
<stop offset="1" stop-color="#6DA479"/>
</linearGradient>
<linearGradient id="paint22_linear_350_987" x1="171.155" y1="243.254" x2="171.227" y2="281.783" gradientUnits="userSpaceOnUse">
<stop offset="0.01" stop-color="#4A874E"/>
<stop offset="0.25" stop-color="#5B9462"/>
<stop offset="0.62" stop-color="#6AA275"/>
<stop offset="1" stop-color="#6DA479"/>
</linearGradient>
</defs>
</svg>
