<svg width="344" height="736" viewBox="0 0 344 736" fill="none" xmlns="http://www.w3.org/2000/svg">
<path d="M68.2417 375.019C65.4803 375.019 63.2417 377.258 63.2417 380.019V730.32C63.2417 733.081 65.4803 735.32 68.2417 735.32H275.713C278.474 735.32 280.713 733.081 280.713 730.32V380.019C280.713 377.258 278.474 375.019 275.713 375.019H68.2417ZM171.492 413.589C166.443 413.589 162.33 409.391 162.33 404.203C162.33 399.015 166.425 394.816 171.492 394.816C176.558 394.816 180.653 399.015 180.653 404.203C180.653 409.391 176.558 413.589 171.492 413.589Z" fill="#FBEDD0"/>
<path d="M174.874 395.319C174.197 395.077 173.278 394.834 172.185 394.764C170.415 394.66 169.01 395.094 168.159 395.424C168.281 356.541 168.402 317.641 168.524 278.759H174.475C174.614 317.624 174.735 356.472 174.874 395.337V395.319Z" fill="#744A22"/>
<path d="M266.489 213.008C265.019 212.255 262.049 217.292 254.97 225.282C249.766 231.159 250.025 229.943 235.566 243.998C227.002 252.336 221.971 257.561 221.106 256.808C219.909 255.78 229.64 245.996 228.775 232.809C228.516 228.944 227.175 222.518 224.018 221.722C222.461 221.331 220.471 222.315 210.178 235.241C206.343 240.061 204.411 242.464 201.369 246.661C193.022 258.125 189.432 264.523 188.207 263.901C187.457 263.524 188.654 261.006 188.639 256.852C188.61 250.077 185.352 245.055 181.95 239.815C179.831 236.544 176.241 231.796 170.618 227.251V227.019C170.618 227.019 170.532 227.092 170.489 227.135C170.489 227.135 170.46 227.121 170.445 227.106V227.179C164.967 231.912 161.536 236.761 159.518 240.104C156.274 245.46 153.174 250.584 153.347 257.358C153.448 261.498 154.717 263.988 153.982 264.393C152.785 265.059 149.022 258.777 140.372 247.588C137.215 243.506 135.226 241.147 131.261 236.457C120.621 223.878 118.618 222.952 117.075 223.401C113.947 224.298 112.793 230.768 112.649 234.633C112.159 247.834 122.135 257.3 120.982 258.371C120.146 259.153 114.97 254.087 106.19 246.025C91.3845 232.433 91.6728 233.649 86.3098 227.946C79.015 220.187 75.9154 215.237 74.4737 216.048C72.8879 216.931 74.517 224.067 76.3191 228.944C83.4265 248.312 102.471 257.764 110.386 261.701C125.451 269.184 138.945 270.718 148.503 271.703C157.658 272.658 165.385 272.484 170.95 272.122V272.18C176.573 272.383 184.516 272.325 193.916 271.051C203.46 269.748 216.939 267.78 231.832 259.804C239.66 255.621 258.474 245.547 265.033 225.963C266.691 221.027 268.118 213.833 266.504 213.008H266.489Z" fill="url(#paint0_linear_350_988)"/>
<path d="M171.758 170.091C192.835 170.221 206.156 147.829 210.697 134.802C216.406 118.416 212.73 103.768 211.649 99.5125C207.699 84.0101 198.833 74.5437 195.041 70.8816C186.232 62.385 177.02 58.8387 172.032 57.3334C167.058 58.8243 157.803 62.3561 148.965 70.8816C145.217 74.4858 136.394 83.9812 132.357 99.5125C131.233 103.855 127.629 118.445 133.309 134.802C133.857 136.394 146.039 169.932 171.758 170.091Z" fill="url(#paint1_linear_350_988)"/>
<path d="M211.548 84.2852C198.89 68.8987 189.837 62.9496 191.221 60.4165C192.547 57.9848 202.047 61.3719 204.008 62.0811C220.919 68.117 232.495 80.2034 240.064 89.9303C248.152 100.323 268.033 124.916 261.732 134.483C258.186 139.868 246.581 140.143 240.021 135.033C233.014 129.562 236.546 121.688 229.67 107.329C226.758 101.264 221.222 96.0676 211.548 84.3142V84.2852Z" fill="url(#paint2_linear_350_988)"/>
<path d="M132.847 84.2852C145.505 68.8987 154.559 62.9496 153.175 60.4165C151.849 57.9848 142.348 61.3719 140.387 62.0811C123.477 68.117 111.9 80.2034 104.331 89.9303C96.2435 100.323 76.3629 124.916 82.663 134.483C86.2095 139.868 97.8149 140.143 104.374 135.033C111.381 129.562 107.849 121.688 114.726 107.329C117.638 101.264 123.174 96.0676 132.847 84.3142V84.2852Z" fill="url(#paint3_linear_350_988)"/>
<path d="M239.775 95.3584C229.251 78.2783 221.062 71.0554 222.764 68.7395C224.393 66.5249 233.374 71.2726 235.205 72.2424C251.164 80.6956 261.054 94.3451 267.282 105.1C273.928 116.564 290.421 143.834 282.91 152.388C278.686 157.194 267.167 155.79 261.343 149.754C255.129 143.313 259.656 136.018 254.711 120.805C252.621 114.378 247.82 108.414 239.775 95.3584Z" fill="url(#paint4_linear_350_988)"/>
<path d="M103.307 95.3584C113.831 78.2783 122.02 71.0554 120.319 68.7395C118.69 66.5249 109.708 71.2726 107.877 72.2424C91.918 80.6956 82.0281 94.3451 75.8001 105.1C69.1541 116.564 52.6614 143.834 60.1725 152.388C64.3966 157.194 75.9155 155.79 81.7398 149.754C87.9534 143.313 83.4266 136.018 88.3715 120.805C90.4619 114.378 95.2626 108.414 103.307 95.3584Z" fill="url(#paint5_linear_350_988)"/>
<path d="M178.29 63.7748L178.218 63.6445C178.218 63.6445 178.333 63.6445 178.376 63.6445C178.405 63.6011 178.434 63.5576 178.463 63.5287L178.52 63.6445C192 65.0051 201.198 70.216 206.056 73.5451C208.968 75.5426 233.765 93.0135 230.276 114.175C229.152 120.993 225.447 126.03 222.563 129.128C220.545 130.691 212.846 136.336 203.85 134.281C196.311 132.558 192.072 126.392 189.145 122.006C175.868 102.118 177.338 74.1676 178.29 63.8037V63.7748Z" fill="url(#paint6_linear_350_988)"/>
<path d="M161.927 63.7748L161.999 63.6445C161.999 63.6445 161.883 63.6445 161.84 63.6445C161.811 63.6011 161.782 63.5576 161.754 63.5287L161.696 63.6445C148.216 65.0051 139.018 70.216 134.16 73.5451C131.248 75.5426 106.451 93.0135 109.94 114.175C111.065 120.993 114.77 126.03 117.653 129.128C119.671 130.691 127.37 136.336 136.366 134.281C143.906 132.558 148.144 126.392 151.071 122.006C164.349 102.118 162.878 74.1676 161.927 63.8037V63.7748Z" fill="url(#paint7_linear_350_988)"/>
<path d="M91.8474 185.984C114.193 178.269 129.907 158.135 131.609 135.294C133.468 110.383 117.855 93.2014 115.332 90.4946L90.8094 185.26H90.8526L116.039 90.6973C112.55 91.6381 90.7949 97.8477 80.2419 120.197C70.5683 140.693 74.2157 166.515 89.5983 185.304" fill="url(#paint8_linear_350_988)"/>
<path d="M256.917 185.984C234.571 178.269 218.857 158.135 217.155 135.294C215.296 110.383 230.909 93.2014 233.432 90.4946L257.955 185.26H257.911L232.725 90.6973C236.214 91.6381 257.969 97.8477 268.522 120.197C278.196 140.693 274.548 166.515 259.166 185.304" fill="url(#paint9_linear_350_988)"/>
<path d="M273.106 114.335C278.08 121.311 284.783 132.862 286.773 148.104C293.967 203.339 232.307 254.883 222.143 248.037C215.641 243.665 225.387 212.169 233.345 194.437C241.807 175.577 249.78 168.861 261.558 143.515C267.152 131.473 270.857 121.152 273.106 114.32V114.335Z" fill="url(#paint10_linear_350_988)"/>
<path d="M70.9279 114.334C65.9541 121.774 59.2504 134.106 57.2609 150.362C50.067 209.288 111.727 264.277 121.891 256.982C128.393 252.321 118.647 218.711 110.689 199.807C102.226 179.687 94.2541 172.522 82.4757 145.484C76.882 132.645 73.1769 121.629 70.9279 114.334Z" fill="url(#paint11_linear_350_988)"/>
<path d="M168.184 201.096C170.044 200.705 197.724 194.235 207.124 165.806C212.472 149.624 209.142 134.686 208.075 130.517C204.471 116.405 196.974 108.038 191.467 101.886C182.846 92.2608 173.994 87.0789 168.372 84.3577H168.487C162.864 87.0789 154.013 92.2608 145.391 101.886C139.884 108.024 132.388 116.405 128.783 130.517C127.717 134.686 124.386 149.624 129.735 165.806C139.135 194.235 166.815 200.69 168.674 201.096" fill="url(#paint12_linear_350_988)"/>
<path d="M117.377 120.182C119.122 121.167 147.494 137.899 149.685 172.899C151.141 195.972 140.675 218.205 122.365 231.073L117.377 120.168V120.182Z" fill="url(#paint13_linear_350_988)"/>
<path d="M117.94 120.008C116.282 121.166 89.4956 140.591 90.3606 175.649C90.9228 198.765 103.278 219.883 122.639 230.913L117.954 119.994L117.94 120.008Z" fill="url(#paint14_linear_350_988)"/>
<path d="M224.48 115.594C222.707 116.52 193.831 132.254 190.544 167.167C188.367 190.167 198.127 212.762 216.032 226.267L224.48 115.594Z" fill="url(#paint15_linear_350_988)"/>
<path d="M223.933 115.42C225.548 116.636 251.714 136.973 249.768 172.001C248.485 195.074 235.481 215.758 215.788 226.107L223.933 115.42Z" fill="url(#paint16_linear_350_988)"/>
<path d="M170.231 271.572C172.249 271.138 202.308 264.118 212.515 233.258C218.325 215.686 214.706 199.474 213.553 194.944C209.646 179.615 201.5 170.525 195.517 163.852C186.147 153.401 176.545 147.771 170.432 144.818H170.562C164.45 147.771 154.848 153.401 145.477 163.852C139.494 170.525 131.349 179.615 127.442 194.944C126.289 199.474 122.67 215.686 128.48 233.258C138.687 264.118 168.746 271.138 170.764 271.572" fill="url(#paint17_linear_350_988)"/>
<path d="M93.2736 175.475C88.1989 182.38 79.5633 196.449 81.1059 213.327C84.811 253.957 148.994 274.772 153.679 268.084C154.198 267.346 153.939 266.376 146.269 252.408C136.697 234.995 131.91 226.281 128.436 220.825C116.744 202.5 104.1 187.2 93.2736 175.475Z" fill="url(#paint18_linear_350_988)"/>
<path d="M244.722 173.999C249.796 180.904 258.432 194.973 256.889 211.85C253.184 252.481 189.001 273.295 184.316 266.608C183.797 265.87 184.056 264.9 191.726 250.932C201.299 233.519 206.085 224.805 209.559 219.348C221.251 201.023 233.895 185.724 244.722 173.999Z" fill="url(#paint19_linear_350_988)"/>
<path d="M249.766 248.283C243.077 249.485 243.25 251.931 231.515 257.75C215.685 265.609 201.903 267.867 195.358 268.881C189.49 269.792 181.518 270.603 171.96 270.314C162.329 270.545 154.285 269.677 148.388 268.707C141.872 267.65 128.147 265.305 112.39 257.33C100.713 251.424 100.9 248.978 94.2394 247.733C78.8569 244.838 62.667 254.927 63.3734 258.763C63.5031 259.443 64.2816 260.587 74.3445 261.774C89.4675 263.554 104.273 262.874 111.972 262.222C110.011 262.7 107.719 263.525 105.528 264.886C103.956 265.87 101.217 267.679 101.318 269.619C101.405 271.124 103.308 273.816 116.802 276.364C118.099 276.61 125.668 277.811 134.491 276.422C138.946 275.713 141.166 275.365 143.602 274.265C146.269 273.064 147.322 271.978 149.181 272.253C151.445 272.572 151.834 274.424 154.948 277.001C157.557 279.158 159.936 280.055 163.843 281.531C165.847 282.299 168.5 283.124 171.671 283.717V283.761C171.671 283.761 171.758 283.746 171.801 283.732C171.83 283.732 171.859 283.732 171.902 283.746V283.717C175.088 283.153 177.741 282.328 179.759 281.589C183.666 280.142 186.074 279.259 188.697 277.117C191.84 274.555 192.23 272.716 194.507 272.412C196.382 272.166 197.42 273.237 200.087 274.468C202.537 275.597 204.758 275.959 209.212 276.697C218.064 278.159 225.662 277.001 226.959 276.755C240.511 274.309 242.428 271.631 242.529 270.125C242.659 268.186 239.92 266.348 238.348 265.363C236.143 263.974 233.865 263.149 231.904 262.656C239.617 263.366 254.452 264.147 269.618 262.468C279.71 261.354 280.517 260.21 280.647 259.53C281.368 255.694 265.207 245.504 249.766 248.283Z" fill="url(#paint20_linear_350_988)"/>
<path d="M262.136 215.614C260.752 214.905 257.955 219.652 251.28 227.179C246.379 232.708 246.624 231.565 233.014 244.809C224.941 252.654 220.212 257.59 219.391 256.881C218.266 255.911 227.435 246.691 226.613 234.286C226.368 230.653 225.114 224.588 222.13 223.85C220.659 223.488 218.785 224.4 209.097 236.573C205.479 241.118 203.676 243.376 200.793 247.328C192.936 258.126 189.548 264.147 188.395 263.568C187.688 263.206 188.827 260.833 188.798 256.924C188.77 250.541 185.699 245.822 182.498 240.872C180.494 237.789 177.121 233.331 171.816 229.046V228.829C171.816 228.829 171.729 228.902 171.686 228.931C171.686 228.931 171.657 228.916 171.643 228.902V228.959C166.481 233.418 163.252 237.992 161.349 241.133C158.293 246.184 155.381 251.004 155.525 257.373C155.611 261.281 156.808 263.612 156.116 263.988C154.991 264.611 151.445 258.69 143.299 248.153C140.315 244.303 138.455 242.088 134.722 237.673C124.702 225.818 122.813 224.964 121.357 225.37C118.416 226.209 117.335 232.318 117.191 235.951C116.73 248.384 126.129 257.301 125.034 258.3C124.241 259.038 119.368 254.261 111.107 246.676C97.1517 233.881 97.44 235.01 92.3942 229.64C85.5318 222.33 82.6053 217.669 81.2501 218.436C79.7508 219.261 81.2933 225.992 82.9801 230.581C89.6838 248.819 107.618 257.721 115.072 261.426C129.272 268.475 141.973 269.908 150.969 270.849C159.59 271.746 166.871 271.587 172.118 271.24V271.298C177.409 271.5 184.892 271.443 193.743 270.227C202.739 268.996 215.426 267.144 229.453 259.646C236.82 255.694 254.538 246.213 260.723 227.773C262.28 223.126 263.635 216.352 262.107 215.57L262.136 215.614Z" fill="url(#paint21_linear_350_988)"/>
<defs>
<linearGradient id="paint0_linear_350_988" x1="170.503" y1="-48.3318" x2="170.605" y2="265.305" gradientUnits="userSpaceOnUse">
<stop offset="0.01" stop-color="#4A874E"/>
<stop offset="0.25" stop-color="#5B9462"/>
<stop offset="0.62" stop-color="#6AA275"/>
<stop offset="1" stop-color="#6DA479"/>
</linearGradient>
<linearGradient id="paint1_linear_350_988" x1="171.917" y1="71.0553" x2="172.091" y2="156.586" gradientUnits="userSpaceOnUse">
<stop offset="0.01" stop-color="#EDAA28"/>
<stop offset="0.36" stop-color="#F0C23C"/>
<stop offset="0.64" stop-color="#EED348"/>
<stop offset="0.93" stop-color="#F2DE54"/>
</linearGradient>
<linearGradient id="paint2_linear_350_988" x1="214.621" y1="73.1015" x2="246.9" y2="122.139" gradientUnits="userSpaceOnUse">
<stop offset="0.01" stop-color="#EDAA28"/>
<stop offset="0.36" stop-color="#F0C23C"/>
<stop offset="0.64" stop-color="#EED348"/>
<stop offset="0.93" stop-color="#F2DE54"/>
</linearGradient>
<linearGradient id="paint3_linear_350_988" x1="129.784" y1="73.0953" x2="97.5054" y2="122.132" gradientUnits="userSpaceOnUse">
<stop offset="0.01" stop-color="#EDAA28"/>
<stop offset="0.36" stop-color="#F0C23C"/>
<stop offset="0.64" stop-color="#EED348"/>
<stop offset="0.93" stop-color="#F2DE54"/>
</linearGradient>
<linearGradient id="paint4_linear_350_988" x1="244.317" y1="84.6761" x2="269.683" y2="138.096" gradientUnits="userSpaceOnUse">
<stop offset="0.01" stop-color="#EDAA28"/>
<stop offset="0.36" stop-color="#F0C23C"/>
<stop offset="0.64" stop-color="#EED348"/>
<stop offset="0.93" stop-color="#F2DE54"/>
</linearGradient>
<linearGradient id="paint5_linear_350_988" x1="98.7659" y1="84.6761" x2="73.3998" y2="138.096" gradientUnits="userSpaceOnUse">
<stop offset="0.01" stop-color="#EDAA28"/>
<stop offset="0.36" stop-color="#F0C23C"/>
<stop offset="0.64" stop-color="#EED348"/>
<stop offset="0.93" stop-color="#F2DE54"/>
</linearGradient>
<linearGradient id="paint6_linear_350_988" x1="190.519" y1="77.9689" x2="213.089" y2="117.878" gradientUnits="userSpaceOnUse">
<stop offset="0.01" stop-color="#EDAA28"/>
<stop offset="0.36" stop-color="#F0C23C"/>
<stop offset="0.64" stop-color="#EED348"/>
<stop offset="0.93" stop-color="#F2DE54"/>
</linearGradient>
<linearGradient id="paint7_linear_350_988" x1="149.699" y1="77.9077" x2="127.144" y2="117.818" gradientUnits="userSpaceOnUse">
<stop offset="0.01" stop-color="#EDAA28"/>
<stop offset="0.36" stop-color="#F0C23C"/>
<stop offset="0.64" stop-color="#EED348"/>
<stop offset="0.93" stop-color="#F2DE54"/>
</linearGradient>
<linearGradient id="paint8_linear_350_988" x1="111.822" y1="105.032" x2="95.036" y2="168.425" gradientUnits="userSpaceOnUse">
<stop offset="0.01" stop-color="#EDAA28"/>
<stop offset="0.36" stop-color="#F0C23C"/>
<stop offset="0.64" stop-color="#EED348"/>
<stop offset="0.93" stop-color="#F2DE54"/>
</linearGradient>
<linearGradient id="paint9_linear_350_988" x1="236.918" y1="105.119" x2="253.713" y2="168.524" gradientUnits="userSpaceOnUse">
<stop offset="0.01" stop-color="#EDAA28"/>
<stop offset="0.36" stop-color="#F0C23C"/>
<stop offset="0.64" stop-color="#EED348"/>
<stop offset="0.93" stop-color="#F2DE54"/>
</linearGradient>
<linearGradient id="paint10_linear_350_988" x1="253.831" y1="130.647" x2="253.613" y2="232.621" gradientUnits="userSpaceOnUse">
<stop offset="0.01" stop-color="#EDAA28"/>
<stop offset="0.36" stop-color="#F0C23C"/>
<stop offset="0.64" stop-color="#EED348"/>
<stop offset="0.93" stop-color="#F2DE54"/>
</linearGradient>
<linearGradient id="paint11_linear_350_988" x1="90.1886" y1="131.747" x2="90.4066" y2="240.524" gradientUnits="userSpaceOnUse">
<stop offset="0.01" stop-color="#EDAA28"/>
<stop offset="0.36" stop-color="#F0C23C"/>
<stop offset="0.64" stop-color="#EED348"/>
<stop offset="0.93" stop-color="#F2DE54"/>
</linearGradient>
<linearGradient id="paint12_linear_350_988" x1="168.328" y1="98.5718" x2="168.517" y2="187.113" gradientUnits="userSpaceOnUse">
<stop offset="0.01" stop-color="#EDAA28"/>
<stop offset="0.36" stop-color="#F0C23C"/>
<stop offset="0.64" stop-color="#EED348"/>
<stop offset="0.93" stop-color="#F2DE54"/>
</linearGradient>
<linearGradient id="paint13_linear_350_988" x1="133.065" y1="142.324" x2="136.786" y2="216.177" gradientUnits="userSpaceOnUse">
<stop offset="0.01" stop-color="#EDAA28"/>
<stop offset="0.36" stop-color="#F0C23C"/>
<stop offset="0.64" stop-color="#EED348"/>
<stop offset="0.93" stop-color="#F2DE54"/>
</linearGradient>
<linearGradient id="paint14_linear_350_988" x1="103.972" y1="143.432" x2="107.103" y2="217.313" gradientUnits="userSpaceOnUse">
<stop offset="0.01" stop-color="#EDAA28"/>
<stop offset="0.36" stop-color="#F0C23C"/>
<stop offset="0.64" stop-color="#EED348"/>
<stop offset="0.93" stop-color="#F2DE54"/>
</linearGradient>
<linearGradient id="paint15_linear_350_988" x1="208.213" y1="137.104" x2="202.049" y2="210.777" gradientUnits="userSpaceOnUse">
<stop offset="0.01" stop-color="#EDAA28"/>
<stop offset="0.36" stop-color="#F0C23C"/>
<stop offset="0.64" stop-color="#EED348"/>
<stop offset="0.93" stop-color="#F2DE54"/>
</linearGradient>
<linearGradient id="paint16_linear_350_988" x1="237.183" y1="139.239" x2="231.607" y2="212.974" gradientUnits="userSpaceOnUse">
<stop offset="0.01" stop-color="#EDAA28"/>
<stop offset="0.36" stop-color="#F0C23C"/>
<stop offset="0.64" stop-color="#EED348"/>
<stop offset="0.93" stop-color="#F2DE54"/>
</linearGradient>
<linearGradient id="paint17_linear_350_988" x1="170.389" y1="160.248" x2="170.593" y2="256.403" gradientUnits="userSpaceOnUse">
<stop offset="0.01" stop-color="#EDAA28"/>
<stop offset="0.36" stop-color="#F0C23C"/>
<stop offset="0.64" stop-color="#EED348"/>
<stop offset="0.93" stop-color="#F2DE54"/>
</linearGradient>
<linearGradient id="paint18_linear_350_988" x1="117.263" y1="186.853" x2="117.408" y2="258.126" gradientUnits="userSpaceOnUse">
<stop offset="0.01" stop-color="#EDAA28"/>
<stop offset="0.36" stop-color="#F0C23C"/>
<stop offset="0.64" stop-color="#EED348"/>
<stop offset="0.93" stop-color="#F2DE54"/>
</linearGradient>
<linearGradient id="paint19_linear_350_988" x1="220.718" y1="185.391" x2="220.573" y2="256.664" gradientUnits="userSpaceOnUse">
<stop offset="0.01" stop-color="#EDAA28"/>
<stop offset="0.36" stop-color="#F0C23C"/>
<stop offset="0.64" stop-color="#EED348"/>
<stop offset="0.93" stop-color="#F2DE54"/>
</linearGradient>
<linearGradient id="paint20_linear_350_988" x1="171.974" y1="247.067" x2="172.047" y2="283.789" gradientUnits="userSpaceOnUse">
<stop offset="0.01" stop-color="#4A874E"/>
<stop offset="0.25" stop-color="#5B9462"/>
<stop offset="0.62" stop-color="#6AA275"/>
<stop offset="1" stop-color="#6DA479"/>
</linearGradient>
<linearGradient id="paint21_linear_350_988" x1="171.744" y1="222.518" x2="171.831" y2="264.871" gradientUnits="userSpaceOnUse">
<stop offset="0.01" stop-color="#4A874E"/>
<stop offset="0.25" stop-color="#5B9462"/>
<stop offset="0.62" stop-color="#6AA275"/>
<stop offset="1" stop-color="#6DA479"/>
</linearGradient>
</defs>
</svg>
