<svg width="344" height="736" viewBox="0 0 344 736" fill="none" xmlns="http://www.w3.org/2000/svg">
<path d="M68.2183 375.019C65.4568 375.019 63.2183 377.258 63.2183 380.019V730.32C63.2183 733.081 65.4568 735.32 68.2183 735.32H275.69C278.451 735.32 280.69 733.081 280.69 730.32V380.019C280.69 377.258 278.451 375.019 275.69 375.019H68.2183ZM171.468 413.589C166.419 413.589 162.307 409.391 162.307 404.203C162.307 399.015 166.402 394.816 171.468 394.816C176.534 394.816 180.629 399.015 180.629 404.203C180.629 409.391 176.534 413.589 171.468 413.589Z" fill="#FBEDD0"/>
<path d="M174.851 395.319C174.174 395.077 173.255 394.834 172.162 394.764C170.392 394.66 168.986 395.094 168.136 395.424C168.258 356.541 168.379 317.641 168.501 278.759H174.452C174.591 317.624 174.712 356.472 174.851 395.337V395.319Z" fill="#744A22"/>
<path d="M266.964 214.985C265.488 214.232 262.506 219.269 255.399 227.259C250.173 233.136 250.434 231.92 235.916 245.975C227.318 254.312 222.266 259.538 221.398 258.785C220.197 257.757 229.967 247.973 229.098 234.786C228.838 230.921 227.492 224.495 224.322 223.699C222.758 223.308 220.761 224.292 210.426 237.218C206.576 242.038 204.636 244.441 201.582 248.638C193.201 260.102 189.597 266.5 188.367 265.878C187.614 265.501 188.815 262.983 188.801 258.829C188.772 252.054 185.501 247.032 182.085 241.792C179.957 238.521 176.353 233.773 170.708 229.228V228.996C170.708 228.996 170.621 229.069 170.577 229.112C170.577 229.112 170.548 229.098 170.534 229.083V229.155C165.034 233.889 161.589 238.738 159.562 242.081C156.305 247.437 153.193 252.561 153.367 259.335C153.468 263.475 154.742 265.965 154.004 266.37C152.803 267.036 149.025 260.754 140.34 249.565C137.17 245.483 135.172 243.124 131.192 238.434C120.51 225.855 118.498 224.929 116.949 225.378C113.808 226.275 112.65 232.745 112.505 236.61C112.013 249.811 122.029 259.277 120.871 260.348C120.032 261.13 114.836 256.064 106.02 248.001C91.155 234.41 91.4445 235.626 86.06 229.923C78.7358 222.164 75.6237 217.214 74.1763 218.024C72.584 218.907 74.2197 226.043 76.029 230.921C83.165 250.288 102.286 259.74 110.233 263.678C125.359 271.161 138.907 272.695 148.504 273.68C157.695 274.635 165.453 274.461 171.041 274.099V274.157C176.686 274.36 184.661 274.302 194.099 273.028C203.681 271.725 217.215 269.757 232.167 261.781C240.027 257.598 258.916 247.524 265.502 227.94C267.167 223.004 268.6 215.81 266.979 214.985H266.964Z" fill="url(#paint0_linear_350_989)"/>
<path d="M171.852 172.068C193.014 172.198 206.389 149.806 210.948 136.779C216.68 120.393 212.989 105.745 211.904 101.489C207.937 85.9871 199.036 76.5207 195.229 72.8586C186.385 64.362 177.135 60.8157 172.127 59.3103C167.133 60.8012 157.841 64.333 148.968 72.8586C145.204 76.4628 136.346 85.9581 132.293 101.489C131.164 105.832 127.545 120.422 133.248 136.779C133.798 138.371 146.029 171.909 171.852 172.068Z" fill="url(#paint1_linear_350_989)"/>
<path d="M211.802 86.2623C199.094 70.8757 190.004 64.9266 191.393 62.3936C192.725 59.9618 202.264 63.3489 204.232 64.0582C221.211 70.0941 232.834 82.1804 240.433 91.9074C248.554 102.3 268.514 126.893 262.189 136.46C258.628 141.845 246.976 142.12 240.39 137.01C233.355 131.539 236.902 123.665 229.997 109.306C227.073 103.241 221.515 98.0446 211.802 86.2912V86.2623Z" fill="url(#paint2_linear_350_989)"/>
<path d="M132.785 86.2623C145.494 70.8757 154.584 64.9266 153.194 62.3936C151.863 59.9618 142.324 63.3489 140.355 64.0582C123.376 70.0941 111.753 82.1804 104.154 91.9074C96.034 102.3 76.0734 126.893 82.3988 136.46C85.9596 141.845 97.6116 142.12 104.198 137.01C111.232 131.539 107.686 123.665 114.59 109.306C117.514 103.241 123.073 98.0446 132.785 86.2912V86.2623Z" fill="url(#paint3_linear_350_989)"/>
<path d="M240.143 97.3353C229.577 80.2552 221.355 73.0324 223.063 70.7164C224.699 68.5018 233.717 73.2495 235.555 74.2193C251.578 82.6725 261.508 96.3221 267.761 107.077C274.434 118.541 290.993 145.811 283.452 154.365C279.211 159.171 267.645 157.767 261.797 151.731C255.559 145.29 260.104 137.995 255.139 122.782C253.04 116.355 248.22 110.391 240.143 97.3353Z" fill="url(#paint4_linear_350_989)"/>
<path d="M103.127 97.3353C113.693 80.2552 121.915 73.0324 120.207 70.7164C118.571 68.5018 109.554 73.2495 107.715 74.2193C91.6918 82.6725 81.7622 96.3221 75.5091 107.077C68.8363 118.541 52.2773 145.811 59.8186 154.365C64.0597 159.171 75.6249 157.767 81.4727 151.731C87.7113 145.29 83.1663 137.995 88.1311 122.782C90.2299 116.355 95.0499 110.391 103.127 97.3353Z" fill="url(#paint5_linear_350_989)"/>
<path d="M178.41 65.7517L178.338 65.6214C178.338 65.6214 178.454 65.6214 178.497 65.6214C178.526 65.578 178.555 65.5346 178.584 65.5056L178.642 65.6214C192.176 66.982 201.41 72.1929 206.288 75.5221C209.212 77.5196 234.109 94.9905 230.606 116.152C229.477 122.97 225.757 128.007 222.862 131.105C220.835 132.668 213.106 138.313 204.074 136.258C196.504 134.535 192.248 128.369 189.31 123.983C175.978 104.095 177.455 76.1445 178.41 65.7806V65.7517Z" fill="url(#paint6_linear_350_989)"/>
<path d="M161.981 65.7517L162.053 65.6214C162.053 65.6214 161.937 65.6214 161.894 65.6214C161.865 65.578 161.836 65.5346 161.807 65.5056L161.749 65.6214C148.215 66.982 138.981 72.1929 134.103 75.5221C131.179 77.5196 106.282 94.9905 109.785 116.152C110.914 122.97 114.634 128.007 117.529 131.105C119.556 132.668 127.285 138.313 136.317 136.258C143.887 134.535 148.143 128.369 151.081 123.983C164.413 104.095 162.936 76.1445 161.981 65.7806V65.7517Z" fill="url(#paint7_linear_350_989)"/>
<path d="M91.6203 187.961C114.056 180.246 129.833 160.112 131.541 137.271C133.409 112.36 117.733 95.1784 115.199 92.4717L90.5782 187.237H90.6216L115.909 92.6743C112.406 93.6152 90.5637 99.8248 79.9683 122.174C70.2558 142.67 73.9178 168.493 89.3623 187.281" fill="url(#paint8_linear_350_989)"/>
<path d="M257.353 187.961C234.918 180.246 219.14 160.112 217.432 137.271C215.565 112.36 231.241 95.1784 233.774 92.4717L258.396 187.237H258.352L233.065 92.6743C236.568 93.6152 258.41 99.8248 269.006 122.174C278.718 142.67 275.056 168.493 259.611 187.281" fill="url(#paint9_linear_350_989)"/>
<path d="M273.607 116.312C278.601 123.288 285.332 134.839 287.329 150.081C294.552 205.316 232.644 256.86 222.44 250.014C215.911 245.643 225.696 214.146 233.686 196.414C242.183 177.554 250.187 170.838 262.013 145.492C267.629 133.45 271.349 123.129 273.607 116.297V116.312Z" fill="url(#paint10_linear_350_989)"/>
<path d="M70.617 116.311C65.6233 123.751 58.8926 136.084 56.8951 152.339C49.6722 211.265 111.58 266.254 121.785 258.959C128.313 254.298 118.528 220.688 110.538 201.784C102.041 181.664 94.037 174.499 82.2112 147.461C76.595 134.622 72.8751 123.606 70.617 116.311Z" fill="url(#paint11_linear_350_989)"/>
<path d="M168.264 203.073C170.131 202.682 197.923 196.212 207.36 167.784C212.73 151.601 209.387 136.663 208.316 132.494C204.697 118.382 197.17 110.015 191.641 103.864C182.985 94.2379 174.098 89.0559 168.452 86.3347H168.568C162.923 89.0559 154.036 94.2379 145.38 103.864C139.851 110.001 132.324 118.382 128.705 132.494C127.634 136.663 124.29 151.601 129.66 167.784C139.098 196.212 166.889 202.667 168.756 203.073" fill="url(#paint12_linear_350_989)"/>
<path d="M117.253 122.159C119.004 123.144 147.49 139.876 149.691 174.876C151.153 197.949 140.644 220.182 122.261 233.05L117.253 122.145V122.159Z" fill="url(#paint13_linear_350_989)"/>
<path d="M117.818 121.985C116.153 123.143 89.259 142.568 90.1275 177.626C90.692 200.742 103.097 221.86 122.536 232.89L117.832 121.971L117.818 121.985Z" fill="url(#paint14_linear_350_989)"/>
<path d="M224.786 117.571C223.006 118.497 194.013 134.231 190.713 169.144C188.527 192.144 198.327 214.739 216.304 228.244L224.786 117.571Z" fill="url(#paint15_linear_350_989)"/>
<path d="M224.237 117.397C225.858 118.613 252.13 138.95 250.176 173.978C248.887 197.051 235.831 217.735 216.059 228.085L224.237 117.397Z" fill="url(#paint16_linear_350_989)"/>
<path d="M170.319 273.549C172.346 273.115 202.525 266.095 212.774 235.235C218.607 217.663 214.974 201.451 213.816 196.921C209.893 181.592 201.715 172.502 195.708 165.829C186.299 155.378 176.659 149.748 170.522 146.795H170.652C164.515 149.748 154.875 155.378 145.466 165.829C139.459 172.502 131.281 181.592 127.359 196.921C126.201 201.451 122.568 217.663 128.401 235.235C138.649 266.095 168.828 273.115 170.855 273.549" fill="url(#paint17_linear_350_989)"/>
<path d="M93.0525 177.453C87.9574 184.357 79.2871 198.426 80.8359 215.304C84.5559 255.934 148.997 276.749 153.701 270.061C154.222 269.323 153.962 268.353 146.261 254.385C136.65 236.972 131.845 228.259 128.356 222.802C116.617 204.477 103.923 189.177 93.0525 177.453Z" fill="url(#paint18_linear_350_989)"/>
<path d="M245.109 175.976C250.205 182.881 258.875 196.95 257.326 213.827C253.606 254.458 189.165 275.272 184.461 268.585C183.94 267.847 184.2 266.877 191.901 252.909C201.512 235.496 206.317 226.782 209.806 221.325C221.545 203 234.239 187.701 245.109 175.976Z" fill="url(#paint19_linear_350_989)"/>
<path d="M250.175 250.26C243.459 251.462 243.632 253.908 231.85 259.727C215.957 267.586 202.119 269.844 195.548 270.858C189.656 271.77 181.652 272.58 172.055 272.291C162.386 272.522 154.309 271.654 148.389 270.684C141.847 269.627 128.067 267.282 112.246 259.307C100.522 253.401 100.71 250.955 94.0224 249.71C78.578 246.815 62.3229 256.904 63.0322 260.74C63.1624 261.42 63.9441 262.564 74.0474 263.751C89.2313 265.531 104.097 264.851 111.826 264.199C109.858 264.677 107.556 265.502 105.356 266.863C103.778 267.847 101.028 269.656 101.129 271.596C101.216 273.101 103.127 275.794 116.675 278.341C117.978 278.587 125.577 279.788 134.436 278.399C138.908 277.69 141.137 277.342 143.584 276.242C146.261 275.041 147.318 273.955 149.185 274.23C151.458 274.549 151.849 276.401 154.975 278.978C157.595 281.135 159.983 282.032 163.906 283.508C165.918 284.276 168.581 285.101 171.766 285.694V285.738C171.766 285.738 171.853 285.723 171.896 285.709C171.925 285.709 171.954 285.709 171.997 285.723V285.694C175.196 285.13 177.859 284.305 179.886 283.566C183.809 282.119 186.226 281.236 188.86 279.094C192.016 276.532 192.407 274.693 194.694 274.389C196.575 274.143 197.617 275.214 200.295 276.445C202.756 277.574 204.985 277.936 209.458 278.674C218.345 280.136 225.973 278.978 227.276 278.732C240.882 276.286 242.807 273.608 242.909 272.102C243.039 270.163 240.289 268.325 238.711 267.34C236.496 265.951 234.209 265.126 232.241 264.634C239.985 265.343 254.879 266.124 270.106 264.445C280.239 263.331 281.049 262.187 281.18 261.507C281.903 257.671 265.677 247.481 250.175 250.26Z" fill="url(#paint20_linear_350_989)"/>
<path d="M262.594 217.591C261.205 216.882 258.397 221.629 251.695 229.156C246.773 234.685 247.019 233.542 233.355 246.786C225.25 254.632 220.502 259.567 219.677 258.858C218.548 257.888 227.754 248.668 226.929 236.263C226.683 232.63 225.423 226.565 222.427 225.827C220.951 225.465 219.069 226.377 209.342 238.55C205.709 243.095 203.899 245.353 201.005 249.305C193.116 260.103 189.714 266.124 188.556 265.545C187.847 265.184 188.991 262.81 188.962 258.902C188.933 252.518 185.85 247.799 182.636 242.849C180.624 239.766 177.237 235.308 171.911 231.023V230.806C171.911 230.806 171.824 230.879 171.78 230.908C171.78 230.908 171.751 230.893 171.737 230.879V230.937C166.555 235.395 163.313 239.969 161.402 243.11C158.333 248.161 155.409 252.981 155.554 259.35C155.641 263.258 156.842 265.589 156.148 265.965C155.019 266.588 151.458 260.667 143.28 250.13C140.283 246.28 138.416 244.065 134.667 239.65C124.607 227.795 122.711 226.941 121.249 227.347C118.296 228.186 117.211 234.295 117.066 237.928C116.603 250.361 126.04 259.278 124.94 260.277C124.144 261.015 119.252 256.238 110.958 248.653C96.9463 235.858 97.2358 236.987 92.1697 231.617C85.2798 224.307 82.3414 219.646 80.9808 220.413C79.4755 221.238 81.0243 227.969 82.7178 232.558C89.4485 250.796 107.455 259.698 114.938 263.403C129.196 270.452 141.948 271.885 150.98 272.826C159.636 273.724 166.946 273.564 172.214 273.217V273.275C177.527 273.477 185.039 273.42 193.926 272.204C202.959 270.973 215.696 269.121 229.78 261.623C237.177 257.671 254.966 248.19 261.176 229.75C262.739 225.103 264.1 218.329 262.565 217.547L262.594 217.591Z" fill="url(#paint21_linear_350_989)"/>
<defs>
<linearGradient id="paint0_linear_350_989" x1="170.592" y1="222.323" x2="170.693" y2="267.282" gradientUnits="userSpaceOnUse">
<stop offset="0.01" stop-color="#4A874E"/>
<stop offset="0.25" stop-color="#5B9462"/>
<stop offset="0.62" stop-color="#6AA275"/>
<stop offset="1" stop-color="#6DA479"/>
</linearGradient>
<linearGradient id="paint1_linear_350_989" x1="172.011" y1="73.0323" x2="172.185" y2="158.563" gradientUnits="userSpaceOnUse">
<stop offset="0.01" stop-color="#9FD1A4"/>
<stop offset="0.25" stop-color="#B7D99A"/>
<stop offset="0.62" stop-color="#DBE68E"/>
<stop offset="1" stop-color="#ECED87"/>
</linearGradient>
<linearGradient id="paint2_linear_350_989" x1="214.896" y1="75.0682" x2="247.123" y2="124.224" gradientUnits="userSpaceOnUse">
<stop offset="0.01" stop-color="#9FD1A4"/>
<stop offset="0.25" stop-color="#B7D99A"/>
<stop offset="0.62" stop-color="#DBE68E"/>
<stop offset="1" stop-color="#ECED87"/>
</linearGradient>
<linearGradient id="paint3_linear_350_989" x1="129.704" y1="75.0663" x2="97.4752" y2="124.237" gradientUnits="userSpaceOnUse">
<stop offset="0.01" stop-color="#9FD1A4"/>
<stop offset="0.25" stop-color="#B7D99A"/>
<stop offset="0.62" stop-color="#DBE68E"/>
<stop offset="1" stop-color="#ECED87"/>
</linearGradient>
<linearGradient id="paint4_linear_350_989" x1="244.703" y1="86.653" x2="270.005" y2="140.151" gradientUnits="userSpaceOnUse">
<stop offset="0.01" stop-color="#9FD1A4"/>
<stop offset="0.25" stop-color="#B7D99A"/>
<stop offset="0.62" stop-color="#DBE68E"/>
<stop offset="1" stop-color="#ECED87"/>
</linearGradient>
<linearGradient id="paint5_linear_350_989" x1="98.5673" y1="86.653" x2="73.28" y2="140.151" gradientUnits="userSpaceOnUse">
<stop offset="0.01" stop-color="#9FD1A4"/>
<stop offset="0.25" stop-color="#B7D99A"/>
<stop offset="0.62" stop-color="#DBE68E"/>
<stop offset="1" stop-color="#ECED87"/>
</linearGradient>
<linearGradient id="paint6_linear_350_989" x1="190.699" y1="79.9273" x2="213.207" y2="119.915" gradientUnits="userSpaceOnUse">
<stop offset="0.01" stop-color="#9FD1A4"/>
<stop offset="0.25" stop-color="#B7D99A"/>
<stop offset="0.62" stop-color="#DBE68E"/>
<stop offset="1" stop-color="#ECED87"/>
</linearGradient>
<linearGradient id="paint7_linear_350_989" x1="149.699" y1="79.9021" x2="127.191" y2="119.89" gradientUnits="userSpaceOnUse">
<stop offset="0.01" stop-color="#9FD1A4"/>
<stop offset="0.25" stop-color="#B7D99A"/>
<stop offset="0.62" stop-color="#DBE68E"/>
<stop offset="1" stop-color="#ECED87"/>
</linearGradient>
<linearGradient id="paint8_linear_350_989" x1="111.68" y1="107.039" x2="94.9522" y2="170.465" gradientUnits="userSpaceOnUse">
<stop offset="0.01" stop-color="#9FD1A4"/>
<stop offset="0.25" stop-color="#B7D99A"/>
<stop offset="0.62" stop-color="#DBE68E"/>
<stop offset="1" stop-color="#ECED87"/>
</linearGradient>
<linearGradient id="paint9_linear_350_989" x1="237.279" y1="107.067" x2="254.015" y2="170.504" gradientUnits="userSpaceOnUse">
<stop offset="0.01" stop-color="#9FD1A4"/>
<stop offset="0.25" stop-color="#B7D99A"/>
<stop offset="0.62" stop-color="#DBE68E"/>
<stop offset="1" stop-color="#ECED87"/>
</linearGradient>
<linearGradient id="paint10_linear_350_989" x1="254.255" y1="132.625" x2="254.052" y2="234.598" gradientUnits="userSpaceOnUse">
<stop offset="0.01" stop-color="#9FD1A4"/>
<stop offset="0.25" stop-color="#B7D99A"/>
<stop offset="0.62" stop-color="#DBE68E"/>
<stop offset="1" stop-color="#ECED87"/>
</linearGradient>
<linearGradient id="paint11_linear_350_989" x1="89.9552" y1="133.724" x2="90.1723" y2="242.501" gradientUnits="userSpaceOnUse">
<stop offset="0.01" stop-color="#9FD1A4"/>
<stop offset="0.25" stop-color="#B7D99A"/>
<stop offset="0.62" stop-color="#DBE68E"/>
<stop offset="1" stop-color="#ECED87"/>
</linearGradient>
<linearGradient id="paint12_linear_350_989" x1="168.409" y1="100.549" x2="168.597" y2="189.09" gradientUnits="userSpaceOnUse">
<stop offset="0.01" stop-color="#9FD1A4"/>
<stop offset="0.25" stop-color="#B7D99A"/>
<stop offset="0.62" stop-color="#DBE68E"/>
<stop offset="1" stop-color="#ECED87"/>
</linearGradient>
<linearGradient id="paint13_linear_350_989" x1="133.003" y1="144.282" x2="136.709" y2="218.136" gradientUnits="userSpaceOnUse">
<stop offset="0.01" stop-color="#9FD1A4"/>
<stop offset="0.25" stop-color="#B7D99A"/>
<stop offset="0.62" stop-color="#DBE68E"/>
<stop offset="1" stop-color="#ECED87"/>
</linearGradient>
<linearGradient id="paint14_linear_350_989" x1="103.806" y1="145.4" x2="106.925" y2="219.282" gradientUnits="userSpaceOnUse">
<stop offset="0.01" stop-color="#9FD1A4"/>
<stop offset="0.25" stop-color="#B7D99A"/>
<stop offset="0.62" stop-color="#DBE68E"/>
<stop offset="1" stop-color="#ECED87"/>
</linearGradient>
<linearGradient id="paint15_linear_350_989" x1="208.465" y1="139.096" x2="202.325" y2="212.788" gradientUnits="userSpaceOnUse">
<stop offset="0.01" stop-color="#9FD1A4"/>
<stop offset="0.25" stop-color="#B7D99A"/>
<stop offset="0.62" stop-color="#DBE68E"/>
<stop offset="1" stop-color="#ECED87"/>
</linearGradient>
<linearGradient id="paint16_linear_350_989" x1="237.547" y1="141.222" x2="231.993" y2="214.96" gradientUnits="userSpaceOnUse">
<stop offset="0.01" stop-color="#9FD1A4"/>
<stop offset="0.25" stop-color="#B7D99A"/>
<stop offset="0.62" stop-color="#DBE68E"/>
<stop offset="1" stop-color="#ECED87"/>
</linearGradient>
<linearGradient id="paint17_linear_350_989" x1="170.493" y1="162.225" x2="170.681" y2="258.38" gradientUnits="userSpaceOnUse">
<stop offset="0.01" stop-color="#9FD1A4"/>
<stop offset="0.25" stop-color="#B7D99A"/>
<stop offset="0.62" stop-color="#DBE68E"/>
<stop offset="1" stop-color="#ECED87"/>
</linearGradient>
<linearGradient id="paint18_linear_350_989" x1="117.153" y1="188.83" x2="117.298" y2="260.103" gradientUnits="userSpaceOnUse">
<stop offset="0.01" stop-color="#9FD1A4"/>
<stop offset="0.25" stop-color="#B7D99A"/>
<stop offset="0.62" stop-color="#DBE68E"/>
<stop offset="1" stop-color="#ECED87"/>
</linearGradient>
<linearGradient id="paint19_linear_350_989" x1="221.009" y1="187.368" x2="220.864" y2="258.641" gradientUnits="userSpaceOnUse">
<stop offset="0.01" stop-color="#9FD1A4"/>
<stop offset="0.25" stop-color="#B7D99A"/>
<stop offset="0.62" stop-color="#DBE68E"/>
<stop offset="1" stop-color="#ECED87"/>
</linearGradient>
<linearGradient id="paint20_linear_350_989" x1="172.084" y1="249.044" x2="172.157" y2="285.767" gradientUnits="userSpaceOnUse">
<stop offset="0.01" stop-color="#4A874E"/>
<stop offset="0.25" stop-color="#5B9462"/>
<stop offset="0.62" stop-color="#6AA275"/>
<stop offset="1" stop-color="#6DA479"/>
</linearGradient>
<linearGradient id="paint21_linear_350_989" x1="171.838" y1="224.495" x2="171.925" y2="266.848" gradientUnits="userSpaceOnUse">
<stop offset="0.01" stop-color="#4A874E"/>
<stop offset="0.25" stop-color="#5B9462"/>
<stop offset="0.62" stop-color="#6AA275"/>
<stop offset="1" stop-color="#6DA479"/>
</linearGradient>
</defs>
</svg>
