<svg width="344" height="736" viewBox="0 0 344 736" fill="none" xmlns="http://www.w3.org/2000/svg">
<path d="M68.2642 375.019C65.5027 375.019 63.2642 377.258 63.2642 380.019V730.32C63.2642 733.081 65.5027 735.32 68.2642 735.32H275.735C278.497 735.32 280.735 733.081 280.735 730.32V380.019C280.735 377.258 278.497 375.019 275.735 375.019H68.2642ZM171.514 413.589C166.465 413.589 162.353 409.391 162.353 404.203C162.353 399.015 166.448 394.816 171.514 394.816C176.58 394.816 180.675 399.015 180.675 404.203C180.675 409.391 176.58 413.589 171.514 413.589Z" fill="#FBEDD0"/>
<path d="M174.897 395.319C174.22 395.077 173.301 394.834 172.207 394.764C170.438 394.66 169.032 395.094 168.182 395.424C168.304 356.541 168.425 317.641 168.546 278.759H174.498C174.636 317.624 174.758 356.472 174.897 395.337V395.319Z" fill="#744A22"/>
<path d="M266.01 214.985C264.534 214.232 261.552 219.269 254.445 227.259C249.22 233.136 249.48 231.92 234.962 245.975C226.364 254.312 221.313 259.538 220.444 258.785C219.243 257.757 229.013 247.973 228.145 234.786C227.884 230.921 226.538 224.495 223.368 223.699C221.805 223.308 219.807 224.292 209.472 237.218C205.622 242.038 203.683 244.441 200.628 248.638C192.248 260.102 188.643 266.5 187.413 265.878C186.66 265.501 187.862 262.983 187.847 258.829C187.818 252.054 184.547 247.032 181.131 241.792C179.003 238.521 175.399 233.773 169.754 229.228V228.996C169.754 228.996 169.667 229.069 169.624 229.112C169.624 229.112 169.595 229.098 169.58 229.083V229.155C164.08 233.889 160.635 238.738 158.609 242.081C155.352 247.437 152.24 252.561 152.413 259.335C152.515 263.475 153.788 265.965 153.05 266.37C151.849 267.036 148.071 260.754 139.386 249.565C136.216 245.483 134.219 243.124 130.238 238.434C119.556 225.855 117.544 224.929 115.995 225.378C112.854 226.275 111.696 232.745 111.551 236.61C111.059 249.811 121.076 259.277 119.918 260.348C119.078 261.13 113.882 256.064 105.067 248.001C90.2014 234.41 90.4908 235.626 85.1063 229.923C77.7821 222.164 74.6701 217.214 73.2227 218.024C71.6304 218.907 73.266 226.043 75.0754 230.921C82.2114 250.288 101.332 259.74 109.279 263.678C124.405 271.161 137.953 272.695 147.55 273.68C156.741 274.635 164.5 274.461 170.087 274.099V274.157C175.732 274.36 183.708 274.302 193.145 273.028C202.727 271.725 216.261 269.757 231.213 261.781C239.073 257.598 257.963 247.524 264.548 227.94C266.213 223.004 267.646 215.81 266.025 214.985H266.01Z" fill="url(#paint0_linear_350_990)"/>
<path d="M170.898 172.068C192.06 172.198 205.435 149.806 209.994 136.779C215.726 120.393 212.035 105.745 210.949 101.489C206.983 85.9871 198.081 76.5207 194.275 72.8586C185.431 64.362 176.181 60.8157 171.173 59.3103C166.179 60.8012 156.887 64.333 148.014 72.8586C144.25 76.4628 135.392 85.9581 131.339 101.489C130.21 105.832 126.591 120.422 132.294 136.779C132.844 138.371 145.075 171.909 170.898 172.068Z" fill="url(#paint1_linear_350_990)"/>
<path d="M210.848 86.2623C198.14 70.8757 189.05 64.9266 190.439 62.3936C191.771 59.9618 201.31 63.3489 203.278 64.0582C220.257 70.0941 231.88 82.1804 239.479 91.9074C247.599 102.3 267.56 126.893 261.235 136.46C257.674 141.845 246.022 142.12 239.436 137.01C232.401 131.539 235.947 123.665 229.043 109.306C226.119 103.241 220.561 98.0446 210.848 86.2912V86.2623Z" fill="url(#paint2_linear_350_990)"/>
<path d="M131.831 86.2623C144.54 70.8757 153.63 64.9266 152.24 62.3936C150.908 59.9618 141.37 63.3489 139.401 64.0582C122.422 70.0941 110.799 82.1804 103.2 91.9074C95.0798 102.3 75.1193 126.893 81.4447 136.46C85.0055 141.845 96.6575 142.12 103.244 137.01C110.278 131.539 106.732 123.665 113.636 109.306C116.56 103.241 122.118 98.0446 131.831 86.2912V86.2623Z" fill="url(#paint3_linear_350_990)"/>
<path d="M239.189 97.3353C228.623 80.2552 220.401 73.0324 222.109 70.7164C223.745 68.5018 232.763 73.2495 234.601 74.2193C250.624 82.6725 260.554 96.3221 266.807 107.077C273.48 118.541 290.039 145.811 282.497 154.365C278.256 159.171 266.691 157.767 260.843 151.731C254.605 145.29 259.15 137.995 254.185 122.782C252.086 116.355 247.266 110.391 239.189 97.3353Z" fill="url(#paint4_linear_350_990)"/>
<path d="M102.173 97.3353C112.739 80.2552 120.961 73.0324 119.253 70.7164C117.617 68.5018 108.599 73.2495 106.761 74.2193C90.7377 82.6725 80.8081 96.3221 74.5551 107.077C67.8823 118.541 51.3232 145.811 58.8645 154.365C63.1056 159.171 74.6709 157.767 80.5186 151.731C86.7572 145.29 82.2121 137.995 87.1769 122.782C89.2757 116.355 94.0959 110.391 102.173 97.3353Z" fill="url(#paint5_linear_350_990)"/>
<path d="M177.456 65.7517L177.384 65.6214C177.384 65.6214 177.5 65.6214 177.543 65.6214C177.572 65.578 177.601 65.5346 177.63 65.5056L177.688 65.6214C191.221 66.982 200.456 72.1929 205.334 75.5221C208.258 77.5196 233.155 94.9905 229.652 116.152C228.523 122.97 224.803 128.007 221.908 131.105C219.881 132.668 212.152 138.313 203.12 136.258C195.549 134.535 191.294 128.369 188.356 123.983C175.024 104.095 176.501 76.1445 177.456 65.7806V65.7517Z" fill="url(#paint6_linear_350_990)"/>
<path d="M161.027 65.7517L161.099 65.6214C161.099 65.6214 160.983 65.6214 160.94 65.6214C160.911 65.578 160.882 65.5346 160.853 65.5056L160.795 65.6214C147.261 66.982 138.026 72.1929 133.148 75.5221C130.225 77.5196 105.328 94.9905 108.831 116.152C109.96 122.97 113.68 128.007 116.575 131.105C118.602 132.668 126.331 138.313 135.363 136.258C142.933 134.535 147.189 128.369 150.127 123.983C163.458 104.095 161.982 76.1445 161.027 65.7806V65.7517Z" fill="url(#paint7_linear_350_990)"/>
<path d="M90.6662 187.961C113.102 180.246 128.879 160.112 130.587 137.271C132.455 112.36 116.778 95.1784 114.245 92.4717L89.624 187.237H89.6675L114.955 92.6743C111.452 93.6152 89.6096 99.8248 79.0142 122.174C69.3017 142.67 72.9637 168.493 88.4082 187.281" fill="url(#paint8_linear_350_990)"/>
<path d="M256.399 187.961C233.964 180.246 218.186 160.112 216.478 137.271C214.611 112.36 230.287 95.1784 232.82 92.4717L257.441 187.237H257.398L232.111 92.6743C235.614 93.6152 257.456 99.8248 268.051 122.174C277.764 142.67 274.102 168.493 258.657 187.281" fill="url(#paint9_linear_350_990)"/>
<path d="M272.653 116.312C277.647 123.288 284.378 134.839 286.375 150.081C293.598 205.316 231.69 256.86 221.485 250.014C214.957 245.643 224.742 214.146 232.732 196.414C241.229 177.554 249.233 170.838 261.059 145.492C266.675 133.45 270.395 123.129 272.653 116.297V116.312Z" fill="url(#paint10_linear_350_990)"/>
<path d="M69.6629 116.311C64.6691 123.751 57.9385 136.084 55.941 152.339C48.7181 211.265 110.626 266.254 120.831 258.959C127.359 254.298 117.574 220.688 109.584 201.784C101.087 181.664 93.0829 174.499 81.2571 147.461C75.6409 134.622 71.9209 123.606 69.6629 116.311Z" fill="url(#paint11_linear_350_990)"/>
<path d="M167.31 203.073C169.177 202.682 196.969 196.212 206.406 167.784C211.776 151.601 208.433 136.663 207.362 132.494C203.743 118.382 196.216 110.015 190.687 103.864C182.031 94.2379 173.143 89.0559 167.498 86.3347H167.614C161.969 89.0559 153.082 94.2379 144.426 103.864C138.896 110.001 131.37 118.382 127.751 132.494C126.68 136.663 123.336 151.601 128.706 167.784C138.144 196.212 165.935 202.667 167.802 203.073" fill="url(#paint12_linear_350_990)"/>
<path d="M116.299 122.159C118.05 123.144 146.536 139.876 148.736 174.876C150.198 197.949 139.69 220.182 121.307 233.05L116.299 122.145V122.159Z" fill="url(#paint13_linear_350_990)"/>
<path d="M116.863 121.985C115.199 123.143 88.3049 142.568 89.1734 177.626C89.7379 200.742 102.143 221.86 121.582 232.89L116.878 121.971L116.863 121.985Z" fill="url(#paint14_linear_350_990)"/>
<path d="M223.832 117.571C222.052 118.497 193.059 134.231 189.759 169.144C187.573 192.144 197.373 214.739 215.35 228.244L223.832 117.571Z" fill="url(#paint15_linear_350_990)"/>
<path d="M223.283 117.397C224.904 118.613 251.176 138.95 249.222 173.978C247.933 197.051 234.877 217.735 215.105 228.085L223.283 117.397Z" fill="url(#paint16_linear_350_990)"/>
<path d="M169.365 273.549C171.392 273.115 201.571 266.095 211.819 235.235C217.653 217.663 214.02 201.451 212.862 196.921C208.939 181.592 200.761 172.502 194.754 165.829C185.345 155.378 175.705 149.748 169.568 146.795H169.698C163.561 149.748 153.921 155.378 144.512 165.829C138.505 172.502 130.327 181.592 126.405 196.921C125.247 201.451 121.613 217.663 127.447 235.235C137.695 266.095 167.874 273.115 169.901 273.549" fill="url(#paint17_linear_350_990)"/>
<path d="M92.0984 177.453C87.0033 184.357 78.333 198.426 79.8818 215.304C83.6018 255.934 148.043 276.749 152.747 270.061C153.268 269.323 153.008 268.353 145.307 254.385C135.696 236.972 130.89 228.259 127.402 222.802C115.663 204.477 102.969 189.177 92.0984 177.453Z" fill="url(#paint18_linear_350_990)"/>
<path d="M244.155 175.976C249.25 182.881 257.921 196.95 256.372 213.827C252.652 254.458 188.211 275.272 183.507 268.585C182.986 267.847 183.246 266.877 190.947 252.909C200.558 235.496 205.363 226.782 208.852 221.325C220.591 203 233.285 187.701 244.155 175.976Z" fill="url(#paint19_linear_350_990)"/>
<path d="M249.221 250.26C242.504 251.462 242.678 253.908 230.896 259.727C215.003 267.586 201.165 269.844 194.593 270.858C188.702 271.77 180.698 272.58 171.101 272.291C161.432 272.522 153.355 271.654 147.435 270.684C140.892 269.627 127.113 267.282 111.292 259.307C99.5674 253.401 99.7555 250.955 93.0682 249.71C77.6238 246.815 61.3688 256.904 62.0781 260.74C62.2083 261.42 62.99 262.564 73.0933 263.751C88.2772 265.531 103.143 264.851 110.872 264.199C108.904 264.677 106.602 265.502 104.402 266.863C102.824 267.847 100.074 269.656 100.175 271.596C100.262 273.101 102.173 275.794 115.721 278.341C117.024 278.587 124.623 279.788 133.482 278.399C137.954 277.69 140.183 277.342 142.63 276.242C145.307 275.041 146.364 273.955 148.231 274.23C150.504 274.549 150.895 276.401 154.021 278.978C156.641 281.135 159.029 282.032 162.952 283.508C164.964 284.276 167.627 285.101 170.812 285.694V285.738C170.812 285.738 170.898 285.723 170.942 285.709C170.971 285.709 171 285.709 171.043 285.723V285.694C174.242 285.13 176.905 284.305 178.932 283.566C182.854 282.119 185.272 281.236 187.906 279.094C191.062 276.532 191.452 274.693 193.739 274.389C195.621 274.143 196.663 275.214 199.341 276.445C201.802 277.574 204.031 277.936 208.504 278.674C217.391 280.136 225.019 278.978 226.322 278.732C239.928 276.286 241.853 273.608 241.955 272.102C242.085 270.163 239.335 268.325 237.757 267.34C235.542 265.951 233.255 265.126 231.287 264.634C239.031 265.343 253.925 266.124 269.152 264.445C279.285 263.331 280.095 262.187 280.225 261.507C280.949 257.671 264.723 247.481 249.221 250.26Z" fill="url(#paint20_linear_350_990)"/>
<path d="M261.64 217.591C260.25 216.882 257.442 221.629 250.741 229.156C245.819 234.685 246.065 233.542 232.401 246.786C224.295 254.632 219.548 259.567 218.723 258.858C217.594 257.888 226.8 248.668 225.975 236.263C225.728 232.63 224.469 226.565 221.473 225.827C219.997 225.465 218.115 226.377 208.388 238.55C204.755 243.095 202.945 245.353 200.05 249.305C192.162 260.103 188.76 266.124 187.602 265.545C186.893 265.184 188.036 262.81 188.008 258.902C187.979 252.518 184.896 247.799 181.682 242.849C179.67 239.766 176.283 235.308 170.956 231.023V230.806C170.956 230.806 170.87 230.879 170.826 230.908C170.826 230.908 170.797 230.893 170.783 230.879V230.937C165.601 235.395 162.359 239.969 160.448 243.11C157.379 248.161 154.455 252.981 154.6 259.35C154.687 263.258 155.888 265.589 155.194 265.965C154.065 266.588 150.504 260.667 142.326 250.13C139.329 246.28 137.462 244.065 133.713 239.65C123.653 227.795 121.757 226.941 120.295 227.347C117.342 228.186 116.257 234.295 116.112 237.928C115.649 250.361 125.086 259.278 123.986 260.277C123.19 261.015 118.298 256.238 110.004 248.653C95.9922 235.858 96.2817 236.987 91.2156 231.617C84.3257 224.307 81.3874 219.646 80.0267 220.413C78.5214 221.238 80.0701 227.969 81.7636 232.558C88.4943 250.796 106.501 259.698 113.984 263.403C128.242 270.452 140.994 271.885 150.026 272.826C158.682 273.724 165.992 273.564 171.26 273.217V273.275C176.573 273.477 184.085 273.42 192.972 272.204C202.005 270.973 214.742 269.121 228.826 261.623C236.223 257.671 254.012 248.19 260.222 229.75C261.785 225.103 263.145 218.329 261.611 217.547L261.64 217.591Z" fill="url(#paint21_linear_350_990)"/>
<defs>
<linearGradient id="paint0_linear_350_990" x1="169.638" y1="222.323" x2="169.74" y2="267.282" gradientUnits="userSpaceOnUse">
<stop offset="0.01" stop-color="#4A874E"/>
<stop offset="0.25" stop-color="#5B9462"/>
<stop offset="0.62" stop-color="#6AA275"/>
<stop offset="1" stop-color="#6DA479"/>
</linearGradient>
<linearGradient id="paint1_linear_350_990" x1="171.057" y1="73.0323" x2="171.231" y2="158.563" gradientUnits="userSpaceOnUse">
<stop offset="0.01" stop-color="#4EA0CF"/>
<stop offset="0.25" stop-color="#5DB2CC"/>
<stop offset="0.62" stop-color="#80C9B7"/>
<stop offset="1" stop-color="#A8D4A5"/>
</linearGradient>
<linearGradient id="paint2_linear_350_990" x1="213.941" y1="75.0785" x2="246.168" y2="124.234" gradientUnits="userSpaceOnUse">
<stop offset="0.01" stop-color="#4EA0CF"/>
<stop offset="0.25" stop-color="#5DB2CC"/>
<stop offset="0.62" stop-color="#80C9B7"/>
<stop offset="1" stop-color="#A8D4A5"/>
</linearGradient>
<linearGradient id="paint3_linear_350_990" x1="128.748" y1="75.0703" x2="96.5205" y2="124.226" gradientUnits="userSpaceOnUse">
<stop offset="0.01" stop-color="#4EA0CF"/>
<stop offset="0.25" stop-color="#5DB2CC"/>
<stop offset="0.62" stop-color="#80C9B7"/>
<stop offset="1" stop-color="#A8D4A5"/>
</linearGradient>
<linearGradient id="paint4_linear_350_990" x1="243.749" y1="86.653" x2="269.05" y2="140.151" gradientUnits="userSpaceOnUse">
<stop offset="0.01" stop-color="#4EA0CF"/>
<stop offset="0.25" stop-color="#5DB2CC"/>
<stop offset="0.62" stop-color="#80C9B7"/>
<stop offset="1" stop-color="#A8D4A5"/>
</linearGradient>
<linearGradient id="paint5_linear_350_990" x1="97.6132" y1="86.653" x2="72.326" y2="140.151" gradientUnits="userSpaceOnUse">
<stop offset="0.01" stop-color="#4EA0CF"/>
<stop offset="0.25" stop-color="#5DB2CC"/>
<stop offset="0.62" stop-color="#80C9B7"/>
<stop offset="1" stop-color="#A8D4A5"/>
</linearGradient>
<linearGradient id="paint6_linear_350_990" x1="189.75" y1="79.8965" x2="212.258" y2="119.884" gradientUnits="userSpaceOnUse">
<stop offset="0.01" stop-color="#4EA0CF"/>
<stop offset="0.25" stop-color="#5DB2CC"/>
<stop offset="0.62" stop-color="#80C9B7"/>
<stop offset="1" stop-color="#A8D4A5"/>
</linearGradient>
<linearGradient id="paint7_linear_350_990" x1="148.75" y1="79.9329" x2="126.242" y2="119.921" gradientUnits="userSpaceOnUse">
<stop offset="0.01" stop-color="#4EA0CF"/>
<stop offset="0.25" stop-color="#5DB2CC"/>
<stop offset="0.62" stop-color="#80C9B7"/>
<stop offset="1" stop-color="#A8D4A5"/>
</linearGradient>
<linearGradient id="paint8_linear_350_990" x1="110.723" y1="107.058" x2="94.007" y2="170.491" gradientUnits="userSpaceOnUse">
<stop offset="0.01" stop-color="#4EA0CF"/>
<stop offset="0.25" stop-color="#5DB2CC"/>
<stop offset="0.62" stop-color="#80C9B7"/>
<stop offset="1" stop-color="#A8D4A5"/>
</linearGradient>
<linearGradient id="paint9_linear_350_990" x1="236.322" y1="107.048" x2="253.05" y2="170.474" gradientUnits="userSpaceOnUse">
<stop offset="0.01" stop-color="#4EA0CF"/>
<stop offset="0.25" stop-color="#5DB2CC"/>
<stop offset="0.62" stop-color="#80C9B7"/>
<stop offset="1" stop-color="#A8D4A5"/>
</linearGradient>
<linearGradient id="paint10_linear_350_990" x1="253.301" y1="132.625" x2="253.098" y2="234.598" gradientUnits="userSpaceOnUse">
<stop offset="0.01" stop-color="#4EA0CF"/>
<stop offset="0.25" stop-color="#5DB2CC"/>
<stop offset="0.62" stop-color="#80C9B7"/>
<stop offset="1" stop-color="#A8D4A5"/>
</linearGradient>
<linearGradient id="paint11_linear_350_990" x1="89.001" y1="133.724" x2="89.2181" y2="242.501" gradientUnits="userSpaceOnUse">
<stop offset="0.01" stop-color="#4EA0CF"/>
<stop offset="0.25" stop-color="#5DB2CC"/>
<stop offset="0.62" stop-color="#80C9B7"/>
<stop offset="1" stop-color="#A8D4A5"/>
</linearGradient>
<linearGradient id="paint12_linear_350_990" x1="167.455" y1="100.549" x2="167.643" y2="189.09" gradientUnits="userSpaceOnUse">
<stop offset="0.01" stop-color="#4EA0CF"/>
<stop offset="0.25" stop-color="#5DB2CC"/>
<stop offset="0.62" stop-color="#80C9B7"/>
<stop offset="1" stop-color="#A8D4A5"/>
</linearGradient>
<linearGradient id="paint13_linear_350_990" x1="132.052" y1="144.254" x2="135.759" y2="218.123" gradientUnits="userSpaceOnUse">
<stop offset="0.01" stop-color="#4EA0CF"/>
<stop offset="0.25" stop-color="#5DB2CC"/>
<stop offset="0.62" stop-color="#80C9B7"/>
<stop offset="1" stop-color="#A8D4A5"/>
</linearGradient>
<linearGradient id="paint14_linear_350_990" x1="102.844" y1="145.391" x2="105.963" y2="219.287" gradientUnits="userSpaceOnUse">
<stop offset="0.01" stop-color="#4EA0CF"/>
<stop offset="0.25" stop-color="#5DB2CC"/>
<stop offset="0.62" stop-color="#80C9B7"/>
<stop offset="1" stop-color="#A8D4A5"/>
</linearGradient>
<linearGradient id="paint15_linear_350_990" x1="207.503" y1="139.121" x2="201.364" y2="212.799" gradientUnits="userSpaceOnUse">
<stop offset="0.01" stop-color="#4EA0CF"/>
<stop offset="0.25" stop-color="#5DB2CC"/>
<stop offset="0.62" stop-color="#80C9B7"/>
<stop offset="1" stop-color="#A8D4A5"/>
</linearGradient>
<linearGradient id="paint16_linear_350_990" x1="236.59" y1="141.244" x2="231.038" y2="214.968" gradientUnits="userSpaceOnUse">
<stop offset="0.01" stop-color="#4EA0CF"/>
<stop offset="0.25" stop-color="#5DB2CC"/>
<stop offset="0.62" stop-color="#80C9B7"/>
<stop offset="1" stop-color="#A8D4A5"/>
</linearGradient>
<linearGradient id="paint17_linear_350_990" x1="169.539" y1="162.225" x2="169.727" y2="258.38" gradientUnits="userSpaceOnUse">
<stop offset="0.01" stop-color="#4EA0CF"/>
<stop offset="0.25" stop-color="#5DB2CC"/>
<stop offset="0.62" stop-color="#80C9B7"/>
<stop offset="1" stop-color="#A8D4A5"/>
</linearGradient>
<linearGradient id="paint18_linear_350_990" x1="116.199" y1="188.83" x2="116.343" y2="260.103" gradientUnits="userSpaceOnUse">
<stop offset="0.01" stop-color="#4EA0CF"/>
<stop offset="0.25" stop-color="#5DB2CC"/>
<stop offset="0.62" stop-color="#80C9B7"/>
<stop offset="1" stop-color="#A8D4A5"/>
</linearGradient>
<linearGradient id="paint19_linear_350_990" x1="220.055" y1="187.368" x2="219.91" y2="258.641" gradientUnits="userSpaceOnUse">
<stop offset="0.01" stop-color="#4EA0CF"/>
<stop offset="0.25" stop-color="#5DB2CC"/>
<stop offset="0.62" stop-color="#80C9B7"/>
<stop offset="1" stop-color="#A8D4A5"/>
</linearGradient>
<linearGradient id="paint20_linear_350_990" x1="171.13" y1="249.044" x2="171.202" y2="285.767" gradientUnits="userSpaceOnUse">
<stop offset="0.01" stop-color="#4A874E"/>
<stop offset="0.25" stop-color="#5B9462"/>
<stop offset="0.62" stop-color="#6AA275"/>
<stop offset="1" stop-color="#6DA479"/>
</linearGradient>
<linearGradient id="paint21_linear_350_990" x1="170.884" y1="224.495" x2="170.971" y2="266.848" gradientUnits="userSpaceOnUse">
<stop offset="0.01" stop-color="#4A874E"/>
<stop offset="0.25" stop-color="#5B9462"/>
<stop offset="0.62" stop-color="#6AA275"/>
<stop offset="1" stop-color="#6DA479"/>
</linearGradient>
</defs>
</svg>
