<svg width="31" height="31" viewBox="0 0 31 31" fill="none" xmlns="http://www.w3.org/2000/svg">
<path d="M25.0958 9.98757L21.6708 6.56257C21.2238 6.14269 20.6381 5.90177 20.025 5.88563C19.4119 5.8695 18.8143 6.07928 18.3458 6.47507L7.09583 17.7251C6.69179 18.1325 6.44021 18.6666 6.38333 19.2376L5.84583 24.4501C5.82899 24.6332 5.85275 24.8177 5.91541 24.9906C5.97806 25.1634 6.07808 25.3203 6.20833 25.4501C6.32513 25.5659 6.46365 25.6576 6.61595 25.7198C6.76824 25.782 6.93132 25.8135 7.09583 25.8126H7.20833L12.4208 25.3376C12.9918 25.2807 13.5259 25.0291 13.9333 24.6251L25.1833 13.3751C25.62 12.9138 25.856 12.2982 25.8396 11.6632C25.8232 11.0283 25.5557 10.4257 25.0958 9.98757ZM12.1958 22.8376L8.44583 23.1876L8.78333 19.4376L15.8458 12.4626L19.2208 15.8376L12.1958 22.8376ZM20.8458 14.1626L17.4958 10.8126L19.9333 8.31257L23.3458 11.7251L20.8458 14.1626Z" fill="white"/>
</svg>
