<svg width="110" height="183" viewBox="0 0 110 183" fill="none" xmlns="http://www.w3.org/2000/svg">
<mask id="mask0_703_224" style="mask-type:alpha" maskUnits="userSpaceOnUse" x="0" y="0" width="110" height="183">
<path d="M5 0C2.23858 0 0 2.23858 0 5V177.245C0 180.006 2.23858 182.245 5 182.245H105C107.761 182.245 110 180.006 110 177.245V5C110 2.23858 107.761 0 105 0H5ZM54.7543 19.5093C52.2004 19.5093 50.1204 17.3855 50.1204 14.7615C50.1204 12.1374 52.1916 10.0135 54.7543 10.0135C57.3169 10.0135 59.3881 12.1374 59.3881 14.7615C59.3881 17.3855 57.3169 19.5093 54.7543 19.5093Z" fill="#FBEDD0"/>
</mask>
<g mask="url(#mask0_703_224)">
<path d="M5 0C2.23858 0 0 2.23858 0 5V177.245C0 180.006 2.23858 182.245 5 182.245H105C107.761 182.245 110 180.006 110 177.245V5C110 2.23858 107.761 0 105 0H5ZM54.7543 19.5093C52.2004 19.5093 50.1204 17.3855 50.1204 14.7615C50.1204 12.1374 52.1916 10.0135 54.7543 10.0135C57.3169 10.0135 59.3881 12.1374 59.3881 14.7615C59.3881 17.3855 57.3169 19.5093 54.7543 19.5093Z" fill="#FBEDD0"/>
<path d="M56.3964 11.265C56.0541 11.1421 55.589 11.0192 55.0361 10.9841C54.1409 10.9315 53.43 11.1509 53 11.3176C53.0614 -8.34863 53.1228 -28.0237 53.1843 -47.6899H56.1945C56.2647 -28.0325 56.3261 -8.38378 56.3964 11.2737V11.265Z" fill="#744A22"/>
<path d="M29.9743 52.856C29.9323 52.366 29.8903 51.876 29.8483 51.47L29.5823 48.698C29.5123 48.026 29.3303 47.774 28.7703 47.536C28.6303 47.48 28.7423 47.186 29.1343 47.158C30.0723 47.102 30.8563 47.41 30.8283 47.62C30.7863 47.942 30.8003 48.292 30.8143 48.614L30.8283 48.838L31.8783 48.74C32.5643 48.67 33.0403 48.502 33.2363 48.502C33.5863 48.516 33.9923 48.642 34.2163 48.782C34.5523 48.978 34.3843 49.706 34.0343 49.664C33.4743 49.608 32.6623 49.594 31.9623 49.664L30.8843 49.762L30.9683 51.05C30.9823 51.176 30.9823 51.316 30.9823 51.442L34.5803 51.26C34.5943 51.12 34.5943 50.994 34.5943 50.882L34.6223 48.026C34.6223 47.452 34.5243 47.228 33.9223 46.92C33.7823 46.85 33.9223 46.514 34.3843 46.528C35.3923 46.556 36.0083 46.934 35.9523 47.13C35.8823 47.424 35.8263 47.942 35.8123 48.502L35.7843 50.546C35.7843 51.036 35.6443 51.624 35.4483 52.016C35.0843 52.744 34.5103 52.674 34.5243 52.198L30.8983 52.394C30.8703 52.562 30.8283 52.73 30.7723 52.856C30.5623 53.374 30.0303 53.36 29.9743 52.856ZM31.3043 54.494C31.1643 54.438 31.2623 54.102 31.6263 54.088C32.2143 54.06 32.9703 54.158 33.2643 54.27L36.6803 54.088C37.6323 54.032 37.9123 53.78 38.1083 53.78C38.5563 53.78 39.2423 54.186 39.1583 54.536C39.0743 54.928 39.0183 55.53 38.9763 56.062L38.8923 57.308C38.8503 57.868 38.6963 58.484 38.4303 58.89C38.1783 59.268 37.7583 59.338 37.7163 58.932L33.1243 59.058C32.9143 59.45 32.4663 59.408 32.4243 58.988C32.3683 58.498 32.3123 58.008 32.2843 57.602L32.1443 55.628C32.1023 54.956 31.8643 54.718 31.3043 54.494ZM33.3343 55.208C33.3343 55.348 33.3483 55.488 33.3483 55.614L33.4183 57.588C33.4323 57.77 33.4183 57.938 33.4043 58.092L37.7443 57.994L37.8143 54.998L33.3343 55.208ZM37.2823 46.402C37.1423 46.318 37.2823 45.968 37.8143 46.01C38.8363 46.08 39.4383 46.542 39.3823 46.738C39.2703 47.144 39.2003 47.536 39.2003 47.942L39.1863 49.72H39.3683C39.7743 49.706 40.3483 49.552 40.7123 49.524C41.0063 49.538 41.4963 49.692 41.7343 49.874C42.0143 50.098 41.7903 50.77 41.4823 50.728C40.9503 50.644 40.1523 50.616 39.4523 50.644L39.1723 50.658V50.938C39.1723 51.582 39.0743 52.282 38.9203 52.758C38.5983 53.696 37.8983 53.57 37.9263 53.01C37.9543 52.394 37.9823 51.456 37.9823 50.938L38.0103 48.054C38.0243 47.2 37.9123 46.766 37.2823 46.402ZM51.5571 58.806C51.5991 57.784 51.6131 56.706 51.6131 55.418L51.6411 48.32C51.6411 47.186 51.5571 46.766 50.9131 46.402C50.7731 46.318 50.9131 45.968 51.4451 46.01C52.4671 46.094 53.0831 46.528 53.0131 46.766C52.9151 47.144 52.8311 47.69 52.8311 48.39L52.8171 50.7H52.9851C53.6711 50.686 54.1471 50.504 54.3431 50.518C54.6371 50.532 55.1271 50.672 55.3371 50.798C55.6731 51.008 55.4771 51.75 55.1411 51.708C54.5811 51.624 53.7691 51.596 53.0691 51.624L52.8171 51.638L52.8031 55.418C52.8031 56.832 52.7471 57.882 52.4671 58.624C52.1591 59.436 51.5291 59.31 51.5571 58.806ZM42.1771 48.88C42.1211 48.712 42.2471 48.544 42.3731 48.572C43.0311 48.726 43.7591 48.754 44.5291 48.726C44.8791 48.712 45.3271 48.684 45.8031 48.656V47.76C45.8031 47.228 45.6911 46.99 45.2291 46.724C45.0751 46.64 45.2431 46.29 45.7191 46.318C46.4891 46.36 47.1891 46.682 47.1051 46.934C47.0211 47.186 46.9931 47.438 46.9931 47.83V48.6L47.6091 48.558C48.4071 48.502 48.8411 48.39 49.0371 48.376C49.2751 48.362 49.8631 48.53 50.1431 48.712C50.4791 48.922 50.1991 49.678 49.8631 49.608C49.4151 49.51 48.5891 49.496 48.0151 49.482C46.8811 49.468 45.9711 49.51 45.3411 49.58C44.8511 49.622 43.9691 49.748 43.4791 49.832C42.9611 49.93 42.3171 49.328 42.1771 48.88ZM43.5491 53.094C43.5491 51.526 44.7951 50.392 46.5031 50.392C48.2111 50.392 49.4571 51.526 49.4571 53.094C49.4571 54.662 48.2111 55.81 46.5031 55.81C44.7951 55.81 43.5491 54.662 43.5491 53.094ZM44.7391 53.094C44.7391 54.102 45.4811 54.83 46.5031 54.83C47.5251 54.83 48.2671 54.102 48.2671 53.094C48.2671 52.044 47.5251 51.274 46.5031 51.274C45.4811 51.274 44.7391 52.044 44.7391 53.094ZM62.122 59.212C60.414 59.212 59.49 58.974 59.112 58.26C58.93 57.924 58.818 57.336 58.888 56.888C58.72 56.748 58.566 56.58 58.51 56.426C58.412 56.188 58.51 55.992 58.622 56.006C59.28 56.118 60.022 56.146 60.666 56.118L64.838 55.936L64.852 54.872L60.862 54.984C60.512 54.998 59.882 55.068 59.476 55.138C59.126 55.194 58.538 54.76 58.37 54.354C58.272 54.13 58.384 53.948 58.538 53.976C59.182 54.06 59.896 54.13 60.498 54.102L63.914 53.976C64.684 53.948 64.936 53.78 65.132 53.78C65.552 53.78 66.238 54.032 66.154 54.368C66.098 54.592 66.042 54.984 66.014 55.32L65.944 56.202C66.224 56.384 66.042 57.028 65.734 56.972C65.202 56.874 64.502 56.846 63.942 56.874L60.988 57C60.666 57.014 60.316 57.042 59.994 57.07C59.966 57.364 60.008 57.658 60.162 57.854C60.456 58.232 61.17 58.302 62.22 58.302C63.564 58.302 64.838 58.008 65.132 57.882C65.468 57.728 66.224 57.84 66.392 57.91C66.742 58.078 66.728 58.778 66.448 58.834C65.174 59.114 63.55 59.212 62.122 59.212ZM55.92 52.17C55.836 51.946 55.962 51.778 56.074 51.792C57.334 52.002 58.622 52.072 59.756 52.03L64.488 51.876C65.776 51.834 66.574 51.582 66.882 51.582C67.512 51.582 68.17 51.764 68.548 51.974C68.982 52.212 68.66 53.052 68.282 52.968C67.736 52.842 66.784 52.758 65.608 52.786L60.106 52.94C59.238 52.968 58.202 53.066 57.432 53.164C56.802 53.248 56.06 52.604 55.92 52.17ZM57.894 47.158C57.74 47.088 57.852 46.738 58.384 46.724C59.406 46.71 60.05 47.116 60.008 47.312C59.952 47.662 59.91 47.984 59.938 48.39L59.966 48.768C60.036 49.692 60.386 50.014 62.066 49.972C63.34 49.93 64.376 49.748 64.838 49.538C65.174 49.384 65.93 49.454 66.14 49.538C66.448 49.678 66.434 50.336 66.168 50.406C64.978 50.686 63.606 50.84 61.856 50.868C59.56 50.896 58.916 50.336 58.776 48.908L58.748 48.614C58.678 47.9 58.552 47.48 57.894 47.158ZM77.4329 57.686C77.4469 56.734 77.4609 55.656 77.4609 54.438L77.4749 51.848L76.1449 51.904C76.0469 53.584 74.8849 54.704 73.1769 54.704C71.3989 54.704 70.2089 53.486 70.2089 51.68C70.2089 50.07 71.1749 48.936 72.6729 48.726C72.6449 48.446 72.5609 48.236 72.4069 48.124C72.2809 48.04 72.3789 47.858 72.6449 47.858C73.2049 47.858 73.9049 48.04 73.8209 48.264C73.7649 48.418 73.7369 48.572 73.7089 48.74C74.9549 48.922 75.8369 49.762 76.0749 50.966L77.4749 50.924L77.4889 48.6C77.4889 47.662 77.3209 47.326 76.7469 47.032C76.6209 46.962 76.7609 46.654 77.1669 46.668C78.1329 46.682 78.8749 47.116 78.8049 47.354C78.6929 47.774 78.6369 48.11 78.6369 48.67L78.6089 54.438C78.6089 55.782 78.5109 56.818 78.2869 57.504C78.0069 58.33 77.4329 58.19 77.4329 57.686ZM71.3569 51.68C71.3569 52.912 72.0849 53.752 73.1769 53.752C74.2689 53.752 74.9969 52.912 74.9969 51.68C74.9969 50.406 74.2689 49.552 73.1769 49.552C72.0849 49.552 71.3569 50.406 71.3569 51.68ZM79.2529 46.374C79.1269 46.29 79.2809 45.968 79.7709 46.01C80.7789 46.094 81.3949 46.528 81.3249 46.766C81.2129 47.13 81.1429 47.55 81.1429 48.32L81.1149 55.558C81.1149 56.902 81.0169 57.938 80.7789 58.624C80.4989 59.45 79.8969 59.31 79.9109 58.806C79.9389 57.854 79.9669 56.776 79.9669 55.558L79.9949 48.264C79.9949 47.088 79.8409 46.738 79.2529 46.374ZM45.4277 83.806C45.4697 82.784 45.4837 81.706 45.4837 80.418V80.25C43.2577 80.586 40.6257 80.95 39.4217 81.104C38.6517 81.202 37.8957 81.342 37.1537 81.496C36.7057 81.594 35.8377 81.16 35.6137 80.6C35.5437 80.418 35.6137 80.222 35.7537 80.236C36.6077 80.306 37.5037 80.292 38.4277 80.208C40.4017 80.026 43.1457 79.718 45.4837 79.326L45.5117 73.32C45.5117 72.186 45.4277 71.766 44.7837 71.402C44.6437 71.318 44.7837 70.968 45.3157 71.01C46.3377 71.094 46.9537 71.528 46.8837 71.766C46.7857 72.144 46.7017 72.69 46.7017 73.39L46.6737 80.418C46.6737 81.832 46.6177 82.882 46.3377 83.624C46.0297 84.436 45.3997 84.31 45.4277 83.806ZM36.1457 73.348C36.0757 73.18 36.1877 73.04 36.3137 73.054C36.5937 73.096 36.9717 73.11 37.3217 73.082L38.3577 72.984C38.9037 72.928 39.0017 72.858 39.1557 72.858C39.3517 72.858 39.5757 72.928 39.7437 73.012C39.7717 72.942 39.8417 72.9 39.9117 72.914C40.1917 72.956 40.5697 72.97 40.9197 72.942L42.1797 72.816C42.6137 72.774 42.8657 72.676 43.0337 72.676C43.2717 72.676 43.6357 72.802 43.8037 72.914C44.0837 73.096 43.9157 73.74 43.6217 73.74C43.0757 73.726 42.1377 73.81 41.3677 73.908C41.2417 74.692 41.1857 75.518 41.1857 76.358C41.1857 77.03 41.4657 77.268 41.8717 77.268C42.4317 77.268 42.9917 77.128 43.2857 76.988C43.4537 76.904 43.9997 76.96 44.2237 77.1C44.3917 77.212 44.4337 77.786 44.1957 77.856C43.3977 78.08 42.3057 78.178 41.6757 78.178C41.1437 78.178 40.7377 78.052 40.4577 77.744C39.8977 77.94 39.1557 78.136 38.2877 78.164C37.3077 78.192 36.7617 77.604 36.7757 76.596C36.7897 75.602 36.8877 74.846 37.0557 74.132C36.7197 74.146 36.2717 73.656 36.1457 73.348ZM37.8817 76.33C37.8537 76.988 38.0917 77.254 38.5257 77.254C39.0577 77.24 39.6317 77.114 40.1217 76.96C40.0937 76.806 40.0797 76.624 40.0797 76.414C40.0797 75.546 40.1777 74.664 40.3177 73.88C40.1917 73.796 40.0657 73.684 39.9677 73.558C39.9257 73.726 39.8137 73.88 39.6737 73.88C39.2677 73.866 38.6797 73.922 38.1337 73.978C37.9797 74.804 37.9097 75.602 37.8817 76.33ZM55.0546 83.806C55.0826 82.994 55.0966 81.916 55.0966 81.118V79.2L53.2906 79.256C52.4226 79.284 51.3866 79.382 50.6166 79.48C49.9866 79.564 49.2446 78.92 49.1046 78.486C49.0206 78.262 49.1466 78.094 49.2586 78.108C50.5186 78.318 51.8066 78.388 52.9406 78.346L57.6726 78.192C58.9606 78.15 59.7586 77.898 60.0666 77.898C60.6966 77.898 61.3546 78.08 61.7326 78.29C62.1666 78.528 61.8446 79.368 61.4666 79.284C60.9206 79.158 59.9686 79.074 58.7926 79.102L56.2866 79.172V81.118C56.2866 82.042 56.2026 82.938 55.9646 83.582C55.6426 84.436 55.0406 84.31 55.0546 83.806ZM52.2406 74.426C52.2406 73.012 53.4166 71.948 55.0966 71.766C55.0686 71.486 54.9846 71.276 54.8306 71.164C54.7046 71.08 54.8026 70.898 55.0686 70.898C55.6286 70.898 56.3286 71.08 56.2446 71.304C56.1886 71.444 56.1606 71.612 56.1326 71.766C57.8266 71.948 59.0166 73.012 59.0166 74.426C59.0166 76.022 57.5886 77.184 55.6286 77.184C53.6686 77.184 52.2406 76.022 52.2406 74.426ZM53.4306 74.426C53.4306 75.476 54.3546 76.232 55.6286 76.232C56.9026 76.232 57.8266 75.476 57.8266 74.426C57.8266 73.348 56.9026 72.578 55.6286 72.578C54.3546 72.578 53.4306 73.348 53.4306 74.426ZM68.6714 76.428C66.3754 76.456 65.7734 75.896 65.6054 74.188L65.5494 73.614C65.4794 72.9 65.3674 72.48 64.7094 72.158C64.5554 72.088 64.6674 71.738 65.1994 71.724C66.2214 71.71 66.8654 72.116 66.8234 72.312C66.7674 72.662 66.7394 72.984 66.7674 73.53L66.7954 74.048C66.8654 75.252 67.2014 75.574 68.8814 75.532C70.1554 75.49 71.1914 75.308 71.6534 75.098C71.9894 74.944 72.7454 75.014 72.9554 75.098C73.2634 75.238 73.2494 75.896 72.9834 75.966C71.7934 76.246 70.4214 76.4 68.6714 76.428ZM62.7354 78.108C62.6514 77.884 62.7774 77.716 62.8894 77.73C64.1494 77.94 65.4374 78.01 66.5714 77.968L71.3034 77.814C72.5914 77.772 73.3894 77.52 73.6974 77.52C74.3274 77.52 74.9854 77.702 75.3634 77.912C75.7974 78.15 75.4754 78.99 75.0974 78.906C74.5514 78.78 73.5994 78.696 72.4234 78.724L66.9214 78.878C66.0534 78.906 65.0174 79.004 64.2474 79.102C63.6174 79.186 62.8754 78.542 62.7354 78.108ZM65.1574 80.446C65.0174 80.362 65.1294 80.068 65.5494 80.054C66.6134 80.04 67.2154 80.362 67.1594 80.558C67.0614 80.866 67.0334 81.342 67.0754 81.86C67.1734 82.882 67.7194 83.134 68.9934 83.134C70.0854 83.134 71.4014 82.882 72.0454 82.63C72.3814 82.49 73.1094 82.602 73.3054 82.686C73.6554 82.84 73.6694 83.54 73.3894 83.596C71.9754 83.918 70.3934 84.044 68.8534 84.044C66.8234 84.044 66.0534 83.512 65.8994 81.916C65.8154 81.006 65.6474 80.74 65.1574 80.446ZM34.409 103.542C34.003 103.192 33.429 102.646 32.995 102.282C32.519 101.89 31.819 101.358 31.203 100.91C30.349 102.058 29.411 102.968 28.431 103.486C27.493 103.99 27.157 103.626 27.381 103.43C28.907 102.156 30.153 100.756 30.769 99.468C30.979 99.02 31.007 98.684 30.853 98.46L30.237 98.474C29.915 98.488 29.327 98.544 28.991 98.614C28.515 98.712 27.913 98.124 27.773 97.718C27.717 97.55 27.815 97.382 27.955 97.41C28.585 97.508 29.355 97.55 29.845 97.536L32.575 97.438C32.981 97.424 33.583 97.284 33.933 97.27C34.213 97.27 34.717 97.424 34.899 97.536C35.263 97.76 35.053 98.544 34.717 98.488C34.269 98.418 33.303 98.39 32.659 98.404L32.099 98.418C32.407 98.572 32.617 98.768 32.533 98.88C32.379 99.076 32.225 99.328 31.973 99.748L31.763 100.084C32.337 100.49 32.953 100.896 33.275 101.12C33.723 101.456 34.101 101.54 34.255 101.666C34.619 101.932 35.053 102.492 35.179 102.87C35.305 103.206 34.731 103.808 34.409 103.542ZM30.489 104.816C30.349 104.732 30.461 104.438 30.881 104.424C31.945 104.41 32.547 104.732 32.491 104.928C32.393 105.236 32.365 105.712 32.407 106.538C32.477 107.854 33.051 108.106 34.395 108.106C35.179 108.106 36.495 107.854 37.139 107.602C37.475 107.462 38.203 107.574 38.399 107.658C38.749 107.812 38.763 108.512 38.483 108.568C37.069 108.89 35.487 109.016 34.255 109.016C32.127 109.016 31.343 108.288 31.231 106.608C31.147 105.32 30.979 105.11 30.489 104.816ZM36.229 96.402C36.089 96.318 36.229 95.968 36.761 96.01C37.783 96.094 38.399 96.528 38.329 96.78C38.231 97.144 38.147 97.69 38.147 98.11L38.119 102.52C38.119 103.444 38.035 104.34 37.797 104.97C37.475 105.838 36.831 105.712 36.859 105.208C36.901 104.256 36.929 103.318 36.929 102.52L36.957 98.18C36.957 97.186 36.873 96.794 36.229 96.402ZM40.9979 102.982C42.7759 101.526 44.3019 99.636 44.8339 98.278C45.0859 97.62 45.1139 97.354 44.5539 96.92C44.4139 96.808 44.6099 96.542 44.9599 96.57C45.7439 96.654 46.8219 97.298 46.6259 97.62C46.4159 97.97 46.2059 98.32 45.9119 98.866L45.7439 99.16C46.6959 99.93 47.6199 100.504 48.2079 100.798C48.6139 100.966 49.0759 101.736 49.1879 102.184C49.2719 102.534 48.6979 103.066 48.4179 102.786C47.4239 101.82 46.1639 100.742 45.2119 99.972C44.3859 101.162 43.2659 102.296 42.1599 102.982C41.2779 103.528 40.6339 103.29 40.9979 102.982ZM43.8819 104.634C43.7419 104.578 43.8399 104.242 44.2039 104.228C44.8059 104.2 45.6039 104.298 45.8559 104.41L49.3139 104.228C50.1679 104.186 50.4059 103.948 50.6159 103.948C51.0079 103.948 51.7779 104.27 51.7079 104.55C51.6239 104.9 51.5819 105.278 51.5679 105.712L51.4979 107.28C51.4699 107.868 51.3019 108.526 51.0639 108.918C50.8399 109.282 50.4059 109.324 50.3499 108.932L45.7019 109.058C45.4919 109.45 45.0439 109.408 45.0019 108.988C44.9459 108.498 44.8899 108.008 44.8619 107.602L44.7219 105.768C44.6659 105.096 44.4419 104.858 43.8819 104.634ZM45.9119 105.348C45.9119 105.488 45.9259 105.628 45.9259 105.754L45.9959 107.588C46.0099 107.77 45.9959 107.938 45.9819 108.092L50.3499 107.994V105.138L45.9119 105.348ZM49.8599 96.402C49.7199 96.318 49.8599 95.968 50.3919 96.01C51.4139 96.08 52.0159 96.542 51.9599 96.738C51.8479 97.144 51.7779 97.536 51.7779 97.942L51.7499 101.078C51.7499 101.722 51.6519 102.422 51.4979 102.898C51.1759 103.836 50.4759 103.71 50.5039 103.15C50.5319 102.534 50.5599 101.596 50.5599 101.078L50.5879 98.054C50.6019 97.2 50.4899 96.766 49.8599 96.402ZM67.3613 108.806C67.4033 107.784 67.4173 106.706 67.4173 105.418L67.4313 101.54L65.3733 101.624C65.3593 103.542 63.9873 104.844 62.0273 104.844C60.0673 104.844 58.6813 103.528 58.6813 101.61C58.6813 99.888 59.8293 98.67 61.4953 98.446C61.4673 98.166 61.3833 97.956 61.2293 97.844C61.1033 97.76 61.2013 97.578 61.4673 97.578C62.0273 97.578 62.7273 97.76 62.6433 97.984C62.5873 98.124 62.5593 98.292 62.5313 98.446C63.9033 98.614 64.9253 99.468 65.2613 100.7L67.4313 100.616L67.4453 98.32C67.4453 97.186 67.3613 96.766 66.7173 96.402C66.5773 96.318 66.7173 95.968 67.2493 96.01C68.2713 96.094 68.8873 96.528 68.8173 96.766C68.7193 97.144 68.6353 97.69 68.6353 98.39L68.6073 105.418C68.6073 106.832 68.5513 107.882 68.2713 108.624C67.9633 109.436 67.3333 109.31 67.3613 108.806ZM59.8713 101.61C59.8713 102.968 60.7813 103.892 62.0273 103.892C63.2733 103.892 64.1833 102.968 64.1833 101.61C64.1833 100.21 63.2733 99.258 62.0273 99.258C60.7813 99.258 59.8713 100.21 59.8713 101.61ZM80.9781 105.628C81.0201 104.676 81.0481 103.738 81.0481 102.94V102.534C79.1021 103.318 76.9881 103.794 75.1121 103.78C73.2781 103.766 72.7321 103.024 72.6901 102.03C72.6761 101.624 72.7041 101.288 72.7881 100.896C72.5221 100.756 72.2141 100.462 72.1161 100.224C72.0181 99.986 72.1441 99.832 72.2561 99.846C72.8021 99.93 73.5441 99.972 74.1321 99.93L77.1701 99.748L77.2121 98.11L74.6501 98.236C74.2161 98.264 73.5861 98.32 73.1241 98.39C72.7741 98.446 72.1861 98.012 72.0181 97.606C71.9201 97.382 72.0321 97.2 72.1861 97.228C72.8301 97.312 73.5441 97.368 74.2861 97.326L76.1061 97.228C77.0021 97.186 77.3241 97.018 77.4641 97.018C77.9121 97.018 78.5701 97.326 78.5001 97.648C78.4441 97.9 78.3741 98.264 78.3461 98.6L78.2481 100C78.5841 100.14 78.3881 100.868 78.0801 100.812C77.5481 100.714 76.8481 100.672 76.2881 100.7L74.4541 100.798C74.3001 100.812 74.1321 100.826 73.9501 100.854C73.8941 101.218 73.8661 101.596 73.8801 101.932C73.9081 102.436 74.2721 102.842 75.3221 102.856C77.0021 102.87 79.0601 102.394 81.0621 101.554L81.0761 98.18C81.0761 97.186 80.9921 96.794 80.3481 96.402C80.2081 96.318 80.3481 95.968 80.8801 96.01C81.9021 96.094 82.5181 96.528 82.4481 96.78C82.3501 97.144 82.2661 97.69 82.2661 98.11L82.2381 102.94C82.2381 103.864 82.1541 104.76 81.9161 105.39C81.5941 106.258 80.9501 106.132 80.9781 105.628ZM74.6081 105.306C74.4681 105.222 74.5801 104.928 75.0001 104.914C76.0641 104.9 76.6661 105.222 76.6101 105.418C76.5121 105.726 76.4841 106.202 76.5401 106.888C76.6241 107.854 77.1701 108.106 78.5141 108.106C79.2981 108.106 80.6141 107.854 81.2581 107.602C81.5941 107.462 82.3221 107.574 82.5181 107.658C82.8681 107.812 82.8821 108.512 82.6021 108.568C81.1881 108.89 79.6061 109.016 78.3741 109.016C76.2741 109.016 75.4761 108.484 75.3501 106.944C75.2661 105.866 75.0981 105.6 74.6081 105.306ZM45.7497 128.514C44.7837 127.534 43.0197 126.218 41.7457 125.42C40.7237 126.666 39.4777 127.73 38.2457 128.458C37.2797 129.032 36.7477 128.654 37.1117 128.374C39.0577 126.862 40.8357 125.014 41.4657 123.698C41.7457 123.124 41.6617 122.844 41.1577 122.382C41.0317 122.27 41.2417 122.018 41.5917 122.06C42.3617 122.144 43.4957 122.928 43.2857 123.222C43.0197 123.6 42.7117 124.076 42.3337 124.622C42.3197 124.636 42.3057 124.65 42.3057 124.664C43.5097 125.462 44.8117 126.204 45.4417 126.484C45.8617 126.666 46.3797 127.38 46.4917 127.87C46.5897 128.262 45.9877 128.752 45.7497 128.514ZM35.4737 131.09C35.3897 130.866 35.5157 130.698 35.6277 130.712C36.8877 130.922 38.1757 130.992 39.3097 130.95L41.4797 130.88L41.4937 129.788C41.5077 128.934 41.4097 128.542 40.7937 128.164C40.6257 128.066 40.7657 127.744 41.2977 127.758C42.2497 127.786 42.9217 128.136 42.8517 128.402C42.7677 128.752 42.6837 129.298 42.6837 129.718L42.6697 130.838L44.0417 130.796C45.3297 130.754 46.1277 130.502 46.4357 130.502C47.0657 130.502 47.7237 130.684 48.1017 130.894C48.5357 131.132 48.2137 131.972 47.8357 131.888C47.2897 131.762 46.3377 131.678 45.1617 131.706L39.6597 131.86C38.7917 131.888 37.7557 131.986 36.9857 132.084C36.3557 132.168 35.6137 131.524 35.4737 131.09ZM58.9886 131.076C59.0166 130.544 59.0306 129.97 59.0306 129.382L57.5606 129.634C57.3366 129.676 56.9026 129.774 56.6506 129.844C56.4546 129.886 56.0766 129.564 55.9226 129.186C55.8386 129.004 55.9366 128.892 56.0206 128.892C56.3846 128.892 56.9166 128.864 57.2526 128.822L59.0446 128.598V127.968L59.0726 123.32C59.0726 122.186 58.9886 121.766 58.3446 121.402C58.2046 121.318 58.3446 120.968 58.8766 121.01C59.8986 121.094 60.5146 121.528 60.4446 121.766C60.3466 122.144 60.2626 122.69 60.2626 123.39L60.2346 127.968C60.2206 129.172 60.1506 130.208 59.8986 130.894C59.5906 131.706 58.9606 131.58 58.9886 131.076ZM49.2586 127.912C49.1606 127.716 49.2586 127.506 49.4126 127.52C50.1406 127.576 50.8686 127.59 51.6106 127.534C54.0326 127.324 56.1606 127.03 58.2606 126.666C58.6806 126.596 58.5546 127.394 57.8406 127.534C56.9026 127.73 55.8106 127.912 54.6346 128.094V128.752C54.6346 129.088 54.5506 129.424 54.3686 129.802C54.0186 130.516 53.4306 130.404 53.4306 129.9V128.276C52.9826 128.332 52.5346 128.402 52.0726 128.458C51.6246 128.514 51.0926 128.612 50.6866 128.71C50.2246 128.808 49.4406 128.276 49.2586 127.912ZM50.7146 124.23C50.7146 123.054 51.6946 122.228 53.2066 122.074C53.1786 121.78 53.0946 121.556 52.9406 121.444C52.8146 121.36 52.9126 121.178 53.1786 121.178C53.7386 121.178 54.4386 121.36 54.3546 121.584C54.2986 121.738 54.2566 121.906 54.2426 122.074C55.7686 122.214 56.7626 123.054 56.7626 124.23C56.7626 125.56 55.5446 126.456 53.7386 126.456C51.9326 126.456 50.7146 125.56 50.7146 124.23ZM51.8766 130.824C51.7366 130.74 51.8486 130.446 52.2686 130.432C53.3046 130.418 53.8926 130.74 53.8366 130.936C53.7526 131.244 53.7246 131.622 53.7666 132.028C53.8646 132.994 54.4106 133.246 55.7546 133.246C56.8186 133.246 58.5546 132.994 59.1986 132.742C59.5346 132.602 60.2626 132.714 60.4586 132.798C60.8086 132.952 60.8226 133.652 60.5426 133.708C59.1286 134.03 57.1266 134.156 55.6146 134.156C53.4866 134.156 52.7446 133.428 52.6046 132.098C52.5206 131.328 52.3666 131.118 51.8766 130.824ZM51.9046 124.23C51.9046 125.014 52.6466 125.532 53.7386 125.532C54.8306 125.532 55.5726 125.014 55.5726 124.23C55.5726 123.446 54.8306 122.928 53.7386 122.928C52.6466 122.928 51.9046 123.446 51.9046 124.23ZM68.9374 134.212C67.2294 134.212 66.3054 133.974 65.9274 133.26C65.7454 132.924 65.6334 132.336 65.7034 131.888C65.5354 131.748 65.3814 131.58 65.3254 131.426C65.2274 131.188 65.3254 130.992 65.4374 131.006C66.0954 131.118 66.8374 131.146 67.4814 131.118L71.6534 130.936L71.6674 129.872L67.6774 129.984C67.3274 129.998 66.6974 130.068 66.2914 130.138C65.9414 130.194 65.3534 129.76 65.1854 129.354C65.0874 129.13 65.1994 128.948 65.3534 128.976C65.9974 129.06 66.7114 129.13 67.3134 129.102L70.7294 128.976C71.4994 128.948 71.7514 128.78 71.9474 128.78C72.3674 128.78 73.0534 129.032 72.9694 129.368C72.9134 129.592 72.8574 129.984 72.8294 130.32L72.7594 131.202C73.0394 131.384 72.8574 132.028 72.5494 131.972C72.0174 131.874 71.3174 131.846 70.7574 131.874L67.8034 132C67.4814 132.014 67.1314 132.042 66.8094 132.07C66.7814 132.364 66.8234 132.658 66.9774 132.854C67.2714 133.232 67.9854 133.302 69.0354 133.302C70.3794 133.302 71.6534 133.008 71.9474 132.882C72.2834 132.728 73.0394 132.84 73.2074 132.91C73.5574 133.078 73.5434 133.778 73.2634 133.834C71.9894 134.114 70.3654 134.212 68.9374 134.212ZM62.7354 127.17C62.6514 126.946 62.7774 126.778 62.8894 126.792C64.1494 127.002 65.4374 127.072 66.5714 127.03L71.3034 126.876C72.5914 126.834 73.3894 126.582 73.6974 126.582C74.3274 126.582 74.9854 126.764 75.3634 126.974C75.7974 127.212 75.4754 128.052 75.0974 127.968C74.5514 127.842 73.5994 127.758 72.4234 127.786L66.9214 127.94C66.0534 127.968 65.0174 128.066 64.2474 128.164C63.6174 128.248 62.8754 127.604 62.7354 127.17ZM64.7794 122.074C64.7234 121.906 64.8214 121.724 64.9894 121.752C65.5914 121.85 66.3754 121.934 66.9914 121.892L69.7494 121.724C70.6874 121.668 71.2474 121.528 71.4714 121.528C71.7934 121.528 72.3814 121.668 72.6194 121.808C72.9134 121.962 72.7454 122.718 72.4094 122.69C71.8494 122.634 71.0374 122.62 70.1974 122.662L67.2714 122.83C67.1454 122.83 66.9774 122.844 66.7954 122.872C66.7254 123.306 66.6694 123.81 66.6694 124.23C66.6554 124.902 67.0894 125.028 68.8254 124.944C70.1974 124.888 71.1914 124.72 71.6114 124.538C71.9054 124.412 72.7594 124.44 72.9274 124.496C73.2494 124.608 73.2634 125.336 72.9834 125.406C71.8494 125.686 70.4494 125.84 68.8814 125.882C66.0114 125.966 65.4234 125.49 65.4794 124.258C65.4934 123.838 65.5634 123.362 65.6474 122.942C65.3254 122.802 64.9054 122.424 64.7794 122.074Z" fill="#744A21"/>
</g>
</svg>
