<svg width="180" height="200" viewBox="0 0 180 200" fill="none" xmlns="http://www.w3.org/2000/svg">
<path d="M139.641 120.031C138.872 119.639 137.32 122.261 133.621 126.419C130.902 129.478 131.037 128.845 123.481 136.16C119.006 140.5 116.377 143.219 115.925 142.828C115.299 142.293 120.385 137.2 119.933 130.337C119.797 128.325 119.096 124.98 117.447 124.566C116.633 124.363 115.593 124.875 110.214 131.603C108.21 134.111 107.201 135.362 105.611 137.547C101.249 143.513 99.3733 146.843 98.7329 146.519C98.3412 146.323 98.9665 145.012 98.959 142.85C98.9439 139.325 97.2413 136.71 95.4633 133.983C94.3559 132.281 92.48 129.809 89.5419 127.444V127.323C89.5419 127.323 89.4967 127.361 89.4741 127.384C89.4741 127.384 89.459 127.376 89.4515 127.369V127.406C86.5887 129.87 84.7957 132.394 83.7409 134.134C82.0459 136.921 80.4261 139.588 80.5165 143.114C80.5693 145.269 81.2322 146.564 80.848 146.775C80.2227 147.122 78.2564 143.852 73.7362 138.029C72.0864 135.904 71.0467 134.676 68.975 132.235C63.4151 125.689 62.3679 125.206 61.5618 125.44C59.927 125.907 59.3243 129.275 59.249 131.286C58.9928 138.157 64.2061 143.084 63.6035 143.641C63.1665 144.048 60.4619 141.411 55.8739 137.215C48.1368 130.141 48.2875 130.774 45.485 127.806C41.6729 123.768 40.0532 121.191 39.2998 121.613C38.4711 122.072 39.3224 125.787 40.2641 128.325C43.9782 138.405 53.9302 143.325 58.0662 145.374C65.9389 149.269 72.9904 150.068 77.9852 150.58C82.7691 151.077 86.8072 150.987 89.7152 150.798V150.828C92.6533 150.934 96.8043 150.904 101.716 150.241C106.704 149.563 113.748 148.538 121.53 144.387C125.621 142.21 135.452 136.966 138.88 126.773C139.746 124.204 140.492 120.46 139.648 120.031H139.641Z" fill="url(#paint0_linear_111_2248)"/>
<path d="M90.1366 97.6873C101.151 97.7551 108.112 86.1005 110.485 79.3202C113.468 70.7921 111.547 63.168 110.982 60.9531C108.918 52.8845 104.285 47.9575 102.304 46.0515C97.7004 41.6292 92.8864 39.7835 90.2798 39C87.6807 39.776 82.844 41.6142 78.2259 46.0515C76.2672 47.9274 71.6565 52.8695 69.5471 60.9531C68.9595 63.2132 67.0761 70.8071 70.0443 79.3202C70.3306 80.1489 76.6966 97.6044 90.1366 97.6873Z" fill="url(#paint1_linear_111_2248)"/>
<path d="M110.93 53.0281C104.315 45.0198 99.5839 41.9235 100.307 40.6051C101 39.3394 105.965 41.1023 106.989 41.4714C115.826 44.613 121.876 50.9036 125.831 55.9662C130.058 61.3754 140.446 74.1751 137.154 79.1549C135.301 81.9574 129.236 82.1005 125.809 79.4412C122.147 76.5934 123.993 72.4951 120.399 65.0217C118.878 61.8651 115.985 59.1605 110.93 53.0431V53.0281Z" fill="url(#paint2_linear_111_2248)"/>
<path d="M69.8033 53.0281C76.4178 45.0198 81.149 41.9235 80.4257 40.6051C79.7326 39.3394 74.7679 41.1023 73.7434 41.4714C64.9064 44.613 58.8568 50.9036 54.9017 55.9662C50.6753 61.3754 40.2863 74.1751 43.5785 79.1549C45.4318 81.9574 51.4964 82.1005 54.9243 79.4412C58.5856 76.5934 56.7399 72.4951 60.3334 65.0217C61.8552 61.8651 64.7482 59.1605 69.8033 53.0431V53.0281Z" fill="url(#paint3_linear_111_2248)"/>
<path d="M125.68 58.7903C120.181 49.9005 115.902 46.1413 116.791 44.9359C117.642 43.7832 122.336 46.2542 123.292 46.759C131.632 51.1587 136.8 58.2629 140.055 63.8604C143.528 69.8271 152.146 84.0205 148.221 88.4729C146.014 90.9741 139.994 90.2433 136.951 87.1018C133.704 83.7493 136.069 79.9523 133.485 72.0345C132.393 68.6895 129.884 65.5856 125.68 58.7903Z" fill="url(#paint4_linear_111_2248)"/>
<path d="M54.3668 58.7903C59.8663 49.9005 64.1455 46.1413 63.2565 44.9359C62.4052 43.7832 57.7117 46.2542 56.7549 46.759C48.4152 51.1587 43.2471 58.2629 39.9925 63.8604C36.5195 69.8271 27.901 84.0205 31.826 88.4729C34.0334 90.9741 40.0528 90.2433 43.0964 87.1018C46.3434 83.7493 43.9778 79.9523 46.5619 72.0345C47.6543 68.6895 50.163 65.5856 54.3668 58.7903Z" fill="url(#paint5_linear_111_2248)"/>
<path d="M93.5494 42.3527L93.5117 42.2849C93.5117 42.2849 93.572 42.2849 93.5946 42.2849C93.6097 42.2623 93.6247 42.2397 93.6398 42.2246L93.6699 42.2849C100.714 42.9931 105.52 45.7052 108.059 47.4379C109.581 48.4776 122.539 57.5707 120.716 68.5849C120.128 72.1333 118.192 74.755 116.685 76.3672C115.631 77.1808 111.608 80.119 106.907 79.0492C102.966 78.1527 100.752 74.9434 99.2222 72.6607C92.2837 62.3094 93.0522 47.7619 93.5494 42.3678V42.3527Z" fill="url(#paint6_linear_111_2248)"/>
<path d="M85.0062 42.3527L85.0439 42.2849C85.0439 42.2849 84.9836 42.2849 84.961 42.2849C84.9459 42.2623 84.9309 42.2397 84.9158 42.2246L84.8857 42.2849C77.8417 42.9931 73.0352 45.7052 70.4963 47.4379C68.9745 48.4776 56.0166 57.5707 57.8398 68.5849C58.4274 72.1333 60.3636 74.755 61.8703 76.3672C62.925 77.1808 66.948 80.119 71.649 79.0492C75.5891 78.1527 77.804 74.9434 79.3333 72.6607C86.2718 62.3094 85.5034 47.7619 85.0062 42.3678V42.3527Z" fill="url(#paint7_linear_111_2248)"/>
<path d="M48.3775 105.959C60.0547 101.944 68.2664 91.4646 69.1554 79.5765C70.1272 66.611 61.9682 57.6686 60.6498 56.2598L47.8351 105.583H47.8577L61.019 56.3652C59.1958 56.8549 47.8275 60.0869 42.3129 71.7189C37.2578 82.3865 39.1638 95.8266 47.2022 105.605" fill="url(#paint8_linear_111_2248)"/>
<path d="M134.638 105.959C122.961 101.944 114.749 91.4646 113.86 79.5765C112.888 66.611 121.047 57.6686 122.366 56.2598L135.18 105.583H135.158L121.997 56.3652C123.82 56.8549 135.188 60.0869 140.703 71.7189C145.758 82.3865 143.852 95.8266 135.813 105.605" fill="url(#paint9_linear_111_2248)"/>
<path d="M143.098 68.6677C145.697 72.2989 149.201 78.3108 150.24 86.2437C154 114.992 121.778 141.82 116.467 138.256C113.069 135.981 118.162 119.588 122.32 110.359C126.743 100.543 130.909 97.047 137.064 83.8556C139.987 77.5875 141.923 72.216 143.098 68.6602V68.6677Z" fill="url(#paint10_linear_111_2248)"/>
<path d="M37.4461 68.668C34.847 72.5403 31.3439 78.9589 30.3042 87.4192C26.5449 118.089 58.7664 146.709 64.0777 142.912C67.4754 140.486 62.3826 122.993 58.224 113.154C53.8017 102.682 49.6356 98.9533 43.4806 84.8804C40.5575 78.198 38.6214 72.4649 37.4461 68.668Z" fill="url(#paint11_linear_111_2248)"/>
<path d="M88.2683 113.824C89.2401 113.62 103.705 110.253 108.617 95.4564C111.412 87.0338 109.671 79.259 109.114 77.0893C107.231 69.744 103.313 65.3895 100.435 62.1877C95.93 57.1778 91.3043 54.4808 88.3662 53.0645H88.4265C85.4884 54.4808 80.8627 57.1778 76.3575 62.1877C73.4797 65.382 69.5622 69.744 67.6788 77.0893C67.1213 79.259 65.381 87.0338 68.176 95.4564C73.0879 110.253 87.5526 113.613 88.5244 113.824" fill="url(#paint12_linear_111_2248)"/>
<path d="M58.6143 77.9724C59.5258 78.4847 74.3521 87.1936 75.4972 105.41C76.2581 117.419 70.7887 128.99 61.2209 135.688L58.6143 77.9648V77.9724Z" fill="url(#paint13_linear_111_2248)"/>
<path d="M61.6143 71.9724C62.5258 72.4847 77.3521 81.1936 78.4972 99.41C79.2581 111.419 73.7887 122.99 64.2209 129.688L61.6143 71.9648V71.9724Z" fill="url(#paint14_linear_111_2248)"/>
<path d="M62.0134 71.6286C61.1471 72.2313 47.1495 82.3415 47.6015 100.588C47.8953 112.619 54.3517 123.611 64.4694 129.352L62.021 71.6211L62.0134 71.6286Z" fill="url(#paint15_linear_111_2248)"/>
<path d="M117.687 69.3223C116.761 69.8044 101.671 77.9935 99.953 96.1647C98.8154 108.136 103.916 119.896 113.273 126.925L117.687 69.3223Z" fill="url(#paint16_linear_111_2248)"/>
<path d="M117.871 68.9648C118.715 69.5977 132.388 80.1825 131.371 98.4139C130.701 110.423 123.905 121.188 113.614 126.575L117.871 68.9648Z" fill="url(#paint17_linear_111_2248)"/>
<path d="M116.871 68.9648C117.715 69.5977 131.388 80.1825 130.371 98.4139C129.701 110.423 122.905 121.188 112.614 126.575L116.871 68.9648Z" fill="url(#paint18_linear_111_2248)"/>
<path d="M89.3381 150.506C90.3928 150.28 106.1 146.626 111.434 130.564C114.47 121.418 112.579 112.98 111.977 110.622C109.935 102.644 105.679 97.913 102.552 94.44C97.6552 89.0006 92.6378 86.0701 89.4435 84.5332H89.5113C86.3171 86.0701 81.2996 89.0006 76.4027 94.44C73.2763 97.913 69.0198 102.644 66.9781 110.622C66.3754 112.98 64.4845 121.418 67.5206 130.564C72.8544 146.626 88.5621 150.28 89.6168 150.506" fill="url(#paint19_linear_111_2248)"/>
<path d="M49.1233 100.49C46.4715 104.084 41.9588 111.406 42.7649 120.191C44.7011 141.338 78.241 152.171 80.6894 148.691C80.9606 148.306 80.825 147.802 76.8171 140.532C71.8147 131.469 69.3136 126.933 67.498 124.093C61.3881 114.556 54.7811 106.593 49.1233 100.49Z" fill="url(#paint20_linear_111_2248)"/>
<path d="M128.265 99.7207C130.916 103.314 135.429 110.637 134.623 119.421C132.687 140.568 99.1469 151.402 96.6984 147.921C96.4272 147.537 96.5628 147.032 100.571 139.762C105.573 130.699 108.074 126.164 109.89 123.324C116 113.786 122.607 105.823 128.265 99.7207Z" fill="url(#paint21_linear_111_2248)"/>
<path d="M91.5298 199.576C91.236 199.471 90.8367 199.365 90.3621 199.335C89.5936 199.29 88.9834 199.478 88.6143 199.621C88.667 182.738 88.7197 165.848 88.7725 148.965H91.3565C91.4168 165.84 91.4695 182.708 91.5298 199.584V199.576Z" fill="#744A21"/>
<path d="M130.902 138.384C127.406 139.01 127.497 140.283 121.364 143.311C113.092 147.402 105.89 148.577 102.47 149.105C99.4035 149.579 95.2374 150.001 90.2426 149.85C85.2101 149.971 81.0063 149.519 77.925 149.014C74.5198 148.464 67.3477 147.244 59.1134 143.093C53.0112 140.019 53.1091 138.746 49.6286 138.098C41.5901 136.591 33.1298 141.842 33.499 143.839C33.5668 144.193 33.9736 144.788 39.2321 145.406C47.1349 146.332 54.872 145.978 58.895 145.639C57.8704 145.888 56.6725 146.317 55.5274 147.025C54.7063 147.538 53.2749 148.479 53.3276 149.489C53.3728 150.272 54.3672 151.674 61.4188 153C62.0968 153.128 66.052 153.753 70.6626 153.03C72.9905 152.661 74.1507 152.48 75.4238 151.907C76.8176 151.282 77.3675 150.717 78.3394 150.86C79.5222 151.026 79.7256 151.99 81.3528 153.331C82.7164 154.454 83.9595 154.921 86.0011 155.689C87.0483 156.088 88.4345 156.518 90.0919 156.827V156.849C90.0919 156.849 90.1371 156.842 90.1597 156.834C90.1748 156.834 90.1898 156.834 90.2124 156.842V156.827C91.8774 156.533 93.2636 156.103 94.3183 155.719C96.3599 154.966 97.618 154.506 98.9892 153.391C100.632 152.058 100.835 151.101 102.025 150.943C103.005 150.815 103.547 151.372 104.941 152.013C106.221 152.6 107.382 152.789 109.71 153.173C114.335 153.934 118.305 153.331 118.984 153.203C126.065 151.93 127.067 150.536 127.12 149.753C127.188 148.743 125.756 147.786 124.935 147.274C123.782 146.551 122.592 146.121 121.568 145.865C125.598 146.234 133.35 146.641 141.276 145.767C146.549 145.187 146.971 144.592 147.039 144.238C147.416 142.242 138.97 136.938 130.902 138.384Z" fill="url(#paint22_linear_111_2248)"/>
<path d="M137.366 121.388C136.642 121.019 135.181 123.49 131.693 127.407C129.131 130.285 129.259 129.69 122.147 136.583C117.929 140.667 115.458 143.236 115.028 142.866C114.441 142.362 119.232 137.563 118.803 131.106C118.674 129.215 118.019 126.059 116.46 125.675C115.691 125.486 114.712 125.961 109.649 132.297C107.758 134.662 106.816 135.837 105.31 137.894C101.204 143.514 99.4335 146.648 98.8308 146.347C98.4616 146.159 99.0568 144.923 99.0417 142.889C99.0267 139.567 97.422 137.111 95.7495 134.534C94.7023 132.93 92.9395 130.609 90.1671 128.379V128.266C90.1671 128.266 90.1219 128.304 90.0993 128.319C90.0993 128.319 90.0842 128.311 90.0767 128.304V128.334C87.3796 130.654 85.6921 133.035 84.6976 134.67C83.1005 137.299 81.5787 139.808 81.654 143.123C81.6992 145.157 82.3245 146.37 81.9629 146.565C81.3753 146.889 79.522 143.808 75.2655 138.324C73.706 136.32 72.7342 135.167 70.7829 132.869C65.547 126.699 64.5601 126.255 63.7992 126.466C62.2624 126.903 61.6973 130.082 61.622 131.973C61.3809 138.444 66.2929 143.085 65.7203 143.605C65.306 143.989 62.7596 141.503 58.4428 137.555C51.1502 130.895 51.3009 131.483 48.6641 128.688C45.0781 124.884 43.5487 122.458 42.8406 122.857C42.0571 123.286 42.8632 126.79 43.7446 129.178C47.2478 138.67 56.6196 143.303 60.5145 145.232C67.9352 148.901 74.5724 149.647 79.2734 150.136C83.7785 150.603 87.583 150.521 90.3253 150.34V150.37C93.0901 150.475 97.0001 150.445 101.626 149.812C106.327 149.172 112.956 148.208 120.287 144.305C124.136 142.249 133.395 137.314 136.627 127.716C137.441 125.298 138.149 121.772 137.35 121.365L137.366 121.388Z" fill="url(#paint23_linear_111_2248)"/>
<defs>
<linearGradient id="paint0_linear_111_2248" x1="89.4891" y1="123.843" x2="89.5343" y2="147.25" gradientUnits="userSpaceOnUse">
<stop offset="0.01" stop-color="#4A874E"/>
<stop offset="0.25" stop-color="#5A9362"/>
<stop offset="0.62" stop-color="#6AA275"/>
<stop offset="1" stop-color="#6DA479"/>
</linearGradient>
<linearGradient id="paint1_linear_111_2248" x1="90.2195" y1="46.1419" x2="90.3099" y2="90.6584" gradientUnits="userSpaceOnUse">
<stop offset="0.01" stop-color="#E16584"/>
<stop offset="0.25" stop-color="#EF8797"/>
<stop offset="0.62" stop-color="#F0939E"/>
<stop offset="1" stop-color="#F6BAB0"/>
</linearGradient>
<linearGradient id="paint2_linear_111_2248" x1="112.536" y1="47.2037" x2="129.309" y2="72.7881" gradientUnits="userSpaceOnUse">
<stop offset="0.01" stop-color="#E16584"/>
<stop offset="0.25" stop-color="#EF8797"/>
<stop offset="0.62" stop-color="#F0939E"/>
<stop offset="1" stop-color="#F6BAB0"/>
</linearGradient>
<linearGradient id="paint3_linear_111_2248" x1="68.2035" y1="47.2074" x2="51.4301" y2="72.7918" gradientUnits="userSpaceOnUse">
<stop offset="0.01" stop-color="#E16584"/>
<stop offset="0.25" stop-color="#EF8797"/>
<stop offset="0.62" stop-color="#F0939E"/>
<stop offset="1" stop-color="#F6BAB0"/>
</linearGradient>
<linearGradient id="paint4_linear_111_2248" x1="128.054" y1="53.2304" x2="141.222" y2="81.0749" gradientUnits="userSpaceOnUse">
<stop offset="0.01" stop-color="#E16584"/>
<stop offset="0.25" stop-color="#EF8797"/>
<stop offset="0.62" stop-color="#F0939E"/>
<stop offset="1" stop-color="#F6BAB0"/>
</linearGradient>
<linearGradient id="paint5_linear_111_2248" x1="51.9937" y1="53.2304" x2="38.8323" y2="81.0749" gradientUnits="userSpaceOnUse">
<stop offset="0.01" stop-color="#E16584"/>
<stop offset="0.25" stop-color="#EF8797"/>
<stop offset="0.62" stop-color="#F0939E"/>
<stop offset="1" stop-color="#F6BAB0"/>
</linearGradient>
<linearGradient id="paint6_linear_111_2248" x1="99.977" y1="49.7584" x2="111.692" y2="70.571" gradientUnits="userSpaceOnUse">
<stop offset="0.01" stop-color="#E16584"/>
<stop offset="0.25" stop-color="#EF8797"/>
<stop offset="0.62" stop-color="#F0939E"/>
<stop offset="1" stop-color="#F6BAB0"/>
</linearGradient>
<linearGradient id="paint7_linear_111_2248" x1="78.5793" y1="49.6972" x2="66.8575" y2="70.5017" gradientUnits="userSpaceOnUse">
<stop offset="0.01" stop-color="#E16584"/>
<stop offset="0.25" stop-color="#EF8797"/>
<stop offset="0.62" stop-color="#F0939E"/>
<stop offset="1" stop-color="#F6BAB0"/>
</linearGradient>
<linearGradient id="paint8_linear_111_2248" x1="58.7853" y1="63.8135" x2="50.0851" y2="96.8289" gradientUnits="userSpaceOnUse">
<stop offset="0.01" stop-color="#E16584"/>
<stop offset="0.25" stop-color="#EF8797"/>
<stop offset="0.62" stop-color="#F0939E"/>
<stop offset="1" stop-color="#F6BAB0"/>
</linearGradient>
<linearGradient id="paint9_linear_111_2248" x1="124.222" y1="63.8854" x2="132.932" y2="96.9031" gradientUnits="userSpaceOnUse">
<stop offset="0.01" stop-color="#E16584"/>
<stop offset="0.25" stop-color="#EF8797"/>
<stop offset="0.62" stop-color="#F0939E"/>
<stop offset="1" stop-color="#F6BAB0"/>
</linearGradient>
<linearGradient id="paint10_linear_111_2248" x1="133.026" y1="77.1581" x2="132.92" y2="130.233" gradientUnits="userSpaceOnUse">
<stop offset="0.01" stop-color="#E16584"/>
<stop offset="0.25" stop-color="#EF8797"/>
<stop offset="0.62" stop-color="#F0939E"/>
<stop offset="1" stop-color="#F6BAB0"/>
</linearGradient>
<linearGradient id="paint11_linear_111_2248" x1="47.5111" y1="77.731" x2="47.6241" y2="134.346" gradientUnits="userSpaceOnUse">
<stop offset="0.01" stop-color="#E16584"/>
<stop offset="0.25" stop-color="#EF8797"/>
<stop offset="0.62" stop-color="#F0939E"/>
<stop offset="1" stop-color="#F6BAB0"/>
</linearGradient>
<linearGradient id="paint12_linear_111_2248" x1="88.3512" y1="60.4625" x2="88.4416" y2="106.546" gradientUnits="userSpaceOnUse">
<stop offset="0.01" stop-color="#E16584"/>
<stop offset="0.25" stop-color="#EF8797"/>
<stop offset="0.62" stop-color="#F0939E"/>
<stop offset="1" stop-color="#F6BAB0"/>
</linearGradient>
<linearGradient id="paint13_linear_111_2248" x1="66.8318" y1="89.5031" x2="68.7609" y2="127.942" gradientUnits="userSpaceOnUse">
<stop offset="0.01" stop-color="#E16584"/>
<stop offset="0.25" stop-color="#EF8797"/>
<stop offset="0.62" stop-color="#F0939E"/>
<stop offset="1" stop-color="#F6BAB0"/>
</linearGradient>
<linearGradient id="paint14_linear_111_2248" x1="69.8318" y1="83.5031" x2="71.7609" y2="121.942" gradientUnits="userSpaceOnUse">
<stop offset="0.01" stop-color="#E16584"/>
<stop offset="0.25" stop-color="#EF8797"/>
<stop offset="0.62" stop-color="#F0939E"/>
<stop offset="1" stop-color="#F6BAB0"/>
</linearGradient>
<linearGradient id="paint15_linear_111_2248" x1="54.7239" y1="83.8147" x2="56.3475" y2="122.276" gradientUnits="userSpaceOnUse">
<stop offset="0.01" stop-color="#E16584"/>
<stop offset="0.25" stop-color="#EF8797"/>
<stop offset="0.62" stop-color="#F0939E"/>
<stop offset="1" stop-color="#F6BAB0"/>
</linearGradient>
<linearGradient id="paint16_linear_111_2248" x1="109.17" y1="80.506" x2="105.974" y2="118.861" gradientUnits="userSpaceOnUse">
<stop offset="0.01" stop-color="#E16584"/>
<stop offset="0.25" stop-color="#EF8797"/>
<stop offset="0.62" stop-color="#F0939E"/>
<stop offset="1" stop-color="#F6BAB0"/>
</linearGradient>
<linearGradient id="paint17_linear_111_2248" x1="124.781" y1="81.3581" x2="121.891" y2="119.73" gradientUnits="userSpaceOnUse">
<stop offset="0.01" stop-color="#E16584"/>
<stop offset="0.25" stop-color="#EF8797"/>
<stop offset="0.62" stop-color="#F0939E"/>
<stop offset="1" stop-color="#F6BAB0"/>
</linearGradient>
<linearGradient id="paint18_linear_111_2248" x1="123.781" y1="81.3581" x2="120.891" y2="119.73" gradientUnits="userSpaceOnUse">
<stop offset="0.01" stop-color="#E16584"/>
<stop offset="0.25" stop-color="#EF8797"/>
<stop offset="0.62" stop-color="#F0939E"/>
<stop offset="1" stop-color="#F6BAB0"/>
</linearGradient>
<linearGradient id="paint19_linear_111_2248" x1="89.4285" y1="92.5641" x2="89.5264" y2="142.61" gradientUnits="userSpaceOnUse">
<stop offset="0.01" stop-color="#E16584"/>
<stop offset="0.25" stop-color="#EF8797"/>
<stop offset="0.62" stop-color="#F0939E"/>
<stop offset="1" stop-color="#F6BAB0"/>
</linearGradient>
<linearGradient id="paint20_linear_111_2248" x1="61.6669" y1="106.419" x2="61.7422" y2="143.507" gradientUnits="userSpaceOnUse">
<stop offset="0.01" stop-color="#E16584"/>
<stop offset="0.25" stop-color="#EF8797"/>
<stop offset="0.62" stop-color="#F0939E"/>
<stop offset="1" stop-color="#F6BAB0"/>
</linearGradient>
<linearGradient id="paint21_linear_111_2248" x1="115.721" y1="105.65" x2="115.646" y2="142.745" gradientUnits="userSpaceOnUse">
<stop offset="0.01" stop-color="#E16584"/>
<stop offset="0.25" stop-color="#EF8797"/>
<stop offset="0.62" stop-color="#F0939E"/>
<stop offset="1" stop-color="#F6BAB0"/>
</linearGradient>
<linearGradient id="paint22_linear_111_2248" x1="90.2576" y1="137.751" x2="90.2953" y2="156.864" gradientUnits="userSpaceOnUse">
<stop offset="0.01" stop-color="#4A874E"/>
<stop offset="0.25" stop-color="#5A9362"/>
<stop offset="0.62" stop-color="#6AA275"/>
<stop offset="1" stop-color="#6DA479"/>
</linearGradient>
<linearGradient id="paint23_linear_111_2248" x1="90.1294" y1="124.981" x2="90.1746" y2="147.017" gradientUnits="userSpaceOnUse">
<stop offset="0.01" stop-color="#4A874E"/>
<stop offset="0.25" stop-color="#5A9362"/>
<stop offset="0.62" stop-color="#6AA275"/>
<stop offset="1" stop-color="#6DA479"/>
</linearGradient>
</defs>
</svg>
