<svg width="200" height="200" viewBox="0 0 200 200" fill="none" xmlns="http://www.w3.org/2000/svg">
<path fill-rule="evenodd" clip-rule="evenodd" d="M98.0322 199.698H101.36C101.338 193.292 101.317 186.887 101.295 180.482C101.263 170.655 101.23 160.829 101.195 151H98.1843L98.0322 199.698Z" fill="#744A22"/>
<path d="M147.953 116.648C147.209 116.269 145.707 118.806 142.127 122.831C139.495 125.792 139.626 125.179 132.312 132.26C127.981 136.46 125.436 139.092 124.998 138.713C124.393 138.195 129.315 133.266 128.878 126.623C128.746 124.676 128.068 121.438 126.471 121.037C125.684 120.841 124.677 121.336 119.471 127.848C117.531 130.276 116.554 131.487 115.016 133.601C110.794 139.377 108.978 142.6 108.358 142.286C107.979 142.096 108.584 140.828 108.577 138.735C108.562 135.322 106.914 132.792 105.193 130.152C104.121 128.504 102.306 126.113 99.4619 123.823V123.706C99.4619 123.706 99.4181 123.743 99.3962 123.765C99.3962 123.765 99.3817 123.757 99.3744 123.75V123.786C96.6034 126.171 94.868 128.614 93.8471 130.298C92.2064 132.996 90.6386 135.578 90.7261 138.99C90.7772 141.076 91.4189 142.33 91.047 142.534C90.4418 142.869 88.5386 139.705 84.1634 134.068C82.5665 132.012 81.5602 130.823 79.5549 128.461C74.1735 122.124 73.1599 121.657 72.3797 121.883C70.7973 122.335 70.214 125.595 70.141 127.542C69.8931 134.192 74.9391 138.961 74.3558 139.501C73.9328 139.894 71.315 137.342 66.8743 133.281C59.3854 126.433 59.5313 127.046 56.8187 124.173C53.129 120.265 51.5612 117.771 50.832 118.179C50.0299 118.624 50.8539 122.219 51.7654 124.676C55.3603 134.433 64.9929 139.194 68.9962 141.178C76.6163 144.948 83.4415 145.721 88.2761 146.216C92.9064 146.698 96.8149 146.61 99.6296 146.428V146.457C102.473 146.559 106.491 146.53 111.246 145.888C116.073 145.232 122.891 144.24 130.423 140.222C134.383 138.115 143.899 133.04 147.217 123.174C148.055 120.687 148.777 117.063 147.96 116.648H147.953Z" fill="url(#paint0_linear_701_191)"/>
<path d="M100.039 95.02C110.7 95.0856 117.437 83.805 119.734 77.2423C122.622 68.9879 120.762 61.6085 120.216 59.4646C118.218 51.655 113.733 46.8861 111.815 45.0413C107.36 40.7609 102.7 38.9744 100.177 38.2161C97.6617 38.9671 92.9803 40.7463 88.5103 45.0413C86.6144 46.857 82.1517 51.6404 80.11 59.4646C79.5412 61.6522 77.7182 69.0025 80.5913 77.2423C80.8684 78.0444 87.03 94.9398 100.039 95.02Z" fill="url(#paint1_linear_701_191)"/>
<path d="M120.164 51.7939C113.762 44.0426 109.183 41.0457 109.883 39.7696C110.554 38.5445 115.359 40.2508 116.351 40.6081C124.904 43.6489 130.759 49.7376 134.588 54.6377C138.678 59.8733 148.734 72.2623 145.547 77.0823C143.754 79.7949 137.884 79.9334 134.566 77.3594C131.022 74.603 132.808 70.6362 129.33 63.4026C127.857 60.3473 125.057 57.7295 120.164 51.8085V51.7939Z" fill="url(#paint2_linear_701_191)"/>
<path d="M80.3567 51.7939C86.759 44.0426 91.3384 41.0457 90.6383 39.7696C89.9675 38.5445 85.1621 40.2508 84.1704 40.6081C75.617 43.6489 69.7616 49.7376 65.9333 54.6377C61.8425 59.8733 51.787 72.2623 54.9735 77.0823C56.7673 79.7949 62.6373 79.9334 65.9552 77.3594C69.499 74.603 67.7125 70.6362 71.1908 63.4026C72.6637 60.3473 75.4638 57.7295 80.3567 51.8085V51.7939Z" fill="url(#paint3_linear_701_191)"/>
<path d="M134.441 57.3718C129.118 48.7674 124.976 45.1287 125.837 43.962C126.661 42.8464 131.204 45.2381 132.13 45.7267C140.202 49.9851 145.204 56.8614 148.354 62.2793C151.716 68.0545 160.058 81.7924 156.259 86.102C154.122 88.5229 148.296 87.8155 145.35 84.7748C142.207 81.5299 144.497 77.8548 141.996 70.191C140.938 66.9534 138.51 63.9491 134.441 57.3718Z" fill="url(#paint4_linear_701_191)"/>
<path d="M65.4164 57.3718C70.7395 48.7674 74.8813 45.1287 74.0209 43.962C73.1969 42.8464 68.654 45.2381 67.7279 45.7267C59.6558 49.9851 54.6535 56.8614 51.5034 62.2793C48.1418 68.0545 39.7999 81.7924 43.599 86.102C45.7355 88.5229 51.5617 87.8155 54.5077 84.7748C57.6505 81.5299 55.3608 77.8548 57.862 70.191C58.9193 66.9534 61.3475 63.9491 65.4164 57.3718Z" fill="url(#paint5_linear_701_191)"/>
<path d="M103.342 41.4607L103.305 41.395C103.305 41.395 103.364 41.395 103.386 41.395C103.4 41.3731 103.415 41.3513 103.429 41.3367L103.459 41.395C110.276 42.0805 114.929 44.7056 117.386 46.3827C118.859 47.389 131.401 56.1903 129.637 66.851C129.068 70.2855 127.194 72.8231 125.735 74.3836C124.714 75.1711 120.821 78.015 116.27 76.9795C112.457 76.1118 110.313 73.0054 108.833 70.796C102.117 60.7769 102.861 46.6962 103.342 41.4752V41.4607Z" fill="url(#paint6_linear_701_191)"/>
<path d="M95.0723 41.4607L95.1088 41.395C95.1088 41.395 95.0505 41.395 95.0286 41.395C95.014 41.3731 94.9994 41.3513 94.9848 41.3367L94.9557 41.395C88.1377 42.0805 83.4855 44.7056 81.0281 46.3827C79.5551 47.389 67.013 56.1903 68.7777 66.851C69.3464 70.2855 71.2204 72.8231 72.6788 74.3836C73.6997 75.1711 77.5936 78.015 82.1438 76.9795C85.9574 76.1118 88.1013 73.0054 89.5815 70.796C96.2974 60.7769 95.5536 46.6962 95.0723 41.4752V41.4607Z" fill="url(#paint7_linear_701_191)"/>
<path d="M59.6192 103.026C70.9217 99.1395 78.8699 88.9965 79.7304 77.4899C80.671 64.9405 72.7739 56.285 71.4978 54.9214L59.0942 102.662H59.1161L71.8551 55.0235C70.0905 55.4975 59.0869 58.6257 53.7493 69.8844C48.8564 80.2097 50.7012 93.2185 58.4817 102.683" fill="url(#paint8_linear_701_191)"/>
<path d="M143.111 103.026C131.809 99.1395 123.861 88.9965 123 77.4899C122.06 64.9405 129.957 56.285 131.233 54.9214L143.636 102.662H143.614L130.875 55.0235C132.64 55.4975 143.644 58.6257 148.981 69.8844C153.874 80.2097 152.029 93.2185 144.249 102.683" fill="url(#paint9_linear_701_191)"/>
<path d="M151.3 66.9314C153.816 70.4461 157.207 76.265 158.213 83.9434C161.852 111.769 130.664 137.736 125.523 134.287C122.235 132.085 127.164 116.217 131.189 107.285C135.469 97.7834 139.502 94.4 145.459 81.6318C148.289 75.565 150.163 70.3659 151.3 66.9241V66.9314Z" fill="url(#paint10_linear_701_191)"/>
<path d="M49.0385 66.9312C46.5228 70.6792 43.132 76.8919 42.1258 85.0807C38.4871 114.766 69.6747 142.468 74.8155 138.793C78.1041 136.445 73.1748 119.513 69.1496 109.99C64.8693 99.8541 60.8368 96.2446 54.8793 82.6233C52.0501 76.1554 50.176 70.6063 49.0385 66.9312Z" fill="url(#paint11_linear_701_191)"/>
<path d="M98.2296 110.639C99.1703 110.442 113.171 107.183 117.925 92.8614C120.63 84.7091 118.946 77.1838 118.406 75.0837C116.583 67.9741 112.792 63.7594 110.006 60.6603C105.646 55.8112 101.168 53.2007 98.3244 51.8298H98.3828C95.5389 53.2007 91.0617 55.8112 86.7011 60.6603C83.9156 63.7521 80.1238 67.9741 78.3008 75.0837C77.7612 77.1838 76.0768 84.7091 78.7821 92.8614C83.5364 107.183 97.5369 110.435 98.4776 110.639" fill="url(#paint12_linear_701_191)"/>
<path d="M72.5337 69.8774C73.416 70.3733 87.7665 78.8027 88.8749 96.4345C89.6114 108.058 84.3174 119.258 75.0567 125.741L72.5337 69.8701V69.8774Z" fill="url(#paint13_linear_701_191)"/>
<path d="M72.8177 69.7973C71.9792 70.3807 58.4308 80.1664 58.8683 97.8274C59.1527 109.473 65.4018 120.111 75.1949 125.668L72.825 69.79L72.8177 69.7973Z" fill="url(#paint14_linear_701_191)"/>
<path d="M126.705 67.5654C125.808 68.0321 111.203 75.9584 109.54 93.5465C108.439 105.133 113.376 116.516 122.432 123.319L126.705 67.5654Z" fill="url(#paint15_linear_701_191)"/>
<path d="M126.428 67.478C127.245 68.0905 140.48 78.3357 139.495 95.9821C138.846 107.605 132.269 118.026 122.308 123.239L126.428 67.478Z" fill="url(#paint16_linear_701_191)"/>
<path d="M99.2653 146.143C100.286 145.925 115.49 142.388 120.653 126.842C123.591 117.989 121.761 109.822 121.178 107.54C119.201 99.8178 115.081 95.2385 112.055 91.8769C107.316 86.6122 102.459 83.7756 99.3674 82.2881H99.433C96.3412 83.7756 91.4848 86.6122 86.7451 91.8769C83.7189 95.2385 79.599 99.8178 77.6229 107.54C77.0395 109.822 75.2092 117.989 78.1479 126.842C83.3106 142.388 98.5142 145.925 99.5351 146.143" fill="url(#paint17_linear_701_191)"/>
<path d="M60.3406 97.7327C57.7738 101.211 53.406 108.299 54.1862 116.801C56.0602 137.269 88.5239 147.755 90.8938 144.386C91.1563 144.014 91.025 143.526 87.1457 136.489C82.3039 127.717 79.883 123.327 78.1256 120.578C72.2119 111.347 65.8168 103.639 60.3406 97.7327Z" fill="url(#paint18_linear_701_191)"/>
<path d="M136.943 96.9888C139.509 100.467 143.877 107.555 143.097 116.057C141.223 136.526 108.759 147.011 106.389 143.642C106.127 143.27 106.258 142.782 110.137 135.745C114.979 126.973 117.4 122.583 119.158 119.834C125.071 110.603 131.466 102.895 136.943 96.9888Z" fill="url(#paint19_linear_701_191)"/>
<path d="M139.495 134.411C136.112 135.016 136.199 136.248 130.264 139.18C122.257 143.14 115.286 144.277 111.975 144.788C109.008 145.247 104.975 145.655 100.141 145.51C95.2696 145.626 91.2007 145.189 88.2183 144.7C84.9224 144.168 77.9805 142.986 70.0104 138.968C64.1039 135.993 64.1987 134.761 60.8298 134.134C53.0494 132.675 44.8605 137.758 45.2178 139.69C45.2835 140.033 45.6772 140.609 50.767 141.207C58.4162 142.104 65.905 141.761 69.7989 141.433C68.8072 141.674 67.6478 142.089 66.5394 142.775C65.7446 143.271 64.3591 144.182 64.4102 145.16C64.4539 145.918 65.4165 147.274 72.2417 148.558C72.898 148.682 76.7262 149.287 81.1889 148.587C83.4421 148.23 84.5651 148.055 85.7974 147.5C87.1464 146.895 87.6787 146.348 88.6194 146.487C89.7642 146.647 89.9611 147.581 91.5361 148.879C92.856 149.965 94.0592 150.417 96.0353 151.161C97.0488 151.548 98.3906 151.963 99.9948 152.262V152.284C99.9948 152.284 100.039 152.277 100.06 152.27C100.075 152.27 100.09 152.27 100.111 152.277V152.262C101.723 151.978 103.065 151.562 104.086 151.19C106.062 150.461 107.279 150.016 108.607 148.937C110.196 147.646 110.393 146.72 111.545 146.567C112.493 146.443 113.018 146.983 114.367 147.602C115.607 148.171 116.73 148.354 118.983 148.725C123.46 149.462 127.303 148.879 127.959 148.755C134.814 147.522 135.784 146.173 135.835 145.415C135.9 144.438 134.515 143.511 133.72 143.016C132.604 142.316 131.452 141.9 130.46 141.652C134.362 142.009 141.865 142.403 149.536 141.557C154.64 140.996 155.049 140.42 155.114 140.077C155.479 138.144 147.305 133.011 139.495 134.411Z" fill="url(#paint20_linear_701_191)"/>
<path d="M145.751 117.96C145.051 117.603 143.637 119.995 140.261 123.786C137.781 126.572 137.905 125.996 131.022 132.668C126.938 136.62 124.546 139.107 124.131 138.749C123.562 138.261 128.2 133.616 127.784 127.367C127.66 125.537 127.026 122.481 125.516 122.109C124.772 121.927 123.825 122.386 118.924 128.519C117.094 130.809 116.183 131.946 114.724 133.937C110.75 139.377 109.037 142.41 108.453 142.118C108.096 141.936 108.672 140.74 108.657 138.771C108.643 135.556 107.09 133.178 105.471 130.685C104.457 129.131 102.751 126.886 100.067 124.727V124.618C100.067 124.618 100.024 124.654 100.002 124.669C100.002 124.669 99.9872 124.662 99.9799 124.654V124.683C97.3694 126.929 95.736 129.234 94.7735 130.816C93.2276 133.361 91.7546 135.789 91.8276 138.997C91.8713 140.966 92.4765 142.14 92.1265 142.33C91.5578 142.643 89.7639 139.661 85.644 134.352C84.1346 132.413 83.1939 131.297 81.3053 129.073C76.2374 123.101 75.2822 122.671 74.5457 122.875C73.0581 123.298 72.5112 126.375 72.4383 128.205C72.205 134.469 76.9593 138.961 76.4051 139.464C76.0041 139.836 73.5394 137.43 69.3611 133.609C62.3026 127.163 62.4484 127.731 59.8962 125.026C56.4253 121.344 54.945 118.996 54.2596 119.382C53.5012 119.798 54.2814 123.189 55.1346 125.5C58.5253 134.688 67.5965 139.172 71.3664 141.039C78.549 144.59 84.9732 145.312 89.5233 145.786C93.8839 146.238 97.5663 146.158 100.221 145.983V146.012C102.897 146.114 106.681 146.085 111.158 145.473C115.709 144.853 122.126 143.919 129.221 140.142C132.947 138.152 141.909 133.375 145.037 124.085C145.824 121.745 146.51 118.332 145.737 117.938L145.751 117.96Z" fill="url(#paint21_linear_701_191)"/>
<defs>
<linearGradient id="paint0_linear_701_191" x1="99.4108" y1="120.337" x2="99.4546" y2="142.993" gradientUnits="userSpaceOnUse">
<stop offset="0.01" stop-color="#4A874E"/>
<stop offset="0.25" stop-color="#5B9462"/>
<stop offset="0.62" stop-color="#6AA275"/>
<stop offset="1" stop-color="#6DA479"/>
</linearGradient>
<linearGradient id="paint1_linear_701_191" x1="100.119" y1="45.1288" x2="100.207" y2="88.2167" gradientUnits="userSpaceOnUse">
<stop offset="0.01" stop-color="#E16584"/>
<stop offset="0.25" stop-color="#EF8798"/>
<stop offset="0.62" stop-color="#F0939E"/>
<stop offset="1" stop-color="#F6BAB0"/>
</linearGradient>
<linearGradient id="paint2_linear_701_191" x1="121.719" y1="46.1564" x2="137.954" y2="70.9198" gradientUnits="userSpaceOnUse">
<stop offset="0.01" stop-color="#E16584"/>
<stop offset="0.25" stop-color="#EF8798"/>
<stop offset="0.62" stop-color="#F0939E"/>
<stop offset="1" stop-color="#F6BAB0"/>
</linearGradient>
<linearGradient id="paint3_linear_701_191" x1="78.8083" y1="46.16" x2="62.5732" y2="70.9234" gradientUnits="userSpaceOnUse">
<stop offset="0.01" stop-color="#E16584"/>
<stop offset="0.25" stop-color="#EF8798"/>
<stop offset="0.62" stop-color="#F0939E"/>
<stop offset="1" stop-color="#F6BAB0"/>
</linearGradient>
<linearGradient id="paint4_linear_701_191" x1="136.738" y1="51.9904" x2="149.484" y2="78.9413" gradientUnits="userSpaceOnUse">
<stop offset="0.01" stop-color="#E16584"/>
<stop offset="0.25" stop-color="#EF8798"/>
<stop offset="0.62" stop-color="#F0939E"/>
<stop offset="1" stop-color="#F6BAB0"/>
</linearGradient>
<linearGradient id="paint5_linear_701_191" x1="63.1194" y1="51.9904" x2="50.3805" y2="78.9413" gradientUnits="userSpaceOnUse">
<stop offset="0.01" stop-color="#E16584"/>
<stop offset="0.25" stop-color="#EF8798"/>
<stop offset="0.62" stop-color="#F0939E"/>
<stop offset="1" stop-color="#F6BAB0"/>
</linearGradient>
<linearGradient id="paint6_linear_701_191" x1="109.563" y1="48.6287" x2="120.902" y2="68.7734" gradientUnits="userSpaceOnUse">
<stop offset="0.01" stop-color="#E16584"/>
<stop offset="0.25" stop-color="#EF8798"/>
<stop offset="0.62" stop-color="#F0939E"/>
<stop offset="1" stop-color="#F6BAB0"/>
</linearGradient>
<linearGradient id="paint7_linear_701_191" x1="88.8517" y1="48.5695" x2="77.506" y2="68.7063" gradientUnits="userSpaceOnUse">
<stop offset="0.01" stop-color="#E16584"/>
<stop offset="0.25" stop-color="#EF8798"/>
<stop offset="0.62" stop-color="#F0939E"/>
<stop offset="1" stop-color="#F6BAB0"/>
</linearGradient>
<linearGradient id="paint8_linear_701_191" x1="69.6931" y1="62.2327" x2="61.2721" y2="94.1887" gradientUnits="userSpaceOnUse">
<stop offset="0.01" stop-color="#E16584"/>
<stop offset="0.25" stop-color="#EF8798"/>
<stop offset="0.62" stop-color="#F0939E"/>
<stop offset="1" stop-color="#F6BAB0"/>
</linearGradient>
<linearGradient id="paint9_linear_701_191" x1="133.029" y1="62.3023" x2="141.46" y2="94.2605" gradientUnits="userSpaceOnUse">
<stop offset="0.01" stop-color="#E16584"/>
<stop offset="0.25" stop-color="#EF8798"/>
<stop offset="0.62" stop-color="#F0939E"/>
<stop offset="1" stop-color="#F6BAB0"/>
</linearGradient>
<linearGradient id="paint10_linear_701_191" x1="141.551" y1="75.1493" x2="141.449" y2="126.521" gradientUnits="userSpaceOnUse">
<stop offset="0.01" stop-color="#E16584"/>
<stop offset="0.25" stop-color="#EF8798"/>
<stop offset="0.62" stop-color="#F0939E"/>
<stop offset="1" stop-color="#F6BAB0"/>
</linearGradient>
<linearGradient id="paint11_linear_701_191" x1="58.7805" y1="75.7033" x2="58.8899" y2="130.502" gradientUnits="userSpaceOnUse">
<stop offset="0.01" stop-color="#E16584"/>
<stop offset="0.25" stop-color="#EF8798"/>
<stop offset="0.62" stop-color="#F0939E"/>
<stop offset="1" stop-color="#F6BAB0"/>
</linearGradient>
<linearGradient id="paint12_linear_701_191" x1="98.3098" y1="58.9905" x2="98.3974" y2="103.595" gradientUnits="userSpaceOnUse">
<stop offset="0.01" stop-color="#E16584"/>
<stop offset="0.25" stop-color="#EF8798"/>
<stop offset="0.62" stop-color="#F0939E"/>
<stop offset="1" stop-color="#F6BAB0"/>
</linearGradient>
<linearGradient id="paint13_linear_701_191" x1="80.4875" y1="81.0381" x2="82.3547" y2="118.244" gradientUnits="userSpaceOnUse">
<stop offset="0.01" stop-color="#E16584"/>
<stop offset="0.25" stop-color="#EF8798"/>
<stop offset="0.62" stop-color="#F0939E"/>
<stop offset="1" stop-color="#F6BAB0"/>
</linearGradient>
<linearGradient id="paint14_linear_701_191" x1="65.7621" y1="81.5924" x2="67.3336" y2="118.819" gradientUnits="userSpaceOnUse">
<stop offset="0.01" stop-color="#E16584"/>
<stop offset="0.25" stop-color="#EF8798"/>
<stop offset="0.62" stop-color="#F0939E"/>
<stop offset="1" stop-color="#F6BAB0"/>
</linearGradient>
<linearGradient id="paint15_linear_701_191" x1="118.461" y1="78.3903" x2="115.368" y2="115.514" gradientUnits="userSpaceOnUse">
<stop offset="0.01" stop-color="#E16584"/>
<stop offset="0.25" stop-color="#EF8798"/>
<stop offset="0.62" stop-color="#F0939E"/>
<stop offset="1" stop-color="#F6BAB0"/>
</linearGradient>
<linearGradient id="paint16_linear_701_191" x1="133.116" y1="79.4736" x2="130.319" y2="116.614" gradientUnits="userSpaceOnUse">
<stop offset="0.01" stop-color="#E16584"/>
<stop offset="0.25" stop-color="#EF8798"/>
<stop offset="0.62" stop-color="#F0939E"/>
<stop offset="1" stop-color="#F6BAB0"/>
</linearGradient>
<linearGradient id="paint17_linear_701_191" x1="99.3528" y1="90.0613" x2="99.4476" y2="138.501" gradientUnits="userSpaceOnUse">
<stop offset="0.01" stop-color="#E16584"/>
<stop offset="0.25" stop-color="#EF8798"/>
<stop offset="0.62" stop-color="#F0939E"/>
<stop offset="1" stop-color="#F6BAB0"/>
</linearGradient>
<linearGradient id="paint18_linear_701_191" x1="72.4817" y1="103.471" x2="72.5546" y2="139.369" gradientUnits="userSpaceOnUse">
<stop offset="0.01" stop-color="#E16584"/>
<stop offset="0.25" stop-color="#EF8798"/>
<stop offset="0.62" stop-color="#F0939E"/>
<stop offset="1" stop-color="#F6BAB0"/>
</linearGradient>
<linearGradient id="paint19_linear_701_191" x1="124.802" y1="102.728" x2="124.729" y2="138.633" gradientUnits="userSpaceOnUse">
<stop offset="0.01" stop-color="#E16584"/>
<stop offset="0.25" stop-color="#EF8798"/>
<stop offset="0.62" stop-color="#F0939E"/>
<stop offset="1" stop-color="#F6BAB0"/>
</linearGradient>
<linearGradient id="paint20_linear_701_191" x1="100.155" y1="133.798" x2="100.192" y2="152.299" gradientUnits="userSpaceOnUse">
<stop offset="0.01" stop-color="#4A874E"/>
<stop offset="0.25" stop-color="#5B9462"/>
<stop offset="0.62" stop-color="#6AA275"/>
<stop offset="1" stop-color="#6DA479"/>
</linearGradient>
<linearGradient id="paint21_linear_701_191" x1="100.031" y1="121.438" x2="100.075" y2="142.767" gradientUnits="userSpaceOnUse">
<stop offset="0.01" stop-color="#4A874E"/>
<stop offset="0.25" stop-color="#5B9462"/>
<stop offset="0.62" stop-color="#6AA275"/>
<stop offset="1" stop-color="#6DA479"/>
</linearGradient>
</defs>
</svg>
