<svg width="110" height="183" viewBox="0 0 110 183" fill="none" xmlns="http://www.w3.org/2000/svg">
<mask id="mask0_701_114" style="mask-type:alpha" maskUnits="userSpaceOnUse" x="0" y="0" width="110" height="183">
<path d="M5 0.689941C2.23858 0.689941 0 2.92852 0 5.68994V177.935C0 180.696 2.23858 182.935 5 182.935H105C107.761 182.935 110 180.696 110 177.935V5.68994C110 2.92852 107.761 0.689941 105 0.689941H5ZM54.7543 20.1993C52.2004 20.1993 50.1204 18.0755 50.1204 15.4514C50.1204 12.8273 52.1916 10.7035 54.7543 10.7035C57.3169 10.7035 59.3881 12.8273 59.3881 15.4514C59.3881 18.0755 57.3169 20.1993 54.7543 20.1993Z" fill="#FBEDD0"/>
</mask>
<g mask="url(#mask0_701_114)">
<path d="M5 0.689941C2.23858 0.689941 0 2.92852 0 5.68994V177.935C0 180.696 2.23858 182.935 5 182.935H105C107.761 182.935 110 180.696 110 177.935V5.68994C110 2.92852 107.761 0.689941 105 0.689941H5ZM54.7543 20.1993C52.2004 20.1993 50.1204 18.0755 50.1204 15.4514C50.1204 12.8273 52.1916 10.7035 54.7543 10.7035C57.3169 10.7035 59.3881 12.8273 59.3881 15.4514C59.3881 18.0755 57.3169 20.1993 54.7543 20.1993Z" fill="#FBEDD0"/>
<path d="M56.3964 11.9549C56.0541 11.832 55.589 11.7092 55.0361 11.6741C54.1409 11.6214 53.43 11.8408 53 12.0076C53.0614 -7.65869 53.1228 -27.3338 53.1843 -47H56.1945C56.2647 -27.3425 56.3261 -7.69383 56.3964 11.9636V11.9549Z" fill="#744A22"/>
</g>
</svg>
