<svg width="174" height="372" viewBox="0 0 174 372" fill="none" xmlns="http://www.w3.org/2000/svg">
<path d="M37 189.69C34.2386 189.69 32 191.929 32 194.69V366.935C32 369.696 34.2386 371.935 37 371.935H137C139.761 371.935 142 369.696 142 366.935V194.69C142 191.929 139.761 189.69 137 189.69H37ZM86.7543 209.199C84.2004 209.199 82.1204 207.075 82.1204 204.451C82.1204 201.827 84.1916 199.703 86.7543 199.703C89.3169 199.703 91.3881 201.827 91.3881 204.451C91.3881 207.075 89.3169 209.199 86.7543 209.199Z" fill="#FBEDD0"/>
<path d="M88.4657 199.958C88.1234 199.835 87.6583 199.712 87.1054 199.677C86.2102 199.625 85.4994 199.844 85.0693 200.011C85.1308 180.343 85.1922 160.667 85.2536 141H88.2638C88.334 160.659 88.3955 180.308 88.4657 199.967V199.958Z" fill="#744A22"/>
<path d="M134.552 108.742C133.805 108.362 132.297 110.91 128.702 114.951C126.059 117.924 126.191 117.309 118.848 124.418C114.499 128.635 111.943 131.278 111.504 130.897C110.896 130.377 115.838 125.428 115.399 118.758C115.267 116.803 114.587 113.553 112.983 113.15C112.192 112.952 111.182 113.45 105.955 119.988C104.007 122.426 103.026 123.642 101.481 125.765C97.2419 131.563 95.4189 134.8 94.7965 134.485C94.4158 134.294 95.0235 133.02 95.0162 130.919C95.0016 127.493 93.3469 124.952 91.619 122.302C90.5428 120.647 88.7197 118.246 85.8644 115.947V115.83C85.8644 115.83 85.8204 115.866 85.7985 115.888C85.7985 115.888 85.7838 115.881 85.7765 115.874V115.91C82.9944 118.304 81.2518 120.757 80.2268 122.448C78.5795 125.157 77.0054 127.749 77.0932 131.175C77.1445 133.269 77.7888 134.529 77.4154 134.734C76.8077 135.07 74.8968 131.893 70.5039 126.233C68.9005 124.169 67.8901 122.975 65.8767 120.603C60.4735 114.241 59.4558 113.772 58.6724 113.999C57.0836 114.453 56.4979 117.726 56.4247 119.681C56.1758 126.358 61.2423 131.146 60.6565 131.688C60.2319 132.083 57.6035 129.521 53.1447 125.443C45.6255 118.568 45.7719 119.183 43.0483 116.298C39.3437 112.374 37.7696 109.87 37.0374 110.28C36.2321 110.727 37.0594 114.336 37.9746 116.803C41.5841 126.599 51.2557 131.38 55.2752 133.372C62.9262 137.157 69.7791 137.933 74.6332 138.431C79.2823 138.914 83.2067 138.826 86.0328 138.643V138.673C88.8881 138.775 92.9223 138.746 97.6959 138.102C102.543 137.443 109.388 136.447 116.951 132.413C120.927 130.297 130.481 125.201 133.813 115.295C134.655 112.799 135.38 109.16 134.56 108.742H134.552Z" fill="url(#paint0_linear_350_990)"/>
<path d="M86.4426 87.0343C97.1466 87.1002 103.912 75.7739 106.218 69.1845C109.117 60.8966 107.25 53.4873 106.701 51.3348C104.695 43.4935 100.192 38.7052 98.2668 36.8529C93.7934 32.5552 89.115 30.7614 86.5817 30C84.0558 30.7541 79.3554 32.5406 74.8674 36.8529C72.9638 38.676 68.483 43.4788 66.433 51.3348C65.8619 53.5312 64.0316 60.9113 66.9163 69.1845C67.1945 69.9899 73.3811 86.9538 86.4426 87.0343Z" fill="url(#paint1_linear_350_990)"/>
<path d="M106.65 43.6326C100.222 35.8499 95.6239 32.8408 96.3268 31.5595C97.0004 30.3295 101.825 32.0427 102.821 32.4015C111.409 35.4546 117.288 41.568 121.132 46.488C125.239 51.7448 135.336 64.184 132.136 69.0235C130.335 71.7471 124.441 71.8862 121.11 69.3017C117.552 66.5342 119.346 62.5513 115.853 55.2884C114.374 52.2207 111.563 49.5923 106.65 43.6473V43.6326Z" fill="url(#paint2_linear_350_990)"/>
<path d="M66.6825 43.6326C73.1108 35.8499 77.7087 32.8408 77.0058 31.5595C76.3322 30.3295 71.5074 32.0427 70.5117 32.4015C61.9236 35.4546 56.0444 41.568 52.2006 46.488C48.0933 51.7448 37.997 64.184 41.1965 69.0235C42.9976 71.7471 48.8913 71.8862 52.2226 69.3017C55.7809 66.5342 53.9871 62.5513 57.4794 55.2884C58.9584 52.2207 61.7698 49.5923 66.6825 43.6473V43.6326Z" fill="url(#paint3_linear_350_990)"/>
<path d="M120.985 49.2335C115.64 40.5942 111.482 36.9408 112.345 35.7693C113.173 34.6492 117.734 37.0506 118.664 37.5411C126.769 41.8169 131.791 48.721 134.954 54.1609C138.329 59.9595 146.705 73.7532 142.891 78.0802C140.745 80.5109 134.896 79.8007 131.938 76.7477C128.782 73.4896 131.081 69.7996 128.57 62.1047C127.508 58.854 125.07 55.8375 120.985 49.2335Z" fill="url(#paint4_linear_350_990)"/>
<path d="M51.6799 49.2335C57.0246 40.5942 61.1832 36.9408 60.3193 35.7693C59.4919 34.6492 54.9307 37.0506 54.0008 37.5411C45.896 41.8169 40.8734 48.721 37.7105 54.1609C34.3353 59.9595 25.9595 73.7532 29.774 78.0802C31.9192 80.5109 37.7691 79.8007 40.727 76.7477C43.8825 73.4896 41.5836 69.7996 44.0948 62.1047C45.1565 58.854 47.5945 55.8375 51.6799 49.2335Z" fill="url(#paint5_linear_350_990)"/>
<path d="M89.7598 33.2581L89.7232 33.1922C89.7232 33.1922 89.7818 33.1922 89.8037 33.1922C89.8184 33.1702 89.833 33.1483 89.8477 33.1336L89.8769 33.1922C96.7225 33.8804 101.394 36.5162 103.861 38.2001C105.34 39.2105 117.933 48.0475 116.161 58.7515C115.59 62.1999 113.708 64.7478 112.244 66.3146C111.219 67.1053 107.309 69.9607 102.741 68.921C98.9116 68.0498 96.7591 64.9308 95.2729 62.7124C88.5298 52.6527 89.2766 38.5149 89.7598 33.2727V33.2581Z" fill="url(#paint6_linear_350_990)"/>
<path d="M81.4496 33.2581L81.4862 33.1922C81.4862 33.1922 81.4276 33.1922 81.4057 33.1922C81.391 33.1702 81.3764 33.1483 81.3618 33.1336L81.3325 33.1922C74.4869 33.8804 69.8158 36.5162 67.3484 38.2001C65.8695 39.2105 53.2766 48.0475 55.0484 58.7515C55.6194 62.1999 57.5011 64.7478 58.9654 66.3146C59.9904 67.1053 63.9 69.9607 68.4686 68.921C72.2978 68.0498 74.4503 64.9308 75.9366 62.7124C82.6796 52.6527 81.9328 38.5149 81.4496 33.2727V33.2581Z" fill="url(#paint7_linear_350_990)"/>
<path d="M45.8603 95.0733C57.2086 91.1709 65.189 80.9867 66.0529 69.4334C66.9974 56.8332 59.0682 48.1426 57.787 46.7735L45.3331 94.7072H45.3551L58.1457 46.876C56.3739 47.3519 45.3258 50.4928 39.9665 61.7971C35.0538 72.1643 36.9061 85.2259 44.7181 94.7291" fill="url(#paint8_linear_350_990)"/>
<path d="M129.69 95.0733C118.342 91.1709 110.362 80.9867 109.498 69.4334C108.553 56.8332 116.483 48.1426 117.764 46.7735L130.218 94.7072H130.196L117.405 46.876C119.177 47.3519 130.225 50.4928 135.584 61.7971C140.497 72.1643 138.645 85.2259 130.833 94.7291" fill="url(#paint9_linear_350_990)"/>
<path d="M137.912 58.832C140.438 62.3609 143.842 68.2035 144.853 75.913C148.506 103.852 117.192 129.924 112.031 126.46C108.729 124.249 113.678 108.318 117.719 99.349C122.017 89.8092 126.066 86.412 132.047 73.5921C134.888 67.5006 136.77 62.2804 137.912 58.8247V58.832Z" fill="url(#paint10_linear_350_990)"/>
<path d="M35.2364 58.8318C32.7105 62.595 29.306 68.8329 28.2957 77.0549C24.6422 106.861 55.9562 134.675 61.1178 130.985C64.4198 128.627 59.4705 111.627 55.429 102.065C51.1313 91.8882 47.0826 88.2641 41.1009 74.5876C38.2602 68.0935 36.3786 62.5218 35.2364 58.8318Z" fill="url(#paint11_linear_350_990)"/>
<path d="M84.6278 102.717C85.5722 102.519 99.6295 99.2466 104.403 84.8672C107.119 76.6818 105.428 69.126 104.886 67.0174C103.056 59.879 99.2487 55.6472 96.4519 52.5356C92.0737 47.6668 87.5783 45.0457 84.7229 43.6693H84.7815C81.9261 45.0457 77.4308 47.6668 73.0525 52.5356C70.2557 55.6399 66.4485 59.879 64.6182 67.0174C64.0764 69.126 62.3851 76.6818 65.1014 84.8672C69.875 99.2466 83.9322 102.512 84.8767 102.717" fill="url(#paint12_linear_350_990)"/>
<path d="M58.8252 61.7899C59.7111 62.2877 74.1197 70.7514 75.2326 88.4547C75.9721 100.125 70.6567 111.371 61.3584 117.88L58.8252 61.7826V61.7899Z" fill="url(#paint13_linear_350_990)"/>
<path d="M59.1111 61.7019C58.2692 62.2876 44.6658 72.113 45.1051 89.8457C45.3907 101.538 51.6652 112.22 61.4979 117.799L59.1185 61.6946L59.1111 61.7019Z" fill="url(#paint14_linear_350_990)"/>
<path d="M113.218 59.4689C112.317 59.9374 97.6521 67.8959 95.9828 85.5553C94.8772 97.1891 99.8339 108.618 108.927 115.449L113.218 59.4689Z" fill="url(#paint15_linear_350_990)"/>
<path d="M112.939 59.3811C113.759 59.9961 127.048 70.2828 126.059 88.0008C125.408 99.6712 118.804 110.134 108.803 115.368L112.939 59.3811Z" fill="url(#paint16_linear_350_990)"/>
<path d="M85.6673 138.365C86.6923 138.145 101.958 134.595 107.141 118.985C110.092 110.097 108.254 101.897 107.668 99.6053C105.684 91.8518 101.548 87.2539 98.5091 83.8787C93.7502 78.5926 88.8741 75.7446 85.7698 74.251H85.8357C82.7314 75.7446 77.8553 78.5926 73.0963 83.8787C70.0579 87.2539 65.9213 91.8518 63.9372 99.6053C63.3514 101.897 61.5137 110.097 64.4643 118.985C69.6479 134.595 84.9132 138.145 85.9382 138.365" fill="url(#paint17_linear_350_990)"/>
<path d="M46.5851 89.7579C44.008 93.2502 39.6224 100.367 40.4058 108.904C42.2874 129.455 74.8827 139.983 77.2622 136.601C77.5257 136.227 77.3939 135.737 73.4989 128.672C68.6374 119.864 66.2067 115.456 64.4422 112.696C58.5045 103.427 52.0836 95.6883 46.5851 89.7579Z" fill="url(#paint18_linear_350_990)"/>
<path d="M123.498 89.0113C126.075 92.5036 130.46 99.6201 129.677 108.157C127.795 128.708 95.2002 139.237 92.8207 135.854C92.5571 135.481 92.6889 134.99 96.5839 127.925C101.445 119.117 103.876 114.71 105.641 111.949C111.578 102.68 117.999 94.9417 123.498 89.0113Z" fill="url(#paint19_linear_350_990)"/>
<path d="M126.059 126.585C122.662 127.193 122.75 128.43 116.79 131.373C108.751 135.349 101.752 136.491 98.4281 137.004C95.4483 137.465 91.3995 137.875 86.5454 137.728C81.6546 137.846 77.5692 137.406 74.5747 136.916C71.2654 136.381 64.2954 135.195 56.293 131.161C50.3626 128.174 50.4578 126.937 47.0753 126.307C39.2633 124.843 31.0413 129.946 31.4 131.886C31.4659 132.23 31.8612 132.808 36.9716 133.409C44.6519 134.309 52.1711 133.965 56.0807 133.636C55.085 133.877 53.9209 134.295 52.808 134.983C52.01 135.481 50.6189 136.396 50.6701 137.377C50.7141 138.138 51.6805 139.5 58.5334 140.789C59.1923 140.913 63.0361 141.521 67.5169 140.818C69.7792 140.459 70.9067 140.284 72.144 139.727C73.4985 139.12 74.033 138.57 74.9775 138.71C76.1269 138.871 76.3246 139.808 77.906 141.111C79.2312 142.202 80.4393 142.656 82.4234 143.403C83.4411 143.791 84.7882 144.208 86.3989 144.508V144.53C86.3989 144.53 86.4429 144.523 86.4648 144.515C86.4795 144.515 86.4941 144.515 86.5161 144.523V144.508C88.1341 144.223 89.4813 143.805 90.5063 143.432C92.4904 142.7 93.7131 142.253 95.0456 141.17C96.6417 139.874 96.8394 138.944 97.9962 138.79C98.948 138.666 99.4751 139.207 100.83 139.83C102.074 140.401 103.202 140.584 105.464 140.957C109.959 141.697 113.818 141.111 114.477 140.986C121.359 139.749 122.333 138.395 122.384 137.633C122.45 136.652 121.059 135.722 120.261 135.224C119.141 134.522 117.984 134.104 116.988 133.855C120.905 134.214 128.439 134.609 136.141 133.76C141.266 133.196 141.676 132.618 141.742 132.274C142.108 130.334 133.901 125.179 126.059 126.585Z" fill="url(#paint20_linear_350_990)"/>
<path d="M132.341 110.06C131.638 109.702 130.218 112.103 126.828 115.91C124.339 118.707 124.463 118.129 117.552 124.828C113.452 128.796 111.05 131.293 110.633 130.934C110.062 130.443 114.718 125.78 114.301 119.505C114.177 117.667 113.54 114.6 112.024 114.226C111.277 114.043 110.325 114.505 105.405 120.662C103.568 122.961 102.653 124.103 101.188 126.102C97.1981 131.564 95.4775 134.609 94.8918 134.317C94.533 134.133 95.1114 132.933 95.0968 130.956C95.0821 127.727 93.5227 125.34 91.8973 122.836C90.8796 121.277 89.1664 119.022 86.4721 116.855V116.745C86.4721 116.745 86.4282 116.782 86.4062 116.796C86.4062 116.796 86.3915 116.789 86.3842 116.782V116.811C83.7631 119.066 82.1231 121.379 81.1567 122.968C79.6046 125.523 78.1256 127.961 78.1988 131.183C78.2427 133.16 78.8504 134.338 78.499 134.529C77.9279 134.844 76.1268 131.849 71.9902 126.519C70.4747 124.572 69.5302 123.451 67.6339 121.218C62.5455 115.222 61.5864 114.79 60.8469 114.995C59.3533 115.42 58.8042 118.509 58.731 120.347C58.4967 126.636 63.2703 131.146 62.7139 131.651C62.3112 132.025 59.8365 129.609 55.6413 125.772C48.5541 119.3 48.7006 119.871 46.1381 117.155C42.653 113.458 41.1668 111.1 40.4786 111.488C39.7172 111.905 40.5005 115.31 41.3571 117.631C44.7616 126.856 53.8695 131.359 57.6547 133.233C64.8664 136.798 71.3166 137.523 75.8852 137.999C80.2635 138.453 83.9608 138.373 86.6258 138.197V138.226C89.3128 138.329 93.1127 138.299 97.608 137.684C102.177 137.062 108.62 136.125 115.743 132.332C119.485 130.334 128.483 125.538 131.624 116.211C132.414 113.86 133.103 110.434 132.326 110.039L132.341 110.06Z" fill="url(#paint21_linear_350_990)"/>
<defs>
<linearGradient id="paint0_linear_350_990" x1="85.8058" y1="112.454" x2="85.8571" y2="135.195" gradientUnits="userSpaceOnUse">
<stop offset="0.01" stop-color="#4A874E"/>
<stop offset="0.25" stop-color="#5B9462"/>
<stop offset="0.62" stop-color="#6AA275"/>
<stop offset="1" stop-color="#6DA479"/>
</linearGradient>
<linearGradient id="paint1_linear_350_990" x1="86.5232" y1="36.9408" x2="86.611" y2="80.2034" gradientUnits="userSpaceOnUse">
<stop offset="0.01" stop-color="#4EA0CF"/>
<stop offset="0.25" stop-color="#5DB2CC"/>
<stop offset="0.62" stop-color="#80C9B7"/>
<stop offset="1" stop-color="#A8D4A5"/>
</linearGradient>
<linearGradient id="paint2_linear_350_990" x1="108.214" y1="37.9757" x2="124.515" y2="62.8395" gradientUnits="userSpaceOnUse">
<stop offset="0.01" stop-color="#4EA0CF"/>
<stop offset="0.25" stop-color="#5DB2CC"/>
<stop offset="0.62" stop-color="#80C9B7"/>
<stop offset="1" stop-color="#A8D4A5"/>
</linearGradient>
<linearGradient id="paint3_linear_350_990" x1="65.123" y1="37.9716" x2="48.822" y2="62.8354" gradientUnits="userSpaceOnUse">
<stop offset="0.01" stop-color="#4EA0CF"/>
<stop offset="0.25" stop-color="#5DB2CC"/>
<stop offset="0.62" stop-color="#80C9B7"/>
<stop offset="1" stop-color="#A8D4A5"/>
</linearGradient>
<linearGradient id="paint4_linear_350_990" x1="123.291" y1="43.8303" x2="136.089" y2="70.8905" gradientUnits="userSpaceOnUse">
<stop offset="0.01" stop-color="#4EA0CF"/>
<stop offset="0.25" stop-color="#5DB2CC"/>
<stop offset="0.62" stop-color="#80C9B7"/>
<stop offset="1" stop-color="#A8D4A5"/>
</linearGradient>
<linearGradient id="paint5_linear_350_990" x1="49.3736" y1="43.8303" x2="36.583" y2="70.8905" gradientUnits="userSpaceOnUse">
<stop offset="0.01" stop-color="#4EA0CF"/>
<stop offset="0.25" stop-color="#5DB2CC"/>
<stop offset="0.62" stop-color="#80C9B7"/>
<stop offset="1" stop-color="#A8D4A5"/>
</linearGradient>
<linearGradient id="paint6_linear_350_990" x1="95.978" y1="40.4128" x2="107.363" y2="60.6391" gradientUnits="userSpaceOnUse">
<stop offset="0.01" stop-color="#4EA0CF"/>
<stop offset="0.25" stop-color="#5DB2CC"/>
<stop offset="0.62" stop-color="#80C9B7"/>
<stop offset="1" stop-color="#A8D4A5"/>
</linearGradient>
<linearGradient id="paint7_linear_350_990" x1="75.2397" y1="40.4311" x2="63.8548" y2="60.6575" gradientUnits="userSpaceOnUse">
<stop offset="0.01" stop-color="#4EA0CF"/>
<stop offset="0.25" stop-color="#5DB2CC"/>
<stop offset="0.62" stop-color="#80C9B7"/>
<stop offset="1" stop-color="#A8D4A5"/>
</linearGradient>
<linearGradient id="paint8_linear_350_990" x1="56.0052" y1="54.1513" x2="47.5501" y2="86.2368" gradientUnits="userSpaceOnUse">
<stop offset="0.01" stop-color="#4EA0CF"/>
<stop offset="0.25" stop-color="#5DB2CC"/>
<stop offset="0.62" stop-color="#80C9B7"/>
<stop offset="1" stop-color="#A8D4A5"/>
</linearGradient>
<linearGradient id="paint9_linear_350_990" x1="119.535" y1="54.1465" x2="127.996" y2="86.228" gradientUnits="userSpaceOnUse">
<stop offset="0.01" stop-color="#4EA0CF"/>
<stop offset="0.25" stop-color="#5DB2CC"/>
<stop offset="0.62" stop-color="#80C9B7"/>
<stop offset="1" stop-color="#A8D4A5"/>
</linearGradient>
<linearGradient id="paint10_linear_350_990" x1="128.123" y1="67.0833" x2="128.021" y2="118.663" gradientUnits="userSpaceOnUse">
<stop offset="0.01" stop-color="#4EA0CF"/>
<stop offset="0.25" stop-color="#5DB2CC"/>
<stop offset="0.62" stop-color="#80C9B7"/>
<stop offset="1" stop-color="#A8D4A5"/>
</linearGradient>
<linearGradient id="paint11_linear_350_990" x1="45.0179" y1="67.6395" x2="45.1277" y2="122.66" gradientUnits="userSpaceOnUse">
<stop offset="0.01" stop-color="#4EA0CF"/>
<stop offset="0.25" stop-color="#5DB2CC"/>
<stop offset="0.62" stop-color="#80C9B7"/>
<stop offset="1" stop-color="#A8D4A5"/>
</linearGradient>
<linearGradient id="paint12_linear_350_990" x1="84.701" y1="50.8589" x2="84.7961" y2="95.6444" gradientUnits="userSpaceOnUse">
<stop offset="0.01" stop-color="#4EA0CF"/>
<stop offset="0.25" stop-color="#5DB2CC"/>
<stop offset="0.62" stop-color="#80C9B7"/>
<stop offset="1" stop-color="#A8D4A5"/>
</linearGradient>
<linearGradient id="paint13_linear_350_990" x1="66.7935" y1="72.9659" x2="68.6685" y2="110.33" gradientUnits="userSpaceOnUse">
<stop offset="0.01" stop-color="#4EA0CF"/>
<stop offset="0.25" stop-color="#5DB2CC"/>
<stop offset="0.62" stop-color="#80C9B7"/>
<stop offset="1" stop-color="#A8D4A5"/>
</linearGradient>
<linearGradient id="paint14_linear_350_990" x1="52.0199" y1="73.5409" x2="53.5977" y2="110.919" gradientUnits="userSpaceOnUse">
<stop offset="0.01" stop-color="#4EA0CF"/>
<stop offset="0.25" stop-color="#5DB2CC"/>
<stop offset="0.62" stop-color="#80C9B7"/>
<stop offset="1" stop-color="#A8D4A5"/>
</linearGradient>
<linearGradient id="paint15_linear_350_990" x1="104.958" y1="70.3695" x2="101.853" y2="107.637" gradientUnits="userSpaceOnUse">
<stop offset="0.01" stop-color="#4EA0CF"/>
<stop offset="0.25" stop-color="#5DB2CC"/>
<stop offset="0.62" stop-color="#80C9B7"/>
<stop offset="1" stop-color="#A8D4A5"/>
</linearGradient>
<linearGradient id="paint16_linear_350_990" x1="119.67" y1="71.4432" x2="116.862" y2="108.734" gradientUnits="userSpaceOnUse">
<stop offset="0.01" stop-color="#4EA0CF"/>
<stop offset="0.25" stop-color="#5DB2CC"/>
<stop offset="0.62" stop-color="#80C9B7"/>
<stop offset="1" stop-color="#A8D4A5"/>
</linearGradient>
<linearGradient id="paint17_linear_350_990" x1="85.7551" y1="82.0557" x2="85.8503" y2="130.692" gradientUnits="userSpaceOnUse">
<stop offset="0.01" stop-color="#4EA0CF"/>
<stop offset="0.25" stop-color="#5DB2CC"/>
<stop offset="0.62" stop-color="#80C9B7"/>
<stop offset="1" stop-color="#A8D4A5"/>
</linearGradient>
<linearGradient id="paint18_linear_350_990" x1="58.7754" y1="95.5126" x2="58.8486" y2="131.564" gradientUnits="userSpaceOnUse">
<stop offset="0.01" stop-color="#4EA0CF"/>
<stop offset="0.25" stop-color="#5DB2CC"/>
<stop offset="0.62" stop-color="#80C9B7"/>
<stop offset="1" stop-color="#A8D4A5"/>
</linearGradient>
<linearGradient id="paint19_linear_350_990" x1="111.307" y1="94.7733" x2="111.234" y2="130.824" gradientUnits="userSpaceOnUse">
<stop offset="0.01" stop-color="#4EA0CF"/>
<stop offset="0.25" stop-color="#5DB2CC"/>
<stop offset="0.62" stop-color="#80C9B7"/>
<stop offset="1" stop-color="#A8D4A5"/>
</linearGradient>
<linearGradient id="paint20_linear_350_990" x1="86.56" y1="125.97" x2="86.5966" y2="144.545" gradientUnits="userSpaceOnUse">
<stop offset="0.01" stop-color="#4A874E"/>
<stop offset="0.25" stop-color="#5B9462"/>
<stop offset="0.62" stop-color="#6AA275"/>
<stop offset="1" stop-color="#6DA479"/>
</linearGradient>
<linearGradient id="paint21_linear_350_990" x1="86.4355" y1="113.553" x2="86.4794" y2="134.975" gradientUnits="userSpaceOnUse">
<stop offset="0.01" stop-color="#4A874E"/>
<stop offset="0.25" stop-color="#5B9462"/>
<stop offset="0.62" stop-color="#6AA275"/>
<stop offset="1" stop-color="#6DA479"/>
</linearGradient>
</defs>
</svg>
