<svg width="174" height="372" viewBox="0 0 174 372" fill="none" xmlns="http://www.w3.org/2000/svg">
<path d="M36 189.69C33.2386 189.69 31 191.929 31 194.69V366.935C31 369.696 33.2386 371.935 36 371.935H136C138.761 371.935 141 369.696 141 366.935V194.69C141 191.929 138.761 189.69 136 189.69H36ZM85.7543 209.199C83.2004 209.199 81.1204 207.075 81.1204 204.451C81.1204 201.827 83.1916 199.703 85.7543 199.703C88.3169 199.703 90.3881 201.827 90.3881 204.451C90.3881 207.075 88.3169 209.199 85.7543 209.199Z" fill="#FBEDD0"/>
<path d="M87.4657 199.958C87.1234 199.835 86.6583 199.712 86.1054 199.677C85.2102 199.625 84.4994 199.844 84.0693 200.011C84.1308 180.343 84.1922 160.667 84.2536 141H87.2638C87.334 160.659 87.3955 180.308 87.4657 199.967V199.958Z" fill="#744A22"/>
<path d="M133.58 106.745C132.833 106.364 131.324 108.912 127.728 112.953C125.085 115.925 125.217 115.31 117.871 122.419C113.521 126.636 110.965 129.279 110.526 128.898C109.918 128.378 114.861 123.429 114.422 116.76C114.29 114.805 113.609 111.555 112.005 111.152C111.214 110.954 110.204 111.452 104.975 117.99C103.027 120.428 102.045 121.643 100.5 123.766C96.2598 129.564 94.4363 132.8 93.8138 132.485C93.433 132.295 94.0408 131.021 94.0335 128.92C94.0188 125.494 92.3638 122.954 90.6354 120.303C89.5589 118.649 87.7354 116.247 84.8792 113.949V113.832C84.8792 113.832 84.8353 113.868 84.8133 113.89C84.8133 113.89 84.7987 113.883 84.7914 113.875V113.912C82.0085 116.306 80.2655 118.759 79.2402 120.45C77.5924 123.159 76.0179 125.75 76.1058 129.176C76.1571 131.27 76.8015 132.529 76.428 132.734C75.8202 133.071 73.9088 129.894 69.5147 124.235C67.9109 122.17 66.9003 120.977 64.8864 118.605C59.4817 112.243 58.4637 111.774 57.6801 112.001C56.091 112.455 55.5051 115.728 55.4318 117.682C55.1828 124.359 60.2506 129.147 59.6648 129.689C59.24 130.084 56.6109 127.522 52.151 123.444C44.6298 116.57 44.7763 117.185 42.052 114.3C38.3463 110.376 36.7718 107.872 36.0395 108.282C35.2339 108.729 36.0614 112.338 36.9769 114.805C40.5873 124.601 50.2615 129.381 54.2821 131.373C61.935 135.158 68.7897 135.934 73.6451 136.432C78.2955 136.915 82.2208 136.827 85.0477 136.644V136.673C87.9038 136.776 91.939 136.746 96.7139 136.102C101.562 135.443 108.409 134.448 115.974 130.414C119.951 128.298 129.508 123.202 132.84 113.297C133.682 110.801 134.407 107.162 133.587 106.745H133.58Z" fill="url(#paint0_linear_350_987)"/>
<path d="M85.4589 85.0307C96.1657 85.0966 102.933 73.771 105.239 67.1821C108.139 58.8947 106.272 51.4858 105.723 49.3335C103.716 41.4926 99.2123 36.7047 97.2862 34.8525C92.8116 30.555 88.132 28.7614 85.5981 28C83.0715 28.7541 78.3699 30.5404 73.8806 34.8525C71.9765 36.6754 67.4946 41.478 65.4441 49.3335C64.8728 51.5298 63.042 58.9093 65.9274 67.1821C66.2057 67.9874 72.394 84.9502 85.4589 85.0307Z" fill="url(#paint1_linear_350_987)"/>
<path d="M105.67 41.6319C99.2405 33.8496 94.6414 30.8407 95.3444 29.5595C96.0182 28.3296 100.844 30.0427 101.84 30.4014C110.431 33.4543 116.311 39.5674 120.156 44.4871C124.265 49.7436 134.363 62.182 131.163 67.0212C129.362 69.7446 123.466 69.8837 120.134 67.2994C116.575 64.532 118.369 60.5494 114.876 53.2869C113.397 50.2194 110.584 47.5912 105.67 41.6465V41.6319Z" fill="url(#paint2_linear_350_987)"/>
<path d="M65.6923 41.6319C72.1223 33.8496 76.7214 30.8407 76.0183 29.5595C75.3446 28.3296 70.5184 30.0427 69.5225 30.4014C60.9321 33.4543 55.0514 39.5674 51.2066 44.4871C47.0982 49.7436 36.9992 62.182 40.1996 67.0212C42.0011 69.7446 47.8965 69.8837 51.2286 67.2994C54.7878 64.532 52.9935 60.5494 56.4868 53.2869C57.9661 50.2194 60.7783 47.5912 65.6923 41.6465V41.6319Z" fill="url(#paint3_linear_350_987)"/>
<path d="M120.01 47.2324C114.663 38.5936 110.504 34.9404 111.368 33.769C112.196 32.6489 116.758 35.0502 117.688 35.5407C125.795 39.8162 130.819 46.7199 133.983 52.1594C137.359 57.9577 145.737 71.7505 141.921 76.0772C139.775 78.5078 133.924 77.7977 130.965 74.7448C127.809 71.4869 130.109 67.7971 127.597 60.1028C126.535 56.8522 124.096 53.836 120.01 47.2324Z" fill="url(#paint4_linear_350_987)"/>
<path d="M50.6869 47.2324C56.033 38.5936 60.1927 34.9404 59.3285 33.769C58.501 32.6489 53.9385 35.0502 53.0084 35.5407C44.9014 39.8162 39.8776 46.7199 36.7138 52.1594C33.3378 57.9577 24.9598 71.7505 28.7753 76.0772C30.921 78.5078 36.7724 77.7977 39.7311 74.7448C42.8875 71.4869 40.5879 67.7971 43.0998 60.1028C44.1617 56.8522 46.6004 53.836 50.6869 47.2324Z" fill="url(#paint5_linear_350_987)"/>
<path d="M88.7755 31.258L88.7389 31.1921C88.7389 31.1921 88.7975 31.1921 88.8195 31.1921C88.8341 31.1701 88.8488 31.1482 88.8634 31.1335L88.8927 31.1921C95.7401 31.8803 100.412 34.5158 102.88 36.1997C104.36 37.21 116.956 46.0464 115.184 56.7498C114.612 60.198 112.73 62.7457 111.266 64.3124C110.24 65.103 106.33 67.9582 101.76 66.9187C97.9298 66.0474 95.7767 62.9287 94.29 60.7104C87.5452 50.6513 88.2922 36.5145 88.7755 31.2726V31.258Z" fill="url(#paint6_linear_350_987)"/>
<path d="M80.4634 31.258L80.5 31.1921C80.5 31.1921 80.4415 31.1921 80.4195 31.1921C80.4048 31.1701 80.3902 31.1482 80.3755 31.1335L80.3463 31.1921C73.4989 31.8803 68.8265 34.5158 66.3586 36.1997C64.8792 37.21 52.283 46.0464 54.0552 56.7498C54.6265 60.198 56.5086 62.7457 57.9733 64.3124C58.9985 65.103 62.9092 67.9582 67.479 66.9187C71.3092 66.0474 73.4623 62.9287 74.9489 60.7104C81.6938 50.6513 80.9468 36.5145 80.4634 31.2726V31.258Z" fill="url(#paint7_linear_350_987)"/>
<path d="M44.8645 93.0691C56.2158 89.167 64.1983 78.9835 65.0625 67.4309C66.0072 54.8314 58.0759 46.1414 56.7943 44.7724L44.3372 92.7031H44.3592L57.1532 44.8749C55.3809 45.3507 44.3299 48.4914 38.9692 59.7951C34.0552 70.1617 35.908 83.2224 43.7221 92.725" fill="url(#paint8_linear_350_987)"/>
<path d="M128.717 93.0691C117.366 89.167 109.384 78.9835 108.519 67.4309C107.575 54.8314 115.506 46.1414 116.787 44.7724L129.245 92.7031H129.223L116.429 44.8749C118.201 45.3507 129.252 48.4914 134.613 59.7951C139.527 70.1617 137.674 83.2224 129.86 92.725" fill="url(#paint9_linear_350_987)"/>
<path d="M136.942 56.8302C139.468 60.359 142.873 66.2011 143.884 73.9102C147.538 101.847 116.216 127.917 111.053 124.454C107.75 122.244 112.701 106.313 116.744 97.3447C121.042 87.8055 125.092 84.4085 131.075 71.5894C133.917 65.4983 135.799 60.2784 136.942 56.8229V56.8302Z" fill="url(#paint10_linear_350_987)"/>
<path d="M34.2383 56.83C31.7117 60.593 28.3064 66.8305 27.2957 75.052C23.6414 104.856 54.9635 132.668 60.1265 128.979C63.4294 126.621 58.4788 109.622 54.4363 100.061C50.1374 89.8844 46.0876 86.2605 40.1044 72.5848C37.2629 66.091 35.3808 60.5197 34.2383 56.83Z" fill="url(#paint11_linear_350_987)"/>
<path d="M83.6421 100.712C84.5868 100.515 98.6477 97.2422 103.423 82.8638C106.14 74.6789 104.448 67.1236 103.906 65.0151C102.075 57.8771 98.2669 53.6456 95.4693 50.5341C91.09 45.6657 86.5934 43.0447 83.7373 41.6684H83.7958C80.9397 43.0447 76.4432 45.6657 72.0638 50.5341C69.2662 53.6383 65.458 57.8771 63.6272 65.0151C63.0853 67.1236 61.3936 74.6789 64.1105 82.8638C68.8854 97.2422 82.9463 100.507 83.891 100.712" fill="url(#paint12_linear_350_987)"/>
<path d="M57.835 59.7878C58.7211 60.2857 73.1335 68.7488 74.2467 86.451C74.9864 98.1207 69.6696 109.366 60.3689 115.874L57.835 59.7805V59.7878Z" fill="url(#paint13_linear_350_987)"/>
<path d="M58.1207 59.7072C57.2785 60.2929 43.6716 70.1177 44.111 87.8492C44.3966 99.5409 50.6728 110.222 60.5081 115.801L58.128 59.6999L58.1207 59.7072Z" fill="url(#paint14_linear_350_987)"/>
<path d="M112.241 57.4671C111.34 57.9356 96.6711 65.8936 95.0014 83.5519C93.8955 95.185 98.8535 106.613 107.949 113.444L112.241 57.4671Z" fill="url(#paint15_linear_350_987)"/>
<path d="M111.963 57.3864C112.783 58.0014 126.075 68.2874 125.086 86.0043C124.435 97.674 117.829 108.136 107.825 113.37L111.963 57.3864Z" fill="url(#paint16_linear_350_987)"/>
<path d="M84.6821 136.358C85.7074 136.139 100.977 132.588 106.162 116.98C109.113 108.092 107.275 99.8925 106.689 97.601C104.704 89.848 100.567 85.2504 97.5273 81.8754C92.7671 76.5897 87.8897 73.7418 84.7846 72.2483H84.8505C81.7454 73.7418 76.868 76.5897 72.1078 81.8754C69.0686 85.2504 64.9309 89.848 62.9462 97.601C62.3603 99.8925 60.5222 108.092 63.4735 116.98C68.6585 132.588 83.9278 136.139 84.953 136.358" fill="url(#paint17_linear_350_987)"/>
<path d="M45.5897 87.7542C43.0119 91.2464 38.6252 98.3624 39.4088 106.899C41.2909 127.449 73.8947 137.976 76.2748 134.594C76.5384 134.221 76.4066 133.73 72.5106 126.665C67.6478 117.858 65.2164 113.451 63.4515 110.691C57.5122 101.423 51.0896 93.6843 45.5897 87.7542Z" fill="url(#paint18_linear_350_987)"/>
<path d="M122.522 87.0147C125.1 90.5069 129.487 97.6229 128.703 106.159C126.821 126.709 94.2174 137.237 91.8373 133.855C91.5737 133.481 91.7055 132.991 95.6015 125.926C100.464 117.119 102.896 112.712 104.661 109.951C110.6 100.683 117.022 92.9448 122.522 87.0147Z" fill="url(#paint19_linear_350_987)"/>
<path d="M131.368 108.063C130.665 107.704 129.245 110.105 125.854 113.912C123.364 116.709 123.488 116.13 116.575 122.829C112.474 126.797 110.072 129.293 109.654 128.935C109.083 128.444 113.741 123.781 113.323 117.507C113.199 115.669 112.562 112.602 111.046 112.228C110.299 112.045 109.347 112.506 104.426 118.663C102.587 120.962 101.672 122.104 100.207 124.103C96.216 129.564 94.495 132.61 93.9091 132.317C93.5503 132.134 94.1288 130.933 94.1142 128.957C94.0995 125.728 92.5396 123.341 90.9138 120.838C89.8959 119.278 88.1822 117.023 85.4872 114.856V114.747C85.4872 114.747 85.4433 114.783 85.4213 114.798C85.4213 114.798 85.4066 114.791 85.3993 114.783V114.812C82.7775 117.067 81.1371 119.381 80.1704 120.969C78.6178 123.525 77.1385 125.962 77.2118 129.184C77.2557 131.16 77.8635 132.339 77.512 132.529C76.9408 132.844 75.1392 129.85 71.0015 124.52C69.4856 122.573 68.5408 121.453 66.6441 119.22C61.5543 113.224 60.595 112.792 59.8553 112.997C58.3613 113.421 57.8121 116.511 57.7388 118.349C57.5045 124.637 62.2793 129.147 61.7228 129.652C61.32 130.026 58.8447 127.61 54.6484 123.773C47.5593 117.302 47.7058 117.873 45.1426 115.157C41.6566 111.459 40.17 109.102 39.4816 109.49C38.72 109.907 39.5036 113.312 40.3604 115.632C43.7658 124.857 52.8761 129.359 56.6623 131.234C63.8758 134.799 70.3278 135.524 74.8976 136C79.277 136.453 82.9753 136.373 85.641 136.197V136.226C88.3287 136.329 92.1295 136.3 96.6261 135.685C101.196 135.062 107.64 134.125 114.766 130.333C118.508 128.334 127.509 123.539 130.651 114.212C131.442 111.862 132.13 108.436 131.354 108.041L131.368 108.063Z" fill="url(#paint20_linear_350_987)"/>
<path d="M133.58 106.745C132.833 106.364 131.324 108.912 127.728 112.953C125.085 115.925 125.217 115.31 117.871 122.419C113.521 126.636 110.965 129.279 110.526 128.898C109.918 128.378 114.861 123.429 114.422 116.76C114.29 114.805 113.609 111.555 112.005 111.152C111.214 110.954 110.204 111.452 104.975 117.99C103.027 120.428 102.045 121.643 100.5 123.766C96.2598 129.564 94.4363 132.8 93.8138 132.485C93.433 132.295 94.0408 131.021 94.0335 128.92C94.0188 125.494 92.3638 122.954 90.6354 120.303C89.5589 118.649 87.7354 116.247 84.8792 113.949V113.832C84.8792 113.832 84.8353 113.868 84.8133 113.89C84.8133 113.89 84.7987 113.883 84.7914 113.875V113.912C82.0085 116.306 80.2655 118.759 79.2402 120.45C77.5924 123.159 76.0179 125.75 76.1058 129.176C76.1571 131.27 76.8015 132.529 76.428 132.734C75.8202 133.071 73.9088 129.894 69.5147 124.235C67.9109 122.17 66.9003 120.977 64.8864 118.605C59.4817 112.243 58.4637 111.774 57.6801 112.001C56.091 112.455 55.5051 115.728 55.4318 117.682C55.1828 124.359 60.2506 129.147 59.6648 129.689C59.24 130.084 56.6109 127.522 52.151 123.444C44.6298 116.57 44.7763 117.185 42.052 114.3C38.3463 110.376 36.7718 107.872 36.0395 108.282C35.2339 108.729 36.0614 112.338 36.9769 114.805C40.5873 124.601 50.2615 129.381 54.2821 131.373C61.935 135.158 68.7897 135.934 73.6451 136.432C78.2955 136.915 82.2208 136.827 85.0477 136.644V136.673C87.9038 136.776 91.939 136.746 96.7139 136.102C101.562 135.443 108.409 134.448 115.974 130.414C119.951 128.298 129.508 123.202 132.84 113.297C133.682 110.801 134.407 107.162 133.587 106.745H133.58Z" fill="url(#paint21_linear_350_987)"/>
<path d="M125.971 123.591C125.576 123.781 124.331 124.447 123.159 125.121C121.416 126.124 120.786 126.592 119.175 127.537C119.175 127.537 117.806 128.335 115.806 129.374C103.261 135.861 94.7223 136.373 94.7223 136.373C92.5839 136.505 89.4422 136.49 85.5901 135.743V135.729C85.5901 135.729 85.5754 135.729 85.5681 135.729C85.5681 135.729 85.5534 135.729 85.5461 135.729C81.7013 136.483 78.5523 136.49 76.4138 136.358C76.4138 136.358 67.8748 135.846 55.3298 129.36C53.3232 128.327 51.961 127.522 51.961 127.522C50.3499 126.578 49.72 126.109 47.9771 125.106C46.8053 124.432 45.5604 123.759 45.1649 123.576C40.4706 121.358 29.6466 127.705 30.3716 130.26C30.5254 130.809 31.2358 131.226 35.974 131.746C43.6782 132.595 51.214 132.2 55.132 131.841C54.1287 132.09 52.9716 132.515 51.8585 133.21C51.0602 133.708 49.6688 134.638 49.7347 135.619C49.786 136.38 50.76 137.735 57.644 138.972C58.3031 139.089 62.1625 139.675 66.6591 138.943C68.922 138.569 70.0571 138.386 71.2948 137.815C72.6496 137.193 73.1769 136.651 74.1289 136.776C75.286 136.929 75.4838 137.867 77.0803 139.155C78.4131 140.239 79.6361 140.685 81.6208 141.417C82.6314 141.791 83.9496 142.193 85.5315 142.479V142.515V142.501C85.5461 142.501 85.5608 142.501 85.5754 142.493C85.5901 142.493 85.6047 142.493 85.6194 142.501V142.486C87.1939 142.201 88.5194 141.798 89.53 141.425C91.5147 140.692 92.7377 140.246 94.0706 139.162C95.6671 137.867 95.8648 136.937 97.0219 136.783C97.9739 136.659 98.5012 137.2 99.856 137.823C101.101 138.394 102.229 138.577 104.492 138.95C108.988 139.689 112.848 139.104 113.507 138.979C120.391 137.742 121.365 136.388 121.416 135.626C121.482 134.645 120.091 133.716 119.292 133.218C118.172 132.515 117.015 132.098 116.019 131.849C119.937 132.207 127.473 132.603 135.177 131.754C139.915 131.234 140.618 130.816 140.779 130.267C141.504 127.712 130.68 121.365 125.986 123.583L125.971 123.591Z" fill="url(#paint22_linear_350_987)"/>
<defs>
<linearGradient id="paint0_linear_350_987" x1="84.8207" y1="110.449" x2="84.8719" y2="133.196" gradientUnits="userSpaceOnUse">
<stop offset="0.01" stop-color="#4A874E"/>
<stop offset="0.25" stop-color="#5B9462"/>
<stop offset="0.62" stop-color="#6AA275"/>
<stop offset="1" stop-color="#6DA479"/>
</linearGradient>
<linearGradient id="paint1_linear_350_987" x1="85.5395" y1="34.9403" x2="85.6273" y2="78.2002" gradientUnits="userSpaceOnUse">
<stop offset="0.01" stop-color="#E16584"/>
<stop offset="0.25" stop-color="#EF8798"/>
<stop offset="0.62" stop-color="#F0939E"/>
<stop offset="1" stop-color="#F6BAB0"/>
</linearGradient>
<linearGradient id="paint2_linear_350_987" x1="107.228" y1="35.9718" x2="123.527" y2="60.8461" gradientUnits="userSpaceOnUse">
<stop offset="0.01" stop-color="#E16584"/>
<stop offset="0.25" stop-color="#EF8798"/>
<stop offset="0.62" stop-color="#F0939E"/>
<stop offset="1" stop-color="#F6BAB0"/>
</linearGradient>
<linearGradient id="paint3_linear_350_987" x1="64.1317" y1="35.9723" x2="47.8339" y2="60.8394" gradientUnits="userSpaceOnUse">
<stop offset="0.01" stop-color="#E16584"/>
<stop offset="0.25" stop-color="#EF8798"/>
<stop offset="0.62" stop-color="#F0939E"/>
<stop offset="1" stop-color="#F6BAB0"/>
</linearGradient>
<linearGradient id="paint4_linear_350_987" x1="122.316" y1="41.8295" x2="135.111" y2="68.8912" gradientUnits="userSpaceOnUse">
<stop offset="0.01" stop-color="#E16584"/>
<stop offset="0.25" stop-color="#EF8798"/>
<stop offset="0.62" stop-color="#F0939E"/>
<stop offset="1" stop-color="#F6BAB0"/>
</linearGradient>
<linearGradient id="paint5_linear_350_987" x1="48.38" y1="41.8295" x2="35.5928" y2="68.8912" gradientUnits="userSpaceOnUse">
<stop offset="0.01" stop-color="#E16584"/>
<stop offset="0.25" stop-color="#EF8798"/>
<stop offset="0.62" stop-color="#F0939E"/>
<stop offset="1" stop-color="#F6BAB0"/>
</linearGradient>
<linearGradient id="paint6_linear_350_987" x1="94.9878" y1="38.4512" x2="106.377" y2="58.6789" gradientUnits="userSpaceOnUse">
<stop offset="0.01" stop-color="#E16584"/>
<stop offset="0.25" stop-color="#EF8798"/>
<stop offset="0.62" stop-color="#F0939E"/>
<stop offset="1" stop-color="#F6BAB0"/>
</linearGradient>
<linearGradient id="paint7_linear_350_987" x1="74.2489" y1="38.3902" x2="62.8667" y2="58.6184" gradientUnits="userSpaceOnUse">
<stop offset="0.01" stop-color="#E16584"/>
<stop offset="0.25" stop-color="#EF8798"/>
<stop offset="0.62" stop-color="#F0939E"/>
<stop offset="1" stop-color="#F6BAB0"/>
</linearGradient>
<linearGradient id="paint8_linear_350_987" x1="55.0131" y1="52.1179" x2="46.5547" y2="84.1987" gradientUnits="userSpaceOnUse">
<stop offset="0.01" stop-color="#E16584"/>
<stop offset="0.25" stop-color="#EF8798"/>
<stop offset="0.62" stop-color="#F0939E"/>
<stop offset="1" stop-color="#F6BAB0"/>
</linearGradient>
<linearGradient id="paint9_linear_350_987" x1="118.56" y1="52.1823" x2="127.022" y2="84.2693" gradientUnits="userSpaceOnUse">
<stop offset="0.01" stop-color="#E16584"/>
<stop offset="0.25" stop-color="#EF8798"/>
<stop offset="0.62" stop-color="#F0939E"/>
<stop offset="1" stop-color="#F6BAB0"/>
</linearGradient>
<linearGradient id="paint10_linear_350_987" x1="127.15" y1="65.0883" x2="127.048" y2="116.658" gradientUnits="userSpaceOnUse">
<stop offset="0.01" stop-color="#E16584"/>
<stop offset="0.25" stop-color="#EF8798"/>
<stop offset="0.62" stop-color="#F0939E"/>
<stop offset="1" stop-color="#F6BAB0"/>
</linearGradient>
<linearGradient id="paint11_linear_350_987" x1="44.0224" y1="65.6371" x2="44.1322" y2="120.655" gradientUnits="userSpaceOnUse">
<stop offset="0.01" stop-color="#E16584"/>
<stop offset="0.25" stop-color="#EF8798"/>
<stop offset="0.62" stop-color="#F0939E"/>
<stop offset="1" stop-color="#F6BAB0"/>
</linearGradient>
<linearGradient id="paint12_linear_350_987" x1="83.7153" y1="48.8576" x2="83.8104" y2="93.6476" gradientUnits="userSpaceOnUse">
<stop offset="0.01" stop-color="#E16584"/>
<stop offset="0.25" stop-color="#EF8798"/>
<stop offset="0.62" stop-color="#F0939E"/>
<stop offset="1" stop-color="#F6BAB0"/>
</linearGradient>
<linearGradient id="paint13_linear_350_987" x1="65.8026" y1="70.9902" x2="67.6768" y2="108.352" gradientUnits="userSpaceOnUse">
<stop offset="0.01" stop-color="#E16584"/>
<stop offset="0.25" stop-color="#EF8798"/>
<stop offset="0.62" stop-color="#F0939E"/>
<stop offset="1" stop-color="#F6BAB0"/>
</linearGradient>
<linearGradient id="paint14_linear_350_987" x1="51.0297" y1="71.5499" x2="52.607" y2="108.925" gradientUnits="userSpaceOnUse">
<stop offset="0.01" stop-color="#E16584"/>
<stop offset="0.25" stop-color="#EF8798"/>
<stop offset="0.62" stop-color="#F0939E"/>
<stop offset="1" stop-color="#F6BAB0"/>
</linearGradient>
<linearGradient id="paint15_linear_350_987" x1="103.978" y1="68.3402" x2="100.874" y2="105.605" gradientUnits="userSpaceOnUse">
<stop offset="0.01" stop-color="#E16584"/>
<stop offset="0.25" stop-color="#EF8798"/>
<stop offset="0.62" stop-color="#F0939E"/>
<stop offset="1" stop-color="#F6BAB0"/>
</linearGradient>
<linearGradient id="paint16_linear_350_987" x1="118.694" y1="69.4236" x2="115.887" y2="106.719" gradientUnits="userSpaceOnUse">
<stop offset="0.01" stop-color="#E16584"/>
<stop offset="0.25" stop-color="#EF8798"/>
<stop offset="0.62" stop-color="#F0939E"/>
<stop offset="1" stop-color="#F6BAB0"/>
</linearGradient>
<linearGradient id="paint17_linear_350_987" x1="84.7626" y1="80.0525" x2="84.8651" y2="128.686" gradientUnits="userSpaceOnUse">
<stop offset="0.01" stop-color="#E16584"/>
<stop offset="0.25" stop-color="#EF8798"/>
<stop offset="0.62" stop-color="#F0939E"/>
<stop offset="1" stop-color="#F6BAB0"/>
</linearGradient>
<linearGradient id="paint18_linear_350_987" x1="57.7832" y1="93.5159" x2="57.8491" y2="129.565" gradientUnits="userSpaceOnUse">
<stop offset="0.01" stop-color="#E16584"/>
<stop offset="0.25" stop-color="#EF8798"/>
<stop offset="0.62" stop-color="#F0939E"/>
<stop offset="1" stop-color="#F6BAB0"/>
</linearGradient>
<linearGradient id="paint19_linear_350_987" x1="110.329" y1="92.7691" x2="110.256" y2="128.818" gradientUnits="userSpaceOnUse">
<stop offset="0.01" stop-color="#E16584"/>
<stop offset="0.25" stop-color="#EF8798"/>
<stop offset="0.62" stop-color="#F0939E"/>
<stop offset="1" stop-color="#F6BAB0"/>
</linearGradient>
<linearGradient id="paint20_linear_350_987" x1="85.4506" y1="111.555" x2="85.4945" y2="132.969" gradientUnits="userSpaceOnUse">
<stop offset="0.01" stop-color="#4A874E"/>
<stop offset="0.25" stop-color="#5B9462"/>
<stop offset="0.62" stop-color="#6AA275"/>
<stop offset="1" stop-color="#6DA479"/>
</linearGradient>
<linearGradient id="paint21_linear_350_987" x1="84.8207" y1="110.449" x2="84.8719" y2="133.196" gradientUnits="userSpaceOnUse">
<stop offset="0.01" stop-color="#4A874E"/>
<stop offset="0.25" stop-color="#5B9462"/>
<stop offset="0.62" stop-color="#6AA275"/>
<stop offset="1" stop-color="#6DA479"/>
</linearGradient>
<linearGradient id="paint22_linear_350_987" x1="85.5608" y1="123.042" x2="85.5974" y2="142.53" gradientUnits="userSpaceOnUse">
<stop offset="0.01" stop-color="#4A874E"/>
<stop offset="0.25" stop-color="#5B9462"/>
<stop offset="0.62" stop-color="#6AA275"/>
<stop offset="1" stop-color="#6DA479"/>
</linearGradient>
</defs>
</svg>
