<svg width="174" height="372" viewBox="0 0 174 372" fill="none" xmlns="http://www.w3.org/2000/svg">
<path d="M38 189.69C35.2386 189.69 33 191.929 33 194.69V366.935C33 369.696 35.2386 371.935 38 371.935H138C140.761 371.935 143 369.696 143 366.935V194.69C143 191.929 140.761 189.69 138 189.69H38ZM87.7543 209.199C85.2004 209.199 83.1204 207.075 83.1204 204.451C83.1204 201.827 85.1916 199.703 87.7543 199.703C90.3169 199.703 92.3881 201.827 92.3881 204.451C92.3881 207.075 90.3169 209.199 87.7543 209.199Z" fill="#FBEDD0"/>
<path d="M89.4657 199.958C89.1234 199.835 88.6583 199.712 88.1054 199.677C87.2102 199.625 86.4994 199.844 86.0693 200.011C86.1308 180.343 86.1922 160.667 86.2536 141H89.2638C89.334 160.659 89.3955 180.308 89.4657 199.967V199.958Z" fill="#744A22"/>
<path d="M135.806 107.742C135.062 107.362 133.56 109.91 129.979 113.951C127.347 116.924 127.478 116.309 120.164 123.418C115.833 127.635 113.288 130.278 112.85 129.897C112.245 129.377 117.167 124.428 116.73 117.758C116.598 115.803 115.92 112.553 114.323 112.15C113.536 111.952 112.529 112.45 107.323 118.988C105.383 121.426 104.406 122.642 102.867 124.765C98.645 130.563 96.8293 133.8 96.2094 133.485C95.8302 133.294 96.4355 132.02 96.4282 129.919C96.4136 126.493 94.7656 123.952 93.0446 121.302C91.9727 119.647 90.1569 117.246 87.313 114.947V114.83C87.313 114.83 87.2693 114.866 87.2474 114.888C87.2474 114.888 87.2328 114.881 87.2255 114.874V114.91C84.4545 117.304 82.7189 119.757 81.698 121.448C80.0573 124.157 78.4895 126.749 78.577 130.175C78.628 132.269 79.2698 133.529 78.8979 133.734C78.2926 134.07 76.3894 130.893 72.0141 125.233C70.4171 123.169 69.4108 121.975 67.4054 119.603C62.0238 113.241 61.0102 112.772 60.23 112.999C58.6476 113.453 58.0642 116.726 57.9913 118.681C57.7433 125.358 62.7895 130.146 62.2061 130.688C61.7832 131.083 59.1653 128.521 54.7244 124.443C47.2353 117.568 47.3812 118.183 44.6685 115.298C40.9787 111.374 39.4109 108.87 38.6816 109.28C37.8795 109.727 38.7035 113.336 39.615 115.803C43.2101 125.599 52.843 130.38 56.8464 132.372C64.4667 136.157 71.2921 136.933 76.1268 137.431C80.7574 137.914 84.666 137.826 87.4807 137.643V137.673C90.3247 137.775 94.3426 137.746 99.0971 137.102C103.925 136.443 110.743 135.447 118.275 131.413C122.235 129.297 131.751 124.201 135.069 114.295C135.908 111.799 136.63 108.16 135.813 107.742H135.806Z" fill="url(#paint0_linear_350_988)"/>
<path d="M87.8893 86.0343C98.5505 86.1002 105.288 74.7739 107.585 68.1845C110.473 59.8966 108.614 52.4873 108.067 50.3348C106.069 42.4935 101.584 37.7052 99.6662 35.8529C95.2107 31.5552 90.551 29.7614 88.0279 29C85.5121 29.7541 80.8305 31.5406 76.3605 35.8529C74.4645 37.676 70.0017 42.4788 67.9599 50.3348C67.3911 52.5312 65.5681 59.9113 68.4412 68.1845C68.7183 68.9899 74.8801 85.9538 87.8893 86.0343Z" fill="url(#paint1_linear_350_988)"/>
<path d="M108.016 42.6326C101.613 34.8499 97.0337 31.8408 97.7337 30.5595C98.4046 29.3295 103.21 31.0427 104.202 31.4015C112.756 34.4546 118.611 40.568 122.44 45.488C126.53 50.7448 136.586 63.184 133.4 68.0235C131.606 70.7471 125.736 70.8862 122.418 68.3017C118.874 65.5342 120.66 61.5513 117.182 54.2884C115.709 51.2207 112.909 48.5923 108.016 42.6473V42.6326Z" fill="url(#paint2_linear_350_988)"/>
<path d="M68.2079 42.6326C74.6104 34.8499 79.1899 31.8408 78.4898 30.5595C77.8189 29.3295 73.0134 31.0427 72.0217 31.4015C63.468 34.4546 57.6124 40.568 53.784 45.488C49.6931 50.7448 39.6372 63.184 42.8239 68.0235C44.6178 70.7471 50.4879 70.8862 53.8059 68.3017C57.3499 65.5342 55.5633 61.5513 59.0417 54.2884C60.5147 51.2207 63.3148 48.5923 68.2079 42.6473V42.6326Z" fill="url(#paint3_linear_350_988)"/>
<path d="M122.293 48.2335C116.97 39.5942 112.828 35.9408 113.689 34.7693C114.513 33.6492 119.056 36.0506 119.982 36.5411C128.054 40.8169 133.057 47.721 136.207 53.1609C139.569 58.9595 147.911 72.7532 144.112 77.0802C141.975 79.5109 136.149 78.8007 133.203 75.7477C130.06 72.4896 132.349 68.7996 129.848 61.1047C128.791 57.854 126.363 54.8375 122.293 48.2335Z" fill="url(#paint4_linear_350_988)"/>
<path d="M53.266 48.2335C58.5892 39.5942 62.7312 35.9408 61.8707 34.7693C61.0467 33.6492 56.5037 36.0506 55.5776 36.5411C47.5052 40.8169 42.5028 47.721 39.3526 53.1609C35.9909 58.9595 27.6487 72.7532 31.4479 77.0802C33.5845 79.5109 39.4109 78.8007 42.3569 75.7477C45.4998 72.4896 43.2101 68.7996 45.7113 61.1047C46.7687 57.854 49.197 54.8375 53.266 48.2335Z" fill="url(#paint5_linear_350_988)"/>
<path d="M91.1932 32.2581L91.1567 32.1922C91.1567 32.1922 91.2151 32.1922 91.2369 32.1922C91.2515 32.1702 91.2661 32.1483 91.2807 32.1336L91.3099 32.1922C98.128 32.8804 102.78 35.5162 105.238 37.2001C106.711 38.2105 119.253 47.0475 117.489 57.7515C116.92 61.1999 115.046 63.7478 113.587 65.3146C112.566 66.1053 108.672 68.9607 104.122 67.921C100.308 67.0498 98.1645 63.9308 96.6842 61.7124C89.9681 51.6527 90.7119 37.5149 91.1932 32.2727V32.2581Z" fill="url(#paint6_linear_350_988)"/>
<path d="M82.9164 32.2581L82.9529 32.1922C82.9529 32.1922 82.8945 32.1922 82.8727 32.1922C82.8581 32.1702 82.8435 32.1483 82.8289 32.1336L82.7997 32.1922C75.9816 32.8804 71.3292 35.5162 68.8717 37.2001C67.3987 38.2105 54.8562 47.0475 56.6209 57.7515C57.1897 61.1999 59.0638 63.7478 60.5222 65.3146C61.5431 66.1053 65.4371 68.9607 69.9874 67.921C73.8012 67.0498 75.9451 63.9308 77.4254 61.7124C84.1415 51.6527 83.3977 37.5149 82.9164 32.2727V32.2581Z" fill="url(#paint7_linear_350_988)"/>
<path d="M47.4694 94.0733C58.7722 90.1709 66.7207 79.9867 67.5811 68.4334C68.5218 55.8332 60.6244 47.1426 59.3483 45.7735L46.9443 93.7072H46.9662L59.7056 45.876C57.9409 46.3519 46.937 49.4928 41.5992 60.7971C36.7062 71.1643 38.5511 84.2259 46.3318 93.7291" fill="url(#paint8_linear_350_988)"/>
<path d="M130.964 94.0733C119.661 90.1709 111.712 79.9867 110.852 68.4334C109.911 55.8332 117.809 47.1426 119.085 45.7735L131.489 93.7072H131.467L118.728 45.876C120.492 46.3519 131.496 49.4928 136.834 60.7971C141.727 71.1643 139.882 84.2259 132.101 93.7291" fill="url(#paint9_linear_350_988)"/>
<path d="M139.153 57.832C141.668 61.3609 145.059 67.2035 146.066 74.913C149.704 102.852 118.516 128.924 113.375 125.46C110.086 123.249 115.016 107.318 119.041 98.349C123.321 88.8092 127.354 85.412 133.312 72.5921C136.141 66.5006 138.015 61.2804 139.153 57.8247V57.832Z" fill="url(#paint10_linear_350_988)"/>
<path d="M36.8881 57.8318C34.3723 61.595 30.9815 67.8329 29.9751 76.0549C26.3364 105.861 57.5249 133.675 62.6659 129.985C65.9546 127.627 61.0251 110.627 56.9998 101.065C52.7194 90.8882 48.6868 87.2641 42.7291 73.5876C39.8998 67.0935 38.0257 61.5218 36.8881 57.8318Z" fill="url(#paint11_linear_350_988)"/>
<path d="M86.0816 101.717C87.0223 101.519 101.023 98.2466 105.778 83.8672C108.483 75.6818 106.799 68.126 106.259 66.0174C104.436 58.879 100.644 54.6472 97.8584 51.5356C93.4977 46.6668 89.0203 44.0457 86.1764 42.6693H86.2347C83.3908 44.0457 78.9134 46.6668 74.5527 51.5356C71.7671 54.6399 67.9752 58.879 66.1521 66.0174C65.6125 68.126 63.928 75.6818 66.6334 83.8672C71.3879 98.2466 85.3888 101.512 86.3295 101.717" fill="url(#paint12_linear_350_988)"/>
<path d="M60.3828 60.7899C61.2652 61.2877 75.6161 69.7514 76.7245 87.4547C77.461 99.1251 72.1669 110.371 62.9059 116.88L60.3828 60.7826V60.7899Z" fill="url(#paint13_linear_350_988)"/>
<path d="M60.6673 60.7019C59.8287 61.2876 46.2799 71.113 46.7174 88.8457C47.0018 100.538 53.2512 111.22 63.0445 116.799L60.6746 60.6946L60.6673 60.7019Z" fill="url(#paint14_linear_350_988)"/>
<path d="M114.557 58.4689C113.66 58.9374 99.054 66.8959 97.3913 84.5553C96.2902 96.1891 101.227 107.618 110.284 114.449L114.557 58.4689Z" fill="url(#paint15_linear_350_988)"/>
<path d="M114.28 58.381C115.097 58.996 128.332 69.2827 127.348 87.0007C126.699 98.6711 120.121 109.133 110.16 114.368L114.28 58.381Z" fill="url(#paint16_linear_350_988)"/>
<path d="M87.1169 137.365C88.1378 137.145 103.342 133.595 108.505 117.985C111.443 109.097 109.613 100.897 109.03 98.6053C107.054 90.8518 102.934 86.2539 99.9073 82.8787C95.1674 77.5926 90.3108 74.7446 87.2189 73.251H87.2846C84.1927 74.7446 79.3361 77.5926 74.5962 82.8787C71.57 86.2539 67.4499 90.8518 65.4737 98.6053C64.8904 100.897 63.06 109.097 65.9988 117.985C71.1616 133.595 86.3658 137.145 87.3867 137.365" fill="url(#paint17_linear_350_988)"/>
<path d="M48.1909 88.7579C45.6241 92.2502 41.256 99.3667 42.0363 107.904C43.9104 128.455 76.3751 138.983 78.745 135.601C79.0075 135.227 78.8763 134.737 74.9968 127.672C70.1549 118.864 67.7338 114.456 65.9764 111.696C60.0625 102.427 53.6673 94.6883 48.1909 88.7579Z" fill="url(#paint18_linear_350_988)"/>
<path d="M124.795 88.0113C127.362 91.5036 131.73 98.6201 130.95 107.157C129.076 127.708 96.6112 138.237 94.2413 134.854C93.9787 134.481 94.11 133.99 97.9894 126.925C102.831 118.117 105.252 113.71 107.01 110.949C112.924 101.68 119.319 93.9417 124.795 88.0113Z" fill="url(#paint19_linear_350_988)"/>
<path d="M127.347 125.585C123.964 126.193 124.051 127.43 118.115 130.373C110.109 134.349 103.137 135.491 99.8266 136.004C96.8587 136.465 92.8261 136.875 87.9914 136.728C83.1203 136.846 79.0513 136.406 76.0688 135.916C72.7727 135.381 65.8306 134.195 57.8603 130.161C51.9536 127.174 52.0484 125.937 48.6794 125.307C40.8987 123.843 32.7096 128.946 33.067 130.886C33.1326 131.23 33.5263 131.808 38.6163 132.409C46.2657 133.309 53.7548 132.965 57.6488 132.636C56.6571 132.877 55.4976 133.295 54.3892 133.983C53.5944 134.481 52.2088 135.396 52.2599 136.377C52.3036 137.138 53.2662 138.5 60.0917 139.789C60.748 139.913 64.5763 140.521 69.0391 139.818C71.2924 139.459 72.4154 139.284 73.6478 138.727C74.9968 138.12 75.5291 137.57 76.4698 137.71C77.6147 137.871 77.8116 138.808 79.3867 140.111C80.7066 141.202 81.9098 141.656 83.8859 142.403C84.8995 142.791 86.2413 143.208 87.8456 143.508V143.53C87.8456 143.53 87.8893 143.523 87.9112 143.515C87.9258 143.515 87.9404 143.515 87.9623 143.523V143.508C89.5738 143.223 90.9156 142.805 91.9365 142.432C93.9127 141.7 95.1305 141.253 96.4576 140.17C98.0473 138.874 98.2442 137.944 99.3964 137.79C100.344 137.666 100.869 138.207 102.218 138.83C103.458 139.401 104.581 139.584 106.834 139.957C111.312 140.697 115.155 140.111 115.811 139.986C122.666 138.749 123.635 137.395 123.687 136.633C123.752 135.652 122.367 134.722 121.572 134.224C120.456 133.522 119.304 133.104 118.312 132.855C122.214 133.214 129.717 133.609 137.388 132.76C142.493 132.196 142.901 131.618 142.967 131.274C143.332 129.334 135.157 124.179 127.347 125.585Z" fill="url(#paint20_linear_350_988)"/>
<path d="M133.604 109.06C132.904 108.702 131.489 111.103 128.113 114.91C125.633 117.707 125.757 117.129 118.874 123.828C114.79 127.796 112.398 130.293 111.983 129.934C111.414 129.443 116.052 124.78 115.636 118.505C115.512 116.667 114.878 113.6 113.368 113.226C112.624 113.043 111.676 113.505 106.776 119.662C104.946 121.961 104.034 123.103 102.576 125.102C98.6015 130.564 96.8878 133.609 96.3045 133.317C95.9471 133.133 96.5232 131.933 96.5086 129.956C96.4941 126.727 94.9408 124.34 93.3219 121.836C92.3083 120.277 90.602 118.022 87.9185 115.855V115.745C87.9185 115.745 87.8747 115.782 87.8528 115.796C87.8528 115.796 87.8383 115.789 87.831 115.782V115.811C85.2204 118.066 83.5869 120.379 82.6244 121.968C81.0784 124.523 79.6054 126.961 79.6783 130.183C79.7221 132.16 80.3273 133.338 79.9773 133.529C79.4085 133.844 77.6147 130.849 73.4946 125.519C71.9851 123.572 71.0444 122.451 69.1558 120.218C64.0877 114.222 63.1325 113.79 62.396 113.995C60.9084 114.42 60.3614 117.509 60.2885 119.347C60.0552 125.636 64.8096 130.146 64.2554 130.651C63.8544 131.025 61.3896 128.609 57.2112 124.772C50.1524 118.3 50.2983 118.871 47.746 116.155C44.2749 112.458 42.7946 110.1 42.1092 110.488C41.3508 110.905 42.131 114.31 42.9842 116.631C46.3751 125.856 55.4465 130.359 59.2166 132.233C66.3993 135.798 72.8237 136.523 77.374 136.999C81.7347 137.453 85.4173 137.373 88.0716 137.197V137.226C90.7478 137.329 94.5325 137.299 99.0098 136.684C103.56 136.062 109.977 135.125 117.072 131.332C120.799 129.334 129.761 124.538 132.889 115.211C133.677 112.86 134.362 109.434 133.589 109.039L133.604 109.06Z" fill="url(#paint21_linear_350_988)"/>
<defs>
<linearGradient id="paint0_linear_350_988" x1="87.2547" y1="-24.4469" x2="87.3061" y2="134.195" gradientUnits="userSpaceOnUse">
<stop offset="0.01" stop-color="#4A874E"/>
<stop offset="0.25" stop-color="#5B9462"/>
<stop offset="0.62" stop-color="#6AA275"/>
<stop offset="1" stop-color="#6DA479"/>
</linearGradient>
<linearGradient id="paint1_linear_350_988" x1="87.9695" y1="35.9408" x2="88.0578" y2="79.2034" gradientUnits="userSpaceOnUse">
<stop offset="0.01" stop-color="#EDAA28"/>
<stop offset="0.36" stop-color="#F0C23C"/>
<stop offset="0.64" stop-color="#EED348"/>
<stop offset="0.93" stop-color="#F2DE54"/>
</linearGradient>
<linearGradient id="paint2_linear_350_988" x1="109.57" y1="36.9758" x2="125.897" y2="61.7794" gradientUnits="userSpaceOnUse">
<stop offset="0.01" stop-color="#EDAA28"/>
<stop offset="0.36" stop-color="#F0C23C"/>
<stop offset="0.64" stop-color="#EED348"/>
<stop offset="0.93" stop-color="#F2DE54"/>
</linearGradient>
<linearGradient id="paint3_linear_350_988" x1="66.6583" y1="36.9726" x2="50.3314" y2="61.7763" gradientUnits="userSpaceOnUse">
<stop offset="0.01" stop-color="#EDAA28"/>
<stop offset="0.36" stop-color="#F0C23C"/>
<stop offset="0.64" stop-color="#EED348"/>
<stop offset="0.93" stop-color="#F2DE54"/>
</linearGradient>
<linearGradient id="paint4_linear_350_988" x1="124.591" y1="42.8303" x2="137.421" y2="69.8507" gradientUnits="userSpaceOnUse">
<stop offset="0.01" stop-color="#EDAA28"/>
<stop offset="0.36" stop-color="#F0C23C"/>
<stop offset="0.64" stop-color="#EED348"/>
<stop offset="0.93" stop-color="#F2DE54"/>
</linearGradient>
<linearGradient id="paint5_linear_350_988" x1="50.969" y1="42.8303" x2="38.1385" y2="69.8507" gradientUnits="userSpaceOnUse">
<stop offset="0.01" stop-color="#EDAA28"/>
<stop offset="0.36" stop-color="#F0C23C"/>
<stop offset="0.64" stop-color="#EED348"/>
<stop offset="0.93" stop-color="#F2DE54"/>
</linearGradient>
<linearGradient id="paint6_linear_350_988" x1="97.3791" y1="39.4377" x2="108.795" y2="59.6243" gradientUnits="userSpaceOnUse">
<stop offset="0.01" stop-color="#EDAA28"/>
<stop offset="0.36" stop-color="#F0C23C"/>
<stop offset="0.64" stop-color="#EED348"/>
<stop offset="0.93" stop-color="#F2DE54"/>
</linearGradient>
<linearGradient id="paint7_linear_350_988" x1="76.7313" y1="39.4067" x2="65.3228" y2="59.5939" gradientUnits="userSpaceOnUse">
<stop offset="0.01" stop-color="#EDAA28"/>
<stop offset="0.36" stop-color="#F0C23C"/>
<stop offset="0.64" stop-color="#EED348"/>
<stop offset="0.93" stop-color="#F2DE54"/>
</linearGradient>
<linearGradient id="paint8_linear_350_988" x1="57.5731" y1="53.1269" x2="49.0823" y2="85.1916" gradientUnits="userSpaceOnUse">
<stop offset="0.01" stop-color="#EDAA28"/>
<stop offset="0.36" stop-color="#F0C23C"/>
<stop offset="0.64" stop-color="#EED348"/>
<stop offset="0.93" stop-color="#F2DE54"/>
</linearGradient>
<linearGradient id="paint9_linear_350_988" x1="120.848" y1="53.1709" x2="129.343" y2="85.2418" gradientUnits="userSpaceOnUse">
<stop offset="0.01" stop-color="#EDAA28"/>
<stop offset="0.36" stop-color="#F0C23C"/>
<stop offset="0.64" stop-color="#EED348"/>
<stop offset="0.93" stop-color="#F2DE54"/>
</linearGradient>
<linearGradient id="paint10_linear_350_988" x1="129.403" y1="66.0833" x2="129.293" y2="117.663" gradientUnits="userSpaceOnUse">
<stop offset="0.01" stop-color="#EDAA28"/>
<stop offset="0.36" stop-color="#F0C23C"/>
<stop offset="0.64" stop-color="#EED348"/>
<stop offset="0.93" stop-color="#F2DE54"/>
</linearGradient>
<linearGradient id="paint11_linear_350_988" x1="46.6304" y1="66.6395" x2="46.7407" y2="121.66" gradientUnits="userSpaceOnUse">
<stop offset="0.01" stop-color="#EDAA28"/>
<stop offset="0.36" stop-color="#F0C23C"/>
<stop offset="0.64" stop-color="#EED348"/>
<stop offset="0.93" stop-color="#F2DE54"/>
</linearGradient>
<linearGradient id="paint12_linear_350_988" x1="86.1545" y1="49.8589" x2="86.2501" y2="94.6444" gradientUnits="userSpaceOnUse">
<stop offset="0.01" stop-color="#EDAA28"/>
<stop offset="0.36" stop-color="#F0C23C"/>
<stop offset="0.64" stop-color="#EED348"/>
<stop offset="0.93" stop-color="#F2DE54"/>
</linearGradient>
<linearGradient id="paint13_linear_350_988" x1="68.3178" y1="71.9892" x2="70.2001" y2="109.345" gradientUnits="userSpaceOnUse">
<stop offset="0.01" stop-color="#EDAA28"/>
<stop offset="0.36" stop-color="#F0C23C"/>
<stop offset="0.64" stop-color="#EED348"/>
<stop offset="0.93" stop-color="#F2DE54"/>
</linearGradient>
<linearGradient id="paint14_linear_350_988" x1="53.602" y1="72.5501" x2="55.1857" y2="109.92" gradientUnits="userSpaceOnUse">
<stop offset="0.01" stop-color="#EDAA28"/>
<stop offset="0.36" stop-color="#F0C23C"/>
<stop offset="0.64" stop-color="#EED348"/>
<stop offset="0.93" stop-color="#F2DE54"/>
</linearGradient>
<linearGradient id="paint15_linear_350_988" x1="106.329" y1="69.349" x2="103.211" y2="106.614" gradientUnits="userSpaceOnUse">
<stop offset="0.01" stop-color="#EDAA28"/>
<stop offset="0.36" stop-color="#F0C23C"/>
<stop offset="0.64" stop-color="#EED348"/>
<stop offset="0.93" stop-color="#F2DE54"/>
</linearGradient>
<linearGradient id="paint16_linear_350_988" x1="120.982" y1="70.429" x2="118.162" y2="107.725" gradientUnits="userSpaceOnUse">
<stop offset="0.01" stop-color="#EDAA28"/>
<stop offset="0.36" stop-color="#F0C23C"/>
<stop offset="0.64" stop-color="#EED348"/>
<stop offset="0.93" stop-color="#F2DE54"/>
</linearGradient>
<linearGradient id="paint17_linear_350_988" x1="87.1971" y1="81.0557" x2="87.3" y2="129.692" gradientUnits="userSpaceOnUse">
<stop offset="0.01" stop-color="#EDAA28"/>
<stop offset="0.36" stop-color="#F0C23C"/>
<stop offset="0.64" stop-color="#EED348"/>
<stop offset="0.93" stop-color="#F2DE54"/>
</linearGradient>
<linearGradient id="paint18_linear_350_988" x1="60.325" y1="94.5126" x2="60.3985" y2="130.564" gradientUnits="userSpaceOnUse">
<stop offset="0.01" stop-color="#EDAA28"/>
<stop offset="0.36" stop-color="#F0C23C"/>
<stop offset="0.64" stop-color="#EED348"/>
<stop offset="0.93" stop-color="#F2DE54"/>
</linearGradient>
<linearGradient id="paint19_linear_350_988" x1="112.654" y1="93.7733" x2="112.58" y2="129.824" gradientUnits="userSpaceOnUse">
<stop offset="0.01" stop-color="#EDAA28"/>
<stop offset="0.36" stop-color="#F0C23C"/>
<stop offset="0.64" stop-color="#EED348"/>
<stop offset="0.93" stop-color="#F2DE54"/>
</linearGradient>
<linearGradient id="paint20_linear_350_988" x1="87.9987" y1="124.97" x2="88.0355" y2="143.545" gradientUnits="userSpaceOnUse">
<stop offset="0.01" stop-color="#4A874E"/>
<stop offset="0.25" stop-color="#5B9462"/>
<stop offset="0.62" stop-color="#6AA275"/>
<stop offset="1" stop-color="#6DA479"/>
</linearGradient>
<linearGradient id="paint21_linear_350_988" x1="87.882" y1="112.553" x2="87.9261" y2="133.975" gradientUnits="userSpaceOnUse">
<stop offset="0.01" stop-color="#4A874E"/>
<stop offset="0.25" stop-color="#5B9462"/>
<stop offset="0.62" stop-color="#6AA275"/>
<stop offset="1" stop-color="#6DA479"/>
</linearGradient>
</defs>
</svg>
