<svg width="97" height="30" viewBox="0 0 97 30" fill="none" xmlns="http://www.w3.org/2000/svg">
<path d="M95.7513 0.423096C95.028 0.0539458 93.5665 2.52498 90.0784 6.44249C87.5169 9.32035 87.645 8.72519 80.5332 15.6185C76.3144 19.7017 73.8433 22.2707 73.4139 21.9016C72.8263 21.3968 77.6177 16.5979 77.1883 10.1415C77.0602 8.2506 76.4048 5.09397 74.8453 4.70976C74.0769 4.52141 73.0975 4.99602 68.0349 11.3318C66.1439 13.6974 65.2022 14.8727 63.6955 16.9293C59.5896 22.5495 57.8192 25.6835 57.2165 25.3821C56.8474 25.1938 57.4425 23.9583 57.4275 21.9242C57.4124 18.6018 55.8077 16.1459 54.1353 13.5694C53.0881 11.9647 51.3252 9.64428 48.5528 7.41432V7.30134C48.5528 7.30134 48.5076 7.33901 48.485 7.35408C48.485 7.35408 48.4699 7.34653 48.4624 7.339V7.36912C45.7654 9.68949 44.0778 12.0702 43.0834 13.705C41.4862 16.3342 39.9644 18.8429 40.0398 22.1577C40.085 24.1918 40.7103 25.4047 40.3486 25.6006C39.761 25.9246 37.9077 22.8433 33.6512 17.3588C32.0917 15.3548 31.1199 14.2022 29.1687 11.9044C23.9328 5.73433 22.9459 5.28984 22.185 5.50078C20.6481 5.93773 20.0831 9.11694 20.0077 11.0079C19.7667 17.4793 24.6786 22.1201 24.1061 22.6399C23.6917 23.0241 21.1453 20.538 16.8285 16.5904C9.53593 9.9306 9.68661 10.5182 7.04982 7.72322C3.46379 3.91872 1.93446 1.49289 1.22629 1.89217C0.44279 2.32159 1.2489 5.82476 2.13034 8.21293C5.63349 17.7054 15.0054 22.3386 18.9003 24.2672C26.3209 27.9361 32.9581 28.6819 37.6591 29.1716C42.1643 29.6386 45.9688 29.5558 48.711 29.375V29.4051C51.4759 29.5106 55.3859 29.4804 60.0115 28.8476C64.7125 28.2073 71.3422 27.2429 78.6724 23.3405C82.5221 21.2838 91.781 16.3493 95.013 6.7514C95.8266 4.33309 96.5348 0.807291 95.7362 0.400472L95.7513 0.423096Z" fill="url(#paint0_linear_111_2246)"/>
<defs>
<linearGradient id="paint0_linear_111_2246" x1="48.5151" y1="4.01665" x2="48.5603" y2="26.0526" gradientUnits="userSpaceOnUse">
<stop offset="0.01" stop-color="#4A874E"/>
<stop offset="0.25" stop-color="#5A9362"/>
<stop offset="0.62" stop-color="#6AA275"/>
<stop offset="1" stop-color="#6DA479"/>
</linearGradient>
</defs>
</svg>
