<svg width="115" height="20" viewBox="0 0 115 20" fill="none" xmlns="http://www.w3.org/2000/svg">
<path d="M98.2875 1.41942C94.7919 2.04472 94.8823 3.31789 88.7499 6.34643C80.4779 10.4372 73.2757 11.6125 69.8555 12.1398C66.7893 12.6144 62.6231 13.0363 57.6283 12.8856C52.5958 13.0062 48.392 12.5542 45.3108 12.0494C41.9055 11.4995 34.7335 10.279 26.4992 6.12797C20.3969 3.05423 20.4949 1.78104 17.0143 1.13314C8.97587 -0.373593 0.515558 4.87737 0.884708 6.87379C0.952511 7.22788 1.35933 7.82305 6.61783 8.44081C14.5206 9.36745 22.2577 9.01337 26.2807 8.67435C25.2561 8.92296 24.0583 9.35236 22.9132 10.0605C22.092 10.5728 20.6606 11.5145 20.7133 12.524C20.7585 13.3075 21.753 14.7088 28.8045 16.0348C29.4825 16.1628 33.4377 16.7881 38.0483 16.0649C40.3762 15.6957 41.5364 15.5149 42.8096 14.9424C44.2033 14.3171 44.7533 13.752 45.7251 13.8952C46.9079 14.0609 47.1113 15.0253 48.7386 16.3662C50.1022 17.4888 51.3452 17.9558 53.3869 18.7242C54.434 19.1235 55.8202 19.553 57.4776 19.8618V19.8845C57.4776 19.8845 57.5228 19.8769 57.5454 19.8694C57.5605 19.8694 57.5756 19.8694 57.5982 19.8769V19.8618C59.2631 19.568 60.6493 19.1386 61.704 18.7544C63.7456 18.001 65.0038 17.5415 66.3749 16.4265C68.0172 15.093 68.2207 14.1362 69.411 13.978C70.3903 13.85 70.9328 14.4075 72.3265 15.0479C73.6072 15.6355 74.7674 15.8238 77.0953 16.208C81.721 16.9689 85.6912 16.3662 86.3693 16.2381C93.4509 14.9649 94.4529 13.5713 94.5056 12.7878C94.5734 11.7782 93.142 10.8214 92.3209 10.3091C91.1682 9.58591 89.9779 9.1565 88.9533 8.90035C92.9838 9.2695 100.736 9.67632 108.661 8.80241C113.935 8.22232 114.357 7.62718 114.425 7.2731C114.801 5.27668 106.356 -0.02704 98.2875 1.41942Z" fill="url(#paint0_linear_111_2245)"/>
<defs>
<linearGradient id="paint0_linear_111_2245" x1="57.6434" y1="0.786592" x2="57.681" y2="19.8995" gradientUnits="userSpaceOnUse">
<stop offset="0.01" stop-color="#4A874E"/>
<stop offset="0.25" stop-color="#5A9362"/>
<stop offset="0.62" stop-color="#6AA275"/>
<stop offset="1" stop-color="#6DA479"/>
</linearGradient>
</defs>
</svg>
