<svg width="317" height="812" viewBox="0 0 317 812" fill="none" xmlns="http://www.w3.org/2000/svg">
<path d="M5.00001 288C2.23858 288 0 290.239 0 293V806.761C0 809.522 2.23858 811.761 5 811.761H311.133C313.894 811.761 316.133 809.522 316.133 806.761V293C316.133 290.239 313.894 288 311.133 288H5.00001ZM157.36 344.069C150.021 344.069 144.043 337.965 144.043 330.423C144.043 322.882 149.995 316.778 157.36 316.778C164.725 316.778 170.677 322.882 170.677 330.423C170.677 337.965 164.725 344.069 157.36 344.069Z" fill="#FBEDD0"/>
<path d="M160.477 317.104C159.914 316.902 159.148 316.7 158.239 316.642C156.766 316.556 155.597 316.916 154.89 317.191C154.991 284.838 155.092 252.471 155.193 220.118H160.145C160.26 252.456 160.361 284.78 160.477 317.119V317.104Z" fill="#744A21"/>
<path d="M252.71 155.679C251.233 154.927 248.25 159.964 241.141 167.953C235.915 173.829 236.175 172.614 221.653 186.668C213.053 195.005 208 200.23 207.132 199.477C205.93 198.449 215.703 188.665 214.834 175.479C214.573 171.615 213.227 165.189 210.056 164.393C208.493 164.002 206.495 164.986 196.157 177.911C192.306 182.731 190.366 185.133 187.311 189.331C178.928 200.794 175.322 207.191 174.092 206.569C173.339 206.193 174.541 203.674 174.526 199.52C174.497 192.747 171.225 187.724 167.808 182.485C165.68 179.214 162.075 174.466 156.428 169.922V169.69C156.428 169.69 156.341 169.762 156.298 169.806C156.298 169.806 156.269 169.791 156.254 169.777V169.849C150.752 174.582 147.307 179.431 145.28 182.774C142.022 188.13 138.909 193.253 139.083 200.027C139.184 204.166 140.458 206.656 139.72 207.061C138.518 207.727 134.739 201.445 126.052 190.257C122.881 186.176 120.883 183.816 116.902 179.127C106.217 166.549 104.204 165.623 102.655 166.072C99.5132 166.969 98.355 173.439 98.2102 177.303C97.7179 190.503 107.737 199.969 106.579 201.04C105.739 201.822 100.541 196.756 91.7238 188.694C76.8545 175.103 77.144 176.319 71.7581 170.616C64.432 162.858 61.3191 157.908 59.8713 158.719C58.2786 159.602 59.9147 166.737 61.7245 171.615C68.8624 190.981 87.9884 200.432 95.9371 204.369C111.067 211.852 124.619 213.386 134.218 214.37C143.412 215.326 151.172 215.152 156.761 214.79V214.848C162.408 215.051 170.385 214.993 179.825 213.719C189.41 212.416 202.947 210.448 217.904 202.473C225.765 198.29 244.66 188.216 251.247 168.633C252.912 163.698 254.346 156.504 252.724 155.679H252.71Z" fill="url(#paint0_linear_363_3709)"/>
<path d="M157.574 112.75C178.742 112.881 192.12 90.4898 196.68 77.4634C202.414 61.0792 198.722 46.4318 197.636 42.1765C193.669 26.6751 184.765 17.2093 180.957 13.5474C172.11 5.05134 162.859 1.50527 157.849 0C152.854 1.49079 143.559 5.02239 134.684 13.5474C130.919 17.1514 122.058 26.6462 118.004 42.1765C116.875 46.5186 113.256 61.1081 118.96 77.4634C119.51 79.0556 131.745 112.591 157.574 112.75Z" fill="url(#paint1_linear_363_3709)"/>
<path d="M197.532 26.9503C184.82 11.5647 175.728 5.61601 177.118 3.08311C178.45 0.651519 187.991 4.03838 189.96 4.74759C206.943 10.7831 218.57 22.8687 226.171 32.5951C234.293 42.9872 254.259 67.5781 247.932 77.1452C244.37 82.5294 232.715 82.8044 226.127 77.6952C219.091 72.2241 222.638 64.3504 215.732 49.9925C212.807 43.928 207.247 38.7319 197.532 26.9792V26.9503Z" fill="url(#paint2_linear_363_3709)"/>
<path d="M118.495 26.9503C131.207 11.5647 140.3 5.61601 138.91 3.08311C137.578 0.651519 128.037 4.03838 126.068 4.74759C109.084 10.7831 97.4582 22.8687 89.857 32.5951C81.7346 42.9872 61.7688 67.5781 68.0959 77.1452C71.6576 82.5294 83.3127 82.8044 89.9004 77.6952C96.937 72.2241 93.3897 64.3504 100.296 49.9925C103.221 43.928 108.78 38.7319 118.495 26.9792V26.9503Z" fill="url(#paint3_linear_363_3709)"/>
<path d="M225.881 38.0227C215.312 20.9437 207.088 13.7213 208.797 11.4055C210.433 9.19099 219.453 13.9384 221.292 14.9081C237.319 23.3608 247.252 37.0095 253.506 47.7635C260.181 59.2267 276.744 86.4952 269.201 95.0492C264.959 99.8545 253.39 98.4505 247.541 92.415C241.301 85.9742 245.847 78.6794 240.881 63.4675C238.782 57.0412 233.96 51.078 225.881 38.0227Z" fill="url(#paint4_linear_363_3709)"/>
<path d="M88.8291 38.0227C99.3984 20.9437 107.622 13.7213 105.914 11.4055C104.278 9.19099 95.2575 13.9384 93.4188 14.9081C77.3911 23.3608 67.4589 37.0095 61.2042 47.7635C54.5296 59.2267 37.9663 86.4952 45.5096 95.0492C49.7518 99.8545 61.32 98.4505 67.1693 92.415C73.4095 85.9742 68.8633 78.6794 73.8294 63.4675C75.9288 57.0412 80.7501 51.078 88.8291 38.0227Z" fill="url(#paint5_linear_363_3709)"/>
<path d="M164.131 6.44112L164.059 6.31085C164.059 6.31085 164.175 6.31085 164.218 6.31085C164.247 6.26743 164.276 6.22402 164.305 6.19507L164.363 6.31085C177.9 7.67138 187.137 12.8819 192.017 16.2109C194.941 18.2083 219.844 35.6781 216.34 56.8387C215.211 63.6558 211.49 68.6927 208.594 71.79C206.567 73.3532 198.836 78.998 189.801 76.9427C182.229 75.2203 177.972 69.0545 175.033 64.669C161.699 44.782 163.176 16.8333 164.131 6.47006V6.44112Z" fill="url(#paint6_linear_363_3709)"/>
<path d="M147.698 6.44112L147.77 6.31085C147.77 6.31085 147.654 6.31085 147.611 6.31085C147.582 6.26743 147.553 6.22402 147.524 6.19507L147.466 6.31085C133.929 7.67138 124.691 12.8819 119.812 16.2109C116.888 18.2083 91.9846 35.6781 95.4884 56.8387C96.6177 63.6558 100.339 68.6927 103.234 71.79C105.261 73.3532 112.993 78.998 122.027 76.9427C129.6 75.2203 133.856 69.0545 136.795 64.669C150.13 44.782 148.653 16.8333 147.698 6.47006V6.44112Z" fill="url(#paint7_linear_363_3709)"/>
<path d="M77.3182 128.642C99.7598 120.928 115.541 100.795 117.25 77.9553C119.117 53.046 103.437 35.8656 100.904 33.1591L76.2757 127.919H76.3192L101.613 33.3617C98.1092 34.3025 76.2612 40.5117 65.663 62.8592C55.948 83.354 59.611 109.175 75.0595 127.962" fill="url(#paint8_linear_363_3709)"/>
<path d="M243.096 128.642C220.655 120.928 204.873 100.795 203.165 77.9553C201.297 53.046 216.977 35.8656 219.511 33.1591L244.139 127.919H244.095L218.802 33.3617C222.305 34.3025 244.153 40.5117 254.752 62.8592C264.467 83.354 260.804 109.175 245.355 127.962" fill="url(#paint9_linear_363_3709)"/>
<path d="M259.356 56.9976C264.351 63.974 271.083 75.524 273.081 90.7649C280.306 145.997 218.382 197.538 208.174 190.692C201.645 186.32 211.432 154.826 219.424 137.095C227.923 118.236 235.93 111.52 247.759 86.1767C253.376 74.1345 257.097 63.8148 259.356 56.9832V56.9976Z" fill="url(#paint10_linear_363_3709)"/>
<path d="M56.3102 56.9972C51.3152 64.4367 44.5827 76.7683 42.5847 93.0223C35.3599 151.945 97.2843 206.931 107.492 199.636C114.021 194.975 104.234 161.367 96.2418 142.465C87.7429 122.346 79.7364 115.182 67.9075 88.1447C62.2898 75.3065 58.5689 64.292 56.3102 56.9972Z" fill="url(#paint11_linear_363_3709)"/>
<path d="M153.982 143.753C155.85 143.363 183.649 136.893 193.088 108.466C198.46 92.2848 195.115 77.3479 194.044 73.1794C190.424 59.0676 182.896 50.7017 177.365 44.5504C168.707 34.9254 159.817 29.7438 154.17 27.0227H154.286C148.64 29.7438 139.75 34.9254 131.092 44.5504C125.561 50.6873 118.032 59.0676 114.413 73.1794C113.341 77.3479 109.997 92.2848 115.368 108.466C124.808 136.893 152.607 143.348 154.474 143.753" fill="url(#paint12_linear_363_3709)"/>
<path d="M102.96 62.8449C104.712 63.8291 133.205 80.5608 135.406 115.558C136.868 138.629 126.357 160.861 107.97 173.728L102.96 62.8304V62.8449Z" fill="url(#paint13_linear_363_3709)"/>
<path d="M103.525 62.6854C101.86 63.8433 74.9595 83.267 75.8282 118.322C76.3929 141.437 88.8009 162.554 108.245 173.583L103.54 62.6709L103.525 62.6854Z" fill="url(#paint14_linear_363_3709)"/>
<path d="M210.522 58.257C208.741 59.1833 179.741 74.9162 176.44 109.827C174.253 132.826 184.055 155.419 202.038 168.923L210.522 58.257Z" fill="url(#paint15_linear_363_3709)"/>
<path d="M209.973 58.0974C211.595 59.3132 237.873 79.6488 235.919 114.675C234.63 137.746 221.571 158.429 201.793 168.778L209.973 58.0974Z" fill="url(#paint16_linear_363_3709)"/>
<path d="M156.038 214.226C158.065 213.792 188.253 206.772 198.504 175.914C204.338 158.343 200.704 142.132 199.546 137.602C195.622 122.274 187.442 113.185 181.434 106.512C172.023 96.0623 162.38 90.432 156.241 87.4794H156.371C150.232 90.432 140.59 96.0623 131.179 106.512C125.17 113.185 116.99 122.274 113.066 137.602C111.908 142.132 108.274 158.343 114.109 175.914C124.359 206.772 154.547 213.792 156.574 214.226" fill="url(#paint17_linear_363_3709)"/>
<path d="M78.752 118.135C73.6556 125.039 64.983 139.107 66.5322 155.984C70.2532 196.611 134.711 217.425 139.417 210.738C139.938 210 139.677 209.03 131.975 195.063C122.361 177.651 117.554 168.938 114.065 163.481C102.323 145.157 89.6254 129.859 78.752 118.135Z" fill="url(#paint18_linear_363_3709)"/>
<path d="M230.849 116.673C235.946 123.577 244.618 137.645 243.069 154.522C239.348 195.149 174.89 215.963 170.184 209.276C169.663 208.538 169.924 207.568 177.626 193.601C187.24 176.189 192.047 167.476 195.536 162.019C207.278 143.695 219.976 128.397 230.849 116.673Z" fill="url(#paint19_linear_363_3709)"/>
<path d="M248.337 158.285C246.947 157.575 244.138 162.323 237.435 169.849C232.512 175.378 232.758 174.235 219.09 187.478C210.983 195.323 206.234 200.258 205.408 199.549C204.279 198.58 213.487 189.36 212.662 176.956C212.416 173.323 211.156 167.258 208.159 166.52C206.682 166.158 204.8 167.07 195.071 179.243C191.437 183.787 189.627 186.045 186.731 189.997C178.84 200.794 175.438 206.815 174.28 206.236C173.57 205.874 174.714 203.501 174.685 199.593C174.656 193.21 171.572 188.491 168.358 183.541C166.345 180.458 162.957 176 157.629 171.716V171.499C157.629 171.499 157.543 171.571 157.499 171.6C157.499 171.6 157.47 171.586 157.456 171.572V171.629C152.272 176.087 149.029 180.661 147.118 183.802C144.049 188.853 141.124 193.673 141.269 200.041C141.356 203.949 142.557 206.28 141.862 206.656C140.733 207.278 137.171 201.358 128.991 190.822C125.994 186.972 124.126 184.757 120.376 180.343C110.314 168.489 108.417 167.635 106.955 168.04C104.001 168.879 102.915 174.987 102.771 178.62C102.307 191.053 111.747 199.969 110.647 200.968C109.851 201.706 104.957 196.929 96.6607 189.345C82.6455 176.55 82.9351 177.679 77.8677 172.31C70.9759 165 68.0368 160.34 66.6758 161.107C65.17 161.932 66.7192 168.662 68.4132 173.25C75.1457 191.487 93.1569 200.389 100.642 204.094C114.904 211.143 127.659 212.576 136.694 213.516C145.352 214.414 152.663 214.255 157.933 213.907V213.965C163.247 214.168 170.761 214.11 179.651 212.894C188.686 211.664 201.427 209.811 215.514 202.314C222.913 198.362 240.707 188.882 246.918 170.443C248.482 165.796 249.843 159.023 248.308 158.241L248.337 158.285Z" fill="url(#paint20_linear_363_3709)"/>
<path d="M252.71 155.679C251.233 154.927 248.25 159.964 241.141 167.953C235.915 173.829 236.175 172.614 221.653 186.668C213.053 195.005 208 200.23 207.132 199.477C205.93 198.449 215.703 188.665 214.834 175.479C214.573 171.615 213.227 165.189 210.056 164.393C208.493 164.002 206.495 164.986 196.157 177.911C192.306 182.731 190.366 185.133 187.311 189.331C178.928 200.794 175.322 207.191 174.092 206.569C173.339 206.193 174.541 203.674 174.526 199.52C174.497 192.747 171.225 187.724 167.808 182.485C165.68 179.214 162.075 174.466 156.428 169.922V169.69C156.428 169.69 156.341 169.762 156.298 169.806C156.298 169.806 156.269 169.791 156.254 169.777V169.849C150.752 174.582 147.307 179.431 145.28 182.774C142.022 188.13 138.909 193.253 139.083 200.027C139.184 204.166 140.458 206.656 139.72 207.061C138.518 207.727 134.739 201.445 126.052 190.257C122.881 186.176 120.883 183.816 116.902 179.127C106.217 166.549 104.204 165.623 102.655 166.072C99.5132 166.969 98.355 173.439 98.2102 177.303C97.7179 190.503 107.737 199.969 106.579 201.04C105.739 201.822 100.541 196.756 91.7238 188.694C76.8545 175.103 77.144 176.319 71.7581 170.616C64.432 162.858 61.3191 157.908 59.8713 158.719C58.2786 159.602 59.9147 166.737 61.7245 171.615C68.8624 190.981 87.9884 200.432 95.9371 204.369C111.067 211.852 124.619 213.386 134.218 214.37C143.412 215.326 151.172 215.152 156.761 214.79V214.848C162.408 215.051 170.385 214.993 179.825 213.719C189.41 212.416 202.947 210.448 217.904 202.473C225.765 198.29 244.66 188.216 251.247 168.633C252.912 163.698 254.346 156.504 252.724 155.679H252.71Z" fill="url(#paint21_linear_363_3709)"/>
<path d="M237.667 188.984C236.885 189.36 234.424 190.677 232.107 192.009C228.661 193.991 227.416 194.918 224.231 196.785C224.231 196.785 221.523 198.363 217.571 200.418C192.769 213.242 175.887 214.255 175.887 214.255C171.66 214.515 165.448 214.486 157.833 213.01V212.981C157.833 212.981 157.804 212.981 157.789 212.981C157.789 212.981 157.76 212.981 157.746 212.981C150.145 214.472 143.919 214.486 139.691 214.226C139.691 214.226 122.809 213.213 98.0078 200.389C94.0407 198.348 91.3478 196.756 91.3478 196.756C88.1625 194.889 86.9173 193.963 83.4715 191.98C81.1549 190.648 78.6936 189.316 77.9118 188.955C68.6311 184.569 47.2319 197.118 48.6653 202.169C48.9693 203.255 50.3737 204.08 59.7413 205.107C74.9726 206.786 89.8709 206.005 97.6169 205.295C95.6334 205.788 93.3458 206.627 91.1451 208.002C89.5669 208.986 86.816 210.824 86.9463 212.764C87.0477 214.269 88.9733 216.947 102.583 219.393C103.886 219.624 111.516 220.782 120.406 219.335C124.88 218.597 127.124 218.235 129.571 217.106C132.249 215.876 133.292 214.805 135.174 215.051C137.462 215.355 137.853 217.207 141.009 219.755C143.644 221.897 146.062 222.78 149.985 224.227C151.983 224.965 154.59 225.761 157.717 226.326V226.398V226.369C157.746 226.369 157.775 226.369 157.804 226.355C157.833 226.355 157.862 226.355 157.891 226.369V226.34C161.004 225.776 163.624 224.98 165.622 224.242C169.546 222.794 171.964 221.911 174.599 219.769C177.755 217.207 178.146 215.369 180.434 215.065C182.316 214.819 183.358 215.89 186.037 217.121C188.498 218.249 190.728 218.611 195.202 219.349C204.091 220.811 211.722 219.653 213.025 219.407C226.634 216.961 228.56 214.284 228.661 212.778C228.792 210.839 226.041 209.001 224.463 208.017C222.247 206.627 219.96 205.802 217.991 205.31C225.737 206.019 240.635 206.801 255.866 205.122C265.234 204.094 266.624 203.269 266.942 202.184C268.376 197.132 246.977 184.584 237.696 188.969L237.667 188.984Z" fill="url(#paint22_linear_363_3709)"/>
<defs>
<linearGradient id="paint0_linear_363_3709" x1="156.312" y1="163.003" x2="156.413" y2="207.973" gradientUnits="userSpaceOnUse">
<stop offset="0.01" stop-color="#4A874E"/>
<stop offset="0.25" stop-color="#5B9462"/>
<stop offset="0.62" stop-color="#6AA275"/>
<stop offset="1" stop-color="#6DA479"/>
</linearGradient>
<linearGradient id="paint1_linear_363_3709" x1="157.733" y1="13.7211" x2="157.907" y2="99.2464" gradientUnits="userSpaceOnUse">
<stop offset="0.01" stop-color="#E16584"/>
<stop offset="0.25" stop-color="#EF8798"/>
<stop offset="0.62" stop-color="#F0939E"/>
<stop offset="1" stop-color="#F6BAB0"/>
</linearGradient>
<linearGradient id="paint2_linear_363_3709" x1="200.612" y1="15.7602" x2="232.835" y2="64.937" gradientUnits="userSpaceOnUse">
<stop offset="0.01" stop-color="#E16584"/>
<stop offset="0.25" stop-color="#EF8798"/>
<stop offset="0.62" stop-color="#F0939E"/>
<stop offset="1" stop-color="#F6BAB0"/>
</linearGradient>
<linearGradient id="paint3_linear_363_3709" x1="115.41" y1="15.7613" x2="83.1891" y2="64.9238" gradientUnits="userSpaceOnUse">
<stop offset="0.01" stop-color="#E16584"/>
<stop offset="0.25" stop-color="#EF8798"/>
<stop offset="0.62" stop-color="#F0939E"/>
<stop offset="1" stop-color="#F6BAB0"/>
</linearGradient>
<linearGradient id="paint4_linear_363_3709" x1="230.442" y1="27.3411" x2="255.737" y2="80.8423" gradientUnits="userSpaceOnUse">
<stop offset="0.01" stop-color="#E16584"/>
<stop offset="0.25" stop-color="#EF8798"/>
<stop offset="0.62" stop-color="#F0939E"/>
<stop offset="1" stop-color="#F6BAB0"/>
</linearGradient>
<linearGradient id="paint5_linear_363_3709" x1="84.2684" y1="27.3411" x2="58.988" y2="80.8423" gradientUnits="userSpaceOnUse">
<stop offset="0.01" stop-color="#E16584"/>
<stop offset="0.25" stop-color="#EF8798"/>
<stop offset="0.62" stop-color="#F0939E"/>
<stop offset="1" stop-color="#F6BAB0"/>
</linearGradient>
<linearGradient id="paint6_linear_363_3709" x1="176.413" y1="20.6623" x2="198.93" y2="60.6527" gradientUnits="userSpaceOnUse">
<stop offset="0.01" stop-color="#E16584"/>
<stop offset="0.25" stop-color="#EF8798"/>
<stop offset="0.62" stop-color="#F0939E"/>
<stop offset="1" stop-color="#F6BAB0"/>
</linearGradient>
<linearGradient id="paint7_linear_363_3709" x1="135.412" y1="20.5416" x2="112.909" y2="60.533" gradientUnits="userSpaceOnUse">
<stop offset="0.01" stop-color="#E16584"/>
<stop offset="0.25" stop-color="#EF8798"/>
<stop offset="0.62" stop-color="#F0939E"/>
<stop offset="1" stop-color="#F6BAB0"/>
</linearGradient>
<linearGradient id="paint8_linear_363_3709" x1="97.382" y1="47.6812" x2="80.6598" y2="111.105" gradientUnits="userSpaceOnUse">
<stop offset="0.01" stop-color="#E16584"/>
<stop offset="0.25" stop-color="#EF8798"/>
<stop offset="0.62" stop-color="#F0939E"/>
<stop offset="1" stop-color="#F6BAB0"/>
</linearGradient>
<linearGradient id="paint9_linear_363_3709" x1="223.016" y1="47.8085" x2="239.746" y2="111.245" gradientUnits="userSpaceOnUse">
<stop offset="0.01" stop-color="#E16584"/>
<stop offset="0.25" stop-color="#EF8798"/>
<stop offset="0.62" stop-color="#F0939E"/>
<stop offset="1" stop-color="#F6BAB0"/>
</linearGradient>
<linearGradient id="paint10_linear_363_3709" x1="239.998" y1="73.324" x2="239.796" y2="175.277" gradientUnits="userSpaceOnUse">
<stop offset="0.01" stop-color="#E16584"/>
<stop offset="0.25" stop-color="#EF8798"/>
<stop offset="0.62" stop-color="#F0939E"/>
<stop offset="1" stop-color="#F6BAB0"/>
</linearGradient>
<linearGradient id="paint11_linear_363_3709" x1="75.6534" y1="74.4091" x2="75.8705" y2="183.179" gradientUnits="userSpaceOnUse">
<stop offset="0.01" stop-color="#E16584"/>
<stop offset="0.25" stop-color="#EF8798"/>
<stop offset="0.62" stop-color="#F0939E"/>
<stop offset="1" stop-color="#F6BAB0"/>
</linearGradient>
<linearGradient id="paint12_linear_363_3709" x1="154.127" y1="41.2359" x2="154.315" y2="129.786" gradientUnits="userSpaceOnUse">
<stop offset="0.01" stop-color="#E16584"/>
<stop offset="0.25" stop-color="#EF8798"/>
<stop offset="0.62" stop-color="#F0939E"/>
<stop offset="1" stop-color="#F6BAB0"/>
</linearGradient>
<linearGradient id="paint13_linear_363_3709" x1="118.712" y1="84.9921" x2="122.417" y2="158.857" gradientUnits="userSpaceOnUse">
<stop offset="0.01" stop-color="#E16584"/>
<stop offset="0.25" stop-color="#EF8798"/>
<stop offset="0.62" stop-color="#F0939E"/>
<stop offset="1" stop-color="#F6BAB0"/>
</linearGradient>
<linearGradient id="paint14_linear_363_3709" x1="89.5066" y1="86.0984" x2="92.6249" y2="159.99" gradientUnits="userSpaceOnUse">
<stop offset="0.01" stop-color="#E16584"/>
<stop offset="0.25" stop-color="#EF8798"/>
<stop offset="0.62" stop-color="#F0939E"/>
<stop offset="1" stop-color="#F6BAB0"/>
</linearGradient>
<linearGradient id="paint15_linear_363_3709" x1="194.186" y1="79.7533" x2="188.049" y2="153.427" gradientUnits="userSpaceOnUse">
<stop offset="0.01" stop-color="#E16584"/>
<stop offset="0.25" stop-color="#EF8798"/>
<stop offset="0.62" stop-color="#F0939E"/>
<stop offset="1" stop-color="#F6BAB0"/>
</linearGradient>
<linearGradient id="paint16_linear_363_3709" x1="223.282" y1="81.8952" x2="217.73" y2="155.629" gradientUnits="userSpaceOnUse">
<stop offset="0.01" stop-color="#E16584"/>
<stop offset="0.25" stop-color="#EF8798"/>
<stop offset="0.62" stop-color="#F0939E"/>
<stop offset="1" stop-color="#F6BAB0"/>
</linearGradient>
<linearGradient id="paint17_linear_363_3709" x1="156.198" y1="102.908" x2="156.4" y2="199.057" gradientUnits="userSpaceOnUse">
<stop offset="0.01" stop-color="#E16584"/>
<stop offset="0.25" stop-color="#EF8798"/>
<stop offset="0.62" stop-color="#F0939E"/>
<stop offset="1" stop-color="#F6BAB0"/>
</linearGradient>
<linearGradient id="paint18_linear_363_3709" x1="102.859" y1="129.526" x2="102.989" y2="200.794" gradientUnits="userSpaceOnUse">
<stop offset="0.01" stop-color="#E16584"/>
<stop offset="0.25" stop-color="#EF8798"/>
<stop offset="0.62" stop-color="#F0939E"/>
<stop offset="1" stop-color="#F6BAB0"/>
</linearGradient>
<linearGradient id="paint19_linear_363_3709" x1="206.743" y1="128.049" x2="206.598" y2="199.318" gradientUnits="userSpaceOnUse">
<stop offset="0.01" stop-color="#E16584"/>
<stop offset="0.25" stop-color="#EF8798"/>
<stop offset="0.62" stop-color="#F0939E"/>
<stop offset="1" stop-color="#F6BAB0"/>
</linearGradient>
<linearGradient id="paint20_linear_363_3709" x1="157.557" y1="165.189" x2="157.644" y2="207.524" gradientUnits="userSpaceOnUse">
<stop offset="0.01" stop-color="#4A874E"/>
<stop offset="0.25" stop-color="#5B9462"/>
<stop offset="0.62" stop-color="#6AA275"/>
<stop offset="1" stop-color="#6DA479"/>
</linearGradient>
<linearGradient id="paint21_linear_363_3709" x1="156.312" y1="163.003" x2="156.413" y2="207.973" gradientUnits="userSpaceOnUse">
<stop offset="0.01" stop-color="#4A874E"/>
<stop offset="0.25" stop-color="#5B9462"/>
<stop offset="0.62" stop-color="#6AA275"/>
<stop offset="1" stop-color="#6DA479"/>
</linearGradient>
<linearGradient id="paint22_linear_363_3709" x1="157.775" y1="187.898" x2="157.847" y2="226.427" gradientUnits="userSpaceOnUse">
<stop offset="0.01" stop-color="#4A874E"/>
<stop offset="0.25" stop-color="#5B9462"/>
<stop offset="0.62" stop-color="#6AA275"/>
<stop offset="1" stop-color="#6DA479"/>
</linearGradient>
</defs>
</svg>
