<svg width="317" height="812" viewBox="0 0 317 812" fill="none" xmlns="http://www.w3.org/2000/svg">
<path d="M5.00001 288C2.23858 288 0 290.239 0 293V806.761C0 809.522 2.23858 811.761 5 811.761H311.133C313.894 811.761 316.133 809.522 316.133 806.761V293C316.133 290.239 313.894 288 311.133 288H5.00001ZM157.36 344.069C150.021 344.069 144.043 337.965 144.043 330.423C144.043 322.882 149.995 316.778 157.36 316.778C164.725 316.778 170.677 322.882 170.677 330.423C170.677 337.965 164.725 344.069 157.36 344.069Z" fill="#FBEDD0"/>
<path d="M160.477 317.104C159.914 316.902 159.148 316.7 158.239 316.642C156.766 316.556 155.597 316.916 154.89 317.191C154.991 284.838 155.092 252.471 155.193 220.118H160.145C160.26 252.456 160.361 284.78 160.477 317.119V317.104Z" fill="#744A21"/>
<path d="M252.105 155.269C250.632 154.518 247.658 159.542 240.57 167.511C235.358 173.373 235.618 172.16 221.138 186.178C212.562 194.494 207.524 199.706 206.658 198.955C205.459 197.93 215.204 188.17 214.338 175.018C214.078 171.164 212.735 164.754 209.574 163.96C208.015 163.57 206.022 164.552 195.714 177.444C191.874 182.251 189.94 184.648 186.893 188.835C178.534 200.269 174.94 206.65 173.712 206.029C172.962 205.654 174.16 203.141 174.146 198.998C174.117 192.242 170.854 187.232 167.447 182.006C165.325 178.743 161.73 174.008 156.099 169.475V169.244C156.099 169.244 156.013 169.316 155.969 169.359C155.969 169.359 155.941 169.345 155.926 169.33V169.402C150.44 174.123 147.004 178.96 144.983 182.295C141.735 187.636 138.631 192.747 138.804 199.503C138.905 203.632 140.176 206.116 139.439 206.52C138.241 207.184 134.473 200.918 125.811 189.758C122.649 185.687 120.657 183.334 116.687 178.656C106.032 166.111 104.025 165.187 102.481 165.634C99.3479 166.529 98.1929 172.983 98.0485 176.837C97.5577 190.004 107.548 199.446 106.393 200.514C105.556 201.294 100.373 196.241 91.5808 188.199C76.7541 174.643 77.0429 175.856 71.6723 170.168C64.3673 162.429 61.2633 157.492 59.8196 158.3C58.2315 159.181 59.8629 166.298 61.6675 171.164C68.7849 190.48 87.856 199.908 95.7819 203.834C110.868 211.298 124.381 212.829 133.953 213.81C143.121 214.763 150.859 214.59 156.431 214.229V214.287C162.062 214.489 170.017 214.431 179.429 213.161C188.987 211.861 202.485 209.898 217.399 201.943C225.238 197.771 244.078 187.723 250.647 168.19C252.307 163.267 253.736 156.092 252.119 155.269H252.105Z" fill="url(#paint0_linear_363_3679)"/>
<path d="M157.24 112.464C178.347 112.593 191.687 90.2596 196.235 77.2664C201.952 60.9238 198.27 46.3136 197.187 42.0692C193.232 26.6072 184.353 17.1655 180.556 13.513C171.735 5.03848 162.51 1.50144 157.515 0C152.534 1.487 143.265 5.00961 134.416 13.513C130.662 17.1077 121.827 26.5784 117.784 42.0692C116.658 46.4002 113.049 60.9526 118.737 77.2664C119.286 78.8544 131.485 112.305 157.24 112.464Z" fill="url(#paint1_linear_363_3679)"/>
<path d="M197.087 26.8818C184.411 11.5353 175.345 5.60175 176.731 3.07529C178.059 0.649886 187.573 4.02813 189.536 4.73554C206.471 10.7557 218.064 22.8105 225.643 32.5122C233.742 42.8779 253.651 67.4062 247.342 76.949C243.79 82.3195 232.169 82.5938 225.6 77.4976C218.583 72.0404 222.12 64.1867 215.234 49.8653C212.318 43.8163 206.774 38.6334 197.087 26.9106V26.8818Z" fill="url(#paint2_linear_363_3679)"/>
<path d="M118.276 26.8818C130.952 11.5353 140.018 5.60175 138.632 3.07529C137.304 0.649886 127.79 4.02813 125.826 4.73554C108.892 10.7557 97.2992 22.8105 89.7198 32.5122C81.6207 42.8779 61.7122 67.4062 68.0211 76.949C71.5726 82.3195 83.1943 82.5938 89.7631 77.4976C96.7794 72.0404 93.2424 64.1867 100.129 49.8653C103.045 43.8163 108.589 38.6334 118.276 26.9106V26.8818Z" fill="url(#paint3_linear_363_3679)"/>
<path d="M225.354 37.9259C214.815 20.8903 206.615 13.6863 208.319 11.3764C209.95 9.16756 218.944 13.9029 220.778 14.8701C236.759 23.3013 246.663 36.9153 252.9 47.6419C259.555 59.076 276.071 86.2751 268.549 94.8073C264.319 99.6004 252.784 98.2 246.952 92.1798C240.729 85.7554 245.263 78.4792 240.311 63.306C238.217 56.896 233.41 50.948 225.354 37.9259Z" fill="url(#paint4_linear_363_3679)"/>
<path d="M88.6944 37.9259C99.2334 20.8903 107.434 13.6863 105.73 11.3764C104.099 9.16756 95.1044 13.9029 93.2709 14.8701C77.2892 23.3013 67.3855 36.9153 61.1488 47.6419C54.4933 59.076 37.9775 86.2751 45.4992 94.8073C49.7292 99.6004 61.2642 98.2 67.0968 92.1798C73.3191 85.7554 68.7859 78.4792 73.7378 63.306C75.8311 56.896 80.6386 50.948 88.6944 37.9259Z" fill="url(#paint5_linear_363_3679)"/>
<path d="M163.782 6.42462L163.71 6.2947C163.71 6.2947 163.825 6.2947 163.868 6.2947C163.897 6.25139 163.926 6.20807 163.955 6.1792L164.013 6.2947C177.511 7.65177 186.722 12.8491 191.587 16.1695C194.504 18.1618 219.335 35.5872 215.841 56.694C214.715 63.4937 211.005 68.5178 208.117 71.6073C206.096 73.1665 198.387 78.7969 189.378 76.7468C181.828 75.0288 177.583 68.8787 174.653 64.5043C161.356 44.668 162.829 16.7903 163.782 6.4535V6.42462Z" fill="url(#paint6_linear_363_3679)"/>
<path d="M147.395 6.42462L147.467 6.2947C147.467 6.2947 147.351 6.2947 147.308 6.2947C147.279 6.25139 147.25 6.20807 147.221 6.1792L147.164 6.2947C133.665 7.65177 124.454 12.8491 119.589 16.1695C116.673 18.1618 91.8414 35.5872 95.3351 56.694C96.4612 63.4937 100.172 68.5178 103.059 71.6073C105.08 73.1665 112.789 78.7969 121.798 76.7468C129.348 75.0288 133.593 68.8787 136.524 64.5043C149.82 44.668 148.347 16.7903 147.395 6.4535V6.42462Z" fill="url(#paint7_linear_363_3679)"/>
<path d="M77.2176 128.315C99.5948 120.62 115.331 100.539 117.035 77.7572C118.897 52.9113 103.262 35.7747 100.735 33.075L76.1781 127.593H76.2214L101.443 33.2771C97.949 34.2155 76.1637 40.4089 65.5959 62.6995C55.9087 83.1422 59.5612 108.898 74.9654 127.637" fill="url(#paint8_linear_363_3679)"/>
<path d="M242.519 128.315C220.141 120.62 204.405 100.539 202.701 77.7572C200.839 52.9113 216.474 35.7747 219.001 33.075L243.558 127.593H243.515L218.293 33.2771C221.787 34.2155 243.572 40.4089 254.14 62.6995C263.827 83.1422 260.175 108.898 244.771 127.637" fill="url(#paint9_linear_363_3679)"/>
<path d="M258.73 56.8527C263.711 63.8113 270.424 75.3319 272.416 90.534C279.62 145.625 217.874 197.035 207.696 190.206C201.185 185.847 210.944 154.432 218.913 136.747C227.388 117.935 235.371 111.237 247.166 85.9575C252.768 73.946 256.478 63.6525 258.73 56.8383V56.8527Z" fill="url(#paint10_linear_363_3679)"/>
<path d="M56.2692 56.8523C51.2885 64.2729 44.5753 76.5731 42.583 92.7858C35.379 151.558 97.1257 206.404 107.304 199.128C113.815 194.479 104.055 160.957 96.0862 142.102C87.6117 122.035 79.6281 114.889 67.8331 87.9205C62.2316 75.115 58.5214 64.1285 56.2692 56.8523Z" fill="url(#paint11_linear_363_3679)"/>
<path d="M153.662 143.388C155.524 142.998 183.243 136.545 192.656 108.19C198.012 92.05 194.677 77.1511 193.609 72.9933C189.999 58.9173 182.492 50.5728 176.977 44.4371C168.344 34.8365 159.48 29.6681 153.849 26.954H153.965C148.335 29.6681 139.47 34.8365 130.837 44.4371C125.322 50.5583 117.815 58.9173 114.206 72.9933C113.137 77.1511 109.802 92.05 115.159 108.19C124.571 136.545 152.29 142.983 154.153 143.388" fill="url(#paint12_linear_363_3679)"/>
<path d="M102.783 62.6852C104.53 63.6669 132.942 80.356 135.136 115.264C136.594 138.277 126.113 160.452 107.778 173.286L102.783 62.6708V62.6852Z" fill="url(#paint13_linear_363_3679)"/>
<path d="M103.346 62.5118C101.686 63.6667 74.8623 83.0411 75.7285 118.007C76.2916 141.063 88.6639 162.126 108.053 173.127L103.361 62.4973L103.346 62.5118Z" fill="url(#paint14_linear_363_3679)"/>
<path d="M210.037 58.1085C208.261 59.0325 179.344 74.7254 176.052 109.547C173.872 132.488 183.646 155.024 201.577 168.493L210.037 58.1085Z" fill="url(#paint15_linear_363_3679)"/>
<path d="M209.49 57.9354C211.107 59.1481 237.31 79.432 235.361 114.369C234.076 137.382 221.054 158.012 201.333 168.335L209.49 57.9354Z" fill="url(#paint16_linear_363_3679)"/>
<path d="M155.711 213.681C157.733 213.248 187.834 206.246 198.055 175.466C203.873 157.94 200.249 141.771 199.094 137.252C195.182 121.963 187.025 112.897 181.034 106.241C171.65 95.8178 162.035 90.2018 155.914 87.2567H156.044C149.922 90.2018 140.307 95.8178 130.923 106.241C124.932 112.897 116.775 121.963 112.863 137.252C111.708 141.771 108.084 157.94 113.902 175.466C124.124 206.246 154.224 213.248 156.246 213.681" fill="url(#paint17_linear_363_3679)"/>
<path d="M78.6461 117.834C73.5644 124.721 64.9166 138.753 66.4614 155.587C70.1717 196.111 134.445 216.871 139.137 210.202C139.657 209.465 139.397 208.498 131.716 194.566C122.13 177.199 117.337 168.508 113.858 163.065C102.149 144.788 89.4883 129.528 78.6461 117.834Z" fill="url(#paint18_linear_363_3679)"/>
<path d="M230.306 116.362C235.388 123.248 244.036 137.281 242.491 154.114C238.781 194.639 174.508 215.399 169.816 208.729C169.296 207.993 169.556 207.026 177.236 193.094C186.822 175.726 191.616 167.035 195.095 161.593C206.803 143.316 219.464 128.056 230.306 116.362Z" fill="url(#paint19_linear_363_3679)"/>
<path d="M235.359 190.452C228.66 191.65 228.833 194.09 217.082 199.894C201.23 207.733 187.428 209.985 180.874 210.996C174.998 211.905 167.015 212.714 157.443 212.425C147.799 212.656 139.743 211.79 133.839 210.823C127.313 209.769 113.569 207.43 97.7895 199.475C86.0956 193.585 86.2833 191.145 79.6135 189.904C64.2093 187.016 47.9966 197.079 48.704 200.904C48.8339 201.583 49.6135 202.724 59.6905 203.907C74.8348 205.683 89.6615 205.005 97.3709 204.355C95.4074 204.831 93.1119 205.654 90.9175 207.011C89.3439 207.993 86.6009 209.798 86.702 211.732C86.7886 213.234 88.6942 215.919 102.207 218.46C103.507 218.705 111.086 219.903 119.921 218.518C124.382 217.81 126.606 217.464 129.045 216.366C131.716 215.168 132.77 214.085 134.633 214.36C136.899 214.677 137.289 216.525 140.407 219.095C143.02 221.246 145.402 222.141 149.315 223.614C151.322 224.379 153.978 225.202 157.154 225.794V225.837C157.154 225.837 157.241 225.823 157.284 225.808C157.313 225.808 157.342 225.808 157.385 225.823V225.794C160.576 225.231 163.232 224.408 165.253 223.671C169.166 222.228 171.577 221.347 174.204 219.21C177.351 216.655 177.741 214.822 180.022 214.518C181.899 214.273 182.938 215.341 185.609 216.569C188.064 217.695 190.287 218.056 194.748 218.792C203.612 220.25 211.22 219.095 212.52 218.85C226.09 216.41 228.011 213.739 228.112 212.237C228.241 210.303 225.498 208.469 223.925 207.488C221.716 206.102 219.435 205.279 217.472 204.788C225.195 205.495 240.051 206.275 255.238 204.6C265.344 203.489 266.153 202.348 266.283 201.67C267.005 197.844 250.821 187.68 235.359 190.452Z" fill="url(#paint20_linear_363_3679)"/>
<path d="M247.746 157.868C246.36 157.161 243.559 161.896 236.875 169.403C231.966 174.918 232.211 173.778 218.583 186.987C210.498 194.812 205.763 199.735 204.94 199.028C203.814 198.06 212.996 188.864 212.173 176.492C211.928 172.868 210.672 166.819 207.683 166.083C206.211 165.722 204.334 166.631 194.632 178.773C191.009 183.306 189.204 185.558 186.317 189.499C178.448 200.269 175.056 206.275 173.901 205.698C173.193 205.337 174.334 202.969 174.305 199.071C174.276 192.704 171.201 187.998 167.996 183.06C165.989 179.985 162.611 175.539 157.298 171.266V171.049C157.298 171.049 157.212 171.121 157.168 171.15C157.168 171.15 157.14 171.136 157.125 171.121V171.179C151.957 175.625 148.723 180.188 146.817 183.32C143.757 188.359 140.84 193.166 140.985 199.519C141.071 203.417 142.27 205.741 141.577 206.116C140.45 206.737 136.899 200.832 128.742 190.322C125.754 186.482 123.891 184.273 120.152 179.87C110.119 168.046 108.227 167.194 106.769 167.599C103.824 168.436 102.741 174.528 102.597 178.152C102.135 190.553 111.548 199.446 110.451 200.442C109.657 201.179 104.777 196.415 96.5045 188.85C82.5296 176.087 82.8183 177.213 77.7654 171.857C70.8934 164.567 67.9628 159.918 66.6057 160.683C65.1043 161.506 66.649 168.219 68.3381 172.796C75.0513 190.986 93.0108 199.865 100.475 203.561C114.695 210.592 127.414 212.021 136.423 212.959C145.056 213.854 152.346 213.696 157.602 213.349V213.407C162.9 213.609 170.393 213.551 179.257 212.339C188.266 211.111 200.97 209.263 215.017 201.785C222.394 197.844 240.137 188.388 246.331 169.995C247.89 165.361 249.247 158.604 247.717 157.825L247.746 157.868Z" fill="url(#paint21_linear_363_3679)"/>
<defs>
<linearGradient id="paint0_linear_363_3679" x1="155.984" y1="162.588" x2="156.085" y2="207.429" gradientUnits="userSpaceOnUse">
<stop offset="0.01" stop-color="#4A874E"/>
<stop offset="0.25" stop-color="#5B9462"/>
<stop offset="0.62" stop-color="#6AA275"/>
<stop offset="1" stop-color="#6DA479"/>
</linearGradient>
<linearGradient id="paint1_linear_363_3679" x1="157.399" y1="13.6862" x2="157.572" y2="98.9939" gradientUnits="userSpaceOnUse">
<stop offset="0.01" stop-color="#9FD1A4"/>
<stop offset="0.25" stop-color="#B7D99A"/>
<stop offset="0.62" stop-color="#DBE68E"/>
<stop offset="1" stop-color="#ECED87"/>
</linearGradient>
<linearGradient id="paint2_linear_363_3679" x1="200.172" y1="15.7169" x2="232.315" y2="64.7447" gradientUnits="userSpaceOnUse">
<stop offset="0.01" stop-color="#9FD1A4"/>
<stop offset="0.25" stop-color="#B7D99A"/>
<stop offset="0.62" stop-color="#DBE68E"/>
<stop offset="1" stop-color="#ECED87"/>
</linearGradient>
<linearGradient id="paint3_linear_363_3679" x1="115.203" y1="15.715" x2="83.0583" y2="64.7571" gradientUnits="userSpaceOnUse">
<stop offset="0.01" stop-color="#9FD1A4"/>
<stop offset="0.25" stop-color="#B7D99A"/>
<stop offset="0.62" stop-color="#DBE68E"/>
<stop offset="1" stop-color="#ECED87"/>
</linearGradient>
<linearGradient id="paint4_linear_363_3679" x1="229.902" y1="27.2714" x2="255.138" y2="80.6303" gradientUnits="userSpaceOnUse">
<stop offset="0.01" stop-color="#9FD1A4"/>
<stop offset="0.25" stop-color="#B7D99A"/>
<stop offset="0.62" stop-color="#DBE68E"/>
<stop offset="1" stop-color="#ECED87"/>
</linearGradient>
<linearGradient id="paint5_linear_363_3679" x1="84.1468" y1="27.2714" x2="58.9255" y2="80.6303" gradientUnits="userSpaceOnUse">
<stop offset="0.01" stop-color="#9FD1A4"/>
<stop offset="0.25" stop-color="#B7D99A"/>
<stop offset="0.62" stop-color="#DBE68E"/>
<stop offset="1" stop-color="#ECED87"/>
</linearGradient>
<linearGradient id="paint6_linear_363_3679" x1="176.038" y1="20.5633" x2="198.488" y2="60.4467" gradientUnits="userSpaceOnUse">
<stop offset="0.01" stop-color="#9FD1A4"/>
<stop offset="0.25" stop-color="#B7D99A"/>
<stop offset="0.62" stop-color="#DBE68E"/>
<stop offset="1" stop-color="#ECED87"/>
</linearGradient>
<linearGradient id="paint7_linear_363_3679" x1="135.145" y1="20.5381" x2="112.696" y2="60.4216" gradientUnits="userSpaceOnUse">
<stop offset="0.01" stop-color="#9FD1A4"/>
<stop offset="0.25" stop-color="#B7D99A"/>
<stop offset="0.62" stop-color="#DBE68E"/>
<stop offset="1" stop-color="#ECED87"/>
</linearGradient>
<linearGradient id="paint8_linear_363_3679" x1="97.2251" y1="47.6047" x2="80.5407" y2="110.865" gradientUnits="userSpaceOnUse">
<stop offset="0.01" stop-color="#9FD1A4"/>
<stop offset="0.25" stop-color="#B7D99A"/>
<stop offset="0.62" stop-color="#DBE68E"/>
<stop offset="1" stop-color="#ECED87"/>
</linearGradient>
<linearGradient id="paint9_linear_363_3679" x1="222.497" y1="47.6318" x2="239.189" y2="110.904" gradientUnits="userSpaceOnUse">
<stop offset="0.01" stop-color="#9FD1A4"/>
<stop offset="0.25" stop-color="#B7D99A"/>
<stop offset="0.62" stop-color="#DBE68E"/>
<stop offset="1" stop-color="#ECED87"/>
</linearGradient>
<linearGradient id="paint10_linear_363_3679" x1="239.428" y1="73.1231" x2="239.226" y2="174.831" gradientUnits="userSpaceOnUse">
<stop offset="0.01" stop-color="#9FD1A4"/>
<stop offset="0.25" stop-color="#B7D99A"/>
<stop offset="0.62" stop-color="#DBE68E"/>
<stop offset="1" stop-color="#ECED87"/>
</linearGradient>
<linearGradient id="paint11_linear_363_3679" x1="75.5569" y1="74.2199" x2="75.7735" y2="182.713" gradientUnits="userSpaceOnUse">
<stop offset="0.01" stop-color="#9FD1A4"/>
<stop offset="0.25" stop-color="#B7D99A"/>
<stop offset="0.62" stop-color="#DBE68E"/>
<stop offset="1" stop-color="#ECED87"/>
</linearGradient>
<linearGradient id="paint12_linear_363_3679" x1="153.806" y1="41.131" x2="153.994" y2="129.442" gradientUnits="userSpaceOnUse">
<stop offset="0.01" stop-color="#9FD1A4"/>
<stop offset="0.25" stop-color="#B7D99A"/>
<stop offset="0.62" stop-color="#DBE68E"/>
<stop offset="1" stop-color="#ECED87"/>
</linearGradient>
<linearGradient id="paint13_linear_363_3679" x1="118.492" y1="84.7498" x2="122.189" y2="158.412" gradientUnits="userSpaceOnUse">
<stop offset="0.01" stop-color="#9FD1A4"/>
<stop offset="0.25" stop-color="#B7D99A"/>
<stop offset="0.62" stop-color="#DBE68E"/>
<stop offset="1" stop-color="#ECED87"/>
</linearGradient>
<linearGradient id="paint14_linear_363_3679" x1="89.3718" y1="85.8656" x2="92.4822" y2="159.555" gradientUnits="userSpaceOnUse">
<stop offset="0.01" stop-color="#9FD1A4"/>
<stop offset="0.25" stop-color="#B7D99A"/>
<stop offset="0.62" stop-color="#DBE68E"/>
<stop offset="1" stop-color="#ECED87"/>
</linearGradient>
<linearGradient id="paint15_linear_363_3679" x1="193.758" y1="79.5776" x2="187.633" y2="153.078" gradientUnits="userSpaceOnUse">
<stop offset="0.01" stop-color="#9FD1A4"/>
<stop offset="0.25" stop-color="#B7D99A"/>
<stop offset="0.62" stop-color="#DBE68E"/>
<stop offset="1" stop-color="#ECED87"/>
</linearGradient>
<linearGradient id="paint16_linear_363_3679" x1="222.765" y1="81.6979" x2="217.226" y2="155.244" gradientUnits="userSpaceOnUse">
<stop offset="0.01" stop-color="#9FD1A4"/>
<stop offset="0.25" stop-color="#B7D99A"/>
<stop offset="0.62" stop-color="#DBE68E"/>
<stop offset="1" stop-color="#ECED87"/>
</linearGradient>
<linearGradient id="paint17_linear_363_3679" x1="155.885" y1="102.646" x2="156.072" y2="198.551" gradientUnits="userSpaceOnUse">
<stop offset="0.01" stop-color="#9FD1A4"/>
<stop offset="0.25" stop-color="#B7D99A"/>
<stop offset="0.62" stop-color="#DBE68E"/>
<stop offset="1" stop-color="#ECED87"/>
</linearGradient>
<linearGradient id="paint18_linear_363_3679" x1="102.684" y1="129.182" x2="102.828" y2="200.269" gradientUnits="userSpaceOnUse">
<stop offset="0.01" stop-color="#9FD1A4"/>
<stop offset="0.25" stop-color="#B7D99A"/>
<stop offset="0.62" stop-color="#DBE68E"/>
<stop offset="1" stop-color="#ECED87"/>
</linearGradient>
<linearGradient id="paint19_linear_363_3679" x1="206.269" y1="127.724" x2="206.125" y2="198.811" gradientUnits="userSpaceOnUse">
<stop offset="0.01" stop-color="#9FD1A4"/>
<stop offset="0.25" stop-color="#B7D99A"/>
<stop offset="0.62" stop-color="#DBE68E"/>
<stop offset="1" stop-color="#ECED87"/>
</linearGradient>
<linearGradient id="paint20_linear_363_3679" x1="157.472" y1="189.239" x2="157.544" y2="225.866" gradientUnits="userSpaceOnUse">
<stop offset="0.01" stop-color="#4A874E"/>
<stop offset="0.25" stop-color="#5B9462"/>
<stop offset="0.62" stop-color="#6AA275"/>
<stop offset="1" stop-color="#6DA479"/>
</linearGradient>
<linearGradient id="paint21_linear_363_3679" x1="157.226" y1="164.754" x2="157.313" y2="206.997" gradientUnits="userSpaceOnUse">
<stop offset="0.01" stop-color="#4A874E"/>
<stop offset="0.25" stop-color="#5B9462"/>
<stop offset="0.62" stop-color="#6AA275"/>
<stop offset="1" stop-color="#6DA479"/>
</linearGradient>
</defs>
</svg>
