<svg width="21" height="102" viewBox="0 0 21 102" fill="none" xmlns="http://www.w3.org/2000/svg">
<path d="M16.6588 4.76401C5.88768 19.1826 -9.53465 58.5898 14.9449 100.87" stroke="white" stroke-dasharray="2 2"/>
<path d="M18.1194 7.67838L18.6202 3.20362L14.1454 2.70281" stroke="white" stroke-linecap="round" stroke-dasharray="6 6"/>
<path d="M9.46711 50.6659C9.67434 51.1632 9.78696 51.7042 9.78707 52.2622L9.28707 52.2623C9.28712 52.4984 9.26427 52.7383 9.21659 52.9796C9.16892 53.2208 9.09879 53.4514 9.00894 53.6697L9.47132 53.86C9.25894 54.376 8.94899 54.8335 8.56817 55.2146L8.2145 54.8611C7.87364 55.2022 7.46817 55.4739 7.02305 55.6594L7.21538 56.1209C6.71809 56.3281 6.17708 56.4408 5.61906 56.4409L5.61896 55.9409C5.38289 55.9409 5.14298 55.9181 4.90173 55.8704C4.66049 55.8227 4.42992 55.7526 4.21161 55.6627L4.02132 56.1251C3.50529 55.9127 3.04779 55.6028 2.66671 55.222L3.02015 54.8683C2.67905 54.5274 2.4074 54.122 2.22191 53.6769L1.76038 53.8692C1.55315 53.3719 1.44053 52.8309 1.44043 52.2729L1.94043 52.2728C1.94038 52.0367 1.96323 51.7968 2.0109 51.5555C2.05858 51.3143 2.12871 51.0837 2.21856 50.8654L1.75618 50.6751C1.96855 50.1591 2.2785 49.7016 2.65932 49.3205L3.01299 49.6739C3.35386 49.3329 3.75932 49.0612 4.20444 48.8757L4.01211 48.4142C4.5094 48.207 5.05042 48.0943 5.60844 48.0942L5.60854 48.5942C5.84461 48.5942 6.08452 48.617 6.32577 48.6647C6.56701 48.7124 6.79758 48.7825 7.01589 48.8724L7.20617 48.41C7.72221 48.6224 8.17971 48.9323 8.56078 49.3131L8.20735 49.6668C8.54844 50.0077 8.82009 50.4131 9.00558 50.8582L9.46711 50.6659Z" stroke="white" stroke-dasharray="2 2"/>
</svg>
