<svg width="110" height="183" viewBox="0 0 110 183" fill="none" xmlns="http://www.w3.org/2000/svg">
<mask id="mask0_701_155" style="mask-type:alpha" maskUnits="userSpaceOnUse" x="0" y="0" width="110" height="183">
<path d="M5 0C2.23858 0 0 2.23858 0 5V177.245C0 180.006 2.23858 182.245 5 182.245H105C107.761 182.245 110 180.006 110 177.245V5C110 2.23858 107.761 0 105 0H5ZM54.7543 19.5093C52.2004 19.5093 50.1204 17.3855 50.1204 14.7615C50.1204 12.1374 52.1916 10.0135 54.7543 10.0135C57.3169 10.0135 59.3881 12.1374 59.3881 14.7615C59.3881 17.3855 57.3169 19.5093 54.7543 19.5093Z" fill="#FBEDD0"/>
</mask>
<g mask="url(#mask0_701_155)">
<path d="M5 0C2.23858 0 0 2.23858 0 5V177.245C0 180.006 2.23858 182.245 5 182.245H105C107.761 182.245 110 180.006 110 177.245V5C110 2.23858 107.761 0 105 0H5ZM54.7543 19.5093C52.2004 19.5093 50.1204 17.3855 50.1204 14.7615C50.1204 12.1374 52.1916 10.0135 54.7543 10.0135C57.3169 10.0135 59.3881 12.1374 59.3881 14.7615C59.3881 17.3855 57.3169 19.5093 54.7543 19.5093Z" fill="#FBEDD0"/>
</g>
</svg>
