<svg width="174" height="372" viewBox="0 0 174 372" fill="none" xmlns="http://www.w3.org/2000/svg">
<path d="M36 189.69C33.2386 189.69 31 191.929 31 194.69V366.935C31 369.696 33.2386 371.935 36 371.935H136C138.761 371.935 141 369.696 141 366.935V194.69C141 191.929 138.761 189.69 136 189.69H36ZM85.7543 209.199C83.2004 209.199 81.1204 207.075 81.1204 204.451C81.1204 201.827 83.1916 199.703 85.7543 199.703C88.3169 199.703 90.3881 201.827 90.3881 204.451C90.3881 207.075 88.3169 209.199 85.7543 209.199Z" fill="#FBEDD0"/>
<path d="M87.4657 199.958C87.1234 199.835 86.6583 199.712 86.1054 199.677C85.2102 199.625 84.4994 199.844 84.0693 200.011C84.1308 180.343 84.1922 160.667 84.2536 141H87.2638C87.334 160.659 87.3955 180.308 87.4657 199.967V199.958Z" fill="#744A22"/>
<path d="M134.125 108.742C133.381 108.362 131.879 110.91 128.299 114.951C125.666 117.924 125.798 117.309 118.483 124.418C114.152 128.635 111.607 131.278 111.169 130.897C110.564 130.377 115.486 125.428 115.049 118.758C114.918 116.803 114.239 113.553 112.642 113.15C111.855 112.952 110.849 113.45 105.642 119.988C103.702 122.426 102.725 123.642 101.187 125.765C96.9644 131.563 95.1486 134.8 94.5288 134.485C94.1496 134.294 94.7548 133.02 94.7475 130.919C94.7329 127.493 93.0849 124.952 91.3639 122.302C90.292 120.647 88.4762 118.246 85.6323 115.947V115.83C85.6323 115.83 85.5886 115.866 85.5667 115.888C85.5667 115.888 85.5521 115.881 85.5448 115.874V115.91C82.7738 118.304 81.0383 120.757 80.0174 122.448C78.3766 125.157 76.8088 127.749 76.8963 131.175C76.9474 133.269 77.5891 134.529 77.2172 134.734C76.6119 135.07 74.7087 131.893 70.3334 126.233C68.7364 124.169 67.7301 122.975 65.7247 120.603C60.3431 114.241 59.3295 113.772 58.5493 113.999C56.9669 114.453 56.3835 117.726 56.3106 119.681C56.0626 126.358 61.1088 131.146 60.5254 131.688C60.1025 132.083 57.4846 129.521 53.0437 125.443C45.5547 118.568 45.7005 119.183 42.9878 116.298C39.298 112.374 37.7302 109.87 37.001 110.28C36.1988 110.727 37.0228 114.336 37.9344 116.803C41.5294 126.599 51.1623 131.38 55.1657 133.372C62.786 137.157 69.6115 137.933 74.4462 138.431C79.0767 138.914 82.9852 138.826 85.8 138.643V138.673C88.6439 138.775 92.662 138.746 97.4164 138.102C102.244 137.443 109.062 136.447 116.595 132.413C120.554 130.297 130.071 125.201 133.389 115.295C134.227 112.799 134.949 109.16 134.132 108.742H134.125Z" fill="url(#paint0_linear_350_991)"/>
<path d="M86.2087 87.0343C96.8698 87.1002 103.608 75.7739 105.905 69.1845C108.792 60.8966 106.933 53.4873 106.386 51.3348C104.388 43.4935 99.9034 38.7052 97.9855 36.8529C93.53 32.5552 88.8703 30.7614 86.3472 30C83.8314 30.7541 79.1499 32.5406 74.6798 36.8529C72.7838 38.676 68.321 43.4788 66.2792 51.3348C65.7104 53.5312 63.8874 60.9113 66.7605 69.1845C67.0376 69.9899 73.1995 86.9538 86.2087 87.0343Z" fill="url(#paint1_linear_350_991)"/>
<path d="M106.343 43.6326C99.9403 35.8499 95.3608 32.8408 96.0609 31.5595C96.7318 30.3295 101.537 32.0427 102.529 32.4015C111.083 35.4546 116.938 41.568 120.767 46.488C124.858 51.7448 134.914 64.184 131.727 69.0235C129.933 71.7471 124.063 71.8862 120.745 69.3017C117.201 66.5342 118.987 62.5513 115.509 55.2884C114.036 52.2207 111.236 49.5923 106.343 43.6473V43.6326Z" fill="url(#paint2_linear_350_991)"/>
<path d="M66.534 43.6326C72.9366 35.8499 77.516 32.8408 76.816 31.5595C76.1451 30.3295 71.3396 32.0427 70.3478 32.4015C61.7941 35.4546 55.9385 41.568 52.1101 46.488C48.0192 51.7448 37.9634 64.184 41.1501 69.0235C42.9439 71.7471 48.8141 71.8862 52.132 69.3017C55.676 66.5342 53.8894 62.5513 57.3678 55.2884C58.8408 52.2207 61.641 49.5923 66.534 43.6473V43.6326Z" fill="url(#paint3_linear_350_991)"/>
<path d="M120.62 49.2335C115.296 40.5942 111.154 36.9408 112.015 35.7693C112.839 34.6492 117.382 37.0506 118.308 37.5411C126.38 41.8169 131.383 48.721 134.533 54.1609C137.895 59.9595 146.237 73.7532 142.438 78.0802C140.301 80.5109 134.475 79.8007 131.529 76.7477C128.386 73.4896 130.676 69.7996 128.174 62.1047C127.117 58.854 124.689 55.8375 120.62 49.2335Z" fill="url(#paint4_linear_350_991)"/>
<path d="M51.5931 49.2335C56.9164 40.5942 61.0584 36.9408 60.1979 35.7693C59.3739 34.6492 54.8309 37.0506 53.9048 37.5411C45.8324 41.8169 40.8299 48.721 37.6797 54.1609C34.318 59.9595 25.9758 73.7532 29.775 78.0802C31.9116 80.5109 37.7381 79.8007 40.6841 76.7477C43.827 73.4896 41.5373 69.7996 44.0385 62.1047C45.0958 58.854 47.5241 55.8375 51.5931 49.2335Z" fill="url(#paint5_linear_350_991)"/>
<path d="M89.5194 33.2581L89.4829 33.1922C89.4829 33.1922 89.5412 33.1922 89.5631 33.1922C89.5777 33.1702 89.5923 33.1483 89.6069 33.1336L89.636 33.1922C96.4541 33.8804 101.107 36.5162 103.564 38.2001C105.037 39.2105 117.58 48.0475 115.815 58.7515C115.246 62.1999 113.372 64.7478 111.914 66.3146C110.893 67.1053 106.999 69.9607 102.448 68.921C98.6345 68.0498 96.4906 64.9308 95.0103 62.7124C88.2942 52.6527 89.0381 38.5149 89.5194 33.2727V33.2581Z" fill="url(#paint6_linear_350_991)"/>
<path d="M81.2426 33.2581L81.279 33.1922C81.279 33.1922 81.2207 33.1922 81.1988 33.1922C81.1843 33.1702 81.1697 33.1483 81.1551 33.1336L81.1259 33.1922C74.3077 33.8804 69.6554 36.5162 67.1979 38.2001C65.7249 39.2105 53.1824 48.0475 54.9471 58.7515C55.5159 62.1999 57.3899 64.7478 58.8484 66.3146C59.8693 67.1053 63.7633 69.9607 68.3136 68.921C72.1274 68.0498 74.2713 64.9308 75.7516 62.7124C82.4677 52.6527 81.7239 38.5149 81.2426 33.2727V33.2581Z" fill="url(#paint7_linear_350_991)"/>
<path d="M45.7887 95.0733C57.0915 91.1709 65.04 80.9868 65.9005 69.4335C66.8412 56.8332 58.9437 48.1426 57.6676 46.7735L45.2636 94.7072H45.2855L58.0249 46.876C56.2602 47.3519 45.2564 50.4928 39.9185 61.7972C35.0255 72.1644 36.8704 85.2259 44.6511 94.7292" fill="url(#paint8_linear_350_991)"/>
<path d="M129.283 95.0733C117.98 91.1709 110.032 80.9868 109.171 69.4335C108.231 56.8332 116.128 48.1426 117.404 46.7735L129.808 94.7072H129.786L117.047 46.876C118.812 47.3519 129.815 50.4928 135.153 61.7972C140.046 72.1644 138.201 85.2259 130.421 94.7292" fill="url(#paint9_linear_350_991)"/>
<path d="M137.472 58.832C139.988 62.3609 143.379 68.2035 144.385 75.913C148.024 103.852 116.835 129.924 111.694 126.46C108.405 124.249 113.335 108.318 117.36 99.3491C121.641 89.8092 125.673 86.412 131.631 73.5921C134.46 67.5006 136.334 62.2804 137.472 58.8247V58.832Z" fill="url(#paint10_linear_350_991)"/>
<path d="M35.2074 58.8318C32.6916 62.595 29.3008 68.8329 28.2945 77.0549C24.6557 106.861 55.8442 134.675 60.9852 130.985C64.2739 128.627 59.3445 111.627 55.3192 102.065C51.0387 91.8883 47.0061 88.2641 41.0484 74.5876C38.2191 68.0935 36.345 62.5218 35.2074 58.8318Z" fill="url(#paint11_linear_350_991)"/>
<path d="M84.401 102.717C85.3417 102.519 99.3426 99.2466 104.097 84.8672C106.802 76.6818 105.118 69.126 104.578 67.0174C102.755 59.879 98.9634 55.6472 96.1778 52.5356C91.8171 47.6668 87.3397 45.0457 84.4958 43.6693H84.5541C81.7101 45.0457 77.2328 47.6668 72.8721 52.5356C70.0865 55.6399 66.2945 59.879 64.4715 67.0174C63.9319 69.126 62.2474 76.6818 64.9528 84.8672C69.7072 99.2466 83.7082 102.512 84.6489 102.717" fill="url(#paint12_linear_350_991)"/>
<path d="M58.71 61.7899C59.5923 62.2877 73.9433 70.7514 75.0517 88.4547C75.7882 100.125 70.4941 111.371 61.2331 117.88L58.71 61.7826V61.7899Z" fill="url(#paint13_linear_350_991)"/>
<path d="M58.9944 61.7021C58.1558 62.2879 44.607 72.1133 45.0445 89.8459C45.3289 101.538 51.5783 112.22 61.3717 117.799L59.0017 61.6948L58.9944 61.7021Z" fill="url(#paint14_linear_350_991)"/>
<path d="M112.883 59.4689C111.986 59.9374 97.3801 67.8959 95.7175 85.5553C94.6164 97.1891 99.5531 108.618 108.61 115.449L112.883 59.4689Z" fill="url(#paint15_linear_350_991)"/>
<path d="M112.599 59.381C113.416 59.996 126.651 70.2827 125.667 88.0007C125.018 99.6711 118.441 110.133 108.479 115.368L112.599 59.381Z" fill="url(#paint16_linear_350_991)"/>
<path d="M85.443 138.365C86.4639 138.146 101.668 134.595 106.831 118.985C109.77 110.097 107.939 101.897 107.356 99.6053C105.38 91.8518 101.26 87.2539 98.2334 83.8787C93.4935 78.5926 88.637 75.7446 85.5451 74.251H85.6108C82.5189 75.7446 77.6623 78.5926 72.9224 83.8787C69.8961 87.2539 65.7761 91.8518 63.7999 99.6053C63.2165 101.897 61.3862 110.097 64.3249 118.985C69.4878 134.595 84.6919 138.146 85.7128 138.365" fill="url(#paint17_linear_350_991)"/>
<path d="M46.5102 89.7579C43.9434 93.2502 39.5754 100.367 40.3556 108.904C42.2297 129.455 74.6944 139.983 77.0644 136.601C77.3269 136.227 77.1956 135.737 73.3162 128.672C68.4742 119.864 66.0532 115.456 64.2958 112.696C58.3819 103.427 51.9866 95.6883 46.5102 89.7579Z" fill="url(#paint18_linear_350_991)"/>
<path d="M123.115 89.0113C125.682 92.5036 130.05 99.6201 129.269 108.157C127.395 128.708 94.9305 139.237 92.5606 135.854C92.2981 135.481 92.4293 134.99 96.3088 127.925C101.151 119.117 103.572 114.71 105.329 111.949C111.243 102.68 117.638 94.9417 123.115 89.0113Z" fill="url(#paint19_linear_350_991)"/>
<path d="M125.667 126.585C122.283 127.193 122.37 128.43 116.435 131.373C108.428 135.349 101.457 136.491 98.1459 137.004C95.178 137.465 91.1455 137.875 86.3108 137.728C81.4396 137.846 77.3706 137.406 74.3881 136.916C71.092 136.381 64.1499 135.195 56.1796 131.161C50.273 128.174 50.3677 126.937 46.9988 126.307C39.218 124.843 31.029 129.946 31.3863 131.886C31.4519 132.23 31.8457 132.808 36.9356 133.409C44.5851 134.309 52.0741 133.965 55.9681 133.636C54.9764 133.877 53.8169 134.295 52.7085 134.983C51.9137 135.481 50.5282 136.396 50.5792 137.377C50.623 138.138 51.5855 139.5 58.411 140.789C59.0673 140.913 62.8957 141.521 67.3585 140.818C69.6118 140.459 70.7347 140.284 71.9671 139.727C73.3161 139.12 73.8485 138.57 74.7891 138.71C75.934 138.871 76.1309 139.808 77.706 141.111C79.0259 142.202 80.2291 142.656 82.2053 143.403C83.2189 143.791 84.5606 144.208 86.1649 144.508V144.53C86.1649 144.53 86.2087 144.523 86.2306 144.515C86.2452 144.515 86.2597 144.515 86.2816 144.523V144.508C87.8932 144.223 89.235 143.805 90.2559 143.432C92.232 142.7 93.4498 142.253 94.777 141.17C96.3666 139.874 96.5636 138.944 97.7157 138.79C98.6637 138.666 99.1887 139.207 100.538 139.83C101.777 140.401 102.9 140.584 105.154 140.957C109.631 141.697 113.474 141.111 114.13 140.986C120.985 139.749 121.955 138.395 122.006 137.633C122.071 136.652 120.686 135.722 119.891 135.224C118.775 134.522 117.623 134.104 116.632 133.855C120.533 134.214 128.036 134.609 135.708 133.76C140.812 133.196 141.221 132.618 141.286 132.274C141.651 130.334 133.476 125.179 125.667 126.585Z" fill="url(#paint20_linear_350_991)"/>
<path d="M131.923 110.06C131.223 109.702 129.808 112.103 126.432 115.91C123.953 118.707 124.077 118.129 117.193 124.828C113.109 128.796 110.718 131.293 110.302 130.934C109.733 130.443 114.371 125.78 113.955 119.505C113.831 117.667 113.197 114.6 111.687 114.226C110.944 114.043 109.996 114.505 105.095 120.662C103.265 122.961 102.353 124.103 100.895 126.102C96.9208 131.564 95.2072 134.609 94.6238 134.317C94.2665 134.133 94.8425 132.933 94.8279 130.956C94.8134 127.727 93.2601 125.34 91.6413 122.836C90.6277 121.277 88.9214 119.022 86.2379 116.855V116.745C86.2379 116.745 86.194 116.782 86.1722 116.796C86.1722 116.796 86.1577 116.789 86.1504 116.782V116.811C83.5398 119.066 81.9063 121.379 80.9437 122.968C79.3978 125.523 77.9248 127.961 77.9977 131.183C78.0414 133.16 78.6467 134.338 78.2967 134.529C77.7279 134.844 75.934 131.849 71.814 126.519C70.3045 124.572 69.3638 123.451 67.4751 121.218C62.4071 115.222 61.4518 114.79 60.7153 114.995C59.2277 115.42 58.6808 118.509 58.6079 120.347C58.3745 126.636 63.129 131.146 62.5748 131.651C62.1737 132.025 59.709 129.609 55.5306 125.772C48.4718 119.3 48.6176 119.871 46.0654 117.155C42.5943 113.458 41.114 111.1 40.4285 111.488C39.6701 111.905 40.4504 115.31 41.3036 117.631C44.6944 126.856 53.7659 131.359 57.5359 133.233C64.7187 136.799 71.1431 137.523 75.6934 137.999C80.0541 138.453 83.7366 138.373 86.391 138.197V138.226C89.0672 138.329 92.8518 138.299 97.3292 137.684C101.879 137.062 108.297 136.125 115.392 132.332C119.118 130.334 128.08 125.538 131.209 116.211C131.996 113.86 132.682 110.434 131.909 110.039L131.923 110.06Z" fill="url(#paint21_linear_350_991)"/>
<defs>
<linearGradient id="paint0_linear_350_991" x1="85.5813" y1="112.454" x2="85.6254" y2="135.195" gradientUnits="userSpaceOnUse">
<stop offset="0.01" stop-color="#4A874E"/>
<stop offset="0.25" stop-color="#5B9462"/>
<stop offset="0.62" stop-color="#6AA275"/>
<stop offset="1" stop-color="#6DA479"/>
</linearGradient>
<linearGradient id="paint1_linear_350_991" x1="86.2889" y1="36.9408" x2="86.3771" y2="80.2034" gradientUnits="userSpaceOnUse">
<stop offset="0.01" stop-color="#6977B9"/>
<stop offset="0.25" stop-color="#958FC4"/>
<stop offset="0.62" stop-color="#BDA7CF"/>
<stop offset="1" stop-color="#F3C2C7"/>
</linearGradient>
<linearGradient id="paint2_linear_350_991" x1="107.894" y1="37.9729" x2="124.221" y2="62.7766" gradientUnits="userSpaceOnUse">
<stop offset="0.01" stop-color="#6977B9"/>
<stop offset="0.25" stop-color="#958FC4"/>
<stop offset="0.62" stop-color="#BDA7CF"/>
<stop offset="1" stop-color="#F3C2C7"/>
</linearGradient>
<linearGradient id="paint3_linear_350_991" x1="64.9812" y1="37.9755" x2="48.6542" y2="62.7791" gradientUnits="userSpaceOnUse">
<stop offset="0.01" stop-color="#6977B9"/>
<stop offset="0.25" stop-color="#958FC4"/>
<stop offset="0.62" stop-color="#BDA7CF"/>
<stop offset="1" stop-color="#F3C2C7"/>
</linearGradient>
<linearGradient id="paint4_linear_350_991" x1="122.909" y1="43.8303" x2="135.74" y2="70.8507" gradientUnits="userSpaceOnUse">
<stop offset="0.01" stop-color="#6977B9"/>
<stop offset="0.25" stop-color="#958FC4"/>
<stop offset="0.62" stop-color="#BDA7CF"/>
<stop offset="1" stop-color="#F3C2C7"/>
</linearGradient>
<linearGradient id="paint5_linear_350_991" x1="49.2961" y1="43.8303" x2="36.4656" y2="70.8507" gradientUnits="userSpaceOnUse">
<stop offset="0.01" stop-color="#6977B9"/>
<stop offset="0.25" stop-color="#958FC4"/>
<stop offset="0.62" stop-color="#BDA7CF"/>
<stop offset="1" stop-color="#F3C2C7"/>
</linearGradient>
<linearGradient id="paint6_linear_350_991" x1="95.7015" y1="40.3963" x2="107.117" y2="60.5829" gradientUnits="userSpaceOnUse">
<stop offset="0.01" stop-color="#6977B9"/>
<stop offset="0.25" stop-color="#958FC4"/>
<stop offset="0.62" stop-color="#BDA7CF"/>
<stop offset="1" stop-color="#F3C2C7"/>
</linearGradient>
<linearGradient id="paint7_linear_350_991" x1="75.0538" y1="40.4481" x2="63.6452" y2="60.6353" gradientUnits="userSpaceOnUse">
<stop offset="0.01" stop-color="#6977B9"/>
<stop offset="0.25" stop-color="#958FC4"/>
<stop offset="0.62" stop-color="#BDA7CF"/>
<stop offset="1" stop-color="#F3C2C7"/>
</linearGradient>
<linearGradient id="paint8_linear_350_991" x1="55.9003" y1="54.1627" x2="47.4055" y2="86.2336" gradientUnits="userSpaceOnUse">
<stop offset="0.01" stop-color="#6977B9"/>
<stop offset="0.25" stop-color="#958FC4"/>
<stop offset="0.62" stop-color="#BDA7CF"/>
<stop offset="1" stop-color="#F3C2C7"/>
</linearGradient>
<linearGradient id="paint9_linear_350_991" x1="119.176" y1="54.1351" x2="127.666" y2="86.1998" gradientUnits="userSpaceOnUse">
<stop offset="0.01" stop-color="#6977B9"/>
<stop offset="0.25" stop-color="#958FC4"/>
<stop offset="0.62" stop-color="#BDA7CF"/>
<stop offset="1" stop-color="#F3C2C7"/>
</linearGradient>
<linearGradient id="paint10_linear_350_991" x1="127.722" y1="67.0833" x2="127.619" y2="118.663" gradientUnits="userSpaceOnUse">
<stop offset="0.01" stop-color="#6977B9"/>
<stop offset="0.25" stop-color="#958FC4"/>
<stop offset="0.62" stop-color="#BDA7CF"/>
<stop offset="1" stop-color="#F3C2C7"/>
</linearGradient>
<linearGradient id="paint11_linear_350_991" x1="44.9497" y1="67.6395" x2="45.06" y2="122.66" gradientUnits="userSpaceOnUse">
<stop offset="0.01" stop-color="#6977B9"/>
<stop offset="0.25" stop-color="#958FC4"/>
<stop offset="0.62" stop-color="#BDA7CF"/>
<stop offset="1" stop-color="#F3C2C7"/>
</linearGradient>
<linearGradient id="paint12_linear_350_991" x1="84.4812" y1="50.8589" x2="84.5694" y2="95.6444" gradientUnits="userSpaceOnUse">
<stop offset="0.01" stop-color="#6977B9"/>
<stop offset="0.25" stop-color="#958FC4"/>
<stop offset="0.62" stop-color="#BDA7CF"/>
<stop offset="1" stop-color="#F3C2C7"/>
</linearGradient>
<linearGradient id="paint13_linear_350_991" x1="66.6429" y1="72.9622" x2="68.5252" y2="110.318" gradientUnits="userSpaceOnUse">
<stop offset="0.01" stop-color="#6977B9"/>
<stop offset="0.25" stop-color="#958FC4"/>
<stop offset="0.62" stop-color="#BDA7CF"/>
<stop offset="1" stop-color="#F3C2C7"/>
</linearGradient>
<linearGradient id="paint14_linear_350_991" x1="51.9274" y1="73.5367" x2="53.5116" y2="110.914" gradientUnits="userSpaceOnUse">
<stop offset="0.01" stop-color="#6977B9"/>
<stop offset="0.25" stop-color="#958FC4"/>
<stop offset="0.62" stop-color="#BDA7CF"/>
<stop offset="1" stop-color="#F3C2C7"/>
</linearGradient>
<linearGradient id="paint15_linear_350_991" x1="104.656" y1="70.3832" x2="101.538" y2="107.648" gradientUnits="userSpaceOnUse">
<stop offset="0.01" stop-color="#6977B9"/>
<stop offset="0.25" stop-color="#958FC4"/>
<stop offset="0.62" stop-color="#BDA7CF"/>
<stop offset="1" stop-color="#F3C2C7"/>
</linearGradient>
<linearGradient id="paint16_linear_350_991" x1="119.307" y1="71.4421" x2="116.486" y2="108.738" gradientUnits="userSpaceOnUse">
<stop offset="0.01" stop-color="#6977B9"/>
<stop offset="0.25" stop-color="#958FC4"/>
<stop offset="0.62" stop-color="#BDA7CF"/>
<stop offset="1" stop-color="#F3C2C7"/>
</linearGradient>
<linearGradient id="paint17_linear_350_991" x1="85.5232" y1="82.0557" x2="85.6188" y2="130.692" gradientUnits="userSpaceOnUse">
<stop offset="0.01" stop-color="#6977B9"/>
<stop offset="0.25" stop-color="#958FC4"/>
<stop offset="0.62" stop-color="#BDA7CF"/>
<stop offset="1" stop-color="#F3C2C7"/>
</linearGradient>
<linearGradient id="paint18_linear_350_991" x1="58.6517" y1="95.5126" x2="58.7252" y2="131.564" gradientUnits="userSpaceOnUse">
<stop offset="0.01" stop-color="#6977B9"/>
<stop offset="0.25" stop-color="#958FC4"/>
<stop offset="0.62" stop-color="#BDA7CF"/>
<stop offset="1" stop-color="#F3C2C7"/>
</linearGradient>
<linearGradient id="paint19_linear_350_991" x1="110.973" y1="94.7733" x2="110.9" y2="130.824" gradientUnits="userSpaceOnUse">
<stop offset="0.01" stop-color="#6977B9"/>
<stop offset="0.25" stop-color="#958FC4"/>
<stop offset="0.62" stop-color="#BDA7CF"/>
<stop offset="1" stop-color="#F3C2C7"/>
</linearGradient>
<linearGradient id="paint20_linear_350_991" x1="86.3254" y1="125.97" x2="86.3621" y2="144.545" gradientUnits="userSpaceOnUse">
<stop offset="0.01" stop-color="#4A874E"/>
<stop offset="0.25" stop-color="#5B9462"/>
<stop offset="0.62" stop-color="#6AA275"/>
<stop offset="1" stop-color="#6DA479"/>
</linearGradient>
<linearGradient id="paint21_linear_350_991" x1="86.2014" y1="113.553" x2="86.2455" y2="134.975" gradientUnits="userSpaceOnUse">
<stop offset="0.01" stop-color="#4A874E"/>
<stop offset="0.25" stop-color="#5B9462"/>
<stop offset="0.62" stop-color="#6AA275"/>
<stop offset="1" stop-color="#6DA479"/>
</linearGradient>
</defs>
</svg>
