<svg width="174" height="372" viewBox="0 0 174 372" fill="none" xmlns="http://www.w3.org/2000/svg">
<path d="M39 189.69C36.2386 189.69 34 191.929 34 194.69V366.935C34 369.696 36.2386 371.935 39 371.935H139C141.761 371.935 144 369.696 144 366.935V194.69C144 191.929 141.761 189.69 139 189.69H39ZM88.7543 209.199C86.2004 209.199 84.1204 207.075 84.1204 204.451C84.1204 201.827 86.1916 199.703 88.7543 199.703C91.3169 199.703 93.3881 201.827 93.3881 204.451C93.3881 207.075 91.3169 209.199 88.7543 209.199Z" fill="#FBEDD0"/>
<path d="M90.4657 199.958C90.1234 199.835 89.6583 199.712 89.1054 199.677C88.2102 199.625 87.4994 199.844 87.0693 200.011C87.1308 180.343 87.1922 160.667 87.2536 141H90.2638C90.334 160.659 90.3955 180.308 90.4657 199.967V199.958Z" fill="#744A22"/>
<path d="M136.552 108.742C135.805 108.362 134.297 110.91 130.702 114.951C128.059 117.924 128.191 117.309 120.848 124.418C116.499 128.635 113.943 131.278 113.504 130.897C112.897 130.377 117.838 125.428 117.399 118.758C117.267 116.803 116.587 113.553 114.983 113.15C114.192 112.952 113.182 113.45 107.955 119.988C106.007 122.426 105.026 123.642 103.481 125.765C99.242 131.563 97.4189 134.8 96.7966 134.485C96.4159 134.294 97.0235 133.02 97.0162 130.919C97.0016 127.493 95.3469 124.952 93.619 122.302C92.5428 120.647 90.7197 118.246 87.8644 115.947V115.83C87.8644 115.83 87.8204 115.866 87.7985 115.888C87.7985 115.888 87.7838 115.881 87.7765 115.874V115.91C84.9944 118.304 83.2518 120.757 82.2268 122.448C80.5795 125.157 79.0054 127.749 79.0933 131.175C79.1445 133.269 79.7888 134.529 79.4154 134.734C78.8077 135.07 76.8968 131.893 72.5039 126.233C70.9005 124.169 69.8902 122.975 67.8767 120.603C62.4735 114.241 61.4558 113.772 60.6724 113.999C59.0836 114.453 58.4979 117.726 58.4247 119.681C58.1758 126.358 63.2422 131.146 62.6565 131.688C62.2319 132.083 59.6035 129.521 55.1447 125.443C47.6255 118.568 47.772 119.183 45.0484 116.298C41.3437 112.374 39.7696 109.87 39.0374 110.28C38.2321 110.727 39.0594 114.336 39.9746 116.803C43.5841 126.599 53.2557 131.38 57.2752 133.372C64.9262 137.157 71.7791 137.933 76.6332 138.431C81.2823 138.914 85.2067 138.826 88.0328 138.643V138.673C90.8881 138.775 94.9223 138.746 99.6959 138.102C104.543 137.443 111.388 136.447 118.951 132.413C122.927 130.297 132.481 125.201 135.813 115.295C136.655 112.799 137.38 109.16 136.56 108.742H136.552Z" fill="url(#paint0_linear_350_989)"/>
<path d="M88.4426 87.0343C99.1466 87.1002 105.912 75.7739 108.218 69.1845C111.117 60.8966 109.25 53.4873 108.701 51.3348C106.695 43.4935 102.192 38.7052 100.267 36.8529C95.7934 32.5552 91.115 30.7614 88.5817 30C86.0558 30.7541 81.3554 32.5406 76.8674 36.8529C74.9638 38.676 70.4831 43.4788 68.433 51.3348C67.862 53.5312 66.0316 60.9113 68.9162 69.1845C69.1945 69.9899 75.3811 86.9538 88.4426 87.0343Z" fill="url(#paint1_linear_350_989)"/>
<path d="M108.65 43.6326C102.222 35.8499 97.6239 32.8408 98.3268 31.5595C99.0004 30.3295 103.825 32.0427 104.821 32.4015C113.409 35.4546 119.288 41.568 123.132 46.488C127.239 51.7448 137.336 64.184 134.136 69.0235C132.335 71.7471 126.441 71.8862 123.11 69.3017C119.552 66.5342 121.346 62.5513 117.853 55.2884C116.374 52.2207 113.563 49.5923 108.65 43.6473V43.6326Z" fill="url(#paint2_linear_350_989)"/>
<path d="M68.6825 43.6326C75.1108 35.8499 79.7087 32.8408 79.0058 31.5595C78.3322 30.3295 73.5074 32.0427 72.5117 32.4015C63.9236 35.4546 58.0445 41.568 54.2007 46.488C50.0933 51.7448 39.997 64.184 43.1965 69.0235C44.9976 71.7471 50.8913 71.8862 54.2226 69.3017C57.7809 66.5342 55.9871 62.5513 59.4794 55.2884C60.9584 52.2207 63.7698 49.5923 68.6825 43.6473V43.6326Z" fill="url(#paint3_linear_350_989)"/>
<path d="M122.985 49.2335C117.64 40.5942 113.482 36.9408 114.345 35.7693C115.173 34.6492 119.734 37.0506 120.664 37.5411C128.769 41.8169 133.791 48.721 136.954 54.1609C140.329 59.9595 148.705 73.7532 144.891 78.0802C142.746 80.5109 136.896 79.8007 133.938 76.7477C130.782 73.4896 133.081 69.7996 130.57 62.1047C129.508 58.854 127.07 55.8375 122.985 49.2335Z" fill="url(#paint4_linear_350_989)"/>
<path d="M53.6799 49.2335C59.0246 40.5942 63.1832 36.9408 62.3192 35.7693C61.4919 34.6492 56.9306 37.0506 56.0008 37.5411C47.8959 41.8169 42.8734 48.721 39.7105 54.1609C36.3353 59.9595 27.9596 73.7532 31.774 78.0802C33.9192 80.5109 39.7691 79.8007 42.727 76.7477C45.8825 73.4896 43.5836 69.7996 46.0949 62.1047C47.1565 58.854 49.5945 55.8375 53.6799 49.2335Z" fill="url(#paint5_linear_350_989)"/>
<path d="M91.7598 33.2581L91.7232 33.1922C91.7232 33.1922 91.7818 33.1922 91.8037 33.1922C91.8184 33.1702 91.833 33.1483 91.8477 33.1336L91.8769 33.1922C98.7225 33.8804 103.394 36.5162 105.861 38.2001C107.34 39.2105 119.933 48.0475 118.161 58.7515C117.59 62.1999 115.708 64.7478 114.244 66.3146C113.219 67.1053 109.309 69.9607 104.741 68.921C100.912 68.0498 98.7591 64.9308 97.2729 62.7124C90.5298 52.6527 91.2766 38.5149 91.7598 33.2727V33.2581Z" fill="url(#paint6_linear_350_989)"/>
<path d="M83.4496 33.2581L83.4862 33.1922C83.4862 33.1922 83.4276 33.1922 83.4057 33.1922C83.391 33.1702 83.3764 33.1483 83.3618 33.1336L83.3325 33.1922C76.4869 33.8804 71.8158 36.5162 69.3485 38.2001C67.8695 39.2105 55.2766 48.0475 57.0484 58.7515C57.6194 62.1999 59.5011 64.7478 60.9654 66.3146C61.9904 67.1053 65.9 69.9607 70.4686 68.921C74.2978 68.0498 76.4503 64.9308 77.9366 62.7124C84.6796 52.6527 83.9328 38.5149 83.4496 33.2727V33.2581Z" fill="url(#paint7_linear_350_989)"/>
<path d="M47.8603 95.0733C59.2086 91.1709 67.189 80.9867 68.0529 69.4334C68.9974 56.8332 61.0682 48.1426 59.787 46.7735L47.3332 94.7072H47.3551L60.1458 46.876C58.374 47.3519 47.3258 50.4928 41.9665 61.7971C37.0538 72.1643 38.9061 85.2259 46.7181 94.7291" fill="url(#paint8_linear_350_989)"/>
<path d="M131.69 95.0733C120.342 91.1709 112.362 80.9867 111.498 69.4334C110.553 56.8332 118.483 48.1426 119.764 46.7735L132.218 94.7072H132.196L119.405 46.876C121.177 47.3519 132.225 50.4928 137.584 61.7971C142.497 72.1643 140.645 85.2259 132.833 94.7291" fill="url(#paint9_linear_350_989)"/>
<path d="M139.912 58.832C142.438 62.3609 145.842 68.2035 146.853 75.913C150.506 103.852 119.192 129.924 114.031 126.46C110.729 124.249 115.678 108.318 119.719 99.349C124.017 89.8092 128.066 86.412 134.047 73.5921C136.888 67.5006 138.77 62.2804 139.912 58.8247V58.832Z" fill="url(#paint10_linear_350_989)"/>
<path d="M37.2364 58.8318C34.7105 62.595 31.306 68.8329 30.2957 77.0549C26.6422 106.861 57.9562 134.675 63.1178 130.985C66.4198 128.627 61.4705 111.627 57.429 102.065C53.1313 91.8882 49.0826 88.2641 43.1009 74.5876C40.2602 68.0935 38.3786 62.5218 37.2364 58.8318Z" fill="url(#paint11_linear_350_989)"/>
<path d="M86.6277 102.717C87.5722 102.519 101.629 99.2466 106.403 84.8672C109.119 76.6818 107.428 69.126 106.886 67.0174C105.056 59.879 101.249 55.6472 98.4519 52.5356C94.0737 47.6668 89.5783 45.0457 86.7229 43.6693H86.7815C83.9261 45.0457 79.4307 47.6668 75.0525 52.5356C72.2557 55.6399 68.4485 59.879 66.6181 67.0174C66.0763 69.126 64.3851 76.6818 67.1014 84.8672C71.875 99.2466 85.9322 102.512 86.8766 102.717" fill="url(#paint12_linear_350_989)"/>
<path d="M60.8252 61.7899C61.7111 62.2877 76.1197 70.7514 77.2326 88.4547C77.9721 100.125 72.6567 111.371 63.3584 117.88L60.8252 61.7826V61.7899Z" fill="url(#paint13_linear_350_989)"/>
<path d="M61.1111 61.7019C60.2692 62.2876 46.6658 72.113 47.1051 89.8457C47.3907 101.538 53.6651 112.22 63.4979 117.799L61.1184 61.6946L61.1111 61.7019Z" fill="url(#paint14_linear_350_989)"/>
<path d="M115.218 59.4689C114.317 59.9374 99.6521 67.8959 97.9828 85.5553C96.8772 97.1891 101.834 108.618 110.927 115.449L115.218 59.4689Z" fill="url(#paint15_linear_350_989)"/>
<path d="M114.939 59.3811C115.759 59.9961 129.048 70.2828 128.059 88.0008C127.408 99.6712 120.804 110.134 110.803 115.368L114.939 59.3811Z" fill="url(#paint16_linear_350_989)"/>
<path d="M87.6673 138.365C88.6923 138.145 103.958 134.595 109.141 118.985C112.092 110.097 110.254 101.897 109.668 99.6053C107.684 91.8518 103.548 87.2539 100.509 83.8787C95.7502 78.5926 90.8741 75.7446 87.7698 74.251H87.8357C84.7314 75.7446 79.8553 78.5926 75.0963 83.8787C72.0579 87.2539 67.9212 91.8518 65.9371 99.6053C65.3514 101.897 63.5137 110.097 66.4643 118.985C71.6479 134.595 86.9131 138.145 87.9382 138.365" fill="url(#paint17_linear_350_989)"/>
<path d="M48.5851 89.7579C46.008 93.2502 41.6224 100.367 42.4058 108.904C44.2874 129.455 76.8827 139.983 79.2622 136.601C79.5257 136.227 79.3939 135.737 75.4989 128.672C70.6374 119.864 68.2067 115.456 66.4422 112.696C60.5045 103.427 54.0836 95.6883 48.5851 89.7579Z" fill="url(#paint18_linear_350_989)"/>
<path d="M125.498 89.0113C128.075 92.5036 132.46 99.6201 131.677 108.157C129.795 128.708 97.2002 139.237 94.8207 135.854C94.5571 135.481 94.6889 134.99 98.5839 127.925C103.445 119.117 105.876 114.71 107.641 111.949C113.578 102.68 119.999 94.9417 125.498 89.0113Z" fill="url(#paint19_linear_350_989)"/>
<path d="M128.059 126.585C124.662 127.193 124.75 128.43 118.79 131.373C110.751 135.349 103.752 136.491 100.428 137.004C97.4483 137.465 93.3995 137.875 88.5454 137.728C83.6546 137.846 79.5693 137.406 76.5748 136.916C73.2655 136.381 66.2954 135.195 58.293 131.161C52.3626 128.174 52.4578 126.937 49.0753 126.307C41.2633 124.843 33.0413 129.946 33.4 131.886C33.4659 132.23 33.8613 132.808 38.9717 133.409C46.6519 134.309 54.1711 133.965 58.0807 133.636C57.085 133.877 55.9209 134.295 54.808 134.983C54.01 135.481 52.6189 136.396 52.6701 137.377C52.7141 138.138 53.6805 139.5 60.5334 140.789C61.1923 140.913 65.0361 141.521 69.5169 140.818C71.7792 140.459 72.9067 140.284 74.144 139.727C75.4985 139.12 76.033 138.57 76.9775 138.71C78.1269 138.871 78.3246 139.808 79.906 141.111C81.2312 142.202 82.4393 142.656 84.4234 143.403C85.4411 143.791 86.7882 144.208 88.3989 144.508V144.53C88.3989 144.53 88.4429 144.523 88.4648 144.515C88.4795 144.515 88.4941 144.515 88.5161 144.523V144.508C90.1342 144.223 91.4813 143.805 92.5063 143.432C94.4904 142.7 95.7131 142.253 97.0456 141.17C98.6417 139.874 98.8394 138.944 99.9962 138.79C100.948 138.666 101.475 139.207 102.83 139.83C104.074 140.401 105.202 140.584 107.464 140.957C111.959 141.697 115.818 141.111 116.477 140.986C123.359 139.749 124.333 138.395 124.384 137.633C124.45 136.652 123.059 135.722 122.261 135.224C121.141 134.522 119.984 134.104 118.988 133.855C122.905 134.214 130.439 134.609 138.141 133.76C143.266 133.196 143.676 132.618 143.742 132.274C144.108 130.334 135.901 125.179 128.059 126.585Z" fill="url(#paint20_linear_350_989)"/>
<path d="M134.341 110.06C133.638 109.702 132.218 112.103 128.828 115.91C126.339 118.707 126.463 118.129 119.552 124.828C115.452 128.796 113.05 131.293 112.633 130.934C112.062 130.443 116.718 125.78 116.301 119.505C116.177 117.667 115.54 114.6 114.024 114.226C113.277 114.043 112.325 114.505 107.405 120.662C105.568 122.961 104.653 124.103 103.188 126.102C99.198 131.564 97.4775 134.609 96.8918 134.317C96.533 134.133 97.1114 132.933 97.0968 130.956C97.0821 127.727 95.5227 125.34 93.8973 122.836C92.8796 121.277 91.1664 119.022 88.4721 116.855V116.745C88.4721 116.745 88.4282 116.782 88.4062 116.796C88.4062 116.796 88.3916 116.789 88.3842 116.782V116.811C85.7632 119.066 84.1231 121.379 83.1567 122.968C81.6045 125.523 80.1256 127.961 80.1988 131.183C80.2427 133.16 80.8504 134.338 80.499 134.529C79.9279 134.844 78.1268 131.849 73.9902 126.519C72.4747 124.572 71.5302 123.451 69.6339 121.218C64.5455 115.222 63.5864 114.79 62.8469 114.995C61.3533 115.42 60.8042 118.509 60.731 120.347C60.4967 126.636 65.2703 131.146 64.7139 131.651C64.3112 132.025 61.8365 129.609 57.6413 125.772C50.5541 119.3 50.7006 119.871 48.1381 117.155C44.653 113.458 43.1668 111.1 42.4786 111.488C41.7171 111.905 42.5005 115.31 43.3572 117.631C46.7616 126.856 55.8695 131.359 59.6547 133.233C66.8664 136.798 73.3166 137.523 77.8852 137.999C82.2635 138.453 85.9608 138.373 88.6258 138.197V138.226C91.3128 138.329 95.1126 138.299 99.608 137.684C104.177 137.062 110.62 136.125 117.743 132.332C121.485 130.334 130.483 125.538 133.624 116.211C134.414 113.86 135.103 110.434 134.327 110.039L134.341 110.06Z" fill="url(#paint21_linear_350_989)"/>
<defs>
<linearGradient id="paint0_linear_350_989" x1="87.8058" y1="112.454" x2="87.8571" y2="135.195" gradientUnits="userSpaceOnUse">
<stop offset="0.01" stop-color="#4A874E"/>
<stop offset="0.25" stop-color="#5B9462"/>
<stop offset="0.62" stop-color="#6AA275"/>
<stop offset="1" stop-color="#6DA479"/>
</linearGradient>
<linearGradient id="paint1_linear_350_989" x1="88.5232" y1="36.9408" x2="88.611" y2="80.2034" gradientUnits="userSpaceOnUse">
<stop offset="0.01" stop-color="#9FD1A4"/>
<stop offset="0.25" stop-color="#B7D99A"/>
<stop offset="0.62" stop-color="#DBE68E"/>
<stop offset="1" stop-color="#ECED87"/>
</linearGradient>
<linearGradient id="paint2_linear_350_989" x1="110.215" y1="37.9705" x2="126.516" y2="62.8343" gradientUnits="userSpaceOnUse">
<stop offset="0.01" stop-color="#9FD1A4"/>
<stop offset="0.25" stop-color="#B7D99A"/>
<stop offset="0.62" stop-color="#DBE68E"/>
<stop offset="1" stop-color="#ECED87"/>
</linearGradient>
<linearGradient id="paint3_linear_350_989" x1="67.1243" y1="37.9696" x2="50.8224" y2="62.8406" gradientUnits="userSpaceOnUse">
<stop offset="0.01" stop-color="#9FD1A4"/>
<stop offset="0.25" stop-color="#B7D99A"/>
<stop offset="0.62" stop-color="#DBE68E"/>
<stop offset="1" stop-color="#ECED87"/>
</linearGradient>
<linearGradient id="paint4_linear_350_989" x1="125.291" y1="43.8303" x2="138.089" y2="70.8905" gradientUnits="userSpaceOnUse">
<stop offset="0.01" stop-color="#9FD1A4"/>
<stop offset="0.25" stop-color="#B7D99A"/>
<stop offset="0.62" stop-color="#DBE68E"/>
<stop offset="1" stop-color="#ECED87"/>
</linearGradient>
<linearGradient id="paint5_linear_350_989" x1="51.3736" y1="43.8303" x2="38.583" y2="70.8905" gradientUnits="userSpaceOnUse">
<stop offset="0.01" stop-color="#9FD1A4"/>
<stop offset="0.25" stop-color="#B7D99A"/>
<stop offset="0.62" stop-color="#DBE68E"/>
<stop offset="1" stop-color="#ECED87"/>
</linearGradient>
<linearGradient id="paint6_linear_350_989" x1="97.9756" y1="40.4283" x2="109.361" y2="60.6546" gradientUnits="userSpaceOnUse">
<stop offset="0.01" stop-color="#9FD1A4"/>
<stop offset="0.25" stop-color="#B7D99A"/>
<stop offset="0.62" stop-color="#DBE68E"/>
<stop offset="1" stop-color="#ECED87"/>
</linearGradient>
<linearGradient id="paint7_linear_350_989" x1="77.2374" y1="40.4156" x2="65.8525" y2="60.6419" gradientUnits="userSpaceOnUse">
<stop offset="0.01" stop-color="#9FD1A4"/>
<stop offset="0.25" stop-color="#B7D99A"/>
<stop offset="0.62" stop-color="#DBE68E"/>
<stop offset="1" stop-color="#ECED87"/>
</linearGradient>
<linearGradient id="paint8_linear_350_989" x1="58.0068" y1="54.142" x2="49.5456" y2="86.2236" gradientUnits="userSpaceOnUse">
<stop offset="0.01" stop-color="#9FD1A4"/>
<stop offset="0.25" stop-color="#B7D99A"/>
<stop offset="0.62" stop-color="#DBE68E"/>
<stop offset="1" stop-color="#ECED87"/>
</linearGradient>
<linearGradient id="paint9_linear_350_989" x1="121.537" y1="54.1558" x2="130.002" y2="86.2435" gradientUnits="userSpaceOnUse">
<stop offset="0.01" stop-color="#9FD1A4"/>
<stop offset="0.25" stop-color="#B7D99A"/>
<stop offset="0.62" stop-color="#DBE68E"/>
<stop offset="1" stop-color="#ECED87"/>
</linearGradient>
<linearGradient id="paint10_linear_350_989" x1="130.123" y1="67.0833" x2="130.021" y2="118.663" gradientUnits="userSpaceOnUse">
<stop offset="0.01" stop-color="#9FD1A4"/>
<stop offset="0.25" stop-color="#B7D99A"/>
<stop offset="0.62" stop-color="#DBE68E"/>
<stop offset="1" stop-color="#ECED87"/>
</linearGradient>
<linearGradient id="paint11_linear_350_989" x1="47.0179" y1="67.6395" x2="47.1277" y2="122.66" gradientUnits="userSpaceOnUse">
<stop offset="0.01" stop-color="#9FD1A4"/>
<stop offset="0.25" stop-color="#B7D99A"/>
<stop offset="0.62" stop-color="#DBE68E"/>
<stop offset="1" stop-color="#ECED87"/>
</linearGradient>
<linearGradient id="paint12_linear_350_989" x1="86.701" y1="50.8589" x2="86.7961" y2="95.6444" gradientUnits="userSpaceOnUse">
<stop offset="0.01" stop-color="#9FD1A4"/>
<stop offset="0.25" stop-color="#B7D99A"/>
<stop offset="0.62" stop-color="#DBE68E"/>
<stop offset="1" stop-color="#ECED87"/>
</linearGradient>
<linearGradient id="paint13_linear_350_989" x1="68.7917" y1="72.9796" x2="70.6665" y2="110.336" gradientUnits="userSpaceOnUse">
<stop offset="0.01" stop-color="#9FD1A4"/>
<stop offset="0.25" stop-color="#B7D99A"/>
<stop offset="0.62" stop-color="#DBE68E"/>
<stop offset="1" stop-color="#ECED87"/>
</linearGradient>
<linearGradient id="paint14_linear_350_989" x1="54.0241" y1="73.5455" x2="55.6015" y2="110.916" gradientUnits="userSpaceOnUse">
<stop offset="0.01" stop-color="#9FD1A4"/>
<stop offset="0.25" stop-color="#B7D99A"/>
<stop offset="0.62" stop-color="#DBE68E"/>
<stop offset="1" stop-color="#ECED87"/>
</linearGradient>
<linearGradient id="paint15_linear_350_989" x1="106.962" y1="70.3566" x2="103.856" y2="107.631" gradientUnits="userSpaceOnUse">
<stop offset="0.01" stop-color="#9FD1A4"/>
<stop offset="0.25" stop-color="#B7D99A"/>
<stop offset="0.62" stop-color="#DBE68E"/>
<stop offset="1" stop-color="#ECED87"/>
</linearGradient>
<linearGradient id="paint16_linear_350_989" x1="121.672" y1="71.4319" x2="118.862" y2="108.73" gradientUnits="userSpaceOnUse">
<stop offset="0.01" stop-color="#9FD1A4"/>
<stop offset="0.25" stop-color="#B7D99A"/>
<stop offset="0.62" stop-color="#DBE68E"/>
<stop offset="1" stop-color="#ECED87"/>
</linearGradient>
<linearGradient id="paint17_linear_350_989" x1="87.7551" y1="82.0557" x2="87.8503" y2="130.692" gradientUnits="userSpaceOnUse">
<stop offset="0.01" stop-color="#9FD1A4"/>
<stop offset="0.25" stop-color="#B7D99A"/>
<stop offset="0.62" stop-color="#DBE68E"/>
<stop offset="1" stop-color="#ECED87"/>
</linearGradient>
<linearGradient id="paint18_linear_350_989" x1="60.7754" y1="95.5126" x2="60.8486" y2="131.564" gradientUnits="userSpaceOnUse">
<stop offset="0.01" stop-color="#9FD1A4"/>
<stop offset="0.25" stop-color="#B7D99A"/>
<stop offset="0.62" stop-color="#DBE68E"/>
<stop offset="1" stop-color="#ECED87"/>
</linearGradient>
<linearGradient id="paint19_linear_350_989" x1="113.307" y1="94.7733" x2="113.234" y2="130.824" gradientUnits="userSpaceOnUse">
<stop offset="0.01" stop-color="#9FD1A4"/>
<stop offset="0.25" stop-color="#B7D99A"/>
<stop offset="0.62" stop-color="#DBE68E"/>
<stop offset="1" stop-color="#ECED87"/>
</linearGradient>
<linearGradient id="paint20_linear_350_989" x1="88.56" y1="125.97" x2="88.5966" y2="144.545" gradientUnits="userSpaceOnUse">
<stop offset="0.01" stop-color="#4A874E"/>
<stop offset="0.25" stop-color="#5B9462"/>
<stop offset="0.62" stop-color="#6AA275"/>
<stop offset="1" stop-color="#6DA479"/>
</linearGradient>
<linearGradient id="paint21_linear_350_989" x1="88.4355" y1="113.553" x2="88.4794" y2="134.975" gradientUnits="userSpaceOnUse">
<stop offset="0.01" stop-color="#4A874E"/>
<stop offset="0.25" stop-color="#5B9462"/>
<stop offset="0.62" stop-color="#6AA275"/>
<stop offset="1" stop-color="#6DA479"/>
</linearGradient>
</defs>
</svg>
