<svg width="102" height="31" viewBox="0 0 102 31" fill="none" xmlns="http://www.w3.org/2000/svg">
<path d="M101.027 0.0659552C100.258 -0.325796 98.7062 2.29591 95.0071 6.45449C92.2875 9.51316 92.4231 8.88033 84.8668 16.1955C80.3918 20.5349 77.7625 23.2546 77.3105 22.8628C76.6852 22.328 81.7705 17.2352 81.3184 10.372C81.1828 8.36052 80.4822 5.01555 78.8323 4.60119C78.0187 4.39778 76.979 4.91009 71.6 11.6377C69.596 14.1464 68.5865 15.397 66.9969 17.5817C62.6349 23.5484 60.7591 26.8783 60.1187 26.5543C59.7269 26.3584 60.3522 25.0476 60.3447 22.8854C60.3296 19.3597 58.627 16.7455 56.8491 14.0183C55.7416 12.3157 53.8657 9.84463 50.9276 7.47906V7.35854C50.9276 7.35854 50.8824 7.39622 50.8598 7.41882C50.8598 7.41882 50.8447 7.41128 50.8372 7.40374V7.4414C47.9744 9.90491 46.1814 12.4287 45.1267 14.169C43.4316 16.9564 41.8119 19.6234 41.9023 23.1491C41.955 25.3038 42.618 26.5995 42.2338 26.8105C41.6085 27.157 39.6422 23.8874 35.122 18.0639C33.4721 15.9394 32.4325 14.7114 30.3607 12.2705C24.8008 5.72375 23.7537 5.24158 22.9476 5.47512C21.3128 5.94221 20.7101 9.30977 20.6347 11.3213C20.3786 18.192 25.5919 23.119 24.9892 23.6765C24.5522 24.0833 21.8477 21.4465 17.2596 17.2503C9.52257 10.1761 9.67324 10.809 6.87071 7.84071C3.05868 3.80266 1.43894 1.22612 0.685573 1.64801C-0.143131 2.10756 0.708173 5.82169 1.64988 8.36053C5.36398 18.4406 15.316 23.3601 19.4519 25.4092C27.3246 29.3041 34.3761 30.1027 39.371 30.615C44.1548 31.1122 48.1929 31.0218 51.1009 30.8334V30.8636C54.039 30.9691 58.1901 30.9389 63.102 30.276C68.0893 29.5979 75.1333 28.5733 82.9156 24.4223C87.0064 22.245 96.8378 17.0017 100.266 6.8086C101.132 4.23962 101.878 0.495374 101.034 0.0659552H101.027Z" fill="url(#paint0_linear_111_2221)"/>
<defs>
<linearGradient id="paint0_linear_111_2221" x1="50.8749" y1="3.87799" x2="50.9201" y2="27.2851" gradientUnits="userSpaceOnUse">
<stop offset="0.01" stop-color="#4A874E"/>
<stop offset="0.25" stop-color="#5A9362"/>
<stop offset="0.62" stop-color="#6AA275"/>
<stop offset="1" stop-color="#6DA479"/>
</linearGradient>
</defs>
</svg>
