<svg width="317" height="812" viewBox="0 0 317 812" fill="none" xmlns="http://www.w3.org/2000/svg">
<path d="M5.00001 288C2.23858 288 0 290.239 0 293V806.761C0 809.522 2.23858 811.761 5 811.761H311.133C313.894 811.761 316.133 809.522 316.133 806.761V293C316.133 290.239 313.894 288 311.133 288H5.00001ZM157.36 344.069C150.021 344.069 144.043 337.965 144.043 330.423C144.043 322.882 149.995 316.778 157.36 316.778C164.725 316.778 170.677 322.882 170.677 330.423C170.677 337.965 164.725 344.069 157.36 344.069Z" fill="#FBEDD0"/>
<path d="M160.477 317.104C159.914 316.902 159.148 316.7 158.239 316.642C156.766 316.556 155.597 316.916 154.89 317.191C154.991 284.838 155.092 252.471 155.193 220.118H160.145C160.26 252.456 160.361 284.78 160.477 317.119V317.104Z" fill="#744A21"/>
<path d="M252.105 155.893C250.633 155.139 247.659 160.183 240.57 168.184C235.359 174.069 235.618 172.852 221.138 186.926C212.563 195.276 207.524 200.508 206.658 199.754C205.46 198.725 215.205 188.927 214.339 175.722C214.079 171.852 212.736 165.416 209.574 164.619C208.015 164.227 206.023 165.213 195.715 178.157C191.875 182.984 189.94 185.39 186.894 189.594C178.535 201.074 174.94 207.48 173.713 206.857C172.962 206.48 174.161 203.958 174.146 199.798C174.117 193.014 170.855 187.985 167.447 182.737C165.325 179.462 161.73 174.707 156.1 170.156V169.924C156.1 169.924 156.013 169.996 155.97 170.04C155.97 170.04 155.941 170.025 155.927 170.011V170.083C150.441 174.823 147.005 179.679 144.984 183.027C141.735 188.39 138.631 193.522 138.805 200.305C138.906 204.451 140.176 206.944 139.44 207.35C138.242 208.017 134.474 201.726 125.812 190.521C122.65 186.434 120.658 184.071 116.687 179.375C106.033 166.778 104.026 165.851 102.482 166.3C99.3487 167.199 98.1938 173.678 98.0494 177.548C97.5586 190.768 107.549 200.247 106.394 201.32C105.557 202.103 100.374 197.029 91.5817 188.956C76.755 175.345 77.0437 176.563 71.6732 170.852C64.3681 163.082 61.2643 158.125 59.8206 158.937C58.2325 159.821 59.8638 166.967 61.6685 171.852C68.7858 191.246 87.857 200.711 95.7828 204.654C110.869 212.148 124.382 213.684 133.954 214.67C143.121 215.626 150.859 215.452 156.432 215.09V215.148C162.062 215.351 170.017 215.293 179.43 214.017C188.987 212.713 202.486 210.742 217.399 202.755C225.238 198.566 244.078 188.477 250.647 168.866C252.307 163.923 253.737 156.719 252.12 155.893H252.105Z" fill="url(#paint0_linear_363_3619)"/>
<path d="M157.241 112.916C178.348 113.046 191.688 90.6224 196.235 77.5769C201.952 61.1686 198.271 46.4998 197.188 42.2383C193.233 26.7142 184.354 17.2345 180.557 13.5673C171.736 5.05874 162.511 1.50747 157.516 0C152.535 1.49298 143.266 5.02975 134.417 13.5673C130.663 17.1765 121.828 26.6852 117.785 42.2383C116.659 46.5867 113.05 61.1976 118.738 77.5769C119.287 79.1714 131.486 112.756 157.241 112.916Z" fill="url(#paint1_linear_363_3619)"/>
<path d="M197.101 26.9897C184.426 11.5816 175.359 5.62416 176.745 3.08755C178.074 0.652399 187.587 4.04422 189.551 4.75447C206.485 10.7989 218.078 22.9021 225.658 32.6427C233.757 43.0501 253.665 67.677 247.356 77.2582C243.805 82.6503 232.183 82.9257 225.614 77.809C218.598 72.3299 222.135 64.4446 215.249 50.0657C212.332 43.9923 206.788 38.7886 197.101 27.0187V26.9897Z" fill="url(#paint2_linear_363_3619)"/>
<path d="M118.29 26.9897C130.965 11.5816 140.031 5.62416 138.646 3.08755C137.317 0.652399 127.803 4.04422 125.84 4.75447C108.906 10.7989 97.3127 22.9021 89.7334 32.6427C81.6343 43.0501 61.7259 67.677 68.0348 77.2582C71.5863 82.6503 83.2079 82.9257 89.7767 77.809C96.7931 72.3299 93.256 64.4446 100.142 50.0657C103.059 43.9923 108.602 38.7886 118.29 27.0187V26.9897Z" fill="url(#paint3_linear_363_3619)"/>
<path d="M225.367 38.0784C214.828 20.9744 206.628 13.7414 208.331 11.4222C209.963 9.20447 218.957 13.9588 220.79 14.93C236.772 23.395 246.676 37.0638 252.912 47.8335C259.568 59.3135 276.084 86.622 268.562 95.1885C264.332 100.001 252.797 98.5948 246.964 92.5504C240.742 86.1001 245.275 78.7947 240.323 63.5605C238.23 57.1247 233.422 51.1528 225.367 38.0784Z" fill="url(#paint4_linear_363_3619)"/>
<path d="M88.7089 38.0784C99.2478 20.9744 107.448 13.7414 105.745 11.4222C104.113 9.20447 95.119 13.9588 93.2855 14.93C77.3038 23.395 67.4001 37.0638 61.1634 47.8335C54.508 59.3135 37.9922 86.622 45.5138 95.1885C49.7438 100.001 61.2789 98.5948 67.1114 92.5504C73.3337 86.1001 68.8005 78.7947 73.7523 63.5605C75.8457 57.1247 80.6531 51.1528 88.7089 38.0784Z" fill="url(#paint5_linear_363_3619)"/>
<path d="M163.795 6.45051L163.723 6.32006C163.723 6.32006 163.839 6.32006 163.882 6.32006C163.911 6.27658 163.94 6.23309 163.969 6.2041L164.026 6.32006C177.525 7.68259 186.736 12.9008 191.601 16.2346C194.517 18.2349 219.348 35.7303 215.855 56.9219C214.729 63.749 211.018 68.7933 208.131 71.8952C206.11 73.4606 198.401 79.1137 189.392 77.0554C181.842 75.3305 177.597 69.1556 174.666 64.7637C161.37 44.8476 162.843 16.8579 163.795 6.47951V6.45051Z" fill="url(#paint6_linear_363_3619)"/>
<path d="M147.409 6.45051L147.481 6.32006C147.481 6.32006 147.366 6.32006 147.323 6.32006C147.294 6.27658 147.265 6.23309 147.236 6.2041L147.178 6.32006C133.68 7.68259 124.469 12.9008 119.604 16.2346C116.687 18.2349 91.856 35.7303 95.3497 56.9219C96.4758 63.749 100.186 68.7933 103.073 71.8952C105.095 73.4606 112.804 79.1137 121.813 77.0554C129.363 75.3305 133.607 69.1556 136.538 64.7637C149.834 44.8476 148.362 16.8579 147.409 6.47951V6.45051Z" fill="url(#paint7_linear_363_3619)"/>
<path d="M77.2175 128.831C99.5947 121.105 115.331 100.943 117.034 78.0697C118.897 53.1239 103.262 35.9184 100.735 33.2079L76.178 128.106H76.2214L101.443 33.4108C97.9488 34.353 76.1636 40.5713 65.5958 62.9515C55.9087 83.4763 59.5612 109.335 74.9654 128.15" fill="url(#paint8_linear_363_3619)"/>
<path d="M242.518 128.831C220.141 121.105 204.405 100.943 202.701 78.0697C200.839 53.1239 216.474 35.9184 219.001 33.2079L243.558 128.106H243.515L218.293 33.4108C221.787 34.353 243.572 40.5713 254.14 62.9515C263.827 83.4763 260.175 109.335 244.771 128.15" fill="url(#paint9_linear_363_3619)"/>
<path d="M258.731 57.0813C263.712 64.0678 270.425 75.6348 272.417 90.898C279.621 146.211 217.875 197.827 207.697 190.971C201.186 186.594 210.945 155.053 218.914 137.296C227.389 118.409 235.372 111.684 247.167 86.3031C252.769 74.2433 256.479 63.9084 258.731 57.0668V57.0813Z" fill="url(#paint10_linear_363_3619)"/>
<path d="M56.2691 57.0808C51.2884 64.5312 44.5753 76.8809 42.583 93.1587C35.379 152.168 97.1255 207.234 107.303 199.928C113.815 195.261 104.055 161.604 96.0861 142.673C87.6116 122.525 79.628 115.35 67.8331 88.2739C62.2316 75.4169 58.5213 64.3863 56.2691 57.0808Z" fill="url(#paint11_linear_363_3619)"/>
<path d="M153.662 143.964C155.524 143.573 183.243 137.093 192.656 108.625C198.012 92.42 194.677 77.4612 193.608 73.2866C189.999 59.1541 182.492 50.776 176.977 44.6156C168.344 34.9765 159.48 29.7873 153.849 27.0623H153.965C148.334 29.7873 139.47 34.9765 130.837 44.6156C125.322 50.7615 117.815 59.1541 114.206 73.2866C113.137 77.4612 109.802 92.42 115.158 108.625C124.571 137.093 152.29 143.558 154.153 143.964" fill="url(#paint12_linear_363_3619)"/>
<path d="M102.8 62.9372C104.547 63.9229 132.959 80.679 135.153 115.728C136.611 138.833 126.13 161.097 107.795 173.983L102.8 62.9227V62.9372Z" fill="url(#paint13_linear_363_3619)"/>
<path d="M103.363 62.7635C101.703 63.9231 74.8789 83.3753 75.7451 118.482C76.3082 141.63 88.6806 162.779 108.069 173.824L103.377 62.749L103.363 62.7635Z" fill="url(#paint14_linear_363_3619)"/>
<path d="M210.05 58.342C208.274 59.2697 179.357 75.0257 176.066 109.988C173.886 133.02 183.659 155.647 201.59 169.17L210.05 58.342Z" fill="url(#paint15_linear_363_3619)"/>
<path d="M209.488 58.168C211.105 59.3855 237.308 79.7509 235.359 114.829C234.074 137.934 221.052 158.647 201.331 169.011L209.488 58.168Z" fill="url(#paint16_linear_363_3619)"/>
<path d="M155.725 214.54C157.746 214.105 187.847 207.075 198.068 176.171C203.887 158.575 200.263 142.34 199.108 137.803C195.196 122.453 187.039 113.35 181.047 106.668C171.663 96.2029 162.048 90.5644 155.927 87.6074H156.057C149.936 90.5644 140.321 96.2029 130.937 106.668C124.946 113.35 116.789 122.453 112.876 137.803C111.721 142.34 108.098 158.575 113.916 176.171C124.137 207.075 154.238 214.105 156.259 214.54" fill="url(#paint17_linear_363_3619)"/>
<path d="M78.6461 118.308C73.5643 125.222 64.9166 139.311 66.4614 156.212C70.1717 196.899 134.445 217.743 139.137 211.047C139.656 210.307 139.397 209.336 131.716 195.348C122.13 177.911 117.337 169.185 113.858 163.721C102.149 145.37 89.4882 130.049 78.6461 118.308Z" fill="url(#paint18_linear_363_3619)"/>
<path d="M230.306 116.829C235.388 123.744 244.036 137.833 242.491 154.734C238.781 195.421 174.508 216.265 169.816 209.568C169.296 208.829 169.556 207.858 177.236 193.87C186.822 176.433 191.615 167.707 195.095 162.242C206.803 143.892 219.464 128.57 230.306 116.829Z" fill="url(#paint19_linear_363_3619)"/>
<path d="M235.358 191.218C228.66 192.421 228.833 194.87 217.081 200.697C201.23 208.568 187.428 210.829 180.874 211.844C174.998 212.757 167.014 213.569 157.443 213.279C147.799 213.511 139.743 212.641 133.838 211.67C127.313 210.612 113.569 208.264 97.7894 200.277C86.0955 194.363 86.2832 191.913 79.6133 190.667C64.2092 187.768 47.9966 197.871 48.704 201.712C48.8339 202.393 49.6135 203.538 59.6904 204.727C74.8347 206.51 89.6614 205.829 97.3707 205.176C95.4073 205.655 93.1118 206.481 90.9174 207.843C89.3438 208.829 86.6008 210.641 86.7019 212.583C86.7885 214.091 88.6942 216.787 102.207 219.338C103.506 219.584 111.086 220.787 119.921 219.396C124.382 218.686 126.605 218.338 129.045 217.236C131.716 216.033 132.77 214.946 134.632 215.221C136.899 215.54 137.289 217.396 140.407 219.976C143.02 222.135 145.402 223.034 149.315 224.513C151.321 225.281 153.978 226.107 157.154 226.701V226.745C157.154 226.745 157.241 226.73 157.284 226.716C157.313 226.716 157.341 226.716 157.385 226.73V226.701C160.575 226.136 163.232 225.31 165.253 224.57C169.165 223.121 171.576 222.237 174.204 220.092C177.351 217.526 177.741 215.685 180.022 215.381C181.899 215.134 182.938 216.207 185.609 217.439C188.063 218.57 190.286 218.932 194.747 219.671C203.612 221.135 211.22 219.976 212.519 219.729C226.09 217.28 228.01 214.598 228.111 213.091C228.241 211.148 225.498 209.307 223.924 208.322C221.716 206.93 219.435 206.104 217.471 205.611C225.195 206.321 240.05 207.104 255.238 205.423C265.344 204.307 266.152 203.161 266.282 202.48C267.004 198.639 250.82 188.435 235.358 191.218Z" fill="url(#paint20_linear_363_3619)"/>
<path d="M247.745 158.502C246.359 157.792 243.559 162.547 236.874 170.084C231.966 175.621 232.211 174.476 218.583 187.739C210.498 195.595 205.763 200.538 204.94 199.828C203.814 198.856 212.996 189.623 212.173 177.201C211.927 173.563 210.671 167.489 207.683 166.75C206.21 166.388 204.334 167.301 194.632 179.491C191.008 184.043 189.204 186.304 186.316 190.261C178.448 201.074 175.056 207.104 173.901 206.524C173.193 206.162 174.334 203.785 174.305 199.871C174.276 193.479 171.201 188.753 167.996 183.796C165.989 180.709 162.611 176.244 157.298 171.954V171.736C157.298 171.736 157.212 171.809 157.168 171.838C157.168 171.838 157.139 171.823 157.125 171.809V171.867C151.957 176.331 148.723 180.912 146.817 184.057C143.756 189.116 140.84 193.943 140.985 200.32C141.071 204.234 142.269 206.568 141.577 206.945C140.45 207.568 136.899 201.639 128.742 191.087C125.754 187.231 123.891 185.014 120.152 180.593C110.118 168.721 108.227 167.866 106.769 168.272C103.824 169.113 102.741 175.23 102.597 178.868C102.135 191.319 111.548 200.248 110.45 201.248C109.656 201.987 104.777 197.204 96.5045 189.609C82.5296 176.795 82.8184 177.926 77.7655 172.548C70.8935 165.228 67.9628 160.561 66.6057 161.329C65.1043 162.155 66.649 168.895 68.3381 173.49C75.0513 191.754 93.0108 200.668 100.475 204.379C114.695 211.438 127.414 212.873 136.423 213.815C145.056 214.714 152.346 214.554 157.601 214.207V214.265C162.9 214.467 170.392 214.409 179.257 213.192C188.265 211.96 200.97 210.104 215.017 202.596C222.394 198.639 240.137 189.145 246.33 170.678C247.89 166.025 249.247 159.242 247.716 158.459L247.745 158.502Z" fill="url(#paint21_linear_363_3619)"/>
<defs>
<linearGradient id="paint0_linear_363_3619" x1="155.999" y1="163.242" x2="156.086" y2="208.263" gradientUnits="userSpaceOnUse">
<stop offset="0.01" stop-color="#4A874E"/>
<stop offset="0.25" stop-color="#5B9462"/>
<stop offset="0.62" stop-color="#6AA275"/>
<stop offset="1" stop-color="#6DA479"/>
</linearGradient>
<linearGradient id="paint1_linear_363_3619" x1="157.4" y1="13.7412" x2="157.575" y2="99.3918" gradientUnits="userSpaceOnUse">
<stop offset="0.01" stop-color="#6977B9"/>
<stop offset="0.25" stop-color="#958FC4"/>
<stop offset="0.62" stop-color="#BDA7CF"/>
<stop offset="1" stop-color="#F3C2C7"/>
</linearGradient>
<linearGradient id="paint2_linear_363_3619" x1="200.173" y1="15.7846" x2="232.496" y2="64.8906" gradientUnits="userSpaceOnUse">
<stop offset="0.01" stop-color="#6977B9"/>
<stop offset="0.25" stop-color="#958FC4"/>
<stop offset="0.62" stop-color="#BDA7CF"/>
<stop offset="1" stop-color="#F3C2C7"/>
</linearGradient>
<linearGradient id="paint3_linear_363_3619" x1="115.215" y1="15.7897" x2="82.8914" y2="64.8956" gradientUnits="userSpaceOnUse">
<stop offset="0.01" stop-color="#6977B9"/>
<stop offset="0.25" stop-color="#958FC4"/>
<stop offset="0.62" stop-color="#BDA7CF"/>
<stop offset="1" stop-color="#F3C2C7"/>
</linearGradient>
<linearGradient id="paint4_linear_363_3619" x1="229.9" y1="27.3811" x2="255.302" y2="80.8756" gradientUnits="userSpaceOnUse">
<stop offset="0.01" stop-color="#6977B9"/>
<stop offset="0.25" stop-color="#958FC4"/>
<stop offset="0.62" stop-color="#BDA7CF"/>
<stop offset="1" stop-color="#F3C2C7"/>
</linearGradient>
<linearGradient id="paint5_linear_363_3619" x1="84.1614" y1="27.3811" x2="58.7597" y2="80.8756" gradientUnits="userSpaceOnUse">
<stop offset="0.01" stop-color="#6977B9"/>
<stop offset="0.25" stop-color="#958FC4"/>
<stop offset="0.62" stop-color="#BDA7CF"/>
<stop offset="1" stop-color="#F3C2C7"/>
</linearGradient>
<linearGradient id="paint6_linear_363_3619" x1="176.035" y1="20.5826" x2="198.636" y2="60.5477" gradientUnits="userSpaceOnUse">
<stop offset="0.01" stop-color="#6977B9"/>
<stop offset="0.25" stop-color="#958FC4"/>
<stop offset="0.62" stop-color="#BDA7CF"/>
<stop offset="1" stop-color="#F3C2C7"/>
</linearGradient>
<linearGradient id="paint7_linear_363_3619" x1="135.157" y1="20.6852" x2="112.57" y2="60.6514" gradientUnits="userSpaceOnUse">
<stop offset="0.01" stop-color="#6977B9"/>
<stop offset="0.25" stop-color="#958FC4"/>
<stop offset="0.62" stop-color="#BDA7CF"/>
<stop offset="1" stop-color="#F3C2C7"/>
</linearGradient>
<linearGradient id="paint8_linear_363_3619" x1="97.2364" y1="47.837" x2="80.4185" y2="111.33" gradientUnits="userSpaceOnUse">
<stop offset="0.01" stop-color="#6977B9"/>
<stop offset="0.25" stop-color="#958FC4"/>
<stop offset="0.62" stop-color="#BDA7CF"/>
<stop offset="1" stop-color="#F3C2C7"/>
</linearGradient>
<linearGradient id="paint9_linear_363_3619" x1="222.508" y1="47.7823" x2="239.318" y2="111.264" gradientUnits="userSpaceOnUse">
<stop offset="0.01" stop-color="#6977B9"/>
<stop offset="0.25" stop-color="#958FC4"/>
<stop offset="0.62" stop-color="#BDA7CF"/>
<stop offset="1" stop-color="#F3C2C7"/>
</linearGradient>
<linearGradient id="paint10_linear_363_3619" x1="239.429" y1="73.4171" x2="239.225" y2="175.534" gradientUnits="userSpaceOnUse">
<stop offset="0.01" stop-color="#6977B9"/>
<stop offset="0.25" stop-color="#958FC4"/>
<stop offset="0.62" stop-color="#BDA7CF"/>
<stop offset="1" stop-color="#F3C2C7"/>
</linearGradient>
<linearGradient id="paint11_linear_363_3619" x1="75.5568" y1="74.5182" x2="75.7751" y2="183.448" gradientUnits="userSpaceOnUse">
<stop offset="0.01" stop-color="#6977B9"/>
<stop offset="0.25" stop-color="#958FC4"/>
<stop offset="0.62" stop-color="#BDA7CF"/>
<stop offset="1" stop-color="#F3C2C7"/>
</linearGradient>
<linearGradient id="paint12_linear_363_3619" x1="153.82" y1="41.2963" x2="153.995" y2="129.962" gradientUnits="userSpaceOnUse">
<stop offset="0.01" stop-color="#6977B9"/>
<stop offset="0.25" stop-color="#958FC4"/>
<stop offset="0.62" stop-color="#BDA7CF"/>
<stop offset="1" stop-color="#F3C2C7"/>
</linearGradient>
<linearGradient id="paint13_linear_363_3619" x1="118.505" y1="85.0561" x2="122.232" y2="159.013" gradientUnits="userSpaceOnUse">
<stop offset="0.01" stop-color="#6977B9"/>
<stop offset="0.25" stop-color="#958FC4"/>
<stop offset="0.62" stop-color="#BDA7CF"/>
<stop offset="1" stop-color="#F3C2C7"/>
</linearGradient>
<linearGradient id="paint14_linear_363_3619" x1="89.3718" y1="86.1933" x2="92.5082" y2="160.192" gradientUnits="userSpaceOnUse">
<stop offset="0.01" stop-color="#6977B9"/>
<stop offset="0.25" stop-color="#958FC4"/>
<stop offset="0.62" stop-color="#BDA7CF"/>
<stop offset="1" stop-color="#F3C2C7"/>
</linearGradient>
<linearGradient id="paint15_linear_363_3619" x1="193.762" y1="79.95" x2="187.59" y2="153.727" gradientUnits="userSpaceOnUse">
<stop offset="0.01" stop-color="#6977B9"/>
<stop offset="0.25" stop-color="#958FC4"/>
<stop offset="0.62" stop-color="#BDA7CF"/>
<stop offset="1" stop-color="#F3C2C7"/>
</linearGradient>
<linearGradient id="paint16_linear_363_3619" x1="222.766" y1="82.0463" x2="217.183" y2="155.885" gradientUnits="userSpaceOnUse">
<stop offset="0.01" stop-color="#6977B9"/>
<stop offset="0.25" stop-color="#958FC4"/>
<stop offset="0.62" stop-color="#BDA7CF"/>
<stop offset="1" stop-color="#F3C2C7"/>
</linearGradient>
<linearGradient id="paint17_linear_363_3619" x1="155.884" y1="103.059" x2="156.073" y2="199.349" gradientUnits="userSpaceOnUse">
<stop offset="0.01" stop-color="#6977B9"/>
<stop offset="0.25" stop-color="#958FC4"/>
<stop offset="0.62" stop-color="#BDA7CF"/>
<stop offset="1" stop-color="#F3C2C7"/>
</linearGradient>
<linearGradient id="paint18_linear_363_3619" x1="102.684" y1="129.701" x2="102.829" y2="201.074" gradientUnits="userSpaceOnUse">
<stop offset="0.01" stop-color="#6977B9"/>
<stop offset="0.25" stop-color="#958FC4"/>
<stop offset="0.62" stop-color="#BDA7CF"/>
<stop offset="1" stop-color="#F3C2C7"/>
</linearGradient>
<linearGradient id="paint19_linear_363_3619" x1="206.269" y1="128.237" x2="206.123" y2="199.61" gradientUnits="userSpaceOnUse">
<stop offset="0.01" stop-color="#6977B9"/>
<stop offset="0.25" stop-color="#958FC4"/>
<stop offset="0.62" stop-color="#BDA7CF"/>
<stop offset="1" stop-color="#F3C2C7"/>
</linearGradient>
<linearGradient id="paint20_linear_363_3619" x1="157.471" y1="190" x2="157.544" y2="226.774" gradientUnits="userSpaceOnUse">
<stop offset="0.01" stop-color="#4A874E"/>
<stop offset="0.25" stop-color="#5B9462"/>
<stop offset="0.62" stop-color="#6AA275"/>
<stop offset="1" stop-color="#6DA479"/>
</linearGradient>
<linearGradient id="paint21_linear_363_3619" x1="157.226" y1="165.417" x2="157.313" y2="207.829" gradientUnits="userSpaceOnUse">
<stop offset="0.01" stop-color="#4A874E"/>
<stop offset="0.25" stop-color="#5B9462"/>
<stop offset="0.62" stop-color="#6AA275"/>
<stop offset="1" stop-color="#6DA479"/>
</linearGradient>
</defs>
</svg>
