<svg width="317" height="812" viewBox="0 0 317 812" fill="none" xmlns="http://www.w3.org/2000/svg">
<path d="M5.00001 288C2.23858 288 0 290.239 0 293V806.761C0 809.522 2.23858 811.761 5 811.761H311.133C313.894 811.761 316.133 809.522 316.133 806.761V293C316.133 290.239 313.894 288 311.133 288H5.00001ZM157.36 344.069C150.021 344.069 144.043 337.965 144.043 330.423C144.043 322.882 149.995 316.778 157.36 316.778C164.725 316.778 170.677 322.882 170.677 330.423C170.677 337.965 164.725 344.069 157.36 344.069Z" fill="#FBEDD0"/>
<path d="M160.477 317.104C159.914 316.902 159.148 316.7 158.239 316.642C156.766 316.556 155.597 316.916 154.89 317.191C154.991 284.838 155.092 252.471 155.193 220.118H160.145C160.26 252.456 160.361 284.78 160.477 317.119V317.104Z" fill="#744A21"/>
<path d="M252.105 155.893C250.633 155.139 247.659 160.183 240.57 168.185C235.359 174.07 235.619 172.852 221.138 186.927C212.563 195.276 207.524 200.508 206.658 199.755C205.46 198.725 215.205 188.927 214.339 175.722C214.079 171.852 212.736 165.416 209.574 164.619C208.015 164.227 206.023 165.213 195.715 178.157C191.875 182.984 189.94 185.39 186.894 189.594C178.535 201.074 174.94 207.48 173.713 206.857C172.962 206.48 174.161 203.958 174.146 199.798C174.117 193.014 170.855 187.985 167.448 182.738C165.325 179.462 161.731 174.707 156.1 170.156V169.924C156.1 169.924 156.014 169.996 155.97 170.04C155.97 170.04 155.941 170.025 155.927 170.011V170.083C150.441 174.823 147.005 179.679 144.984 183.027C141.735 188.391 138.632 193.522 138.805 200.305C138.906 204.451 140.176 206.944 139.44 207.35C138.242 208.017 134.474 201.726 125.812 190.521C122.65 186.434 120.658 184.071 116.687 179.375C106.033 166.779 104.026 165.851 102.482 166.3C99.3488 167.199 98.1938 173.678 98.0495 177.548C97.5586 190.768 107.549 200.247 106.394 201.32C105.557 202.103 100.374 197.03 91.5817 188.956C76.755 175.345 77.0438 176.563 71.6732 170.852C64.3682 163.082 61.2643 158.125 59.8206 158.937C58.2325 159.821 59.8639 166.967 61.6685 171.852C68.7859 191.246 87.857 200.711 95.7829 204.654C110.869 212.148 124.382 213.684 133.954 214.67C143.121 215.627 150.86 215.453 156.432 215.09V215.148C162.063 215.351 170.017 215.293 179.43 214.018C188.987 212.713 202.486 210.742 217.399 202.755C225.238 198.566 244.079 188.478 250.647 168.866C252.308 163.923 253.737 156.719 252.12 155.893H252.105Z" fill="url(#paint0_linear_363_3649)"/>
<path d="M157.24 112.916C178.347 113.046 191.687 90.6224 196.234 77.5769C201.951 61.1687 198.27 46.4998 197.187 42.2383C193.232 26.7142 184.353 17.2345 180.556 13.5673C171.735 5.05874 162.51 1.50747 157.515 0C152.534 1.49298 143.265 5.02975 134.416 13.5673C130.662 17.1765 121.827 26.6852 117.784 42.2383C116.658 46.5867 113.049 61.1976 118.737 77.5769C119.286 79.1714 131.485 112.756 157.24 112.916Z" fill="url(#paint1_linear_363_3649)"/>
<path d="M197.086 26.9897C184.41 11.5816 175.344 5.62416 176.73 3.08755C178.058 0.652399 187.572 4.04422 189.535 4.75447C206.47 10.7989 218.063 22.9021 225.642 32.6427C233.741 43.0501 253.649 67.677 247.341 77.2582C243.789 82.6503 232.167 82.9257 225.599 77.809C218.582 72.3299 222.119 64.4447 215.233 50.0657C212.317 43.9923 206.773 38.7886 197.086 27.0187V26.9897Z" fill="url(#paint2_linear_363_3649)"/>
<path d="M118.276 26.9897C130.951 11.5816 140.018 5.62416 138.632 3.08755C137.304 0.652399 127.79 4.04422 125.826 4.75447C108.892 10.7989 97.2991 22.9021 89.7198 32.6427C81.6207 43.0501 61.7122 67.677 68.0211 77.2582C71.5726 82.6503 83.1943 82.9257 89.7631 77.809C96.7794 72.3299 93.2424 64.4447 100.129 50.0657C103.045 43.9923 108.589 38.7886 118.276 27.0187V26.9897Z" fill="url(#paint3_linear_363_3649)"/>
<path d="M225.353 38.0784C214.814 20.9744 206.614 13.7414 208.318 11.4222C209.949 9.20447 218.943 13.9588 220.777 14.93C236.758 23.395 246.662 37.0638 252.899 47.8335C259.554 59.3135 276.07 86.622 268.548 95.1885C264.318 100.001 252.783 98.5948 246.951 92.5504C240.728 86.1002 245.262 78.7947 240.31 63.5605C238.216 57.1248 233.409 51.1528 225.353 38.0784Z" fill="url(#paint4_linear_363_3649)"/>
<path d="M88.6933 38.0784C99.2322 20.9744 107.432 13.7414 105.729 11.4222C104.098 9.20447 95.1033 13.9588 93.2698 14.93C77.2882 23.395 67.3845 37.0638 61.1478 47.8335C54.4923 59.3135 37.9766 86.622 45.4982 95.1885C49.7282 100.001 61.2632 98.5948 67.0957 92.5504C73.318 86.1002 68.7849 78.7947 73.7367 63.5605C75.8301 57.1248 80.6375 51.1528 88.6933 38.0784Z" fill="url(#paint5_linear_363_3649)"/>
<path d="M163.782 6.45051L163.71 6.32006C163.71 6.32006 163.825 6.32006 163.868 6.32006C163.897 6.27658 163.926 6.23309 163.955 6.2041L164.013 6.32006C177.511 7.68259 186.722 12.9008 191.587 16.2346C194.503 18.2349 219.335 35.7303 215.841 56.9219C214.715 63.749 211.005 68.7933 208.117 71.8952C206.096 73.4606 198.387 79.1137 189.378 77.0554C181.828 75.3305 177.583 69.1556 174.653 64.7637C161.356 44.8476 162.829 16.8579 163.782 6.47951V6.45051Z" fill="url(#paint6_linear_363_3649)"/>
<path d="M147.395 6.45051L147.468 6.32006C147.468 6.32006 147.352 6.32006 147.309 6.32006C147.28 6.27658 147.251 6.23309 147.222 6.2041L147.164 6.32006C133.666 7.68259 124.455 12.9008 119.59 16.2346C116.674 18.2349 91.8423 35.7303 95.3361 56.9219C96.4621 63.749 100.172 68.7933 103.06 71.8952C105.081 73.4606 112.79 79.1137 121.799 77.0554C129.349 75.3305 133.594 69.1556 136.525 64.7637C149.821 44.8476 148.348 16.8579 147.395 6.47951V6.45051Z" fill="url(#paint7_linear_363_3649)"/>
<path d="M77.2176 128.831C99.5948 121.105 115.331 100.943 117.034 78.0696C118.897 53.1238 103.262 35.9183 100.735 33.2078L76.1781 128.106H76.2214L101.443 33.4107C97.9489 34.3529 76.1637 40.5712 65.5959 62.9514C55.9087 83.4762 59.5612 109.335 74.9654 128.15" fill="url(#paint8_linear_363_3649)"/>
<path d="M242.518 128.831C220.141 121.105 204.405 100.943 202.701 78.0696C200.839 53.1238 216.474 35.9183 219.001 33.2078L243.558 128.106H243.515L218.293 33.4107C221.787 34.3529 243.572 40.5712 254.14 62.9514C263.827 83.4762 260.175 109.335 244.771 128.15" fill="url(#paint9_linear_363_3649)"/>
<path d="M258.731 57.0811C263.712 64.0677 270.425 75.6347 272.417 90.8979C279.621 146.211 217.875 197.827 207.697 190.971C201.186 186.593 210.945 155.052 218.914 137.296C227.389 118.409 235.372 111.684 247.167 86.3029C252.769 74.2431 256.479 63.9083 258.731 57.0667V57.0811Z" fill="url(#paint10_linear_363_3649)"/>
<path d="M56.2692 57.0807C51.2884 64.5311 44.5753 76.8808 42.583 93.1586C35.379 152.168 97.1256 207.234 107.304 199.928C113.815 195.261 104.055 161.604 96.0861 142.673C87.6116 122.525 79.6281 115.35 67.8331 88.2738C62.2316 75.4168 58.5213 64.3861 56.2692 57.0807Z" fill="url(#paint11_linear_363_3649)"/>
<path d="M153.662 143.964C155.524 143.573 183.243 137.093 192.656 108.625C198.012 92.4198 194.677 77.4611 193.609 73.2865C189.999 59.1539 182.492 50.7759 176.977 44.6155C168.344 34.9764 159.48 29.7872 153.849 27.0621H153.965C148.334 29.7872 139.47 34.9764 130.837 44.6155C125.322 50.7614 117.815 59.1539 114.206 73.2865C113.137 77.4611 109.802 92.4198 115.159 108.625C124.571 137.093 152.29 143.558 154.153 143.964" fill="url(#paint12_linear_363_3649)"/>
<path d="M102.784 62.9371C104.531 63.9228 132.943 80.6789 135.137 115.728C136.595 138.833 126.114 161.097 107.779 173.983L102.784 62.9226V62.9371Z" fill="url(#paint13_linear_363_3649)"/>
<path d="M103.347 62.7629C101.687 63.9225 74.8633 83.3747 75.7295 118.481C76.2926 141.63 88.6649 162.778 108.054 173.823L103.362 62.7484L103.347 62.7629Z" fill="url(#paint14_linear_363_3649)"/>
<path d="M210.037 58.3416C208.261 59.2692 179.344 75.0252 176.052 109.987C173.872 133.02 183.646 155.646 201.576 169.17L210.037 58.3416Z" fill="url(#paint15_linear_363_3649)"/>
<path d="M209.489 58.1678C211.106 59.3854 237.309 79.7508 235.36 114.829C234.075 137.934 221.053 158.647 201.332 169.011L209.489 58.1678Z" fill="url(#paint16_linear_363_3649)"/>
<path d="M155.711 214.54C157.733 214.105 187.834 207.075 198.055 176.171C203.873 158.575 200.249 142.34 199.094 137.803C195.182 122.453 187.025 113.35 181.034 106.668C171.65 96.2028 162.035 90.5643 155.914 87.6073H156.043C149.922 90.5643 140.307 96.2028 130.923 106.668C124.932 113.35 116.775 122.453 112.863 137.803C111.708 142.34 108.084 158.575 113.902 176.171C124.124 207.075 154.224 214.105 156.246 214.54" fill="url(#paint17_linear_363_3649)"/>
<path d="M78.6461 118.308C73.5643 125.222 64.9166 139.311 66.4614 156.212C70.1717 196.899 134.445 217.743 139.137 211.046C139.656 210.307 139.397 209.336 131.716 195.348C122.13 177.911 117.337 169.185 113.858 163.72C102.149 145.37 89.4882 130.049 78.6461 118.308Z" fill="url(#paint18_linear_363_3649)"/>
<path d="M230.306 116.829C235.388 123.744 244.036 137.833 242.491 154.734C238.781 195.421 174.508 216.265 169.816 209.568C169.296 208.829 169.556 207.858 177.236 193.87C186.822 176.433 191.615 167.707 195.095 162.242C206.803 143.892 219.464 128.57 230.306 116.829Z" fill="url(#paint19_linear_363_3649)"/>
<path d="M235.358 191.218C228.66 192.421 228.833 194.87 217.081 200.697C201.23 208.568 187.428 210.829 180.874 211.844C174.998 212.757 167.014 213.569 157.443 213.279C147.799 213.511 139.743 212.641 133.838 211.67C127.313 210.612 113.569 208.264 97.7894 200.277C86.0955 194.363 86.2832 191.913 79.6133 190.667C64.2092 187.768 47.9966 197.871 48.704 201.712C48.8339 202.393 49.6135 203.538 59.6904 204.727C74.8347 206.51 89.6614 205.829 97.3707 205.176C95.4073 205.655 93.1118 206.481 90.9174 207.843C89.3438 208.829 86.6008 210.641 86.7018 212.583C86.7885 214.091 88.6942 216.787 102.207 219.338C103.506 219.584 111.086 220.787 119.921 219.396C124.382 218.686 126.605 218.338 129.045 217.236C131.716 216.033 132.77 214.946 134.632 215.221C136.899 215.54 137.289 217.396 140.407 219.976C143.02 222.135 145.402 223.034 149.315 224.513C151.321 225.281 153.978 226.107 157.154 226.701V226.745C157.154 226.745 157.241 226.73 157.284 226.716C157.313 226.716 157.342 226.716 157.385 226.73V226.701C160.575 226.136 163.232 225.31 165.253 224.571C169.165 223.121 171.576 222.237 174.204 220.092C177.351 217.526 177.741 215.685 180.022 215.381C181.899 215.134 182.938 216.207 185.609 217.439C188.063 218.57 190.287 218.932 194.748 219.671C203.612 221.135 211.22 219.976 212.519 219.729C226.09 217.28 228.01 214.598 228.111 213.091C228.241 211.148 225.498 209.307 223.925 208.322C221.716 206.93 219.435 206.104 217.471 205.611C225.195 206.321 240.05 207.104 255.238 205.423C265.344 204.307 266.152 203.161 266.282 202.48C267.004 198.639 250.82 188.435 235.358 191.218Z" fill="url(#paint20_linear_363_3649)"/>
<path d="M247.744 158.502C246.358 157.792 243.558 162.547 236.873 170.084C231.965 175.621 232.21 174.476 218.582 187.739C210.497 195.595 205.762 200.538 204.939 199.828C203.813 198.856 212.995 189.623 212.172 177.201C211.926 173.563 210.67 167.489 207.682 166.75C206.209 166.388 204.333 167.301 194.631 179.491C191.007 184.043 189.203 186.304 186.315 190.261C178.447 201.074 175.055 207.104 173.9 206.524C173.192 206.162 174.333 203.785 174.304 199.871C174.275 193.479 171.2 188.753 167.995 183.796C165.988 180.709 162.61 176.244 157.297 171.954V171.736C157.297 171.736 157.211 171.809 157.167 171.838C157.167 171.838 157.138 171.823 157.124 171.809V171.867C151.956 176.331 148.722 180.912 146.816 184.057C143.755 189.116 140.839 193.943 140.984 200.32C141.07 204.234 142.268 206.568 141.575 206.945C140.449 207.568 136.898 201.639 128.741 191.087C125.753 187.231 123.89 185.014 120.151 180.593C110.117 168.721 108.226 167.866 106.768 168.272C103.823 169.113 102.74 175.23 102.596 178.868C102.134 191.319 111.547 200.248 110.45 201.248C109.656 201.987 104.776 197.204 96.5035 189.609C82.5286 176.795 82.8173 177.926 77.7644 172.548C70.8925 165.228 67.9618 160.561 66.6047 161.329C65.1033 162.155 66.648 168.895 68.3371 173.49C75.0503 191.754 93.0098 200.668 100.474 204.379C114.694 211.438 127.413 212.873 136.421 213.815C145.055 214.714 152.345 214.554 157.6 214.207V214.265C162.899 214.467 170.392 214.409 179.256 213.192C188.264 211.96 200.969 210.104 215.016 202.596C222.393 198.639 240.136 189.145 246.33 170.678C247.889 166.025 249.246 159.242 247.715 158.459L247.744 158.502Z" fill="url(#paint21_linear_363_3649)"/>
<defs>
<linearGradient id="paint0_linear_363_3649" x1="155.985" y1="-105.813" x2="156.087" y2="208.263" gradientUnits="userSpaceOnUse">
<stop offset="0.01" stop-color="#4A874E"/>
<stop offset="0.25" stop-color="#5B9462"/>
<stop offset="0.62" stop-color="#6AA275"/>
<stop offset="1" stop-color="#6DA479"/>
</linearGradient>
<linearGradient id="paint1_linear_363_3649" x1="157.399" y1="13.7412" x2="157.574" y2="99.3918" gradientUnits="userSpaceOnUse">
<stop offset="0.01" stop-color="#EDAA28"/>
<stop offset="0.36" stop-color="#F0C23C"/>
<stop offset="0.64" stop-color="#EED348"/>
<stop offset="0.93" stop-color="#F2DE54"/>
</linearGradient>
<linearGradient id="paint2_linear_363_3649" x1="200.163" y1="15.7903" x2="232.487" y2="64.8962" gradientUnits="userSpaceOnUse">
<stop offset="0.01" stop-color="#EDAA28"/>
<stop offset="0.36" stop-color="#F0C23C"/>
<stop offset="0.64" stop-color="#EED348"/>
<stop offset="0.93" stop-color="#F2DE54"/>
</linearGradient>
<linearGradient id="paint3_linear_363_3649" x1="115.208" y1="15.7841" x2="82.8843" y2="64.89" gradientUnits="userSpaceOnUse">
<stop offset="0.01" stop-color="#EDAA28"/>
<stop offset="0.36" stop-color="#F0C23C"/>
<stop offset="0.64" stop-color="#EED348"/>
<stop offset="0.93" stop-color="#F2DE54"/>
</linearGradient>
<linearGradient id="paint4_linear_363_3649" x1="229.901" y1="27.3811" x2="255.302" y2="80.8756" gradientUnits="userSpaceOnUse">
<stop offset="0.01" stop-color="#EDAA28"/>
<stop offset="0.36" stop-color="#F0C23C"/>
<stop offset="0.64" stop-color="#EED348"/>
<stop offset="0.93" stop-color="#F2DE54"/>
</linearGradient>
<linearGradient id="paint5_linear_363_3649" x1="84.1457" y1="27.3811" x2="58.7441" y2="80.8756" gradientUnits="userSpaceOnUse">
<stop offset="0.01" stop-color="#EDAA28"/>
<stop offset="0.36" stop-color="#F0C23C"/>
<stop offset="0.64" stop-color="#EED348"/>
<stop offset="0.93" stop-color="#F2DE54"/>
</linearGradient>
<linearGradient id="paint6_linear_363_3649" x1="176.029" y1="20.6645" x2="198.629" y2="60.6297" gradientUnits="userSpaceOnUse">
<stop offset="0.01" stop-color="#EDAA28"/>
<stop offset="0.36" stop-color="#F0C23C"/>
<stop offset="0.64" stop-color="#EED348"/>
<stop offset="0.93" stop-color="#F2DE54"/>
</linearGradient>
<linearGradient id="paint7_linear_363_3649" x1="135.15" y1="20.6033" x2="112.564" y2="60.5695" gradientUnits="userSpaceOnUse">
<stop offset="0.01" stop-color="#EDAA28"/>
<stop offset="0.36" stop-color="#F0C23C"/>
<stop offset="0.64" stop-color="#EED348"/>
<stop offset="0.93" stop-color="#F2DE54"/>
</linearGradient>
<linearGradient id="paint8_linear_363_3649" x1="97.2207" y1="47.766" x2="80.4107" y2="111.247" gradientUnits="userSpaceOnUse">
<stop offset="0.01" stop-color="#EDAA28"/>
<stop offset="0.36" stop-color="#F0C23C"/>
<stop offset="0.64" stop-color="#EED348"/>
<stop offset="0.93" stop-color="#F2DE54"/>
</linearGradient>
<linearGradient id="paint9_linear_363_3649" x1="222.492" y1="47.8531" x2="239.31" y2="111.347" gradientUnits="userSpaceOnUse">
<stop offset="0.01" stop-color="#EDAA28"/>
<stop offset="0.36" stop-color="#F0C23C"/>
<stop offset="0.64" stop-color="#EED348"/>
<stop offset="0.93" stop-color="#F2DE54"/>
</linearGradient>
<linearGradient id="paint10_linear_363_3649" x1="239.429" y1="73.4169" x2="239.211" y2="175.534" gradientUnits="userSpaceOnUse">
<stop offset="0.01" stop-color="#EDAA28"/>
<stop offset="0.36" stop-color="#F0C23C"/>
<stop offset="0.64" stop-color="#EED348"/>
<stop offset="0.93" stop-color="#F2DE54"/>
</linearGradient>
<linearGradient id="paint11_linear_363_3649" x1="75.5569" y1="74.5181" x2="75.7752" y2="183.448" gradientUnits="userSpaceOnUse">
<stop offset="0.01" stop-color="#EDAA28"/>
<stop offset="0.36" stop-color="#F0C23C"/>
<stop offset="0.64" stop-color="#EED348"/>
<stop offset="0.93" stop-color="#F2DE54"/>
</linearGradient>
<linearGradient id="paint12_linear_363_3649" x1="153.806" y1="41.2962" x2="153.995" y2="129.962" gradientUnits="userSpaceOnUse">
<stop offset="0.01" stop-color="#EDAA28"/>
<stop offset="0.36" stop-color="#F0C23C"/>
<stop offset="0.64" stop-color="#EED348"/>
<stop offset="0.93" stop-color="#F2DE54"/>
</linearGradient>
<linearGradient id="paint13_linear_363_3649" x1="118.494" y1="85.1094" x2="122.22" y2="159.066" gradientUnits="userSpaceOnUse">
<stop offset="0.01" stop-color="#EDAA28"/>
<stop offset="0.36" stop-color="#F0C23C"/>
<stop offset="0.64" stop-color="#EED348"/>
<stop offset="0.93" stop-color="#F2DE54"/>
</linearGradient>
<linearGradient id="paint14_linear_363_3649" x1="89.3596" y1="86.2199" x2="92.495" y2="160.204" gradientUnits="userSpaceOnUse">
<stop offset="0.01" stop-color="#EDAA28"/>
<stop offset="0.36" stop-color="#F0C23C"/>
<stop offset="0.64" stop-color="#EED348"/>
<stop offset="0.93" stop-color="#F2DE54"/>
</linearGradient>
<linearGradient id="paint15_linear_363_3649" x1="193.746" y1="79.8818" x2="187.574" y2="153.659" gradientUnits="userSpaceOnUse">
<stop offset="0.01" stop-color="#EDAA28"/>
<stop offset="0.36" stop-color="#F0C23C"/>
<stop offset="0.64" stop-color="#EED348"/>
<stop offset="0.93" stop-color="#F2DE54"/>
</linearGradient>
<linearGradient id="paint16_linear_363_3649" x1="222.757" y1="82.0203" x2="217.174" y2="155.859" gradientUnits="userSpaceOnUse">
<stop offset="0.01" stop-color="#EDAA28"/>
<stop offset="0.36" stop-color="#F0C23C"/>
<stop offset="0.64" stop-color="#EED348"/>
<stop offset="0.93" stop-color="#F2DE54"/>
</linearGradient>
<linearGradient id="paint17_linear_363_3649" x1="155.87" y1="103.059" x2="156.074" y2="199.349" gradientUnits="userSpaceOnUse">
<stop offset="0.01" stop-color="#EDAA28"/>
<stop offset="0.36" stop-color="#F0C23C"/>
<stop offset="0.64" stop-color="#EED348"/>
<stop offset="0.93" stop-color="#F2DE54"/>
</linearGradient>
<linearGradient id="paint18_linear_363_3649" x1="102.669" y1="129.701" x2="102.815" y2="201.074" gradientUnits="userSpaceOnUse">
<stop offset="0.01" stop-color="#EDAA28"/>
<stop offset="0.36" stop-color="#F0C23C"/>
<stop offset="0.64" stop-color="#EED348"/>
<stop offset="0.93" stop-color="#F2DE54"/>
</linearGradient>
<linearGradient id="paint19_linear_363_3649" x1="206.269" y1="128.237" x2="206.123" y2="199.61" gradientUnits="userSpaceOnUse">
<stop offset="0.01" stop-color="#EDAA28"/>
<stop offset="0.36" stop-color="#F0C23C"/>
<stop offset="0.64" stop-color="#EED348"/>
<stop offset="0.93" stop-color="#F2DE54"/>
</linearGradient>
<linearGradient id="paint20_linear_363_3649" x1="157.457" y1="190" x2="157.53" y2="226.774" gradientUnits="userSpaceOnUse">
<stop offset="0.01" stop-color="#4A874E"/>
<stop offset="0.25" stop-color="#5B9462"/>
<stop offset="0.62" stop-color="#6AA275"/>
<stop offset="1" stop-color="#6DA479"/>
</linearGradient>
<linearGradient id="paint21_linear_363_3649" x1="157.225" y1="165.417" x2="157.312" y2="207.829" gradientUnits="userSpaceOnUse">
<stop offset="0.01" stop-color="#4A874E"/>
<stop offset="0.25" stop-color="#5B9462"/>
<stop offset="0.62" stop-color="#6AA275"/>
<stop offset="1" stop-color="#6DA479"/>
</linearGradient>
</defs>
</svg>
