<svg width="317" height="812" viewBox="0 0 317 812" fill="none" xmlns="http://www.w3.org/2000/svg">
<path d="M5.00001 288C2.23858 288 0 290.239 0 293V806.761C0 809.522 2.23858 811.761 5 811.761H311.133C313.894 811.761 316.133 809.522 316.133 806.761V293C316.133 290.239 313.894 288 311.133 288H5.00001ZM157.36 344.069C150.021 344.069 144.043 337.965 144.043 330.423C144.043 322.882 149.995 316.778 157.36 316.778C164.725 316.778 170.677 322.882 170.677 330.423C170.677 337.965 164.725 344.069 157.36 344.069Z" fill="#FBEDD0"/>
<path d="M160.477 317.104C159.914 316.902 159.148 316.7 158.239 316.642C156.766 316.556 155.597 316.916 154.89 317.191C154.991 284.838 155.092 252.471 155.193 220.118H160.145C160.26 252.456 160.361 284.78 160.477 317.119V317.104Z" fill="#744A21"/>
<path d="M157.373 112.463C178.48 112.592 191.819 90.2587 196.367 77.2656C202.084 60.9231 198.402 46.313 197.32 42.0686C193.364 26.6068 184.485 17.1651 180.688 13.5126C171.868 5.0382 162.642 1.50118 157.647 -0.000244141C152.667 1.48675 143.398 5.00933 134.548 13.5126C130.795 17.1074 121.959 26.5779 117.917 42.0686C116.791 46.3997 113.182 60.952 118.87 77.2656C119.419 78.8536 131.618 112.304 157.373 112.463Z" fill="url(#paint0_linear_363_3586)"/>
<path d="M197.218 26.8811C184.543 11.5348 175.477 5.60124 176.863 3.07479C178.191 0.649409 187.705 4.02763 189.668 4.73503C206.602 10.7552 218.195 22.8099 225.774 32.5114C233.874 42.8771 253.782 67.4052 247.473 76.948C243.921 82.3185 232.3 82.5928 225.731 77.4966C218.715 72.0394 222.252 64.1858 215.366 49.8645C212.449 43.8155 206.906 38.6327 197.218 26.91V26.8811Z" fill="url(#paint1_linear_363_3586)"/>
<path d="M118.407 26.8811C131.083 11.5348 140.149 5.60124 138.763 3.07479C137.435 0.649409 127.921 4.02763 125.958 4.73503C109.024 10.7552 97.4308 22.8099 89.8514 32.5114C81.7524 42.8771 61.8441 67.4052 68.1529 76.948C71.7044 82.3185 83.326 82.5928 89.8948 77.4966C96.9111 72.0394 93.374 64.1858 100.26 49.8645C103.177 43.8155 108.72 38.6327 118.407 26.91V26.8811Z" fill="url(#paint2_linear_363_3586)"/>
<path d="M225.486 37.9252C214.947 20.8898 206.747 13.6858 208.45 11.3759C210.082 9.16708 219.076 13.9024 220.909 14.8696C236.891 23.3007 246.795 36.9146 253.031 47.6412C259.687 59.0751 276.202 86.2741 268.681 94.8062C264.451 99.5993 252.916 98.1989 247.083 92.1788C240.861 85.7544 245.394 78.4782 240.442 63.3051C238.349 56.8952 233.542 50.9472 225.486 37.9252Z" fill="url(#paint3_linear_363_3586)"/>
<path d="M88.827 37.9252C99.3658 20.8898 107.566 13.6858 105.862 11.3759C104.231 9.16708 95.2369 13.9024 93.4034 14.8696C77.4218 23.3007 67.5182 36.9146 61.2815 47.6412C54.6261 59.0751 38.1104 86.2741 45.6319 94.8062C49.8619 99.5993 61.397 98.1989 67.2294 92.1788C73.4517 85.7544 68.9185 78.4782 73.8703 63.3051C75.9637 56.8952 80.7712 50.9472 88.827 37.9252Z" fill="url(#paint4_linear_363_3586)"/>
<path d="M163.913 6.42462L163.84 6.2947C163.84 6.2947 163.956 6.2947 163.999 6.2947C164.028 6.25139 164.057 6.20807 164.086 6.1792L164.144 6.2947C177.642 7.65176 186.853 12.849 191.718 16.1695C194.634 18.1618 219.465 35.587 215.972 56.6936C214.846 63.4933 211.135 68.5174 208.248 71.6068C206.227 73.166 198.518 78.7964 189.509 76.7464C181.959 75.0284 177.714 68.8783 174.783 64.5039C161.487 44.6677 162.96 16.7903 163.913 6.4535V6.42462Z" fill="url(#paint5_linear_363_3586)"/>
<path d="M147.527 6.42462L147.599 6.2947C147.599 6.2947 147.484 6.2947 147.44 6.2947C147.412 6.25139 147.383 6.20807 147.354 6.1792L147.296 6.2947C133.798 7.65176 124.587 12.849 119.722 16.1695C116.805 18.1618 91.9742 35.587 95.4679 56.6936C96.594 63.4933 100.304 68.5174 103.192 71.6068C105.213 73.166 112.922 78.7964 121.931 76.7464C129.481 75.0284 133.725 68.8783 136.656 64.5039C149.952 44.6677 148.48 16.7903 147.527 6.4535V6.42462Z" fill="url(#paint6_linear_363_3586)"/>
<path d="M77.3503 128.314C99.7273 120.619 115.463 100.537 117.167 77.7561C119.029 52.9104 103.394 35.7739 100.868 33.0742L76.3108 127.592H76.3541L101.575 33.2763C98.0815 34.2147 76.2964 40.4081 65.7286 62.6985C56.0415 83.1411 59.694 108.896 75.0981 127.635" fill="url(#paint7_linear_363_3586)"/>
<path d="M242.651 128.314C220.274 120.619 204.538 100.537 202.834 77.7561C200.972 52.9104 216.607 35.7739 219.134 33.0742L243.69 127.592H243.647L218.426 33.2763C221.92 34.2147 243.705 40.4081 254.273 62.6985C263.96 83.1411 260.307 108.896 244.903 127.635" fill="url(#paint8_linear_363_3586)"/>
<path d="M258.864 56.8516C263.844 63.8101 270.557 75.3307 272.55 90.5327C279.754 145.624 218.007 197.033 207.829 190.204C201.318 185.845 211.078 154.43 219.047 136.745C227.521 117.934 235.505 111.235 247.3 85.9562C252.901 73.9448 256.611 63.6513 258.864 56.8372V56.8516Z" fill="url(#paint9_linear_363_3586)"/>
<path d="M56.4019 56.8521C51.4212 64.2726 44.7081 76.5727 42.7158 92.7853C35.5118 151.558 97.258 206.403 107.436 199.127C113.947 194.478 104.188 160.956 96.2186 142.101C87.7442 122.034 79.7606 114.888 67.9658 87.9201C62.3643 75.1146 58.654 64.1282 56.4019 56.8521Z" fill="url(#paint10_linear_363_3586)"/>
<path d="M153.792 143.387C155.655 142.997 183.373 136.543 192.786 108.19C198.142 92.0492 194.807 77.1504 193.739 72.9926C190.13 58.9167 182.623 50.5722 177.108 44.4366C168.475 34.8361 159.61 29.6677 153.98 26.9536H154.095C148.465 29.6677 139.601 34.8361 130.968 44.4366C125.453 50.5578 117.946 58.9167 114.337 72.9926C113.268 77.1504 109.933 92.0492 115.289 108.19C124.702 136.543 152.421 142.982 154.283 143.387" fill="url(#paint11_linear_363_3586)"/>
<path d="M102.917 62.6841C104.664 63.6658 133.075 80.3548 135.27 115.263C136.728 138.275 126.247 160.45 107.912 173.285L102.917 62.6697V62.6841Z" fill="url(#paint12_linear_363_3586)"/>
<path d="M103.48 62.5109C101.82 63.6658 74.9961 83.0401 75.8623 118.006C76.4254 141.062 88.7977 162.125 108.186 173.126L103.494 62.4965L103.48 62.5109Z" fill="url(#paint13_linear_363_3586)"/>
<path d="M210.168 58.1075C208.392 59.0315 179.476 74.7243 176.184 109.546C174.004 132.486 183.778 155.022 201.708 168.491L210.168 58.1075Z" fill="url(#paint14_linear_363_3586)"/>
<path d="M209.62 57.9341C211.237 59.1468 237.439 79.4305 235.49 114.368C234.206 137.38 221.184 158.01 201.463 168.332L209.62 57.9341Z" fill="url(#paint15_linear_363_3586)"/>
<path d="M155.843 213.679C157.864 213.246 187.965 206.244 198.186 175.465C204.004 157.938 200.381 141.769 199.226 137.251C195.313 121.962 187.156 112.896 181.165 106.24C171.781 95.8169 162.166 90.201 156.045 87.2559H156.175C150.054 90.201 140.439 95.8169 131.055 106.24C125.064 112.896 116.907 121.962 112.995 137.251C111.84 141.769 108.216 157.938 114.034 175.465C124.255 206.244 154.356 213.246 156.377 213.679" fill="url(#paint16_linear_363_3586)"/>
<path d="M78.7789 117.833C73.6971 124.719 65.0495 138.752 66.5942 155.585C70.3045 196.109 134.577 216.87 139.269 210.2C139.789 209.463 139.529 208.496 131.849 194.565C122.263 177.197 117.47 168.506 113.99 163.064C102.282 144.787 89.6209 129.527 78.7789 117.833Z" fill="url(#paint17_linear_363_3586)"/>
<path d="M230.438 116.36C235.52 123.247 244.167 137.279 242.622 154.112C238.912 194.637 174.64 215.397 169.948 208.727C169.428 207.991 169.688 207.023 177.368 193.092C186.954 175.724 191.747 167.033 195.226 161.591C206.935 143.314 219.596 128.054 230.438 116.36Z" fill="url(#paint18_linear_363_3586)"/>
<path d="M252.236 155.268C250.764 154.517 247.79 159.541 240.701 167.51C235.49 173.371 235.749 172.159 221.269 186.177C212.694 194.492 207.655 199.704 206.789 198.953C205.591 197.928 215.336 188.169 214.47 175.017C214.21 171.163 212.867 164.753 209.705 163.959C208.146 163.569 206.154 164.55 195.846 177.443C192.006 182.25 190.071 184.647 187.025 188.833C178.666 200.267 175.071 206.648 173.844 206.027C173.094 205.652 174.292 203.14 174.278 198.997C174.249 192.24 170.986 187.231 167.579 182.005C165.457 178.742 161.862 174.007 156.232 169.473V169.242C156.232 169.242 156.145 169.315 156.102 169.358C156.102 169.358 156.073 169.343 156.058 169.329V169.401C150.572 174.122 147.136 178.958 145.115 182.293C141.867 187.635 138.763 192.746 138.936 199.502C139.037 203.631 140.308 206.114 139.571 206.518C138.373 207.182 134.605 200.917 125.943 189.757C122.781 185.686 120.789 183.333 116.819 178.655C106.165 166.11 104.158 165.186 102.613 165.633C99.4804 166.528 98.3254 172.982 98.1811 176.836C97.6902 190.003 107.681 199.444 106.526 200.513C105.688 201.292 100.505 196.239 91.7134 188.198C76.8868 174.642 77.1755 175.854 71.805 170.166C64.5 162.428 61.3961 157.491 59.9524 158.299C58.3644 159.18 59.9957 166.297 61.8003 171.163C68.9176 190.479 87.9887 199.906 95.9145 203.833C111.001 211.297 124.514 212.827 134.085 213.809C143.253 214.762 150.991 214.588 156.564 214.228V214.285C162.194 214.487 170.149 214.43 179.561 213.159C189.119 211.86 202.617 209.896 217.53 201.942C225.369 197.77 244.209 187.722 250.778 168.189C252.438 163.266 253.868 156.09 252.251 155.268H252.236Z" fill="url(#paint19_linear_363_3586)"/>
<path d="M235.49 190.45C228.792 191.648 228.965 194.088 217.213 199.891C201.362 207.73 187.56 209.983 181.006 210.993C175.13 211.903 167.146 212.711 157.575 212.422C147.931 212.653 139.875 211.787 133.971 210.82C127.445 209.766 113.701 207.427 97.922 199.473C86.2281 193.582 86.4158 191.143 79.746 189.901C64.3419 187.014 48.1294 197.076 48.8368 200.902C48.9667 201.58 49.7463 202.721 59.8232 203.905C74.9674 205.68 89.7941 205.002 97.5033 204.352C95.5399 204.829 93.2444 205.652 91.05 207.009C89.4764 207.99 86.7334 209.795 86.8345 211.729C86.9211 213.231 88.8268 215.916 102.34 218.457C103.639 218.702 111.218 219.901 120.054 218.515C124.515 217.807 126.738 217.461 129.178 216.364C131.849 215.165 132.902 214.083 134.765 214.357C137.031 214.675 137.421 216.522 140.539 219.092C143.153 221.243 145.535 222.138 149.447 223.611C151.454 224.376 154.11 225.199 157.286 225.791V225.834C157.286 225.834 157.373 225.82 157.416 225.805C157.445 225.805 157.474 225.805 157.517 225.82V225.791C160.708 225.228 163.364 224.405 165.385 223.669C169.298 222.225 171.708 221.344 174.336 219.208C177.483 216.652 177.873 214.819 180.154 214.516C182.031 214.27 183.07 215.339 185.741 216.566C188.195 217.692 190.419 218.053 194.88 218.789C203.744 220.247 211.352 219.092 212.651 218.847C226.222 216.407 228.142 213.736 228.243 212.235C228.373 210.3 225.63 208.467 224.056 207.485C221.848 206.099 219.567 205.276 217.603 204.785C225.327 205.493 240.182 206.272 255.37 204.598C265.476 203.486 266.284 202.346 266.414 201.667C267.136 197.841 250.952 187.678 235.49 190.45Z" fill="url(#paint20_linear_363_3586)"/>
<path d="M247.878 157.866C246.492 157.158 243.691 161.894 237.007 169.401C232.099 174.916 232.344 173.775 218.716 186.985C210.631 194.81 205.896 199.733 205.073 199.025C203.947 198.058 213.129 188.862 212.306 176.489C212.06 172.866 210.804 166.817 207.816 166.08C206.343 165.719 204.467 166.629 194.765 178.77C191.141 183.304 189.337 185.556 186.45 189.497C178.581 200.267 175.189 206.272 174.034 205.695C173.326 205.334 174.467 202.966 174.438 199.069C174.409 192.702 171.334 187.995 168.129 183.058C166.122 179.983 162.744 175.537 157.431 171.263V171.047C157.431 171.047 157.345 171.119 157.302 171.148C157.302 171.148 157.273 171.133 157.258 171.119V171.177C152.09 175.623 148.856 180.185 146.95 183.318C143.89 188.356 140.974 193.164 141.118 199.516C141.205 203.414 142.403 205.738 141.71 206.114C140.584 206.734 137.032 200.83 128.875 190.32C125.887 186.48 124.025 184.271 120.286 179.868C110.252 168.044 108.361 167.192 106.903 167.596C103.958 168.434 102.875 174.526 102.73 178.15C102.268 190.551 111.681 199.444 110.584 200.44C109.79 201.176 104.91 196.412 96.6381 188.847C82.6632 176.085 82.952 177.211 77.8991 171.855C71.0272 164.565 68.0966 159.916 66.7395 160.681C65.2381 161.504 66.7827 168.217 68.4718 172.794C75.185 190.984 93.1444 199.863 100.608 203.558C114.828 210.589 127.547 212.018 136.556 212.957C145.189 213.852 152.48 213.693 157.735 213.347V213.404C163.033 213.606 170.526 213.549 179.39 212.336C188.398 211.109 201.103 209.261 215.15 201.783C222.527 197.841 240.27 188.385 246.463 169.993C248.023 165.359 249.38 158.602 247.849 157.823L247.878 157.866Z" fill="url(#paint21_linear_363_3586)"/>
<defs>
<linearGradient id="paint0_linear_363_3586" x1="157.532" y1="13.6859" x2="157.705" y2="98.993" gradientUnits="userSpaceOnUse">
<stop offset="0.01" stop-color="#4EA0CF"/>
<stop offset="0.25" stop-color="#5DB2CC"/>
<stop offset="0.62" stop-color="#80C9B7"/>
<stop offset="1" stop-color="#A8D4A4"/>
</linearGradient>
<linearGradient id="paint1_linear_363_3586" x1="200.303" y1="15.7266" x2="232.446" y2="64.754" gradientUnits="userSpaceOnUse">
<stop offset="0.01" stop-color="#4EA0CF"/>
<stop offset="0.25" stop-color="#5DB2CC"/>
<stop offset="0.62" stop-color="#80C9B7"/>
<stop offset="1" stop-color="#A8D4A4"/>
</linearGradient>
<linearGradient id="paint2_linear_363_3586" x1="115.332" y1="15.7184" x2="83.1894" y2="64.7459" gradientUnits="userSpaceOnUse">
<stop offset="0.01" stop-color="#4EA0CF"/>
<stop offset="0.25" stop-color="#5DB2CC"/>
<stop offset="0.62" stop-color="#80C9B7"/>
<stop offset="1" stop-color="#A8D4A4"/>
</linearGradient>
<linearGradient id="paint3_linear_363_3586" x1="230.033" y1="27.2708" x2="255.269" y2="80.6293" gradientUnits="userSpaceOnUse">
<stop offset="0.01" stop-color="#4EA0CF"/>
<stop offset="0.25" stop-color="#5DB2CC"/>
<stop offset="0.62" stop-color="#80C9B7"/>
<stop offset="1" stop-color="#A8D4A4"/>
</linearGradient>
<linearGradient id="paint4_linear_363_3586" x1="84.2793" y1="27.2708" x2="59.0582" y2="80.6293" gradientUnits="userSpaceOnUse">
<stop offset="0.01" stop-color="#4EA0CF"/>
<stop offset="0.25" stop-color="#5DB2CC"/>
<stop offset="0.62" stop-color="#80C9B7"/>
<stop offset="1" stop-color="#A8D4A4"/>
</linearGradient>
<linearGradient id="paint5_linear_363_3586" x1="176.174" y1="20.5325" x2="198.623" y2="60.4156" gradientUnits="userSpaceOnUse">
<stop offset="0.01" stop-color="#4EA0CF"/>
<stop offset="0.25" stop-color="#5DB2CC"/>
<stop offset="0.62" stop-color="#80C9B7"/>
<stop offset="1" stop-color="#A8D4A4"/>
</linearGradient>
<linearGradient id="paint6_linear_363_3586" x1="135.282" y1="20.5687" x2="112.833" y2="60.4519" gradientUnits="userSpaceOnUse">
<stop offset="0.01" stop-color="#4EA0CF"/>
<stop offset="0.25" stop-color="#5DB2CC"/>
<stop offset="0.62" stop-color="#80C9B7"/>
<stop offset="1" stop-color="#A8D4A4"/>
</linearGradient>
<linearGradient id="paint7_linear_363_3586" x1="97.3545" y1="47.6222" x2="80.6823" y2="110.89" gradientUnits="userSpaceOnUse">
<stop offset="0.01" stop-color="#4EA0CF"/>
<stop offset="0.25" stop-color="#5DB2CC"/>
<stop offset="0.62" stop-color="#80C9B7"/>
<stop offset="1" stop-color="#A8D4A4"/>
</linearGradient>
<linearGradient id="paint8_linear_363_3586" x1="222.626" y1="47.6126" x2="239.31" y2="110.872" gradientUnits="userSpaceOnUse">
<stop offset="0.01" stop-color="#4EA0CF"/>
<stop offset="0.25" stop-color="#5DB2CC"/>
<stop offset="0.62" stop-color="#80C9B7"/>
<stop offset="1" stop-color="#A8D4A4"/>
</linearGradient>
<linearGradient id="paint9_linear_363_3586" x1="239.562" y1="73.1219" x2="239.359" y2="174.829" gradientUnits="userSpaceOnUse">
<stop offset="0.01" stop-color="#4EA0CF"/>
<stop offset="0.25" stop-color="#5DB2CC"/>
<stop offset="0.62" stop-color="#80C9B7"/>
<stop offset="1" stop-color="#A8D4A4"/>
</linearGradient>
<linearGradient id="paint10_linear_363_3586" x1="75.6895" y1="74.2195" x2="75.906" y2="182.712" gradientUnits="userSpaceOnUse">
<stop offset="0.01" stop-color="#4EA0CF"/>
<stop offset="0.25" stop-color="#5DB2CC"/>
<stop offset="0.62" stop-color="#80C9B7"/>
<stop offset="1" stop-color="#A8D4A4"/>
</linearGradient>
<linearGradient id="paint11_linear_363_3586" x1="153.937" y1="41.1306" x2="154.124" y2="129.441" gradientUnits="userSpaceOnUse">
<stop offset="0.01" stop-color="#4EA0CF"/>
<stop offset="0.25" stop-color="#5DB2CC"/>
<stop offset="0.62" stop-color="#80C9B7"/>
<stop offset="1" stop-color="#A8D4A4"/>
</linearGradient>
<linearGradient id="paint12_linear_363_3586" x1="118.629" y1="84.7214" x2="122.326" y2="158.397" gradientUnits="userSpaceOnUse">
<stop offset="0.01" stop-color="#4EA0CF"/>
<stop offset="0.25" stop-color="#5DB2CC"/>
<stop offset="0.62" stop-color="#80C9B7"/>
<stop offset="1" stop-color="#A8D4A4"/>
</linearGradient>
<linearGradient id="paint13_linear_363_3586" x1="89.4971" y1="85.8556" x2="92.6084" y2="159.559" gradientUnits="userSpaceOnUse">
<stop offset="0.01" stop-color="#4EA0CF"/>
<stop offset="0.25" stop-color="#5DB2CC"/>
<stop offset="0.62" stop-color="#80C9B7"/>
<stop offset="1" stop-color="#A8D4A4"/>
</linearGradient>
<linearGradient id="paint14_linear_363_3586" x1="193.882" y1="79.602" x2="187.759" y2="153.087" gradientUnits="userSpaceOnUse">
<stop offset="0.01" stop-color="#4EA0CF"/>
<stop offset="0.25" stop-color="#5DB2CC"/>
<stop offset="0.62" stop-color="#80C9B7"/>
<stop offset="1" stop-color="#A8D4A4"/>
</linearGradient>
<linearGradient id="paint15_linear_363_3586" x1="222.892" y1="81.7187" x2="217.355" y2="155.25" gradientUnits="userSpaceOnUse">
<stop offset="0.01" stop-color="#4EA0CF"/>
<stop offset="0.25" stop-color="#5DB2CC"/>
<stop offset="0.62" stop-color="#80C9B7"/>
<stop offset="1" stop-color="#A8D4A4"/>
</linearGradient>
<linearGradient id="paint16_linear_363_3586" x1="156.016" y1="102.645" x2="156.204" y2="198.549" gradientUnits="userSpaceOnUse">
<stop offset="0.01" stop-color="#4EA0CF"/>
<stop offset="0.25" stop-color="#5DB2CC"/>
<stop offset="0.62" stop-color="#80C9B7"/>
<stop offset="1" stop-color="#A8D4A4"/>
</linearGradient>
<linearGradient id="paint17_linear_363_3586" x1="102.816" y1="129.18" x2="102.961" y2="200.267" gradientUnits="userSpaceOnUse">
<stop offset="0.01" stop-color="#4EA0CF"/>
<stop offset="0.25" stop-color="#5DB2CC"/>
<stop offset="0.62" stop-color="#80C9B7"/>
<stop offset="1" stop-color="#A8D4A4"/>
</linearGradient>
<linearGradient id="paint18_linear_363_3586" x1="206.401" y1="127.722" x2="206.256" y2="198.809" gradientUnits="userSpaceOnUse">
<stop offset="0.01" stop-color="#4EA0CF"/>
<stop offset="0.25" stop-color="#5DB2CC"/>
<stop offset="0.62" stop-color="#80C9B7"/>
<stop offset="1" stop-color="#A8D4A4"/>
</linearGradient>
<linearGradient id="paint19_linear_363_3586" x1="156.116" y1="162.587" x2="156.217" y2="207.428" gradientUnits="userSpaceOnUse">
<stop offset="0.01" stop-color="#4A874E"/>
<stop offset="0.25" stop-color="#5A9362"/>
<stop offset="0.62" stop-color="#6AA275"/>
<stop offset="1" stop-color="#6DA479"/>
</linearGradient>
<linearGradient id="paint20_linear_363_3586" x1="157.604" y1="189.237" x2="157.676" y2="225.863" gradientUnits="userSpaceOnUse">
<stop offset="0.01" stop-color="#4A874E"/>
<stop offset="0.25" stop-color="#5A9362"/>
<stop offset="0.62" stop-color="#6AA275"/>
<stop offset="1" stop-color="#6DA479"/>
</linearGradient>
<linearGradient id="paint21_linear_363_3586" x1="157.359" y1="164.752" x2="157.446" y2="206.994" gradientUnits="userSpaceOnUse">
<stop offset="0.01" stop-color="#4A874E"/>
<stop offset="0.25" stop-color="#5A9362"/>
<stop offset="0.62" stop-color="#6AA275"/>
<stop offset="1" stop-color="#6DA479"/>
</linearGradient>
</defs>
</svg>
